<svg version="1.2" xmlns="http://www.w3.org/2000/svg" xmlns:xlink="http://www.w3.org/1999/xlink" overflow="visible" preserveAspectRatio="none" viewBox="0 0 484 41" width="484" height="41"><g transform="translate(0, 0)"><defs><path id="path-16775994073535802" d="M484 17.578503609480627 C484 17.578503609480627 435.0725003948822 44.71212743822238 335.76496604011936 46.535623663272226 C167.11799083872873 46.53562366327222 132.71584267888173 -9.630496583855898e-15 8.40651005597061e-13 6.528116485678463 C8.40651005597061e-13 24.03368024615708 8.40651005597061e-13 46.9003229082822 8.40651005597061e-13 46.9003229082822 C8.40651005597061e-13 46.9003229082822 484 46.9003229082822 484 46.9003229082822 C484 46.9003229082822 484 17.578503609480627 484 17.578503609480627 Z" vector-effect="non-scaling-stroke"/></defs><g transform="translate(0, -5.900322908282272)"><path style="stroke-width: 0; stroke-linecap: butt; stroke-linejoin: miter; fill: rgb(255, 255, 255);" d="M484 17.578503609480627 C484 17.578503609480627 435.0725003948822 44.71212743822238 335.76496604011936 46.535623663272226 C167.11799083872873 46.53562366327222 132.71584267888173 -9.630496583855898e-15 8.40651005597061e-13 6.528116485678463 C8.40651005597061e-13 24.03368024615708 8.40651005597061e-13 46.9003229082822 8.40651005597061e-13 46.9003229082822 C8.40651005597061e-13 46.9003229082822 484 46.9003229082822 484 46.9003229082822 C484 46.9003229082822 484 17.578503609480627 484 17.578503609480627 Z" vector-effect="non-scaling-stroke"/></g></g></svg>