<svg xmlns="http://www.w3.org/2000/svg" viewBox="0 0 431 512"><path d="M56.3 436l16.7 51.9L89.5 436h23.7v74.5H95.2v-17.4l1.74-35.6l-18 53H67L48.9 458l1.74 35.7v17.4H32.7v-74.5L56.3 436L56.3 436zM188 475c0 7.27-1.33 13.7-4.1 19.4c-2.66 5.63-6.55 9.93-11.5 12.9c-5.02 3.07-10.6 4.51-17 4.51c-6.35 0-12-1.43-16.9-4.4s-8.7-7.07-11.5-12.5c-2.76-5.43-4.2-11.7-4.3-18.7V472c0-7.27 1.33-13.7 3.99-19.4s6.55-9.93 11.6-12.9c5.02-3.07 10.6-4.61 17.1-4.61c6.35 0 12 1.54 16.9 4.51s8.81 7.27 11.6 12.8s4.1 11.9 4.2 19v3.58H188zM169 472c0-7.37-1.23-13-3.69-16.9c-2.46-3.89-6.04-5.73-10.6-5.73c-9.01 0-13.8 6.76-14.3 20.3v5.53c0 7.27 1.23 12.9 3.69 16.9c2.46 3.89 6.04 5.94 10.9 5.94c4.51 0 8.09-1.95 10.5-5.84c2.46-3.89 3.69-9.42 3.79-16.7v-3.48H169zM259 511h-17.9l-26.4-46.4v46.4h-18v-74.5h18l26.4 46.4v-46.4h17.9V511zM328 450h-22.4v60.7h-18v-60.7h-22V436h62.4v13.9H328zM398 511h-17.9v-31.1h-26.5v31.1h-18v-74.5h18V466h26.5v-29.6h17.9V511zM397 191l15.8-64l-58.7-30l-21.3-62.4L267 41L215 0l-51.6 41l-65.6-6.55L76.5 96.8L17.9 127l15.8 64L.46 248l47.9 45.4l2.87 65.8l64.8 12.2L154 425l61-24.8l61.1 24.8l38-53.9l64.8-12.2l2.87-65.8l47.8-45.4L397 191zM158 296h-27.6v14.8h25.2v12h-.102h-25.2v25.8h-15.6v-64.7h43.3V296zM186 102l54-18.6h3.58v167h-38.8V127l-18.7 5.43V102zM216 348h-16.7l-11.4-22.9h-8.4v22.9H164V284h25.5c7.68 0 13.7 1.74 18 5.12s6.45 8.19 6.45 14.4c0 4.51-.922 8.19-2.76 11.2c-1.84 2.97-4.71 5.32-8.6 7.17l13.5 26.1V348zM268 296h-29.1V309h24.6v11.6h-24.6v15.5h29v12H224v-64.7h44.6V296zM319 296H290V309h24.6v11.6h-.102h-24.6v15.5h29v12h-44.5v-64.7h44.6V296zM190 296h-9.83V313h9.83c2.97 0 5.22-.819 6.66-2.36c1.54-1.54 2.25-3.69 2.25-6.55c0-2.76-.717-5.02-2.25-6.55C195 296 193 296 190 296z"/></svg>