<svg xmlns="http://www.w3.org/2000/svg" viewBox="0 0 490 512"><path d="M307 275c-5.39 9.08-17.7 11.6-26.7 4.79l-79.3-52.9c-5.59-2.99-8.88-9.18-8.88-15.8l-.699-112c0-11 9.58-19.9 19.9-19.9c11.7 0 20.6 8.88 20.6 19.9v102l70.5 46.9c.299 .2 .699 .399 .998 .699C312 255 314 267 307 275zM228 393c-5.29 .499-10.7 .699-16.1 .699c-48.5 0-94.1-18.9-128-53.2C49.3 306 30.4 260 30.4 212s18.9-94.1 53.2-128C118 48.8 164 29.9 212 29.9s94.1 18.9 128 53.2C375 117 394 163 394 212c0 13.7-1.5 27.1-4.39 40.2c9.98 1.1 19.9 3.19 29.2 6.29c3.29-15 5.09-30.4 5.09-46.4C424 94.7 329 0 212 0S.478 94.7 .478 212s94.7 212 212 212c6.19 0 12.3-.299 18.3-.798c-1.5-8.38-2.3-17.1-2.3-25.9C228 395 228 394 228 393zM374 512C310 512 258 460 258 396c0-3.09 .1-6.19 .399-9.28c2.3-28.9 15.3-55.7 36.6-75.5c21.5-19.9 49.3-30.8 78.6-30.8c1.4 0 3.19 0 4.99 .1c29.7 1.3 57.6 13.8 78.2 35.3c20.9 21.7 32.3 50.1 32.3 80.1C489 460 437 512 374 512zM374 311c-44.3 0-81.8 34.6-85.3 78.7c-.2 2.3-.299 4.59-.299 6.89c0 47.2 38.4 85.6 85.6 85.6s85.6-38.4 85.6-85.6c0-46.1-36-83.6-82.1-85.5l-.499 0C376 311 375 311 374 311zM341 358v-11.2h-2.2l-25.7 9.18v17.5l7.49-2.3v2.79v75.9h20.5V358zM425 356c-5.99-7.39-14.5-11.1-25.7-11.1c-11.3 0-19.8 3.79-25.7 11.2c-5.99 7.39-8.98 18.4-8.98 32.7V408c.1 13.9 3.19 24.5 9.08 31.8s14.5 11.1 25.7 11.1c11.4 0 20.1-3.79 25.8-11.4c5.89-7.59 8.78-18.5 8.78-32.6v-19C434 374 431 364 425 356zM413 411c-.1 8.08-1.3 14.1-3.49 18c-2.2 3.89-5.79 5.89-10.8 5.89c-5.09 0-8.68-2.1-11-6.09c-2.3-4.09-3.49-10.3-3.49-18.8v-25.1c.1-7.88 1.3-13.7 3.69-17.4c2.3-3.69 5.79-5.59 10.7-5.59c4.89 0 8.58 1.9 11 5.79c2.4 3.89 3.49 10.1 3.49 18.7v24.5H413z"/></svg>