<svg xmlns="http://www.w3.org/2000/svg" viewBox="0 0 489 512"><path d="M212 0C94.9 0 0 94.9 0 212s94.9 212 212 212c18.2 0 35.8-2.3 52.6-6.6c0-.8 0-1.6 0-2.4c0-70 57-127 127-127c6.1 0 12.1 .4 17.9 1.3c9.4-23.9 14.5-50 14.5-77.3C424 94.9 329 0 212 0zM307 276c-5.4 9.1-17.7 11.6-26.8 4.8l-79.5-53c-5.6-3-8.9-9.2-8.9-15.8l-.7-113c0-11 9.6-19.9 19.9-19.9c11.7 0 20.6 8.9 20.6 19.9v102l70.6 47c.3 .2 .7 .4 1 .7C312 256 314 268 307 276zM489 415c0 53.6-43.4 97-97 97c-53.6 0-97-43.4-97-97c0-2.6 .1-5.2 .3-7.8c4-49.9 45.7-89.2 96.7-89.2c1.3 0 2.7 0 4 .1C447 320 489 363 489 415zM354 370v-12.7h-2.5l-29.4 10.5v19.9l8.6-2.7v3.2v86.8h23.4V370zM451 369c-7.1-8.8-17.2-13.1-30.6-13.1s-23.5 4.5-30.6 13.3c-7.1 8.8-10.7 21.9-10.7 38.9v22.5c.2 16.5 3.8 29.1 10.9 37.9c7.1 8.8 17.2 13.2 30.6 13.2c13.5 0 23.8-4.5 30.8-13.5c7-9 10.5-22 10.5-38.9v-22.6C461 390 458 377 451 369zM437 433c-.1 9.6-1.5 16.7-4.1 21.4c-2.6 4.6-6.9 7-12.9 7c-6 0-10.3-2.5-13-7.3c-2.7-4.8-4.1-12.3-4.1-22.3v-29.8c.2-9.4 1.6-16.3 4.4-20.7c2.7-4.4 6.9-6.7 12.7-6.7c5.9 0 10.2 2.3 13 6.9s4.2 12 4.2 22.2v29.1H437z"/></svg>