<svg xmlns="http://www.w3.org/2000/svg" viewBox="0 0 489 512"><path d="M212 0C94.9 0 0 94.9 0 212s94.9 212 212 212c18.2 0 35.8-2.3 52.6-6.6c0-.8 0-1.6 0-2.4c0-70 57-127 127-127c6.1 0 12.1 .4 17.9 1.3c9.4-23.9 14.5-50 14.5-77.3C424 94.9 329 0 212 0zM307 276c-5.4 9.1-17.7 11.6-26.8 4.8l-79.5-53c-5.6-3-8.9-9.2-8.9-15.8l-.7-113c0-11 9.6-19.9 19.9-19.9c11.7 0 20.6 8.9 20.6 19.9v102l70.6 47c.3 .2 .7 .4 1 .7C312 256 314 268 307 276zM489 415c0 53.6-43.4 97-97 97s-97-43.4-97-97c0-2.6 .1-5.2 .3-7.8c4-49.9 45.7-89.2 96.7-89.2c1.3 0 2.7 0 4 .1C447 320 489 363 489 415zM354 370v-12.7h-2.5L322 367v19.9l8.6-2.7v3.2v86.8H354v-105H354zM461 475v-18.8h-50.6l26.7-28.2c7.4-8.1 12.5-15 15.5-21.1c3-6 4.5-11.9 4.5-17.7c0-10.6-3.4-18.8-10.1-24.6c-6.7-5.8-16.1-8.7-28.2-8.7c-7.9 0-15 1.7-21.3 5c-6.3 3.4-11.1 8.1-14.5 14c-3.4 6-5.1 12.5-5.1 19.7h23.4c0-6 1.5-10.8 4.5-14.4c3.1-3.6 7.2-5.5 12.5-5.5c5 0 8.7 1.4 11.3 4.5c2.6 3 4 7.1 4 12.4c0 3.8-1.3 7.8-3.8 12.1c-2.5 4.3-6.4 9.2-11.6 15l-38.1 40.6v16h80.9V475z"/></svg>