<svg xmlns="http://www.w3.org/2000/svg" viewBox="0 0 434 512"><path d="M24.1 436l16.7 51.9L57.3 436h23.7v74.5H62.9v-17.4l1.74-35.6l-18 53H34.7L16.7 458l1.74 35.7v17.4H.424V436H24.1zM155 475c0 7.27-1.33 13.7-4.1 19.4c-2.66 5.63-6.55 9.93-11.5 12.9c-5.02 3.07-10.6 4.51-17 4.51s-12-1.43-16.9-4.4s-8.7-7.07-11.5-12.5c-2.76-5.43-4.2-11.7-4.3-18.7V472c0-7.27 1.33-13.7 3.99-19.4c2.66-5.63 6.55-9.93 11.6-12.9c5.02-3.07 10.6-4.61 17.1-4.61c6.35 0 12 1.54 16.9 4.51c4.92 2.97 8.81 7.27 11.6 12.8c2.76 5.53 4.1 11.9 4.2 19V475zM137 472c0-7.37-1.23-13-3.69-16.9c-2.46-3.89-6.04-5.73-10.6-5.73c-9.01 0-13.8 6.76-14.3 20.3l0 5.53c0 7.27 1.23 12.9 3.69 16.9c2.46 3.89 6.04 5.94 10.9 5.94c4.51 0 8.09-1.95 10.5-5.84c2.46-3.89 3.69-9.42 3.79-16.7V472zM227 511h-17.9L183 464v46.4h-18V436H183l26.4 46.4V436h17.9V511zM295 450h-22.4v60.7h-18v-60.7h-22V436h62.4V450zM365 511h-17.9v-31.1H321v31.1h-18V436H321v29.6h26.5V436h17.9V511zM415 491c0-2.66-.922-4.71-2.76-6.14c-1.84-1.43-5.12-2.97-9.83-4.61s-8.5-3.07-11.5-4.61c-9.63-4.71-14.5-11.3-14.5-19.6c0-4.1 1.23-7.78 3.58-11c2.46-3.17 5.84-5.63 10.2-7.37c4.4-1.74 9.32-2.66 14.8-2.66c5.32 0 10.1 .922 14.4 2.87c4.3 1.95 7.58 4.61 9.93 8.19c2.36 3.58 3.58 7.58 3.58 12.1H415c0-3.07-.922-5.43-2.76-7.07c-1.84-1.64-4.4-2.56-7.58-2.56c-3.17 0-5.73 .717-7.58 2.15c-1.84 1.43-2.76 3.17-2.76 5.43c0 1.95 1.02 3.69 3.07 5.22c2.05 1.54 5.63 3.17 10.9 4.81c5.12 1.64 9.42 3.48 12.7 5.32c8.09 4.61 12.1 11.1 12.1 19.3c0 6.55-2.46 11.7-7.37 15.4s-11.7 5.63-20.3 5.63c-6.04 0-11.5-1.13-16.4-3.28c-4.92-2.15-8.6-5.12-11.1-8.91s-3.69-8.09-3.69-13h18c0 3.99 1.02 6.96 3.07 8.81c2.05 1.95 5.43 2.87 10 2.87c2.97 0 5.32-.614 7.07-1.95C414 495 415 493 415 491zM397 191l15.8-64l-58.7-30l-21.3-62.4L267 41L216 0l-51.6 41l-65.6-6.55L77.2 96.8l-58.7 30l15.8 64L1.14 248l47.9 45.3l2.87 65.8l64.8 12.2l38 53.9l61.1-24.8l61.1 24.8l38-53.9l64.8-12.2l2.87-65.8l47.9-45.3L397 191zM158 298h-27.6v14.8h25.2v12h-25.2v25.8H115v-64.7h43.3V298zM217 350h-16.7l-11.5-22.9h-8.4v22.9h-15.6v-64.7h25.5c7.68 0 13.7 1.74 18 5.12c4.3 3.38 6.45 8.19 6.45 14.4c0 4.51-.922 8.19-2.76 11.2c-1.84 2.97-4.71 5.32-8.6 7.17l13.5 26.1V350zM269 298h-29.1v13.6h24.6v11.6h-24.6v15.5h29v12h-44.5v-64.7h44.6V298zM275 251h-115v-24.9l52.8-55.6c13-14.8 19.6-26.6 19.6-35.3c0-7.07-1.54-12.5-4.61-16.2c-3.07-3.69-7.58-5.53-13.4-5.53c-5.84 0-10.5 2.46-14.1 7.37c-3.58 4.92-5.43 11.1-5.43 18.4h-38.2c0-10.1 2.56-19.4 7.58-28c5.02-8.5 12.1-15.3 21-20.1c8.91-4.81 18.9-7.27 30-7.27c17.7 0 31.4 4.1 41.1 12.3c9.63 8.19 14.4 20 14.4 35.3c0 6.45-1.23 12.8-3.58 18.9c-2.46 6.14-6.14 12.6-11.3 19.4c-5.12 6.76-13.3 15.8-24.6 27l-21.2 24.5h64.7V251zM320 298h-29.1v13.6h24.6v11.6h-24.6v15.5h29v12h-44.5v-64.7H320V298zM190 298h-9.83V315h9.83c2.97 0 5.22-.819 6.66-2.36c1.54-1.54 2.25-3.69 2.25-6.55c0-2.76-.717-5.02-2.25-6.55C195 298 193 298 190 298z"/></svg>