<svg xmlns="http://www.w3.org/2000/svg" viewBox="0 0 514 512"><path d="M393 165l-17.3-4.66 22.2-13c13.1-7.6 17.4-24.4 9.83-37.4-7.6-13.1-24.4-17.4-37.4-9.83l-21.6 12.3 4.56-17.3c2.94-10.9-3.65-22.2-13.9-25.1-11.8-2.94-22.2 3.65-26 14.6l-15.2 57.3-50.4 29.9v-60.3l40.7-41.9c7.91-8.11 7.81-21.1-.406-29.1-8.01-7.91-20.9-7.81-28.9 .203l-12.2 12.3 .811-25.2c0-15.1-12.3-27.4-27.4-27.4h-.71V0c-3.24 .608-5.98 2.53-7.81 5.27l-48.3 73.6-86.4-19.3c-6.59-1.52-13.1 2.64-14.5 9.23-.406 1.62-.406 3.35 0 5.07l17.9 86.1L6.09 207c-5.68 3.65-7.3 11.2-3.65 16.8 .912 1.42 2.13 2.64 3.55 3.55l73.6 48.3-19.5 85.8c-1.42 6.59 2.74 13.1 9.23 14.5 1.62 .406 3.35 .406 5.07 0l86.1-17.9 46.9 74.4c2.64 4.06 7.4 6.29 12.2 5.47v.811c15.1 0 27.4-12.3 27.4-27.4l.811-144 15.6 9.12c5.37-4.56 11.5-8.42 18.2-11.2l40.8-17-48.4-28.3 51.7-30.2 56.4 15.3c1.72 .507 3.55 .71 5.37 .71 11.4 0 20.5-9.12 20.6-20.5 0-9.33-6.18-17.4-15.2-19.9zm-243 81.9c12.1 29.8 40.5 46.7 70.2 46.8v25.8c-55.8 .101-101-45.1-101-101 0-41.2 24.9-78.3 63.1-93.7 12.1-4.87 24.9-7.4 37.9-7.3v25.3h.101c-9.73 0-19.4 1.93-28.4 5.58-38.4 15.5-57.8 58.6-41.8 98.3zm341 46l-84.6-35.3c-8.92-3.65-19.1-3.65-28 0l-84.5 35.3c-13.5 5.47-22.2 18.5-22.4 33v.203c0 66.1 26.2 111 48.1 137 23.1 27.6 53.7 47.7 72.9 47.7 19-.101 49.7-20.2 72.9-48 21.9-26.2 48-71.2 48-137v-.203c-.203-14.5-9.02-27.4-22.4-33zm-40.4 56.4c0 3.39-1.23 6.71-3.44 9.36l-58.4 68.2c-3.76 4.46-8.74 4.46-10.4 4.46h-.487c-3.83 0-7.44-1.5-10.2-4.23l-29.1-29.1-.172-.132c-2.69-2.2-4.16-5.8-4.16-10.1 0-7.94 6.46-14.4 14.4-14.4 3.83 0 7.44 1.5 10.2 4.23l18.2 18.2 48.2-56.4c2.76-3.18 6.71-5.01 10.9-5.01h.233c10.7 .608 14.2 10.3 14.2 14.9z"/></svg>