<svg xmlns="http://www.w3.org/2000/svg" viewBox="0 0 515 512"><path d="M329 245l-51.4-28.3 58-32 58.7 15.7c1.32 .305 2.64 .508 3.96 .508 6.7 0 12.9-4.47 14.7-11.3 2.13-8.13-2.64-16.5-10.8-18.7l-29.3-7.82 47.4-27.4c7.31-4.17 9.75-13.5 5.59-20.8-4.17-7.31-13.5-9.75-20.8-5.59l-47.4 27.4 7.82-29.3c2.13-8.13-2.64-16.5-10.8-18.7-8.13-2.13-16.5 2.64-18.7 10.8l-15.7 58.7-72.7 42V117l43-43c5.99-5.99 5.99-15.6 0-21.5-5.99-5.99-15.6-5.99-21.5 0l-21.4 21.4V15.2c0-8.43-6.81-15.2-15.2-15.2-3.76 0-7.11 1.32-9.75 3.56-1.02 0-62.2 80.7-62.2 80.7l-86.2-17.9c-.813-.203-1.63-.203-2.44-.203-.914 0-1.73 .102-2.64 .305-6.6 1.42-10.8 7.92-9.24 14.5l19.5 85.9L5.97 215c-1.42 .914-2.64 2.13-3.56 3.56-1.22 1.93-1.83 4.17-1.93 6.3 0 2.13 .61 4.37 1.93 6.3 .914 1.42 2.13 2.64 3.56 3.56l73.8 48.4-19.5 85.9c-1.42 6.6 2.74 13.1 9.24 14.5 .914 .203 1.73 .305 2.64 .305 .813 0 1.63-.102 2.44-.203l86.2-18s61.1 80.7 62.2 80.7c2.64 2.23 6.1 3.56 9.75 3.56 8.43 0 15.2-6.81 15.2-15.2V234l.203-.406 45.9 26.5 35.3-14.7zm-112 145c-1.24-1.64-2.51-3.3-3.8-5-2.58-3.38-5.23-6.88-7.93-10.4-1.35-1.78-2.71-3.57-4.08-5.36-2.74-3.6-5.52-7.24-8.29-10.9s-5.55-7.28-8.29-10.9c-5.79-7.72-14.8-12.1-24.3-12.1-2.03 0-4.17 .203-6.2 .61l-58.4 12.2 13.2-58.2c2.84-12.4-2.34-25.3-13-32.2l-50-32.8 49.9-32.7c6-3.94 10.3-9.72 12.3-16.2 .457-1.44 .813-2.93 1.06-4.43 .356-2.26 .467-4.57 .305-6.9-.112-1.55-.335-3.11-.691-4.65l-13.2-58.2 58.4 12.2c2.03 .406 4.17 .61 6.2 .61 9.45 0 18.5-4.37 24.3-12.1 5.43-7.21 11-14.6 16.5-21.8 5.49-7.21 10.9-14.3 15.9-20.7V126c-12.1 .203-24.2 2.74-35.4 7.31-38.2 15.4-63.3 52.6-63.2 93.9 0 2.58 .102 5.13 .295 7.66 .132 1.69 .295 3.36 .508 5.02 .315 2.49 .721 4.96 1.22 7.39 .325 1.63 .701 3.23 1.11 4.82 1.22 4.77 2.77 9.42 4.64 13.9 1.25 2.99 2.63 5.9 4.14 8.73 1.14 2.12 2.35 4.21 3.63 6.24 .853 1.35 1.74 2.68 2.65 3.99 .457 .65 .924 1.3 1.39 1.95 6.14 8.36 13.5 15.7 21.9 21.9 2.57 1.89 5.24 3.65 7.99 5.29 4.82 2.86 9.89 5.34 15.2 7.4 3.78 1.46 7.67 2.7 11.7 3.71 3.19 .803 6.43 1.45 9.73 1.95 1.65 .244 3.31 .457 4.99 .62 2.51 .254 5.05 .406 7.61 .467v62zm-.102-239v151c-28.7-1.02-56-18-67.7-46.9-16.1-39.8 3.35-83 41.9-98.5 4.11-1.68 8.35-2.97 12.7-3.89 2.15-.457 4.34-.823 6.52-1.09 2.19-.264 4.4-.437 6.6-.518zm-80.3 134c-.914-1.31-1.8-2.64-2.65-3.99 .853 1.35 1.74 2.68 2.65 3.99zm23.3 23.8c2.57 1.89 5.24 3.65 7.99 5.29-2.75-1.64-5.42-3.4-7.99-5.29zm23.2 12.7c-5.29-2.04-10.4-4.53-15.2-7.4 4.82 2.86 9.89 5.34 15.2 7.4zm11.7 3.71c3.19 .803 6.43 1.45 9.73 1.95-3.3-.498-6.54-1.15-9.73-1.95zm-74.3-77.9c.325 1.63 .701 3.23 1.11 4.82-.406-1.59-.772-3.2-1.11-4.82zm89 80.4c-1.68-.163-3.33-.376-4.99-.62 1.65 .244 3.31 .457 4.99 .62zm-90.7-92.9c.132 1.69 .295 3.36 .508 5.02-.213-1.67-.386-3.33-.508-5.02zm15.2 46.1c-1.28-2.03-2.49-4.1-3.63-6.24 1.14 2.12 2.35 4.21 3.63 6.24zm-12.4-28.9c1.22 4.77 2.77 9.42 4.64 13.9-1.87-4.48-3.42-9.12-4.64-13.9zm16.5 34.8c6.14 8.36 13.5 15.7 21.9 21.9-8.37-6.13-15.8-13.5-21.9-21.9zm72.4-135c-2.19 .264-4.37 .63-6.52 1.09 2.15-.457 4.34-.823 6.52-1.09zm-101 13c.163 2.33 .061 4.63-.305 6.9 .356-2.26 .467-4.57 .305-6.9zm-1.36 11.3c.457-1.44 .813-2.93 1.06-4.43-.244 1.5-.589 2.99-1.06 4.43zm105 209c-2.58-3.38-5.23-6.88-7.93-10.4 2.7 3.55 5.36 7.04 7.93 10.4zm-12-15.8c-2.74-3.6-5.52-7.24-8.29-10.9 2.77 3.65 5.55 7.28 8.29 10.9zm-.173-289c-5.49 7.21-11.1 14.6-16.5 21.8 5.43-7.21 11-14.6 16.5-21.8zm-105 112l-49.9 32.7 49.9-32.7c6-3.94 10.3-9.72 12.3-16.2-2.07 6.5-6.34 12.3-12.3 16.2zm395 101l-84.7-35.4c-8.94-3.66-19.1-3.66-28 0l-84.6 35.4c-13.5 5.49-22.2 18.5-22.5 33v.203c0 66.2 26.2 111 48.2 138 23.2 27.6 53.8 47.7 73 47.7 19-.102 49.8-20.2 73-48.1 21.9-26.2 48.1-71.3 48.1-137v-.203c-.203-14.5-9.04-27.4-22.5-33zm-48.6 150c-21.7 26.3-44.5 37.4-50.2 37.6-5.79-.203-28.5-11.3-50.2-37.4-18.5-22.2-40.4-60.6-40.5-117 .102-2.34 1.52-4.37 3.56-5.28l84.8-35.4c1.42-.61 3.15-.61 4.57 0l84.8 35.4h.102c2.13 .914 3.56 2.95 3.56 5.18 0 56.3-22 94.7-40.5 117zm8.1-93.8c0 3.39-1.23 6.73-3.44 9.38l-58.5 68.3c-3.77 4.47-8.76 4.47-10.4 4.47h-.488c-3.84 0-7.46-1.5-10.2-4.24l-29.2-29.2-.173-.132c-2.69-2.2-4.17-5.81-4.17-10.1 0-7.95 6.47-14.4 14.4-14.4 3.84 0 7.46 1.5 10.2 4.24l18.2 18.2 48.3-56.5c2.76-3.19 6.73-5.02 10.9-5.02h.234c10.8 .61 14.3 10.4 14.3 15z"/></svg>