<svg xmlns="http://www.w3.org/2000/svg" viewBox="0 0 577 512"><path d="M398 30c3.5 0 6.3 2.9 6.4 6.4v96.2c0 3.4-2.8 6.3-6.3 6.3H36.3c-3.4 0-6.3-2.8-6.3-6.3V36.3c0-3.4 2.8-6.3 6.3-6.3H398M398 0H36.2C16.2 .1 .1 16.2 0 36.2v96.4c.1 20 16.2 36.1 36.2 36.2h362c20-.1 36.1-16.2 36.2-36.2V36.2C434 16.2 418 .1 398 0L398 0zM381 96.4c0-8.3-6.7-15-15-15H68.2c-8.3 0-15 6.7-15 15s6.7 15 15 15h298C374 111 381 105 381 96.4zM540 373c3.5 0 6.3 2.9 6.4 6.4v96.2c0 3.4-2.8 6.3-6.3 6.3H178c-3.4 0-6.3-2.8-6.3-6.3v-96.2c0-3.4 2.8-6.3 6.3-6.3H540M540 343H178c-20 .1-36.1 16.2-36.2 36.2v96.4c.1 20 16.2 36.1 36.2 36.2h362c20-.1 36.1-16.2 36.2-36.2v-96.4C576 359 560 343 540 343L540 343zM523 440c0-8.3-6.7-15-15-15H210c-8.3 0-15 6.7-15 15s6.7 15 15 15h298C516 455 523 448 523 440zM456 127c28.3 .1 51.2 23 51.2 51.3V263l-21.3 .5c-5.1 0-9.6 3-11.7 7.6c-.6 1.5-1 3.1-1.1 4.7c0 3.2 1.2 6.2 3.3 8.6l38.4 42.7c4.5 5.5 12.7 6.3 18.2 1.7c.5-.4 .9-.8 1.3-1.2l38.4-42.7c3.4-3.8 4.2-9.2 2.2-13.8c-2.5-4.6-7.1-8.1-12.2-8.1l-21.3 .5v-85.4c0-47.1-38.3-85.4-85.4-85.4c-9.4 0-17.1 7.7-17.1 17.1S447 127 456 127L456 127z"/></svg>