<svg xmlns="http://www.w3.org/2000/svg" viewBox="0 0 579 512"><path d="M530 0H48.6C22 .1 .471 21.6 .371 48.2v129c.1 26.6 21.6 48.1 48.2 48.2h482c26.6-.1 48.1-21.6 48.2-48.2V48.2C579 21.6 557 .1 530 0zM514 161H64.6v-32.1h450V161zM382 295l-42 42h-45.6V291l42-42c3.51-3.51 3.51-9.04 0-12.5c-1.1-1.1-2.51-1.91-4.02-2.31c-13.7-3.21-27.9-3.21-41.6 .1c-33.6 8.03-59.9 36.6-65.4 70.9c-2.71 13.8-1.71 28 2.81 41.3l-97.6 97.6c-15.5 15.4-15.5 40.3-.1 55.7c0 0 .1 .1 .1 .1c6.93 7.53 16.7 11.8 26.9 12c10.4-.1 20.5-4.22 27.9-11.5l97.6-97.6c13.5 4.42 27.8 5.52 41.8 3.31c34.2-5.42 62.8-31.7 70.9-65.4c4.12-13.8 4.52-28.3 1.1-42.2c-1.2-4.72-6.12-7.53-10.8-6.32C385 293 383 294 382 295zM163 481c-7.23 0-13.2-5.92-13.2-13.2s5.92-13.2 13.2-13.2c7.23 0 13.2 5.92 13.2 13.2C176 475 170 481 163 481z"/></svg>