<svg xmlns="http://www.w3.org/2000/svg" viewBox="0 0 577 512"><path d="M434 133V36.2C434 16.2 418 .1 398 0H36.2C16.2 .1 .1 16.2 0 36.2v96.4c.1 20 16.2 36.1 36.2 36.2h362C418 169 434 153 434 133zM386 121H48.2V96.4h338L386 121zM540 343H178c-20 .1-36.1 16.2-36.2 36.2v96.4c.1 20 16.2 36.1 36.2 36.2h362c20-.1 36.1-16.2 36.2-36.2v-96.4C576 359 560 343 540 343zM528 464H190v-24.1h338V464zM456 127c28.3 .1 51.2 23 51.2 51.3V263l-21.3 .5c-5.1 0-9.6 3-11.7 7.6c-.6 1.5-1 3.1-1.1 4.7c0 3.2 1.2 6.2 3.3 8.6l38.4 42.7c4.5 5.5 12.7 6.3 18.2 1.7c.5-.4 .9-.8 1.3-1.2l38.4-42.7c3.4-3.8 4.2-9.2 2.2-13.8c-2.5-4.6-7.1-8.1-12.2-8.1l-21.3 .5v-85.4c0-47.1-38.3-85.4-85.4-85.4c-9.4 0-17.1 7.7-17.1 17.1S447 127 456 127L456 127z"/></svg>