<svg xmlns="http://www.w3.org/2000/svg" viewBox="0 0 576 512"><path d="M0 0H48C21.6 0 0 21.6 0 48v128c0 26.4 21.6 48 48 48h480c26.4 0 48-21.6 48-48V48C576 21.6 554 0 528 0zM512 160H64v-32h448V160zM208 424c0 22.1-17.9 40-40 40s-40-17.9-40-40c0-16.4 9.8-30.9 25-37.1c12.3-5 18.2-19 13.2-31.3c-5-12.3-18.9-18.2-31.3-13.3c-33.4 13.5-55 44.7-55 81.6c0 48.5 39.5 88 88 88s88-39.5 88-88V256h-48V424zM441 310c-12.3-4.9-26.3 1-31.3 13.3c-5 12.3 1 26.3 13.2 31.3c15.2 6.2 25 20.7 25 37.1c0 22.1-17.9 40-40 40s-40-17.9-40-40V256h-48v136c0 48.5 39.5 88 88 88s88-39.5 88-88C496 355 474 324 441 310z"/></svg>