<svg xmlns="http://www.w3.org/2000/svg" viewBox="0 0 512 512"><path d="M256 0C115 0 0 115 0 256s115 256 256 256 256-115 256-256S397 0 256 0zm0 480c-47.2 0-91-14.8-127-39.8 4.1-49.3 45-88.2 95.2-88.2h64c50.3 0 91.1 38.9 95.2 88.2-36.2 25-80 39.8-127 39.8zm156-63.3c-14.1-55.4-64-96.7-124-96.7h-64c-59.7 0-110 41.3-124 96.7-42-41.6-68.3-97.7-68.3-161 0-124 101-224 224-224s224 101 224 224c0 63-26.3 119-68.3 161zM256 128c-44.2 0-80 35.8-80 80s35.8 80 80 80 80-35.8 80-80-35.8-80-80-80zm0 128c-26.5 0-48-21.5-48-48s21.5-48 48-48 48 21.5 48 48-21.5 48-48 48z"/></svg>