<svg xmlns="http://www.w3.org/2000/svg" viewBox="0 0 512 512"><path d="M256 30c30.5 0 59.1 11.9 80.6 33.4 21.5 21.5 33.4 50.2 33.4 80.6s-11.9 59.1-33.4 80.6c-21.5 21.5-50.2 33.4-80.6 33.4-62.9 0-114-51.1-114-114 0-30.5 11.9-59.1 33.4-80.6 21.5-21.5 50.2-33.4 80.6-33.4m95.1 320c35.4 0 68.5 13.7 93.1 38.5 24.2 24.4 37.3 56.8 36.9 91.2v.15s0 .15 0 .15c0 .6-.11 2-1.1 2H31.2c-.3-.13-1.19-.84-1.19-2 0-34.7 13.5-67.4 38.1-91.9 24.5-24.5 57.2-38.1 91.9-38.1h191M256 0C176 0 112 64.5 112 144s64.5 144 144 144 144-64.5 144-144S336 0 256 0h0zm95.1 320H160C71.6 320 0 392 0 480c0 17.7 14.3 32 31.1 32H480c17.7 0 31.1-14.3 31.1-32 .9-88.4-70.7-160-160-160h0z"/></svg>