<svg xmlns="http://www.w3.org/2000/svg" viewBox="0 0 512 512"><path d="M0 20V492c0 11.1 9 20 20 20H492c11.1 0 20-9 20-20V20c0-11.1-9-20-20-20H20C9 0 0 9 0 20zM440.4 445H71.6c-8.3 0-15-6.7-15-15h0c0-8.3 6.7-15 15-15H440.4c8.3 0 15 6.7 15 15h0c0 8.3-6.7 15-15 15zm0-58H71.6c-8.3 0-15-6.7-15-15h0c0-8.3 6.7-15 15-15H440.4c8.3 0 15 6.7 15 15h0c0 8.3-6.7 15-15 15zm0-58H71.6c-8.3 0-15-6.7-15-15h0c0-8.3 6.7-15 15-15H440.4c8.3 0 15 6.7 15 15h0c0 8.3-6.7 15-15 15zm0-58H71.6c-8.3 0-15-6.7-15-15h0c0-8.3 6.7-15 15-15H440.4c8.3 0 15 6.7 15 15h0c0 8.3-6.7 15-15 15zm0-58H71.6c-8.3 0-15-6.7-15-15h0c0-8.3 6.7-15 15-15H440.4c8.3 0 15 6.7 15 15h0c0 8.3-6.7 15-15 15zm0-58H71.6c-8.3 0-15-6.7-15-15h0c0-8.3 6.7-15 15-15H440.4c8.3 0 15 6.7 15 15h0c0 8.3-6.7 15-15 15zm0-58H71.6c-8.3 0-15-6.7-15-15h0c0-8.3 6.7-15 15-15H440.4c8.3 0 15 6.7 15 15h0c0 8.3-6.7 15-15 15z"/></svg>