<svg xmlns="http://www.w3.org/2000/svg" viewBox="0 0 512 512"><path d="M481.9 461.9c0 11.1-9 20-20 20H50.1c-11.1 0-20-9-20-20V50.1c0-11.1 9-20 20-20H461.9c11.1 0 20 9 20 20V461.9zM20 0C9 0 0 9 0 20V492c0 11.1 9 20 20 20H492c11.1 0 20-9 20-20V20c0-11.1-9-20-20-20H20zM429.8 445H82.2c-8.3 0-15-6.7-15-15h0c0-8.3 6.7-15 15-15H429.8c8.3 0 15 6.7 15 15h0c0 8.3-6.7 15-15 15zm0-57.9H82.2c-8.3 0-15-6.7-15-15h0c0-8.3 6.7-15 15-15H429.8c8.3 0 15 6.7 15 15h0c0 8.3-6.7 15-15 15zm0-58H82.2c-8.3 0-15-6.7-15-15h0c0-8.3 6.7-15 15-15H429.8c8.3 0 15 6.7 15 15h0c0 8.3-6.7 15-15 15zm0-58H82.2c-8.3 0-15-6.7-15-15h0c0-8.3 6.7-15 15-15H429.8c8.3 0 15 6.7 15 15h0c0 8.3-6.7 15-15 15zm0-58H82.2c-8.3 0-15-6.7-15-15h0c0-8.3 6.7-15 15-15H429.8c8.3 0 15 6.7 15 15h0c0 8.3-6.7 15-15 15zm0-57.9H82.2c-8.3 0-15-6.7-15-15h0c0-8.3 6.7-15 15-15H429.8c8.3 0 15 6.7 15 15h0c0 8.3-6.7 15-15 15zm0-58H82.2c-8.3 0-15-6.7-15-15h0c0-8.3 6.7-15 15-15H429.8c8.3 0 15 6.7 15 15h0c0 8.3-6.7 15-15 15z"/></svg>