<svg xmlns="http://www.w3.org/2000/svg" viewBox="0 0 448 512"><path d="M352 127.9c26.5 0 48-21.5 48-48c0-24.2-37.5-71.7-41.8-77C356.7 .9 354.4 0 352 0s-4.7 .9-6.3 2.8c-4.3 5.3-41.8 52.8-41.8 77c0 26.4 21.5 48 48 48zm0-79.2c9.4 14.4 15.4 26.4 16 31.2c0 8.8-7.2 16-16 16s-16-7.2-16-15.5c.6-5.1 6.6-17.2 16-31.7zM224 127.9c26.5 0 48-21.5 48-48c0-24.2-37.5-71.7-41.8-77C228.7 .9 226.4 0 224 0s-4.7 .9-6.2 2.8c-4.3 5.3-41.8 52.8-41.8 77c0 26.4 21.5 48 48 48zm0-79.2c9.4 14.4 15.4 26.4 16 31.2c0 8.8-7.2 16-16 16s-16-7.2-16.9-15.5c1.5-5.1 7.5-17.2 16.9-31.7zM96 127.9c26.5 0 48-21.5 48-48c0-24.2-37.5-71.7-41.8-77C100.7 .9 98.4 0 96 0s-4.7 .9-6.3 2.8C85.5 8.2 48 55.7 48 79.9c0 26.4 21.5 48 48 48zm0-79.2c9.4 14.4 15.4 26.4 16 31.2c0 8.8-7.2 16-16 16S80 88.7 80 80.4c.6-5.1 6.6-17.2 16-31.7zM383.1 223.1l-15.1 .8V176c0-8.8-7.2-16.1-16-16.1s-16 7.3-16 16.1v47.9h-96V176c0-8.8-7.2-16.1-16-16.1s-16 7.3-16 16.1v47.9h-96V176c0-8.8-7.2-16.1-16-16.1S80 167.2 80 176v47.9l-16-.8c-35.4 0-64 28.7-64 63.1V464c0 26.5 21.5 48 48 48h352c26.5 0 48-21.5 48-48V287.1c0-34.5-28.6-64-64.9-64zM416 464c0 8.8-7.2 16-16 16H48c-8.8 0-16-7.2-16-16v-64c26 0 50.3-15.7 64-26.7c13.8 11 38 26.7 64 26.7s50.3-15.7 64-26.7c13.8 11 38 26.7 64 26.7s50.3-15.7 64-26.7c13.8 11 38 26.7 64 26.7v64zm0-96.9c-20.6 0-45.1-19.7-52.7-27.3c-6.3-6.2-16.3-6.2-22.6 0c-7.7 8.5-32.1 27.3-52.7 27.3s-45.1-19.7-52.7-27.3c-6.3-6.2-16.3-6.2-22.6 0c-7.7 8.5-32.1 27.3-52.7 27.3s-45.1-19.7-52.7-27.3c-6.3-6.2-16.3-6.2-22.6 0c-7.7 8.5-32.1 27.3-52.7 27.3V287.9c0-17.6 14.4-32 32-32h16V272c0 8.8 7.2 16 16 16s16-7.2 16-16V255.9h96V272c0 8.8 7.2 16 16 16s16-7.2 16-16V255.9h96V272c0 8.8 7.2 16 16 16s16-7.2 16-16V255.9h16c17.6 0 32 14.4 32 32v79.2z"/></svg>