<svg xmlns="http://www.w3.org/2000/svg" viewBox="0 0 480 512"><path d="M240 30c1.63 .06 5.46 .84 6.94 1.41l192 80c6.48 2.69 11 9.14 11 15.7 0 130-51 218-93.9 269-28.4 33.9-55.5 54.7-73.3 66.2-24.4 15.7-39.5 19.3-42.9 19.3s-18.3-3.51-42.7-19.1c-17.8-11.4-45-32.1-73.3-65.8C81.1 346 30 258 30 127c0-6.53 4.55-13 11.1-15.7l.05-.02 .05-.02L233 31.4c1.5-.58 5.36-1.37 7-1.43m0-30c-5.31 0-13.6 1.67-18.5 3.7L29.6 83.7C11.7 91.1 0 109 0 127 0 385 189 512 240 512s240-128 240-385c0-18.5-11.7-36-29.5-43.4L259 3.7c-4.88-2.03-13.2-3.7-18.4-3.7h0zm-23.2 328c3.32 0 8.18-.52 12-5.04l96-112c2.64-3.09 4.1-7.02 4.1-11.1 0-3.59-2.91-17.1-17.1-17.9-4.92 .05-9.56 2.2-12.8 5.92l-84.1 98.1-35-35c-3.22-3.21-7.48-4.98-12-4.98-9.37 0-17 7.63-17 17 0 5.16 1.56 9.24 4.39 11.5l.31 .25 48.3 48.3c3.17 3.17 7.55 4.98 12 4.98h.87z"/></svg>