<svg xmlns="http://www.w3.org/2000/svg" viewBox="0 0 520 512"><path d="M331 203h32.8c3.95 0 7.1-3.14 7.1-7.1V163c0-3.95-3.14-7.1-7.1-7.1h-32.8c-3.95 0-7.1 3.14-7.1 7.1v32.8C324 200 328 203 331 203zM469 321c-8.52 0-16.5 2.13-23.5 5.88V122h11.3c4.66 0 9.12-2.13 12.1-5.88c2.84-3.75 3.85-8.52 2.74-13.1l-21.7-84.8C447 7.6 437 0 426 0H93.8C82.6 0 72.7 7.6 69.9 18.6l-21.7 84.8c-1.22 4.56-.203 9.43 2.74 13.1c2.84 3.75 7.3 5.88 12.1 5.88h11.3v205c-7-3.75-15-5.88-23.5-5.88C23 321 .451 344 .451 372c0 22.4 14.7 41.5 35.1 47.9v91.9h30.4v-91.9c2.94-.912 5.68-2.13 8.31-3.55v56.7c0 21.4 16.6 38.7 37.1 38.7h297c20.5 0 37.1-17.3 37.1-38.7v-56.7c2.64 1.42 5.47 2.64 8.31 3.55v91.9h30.4v-91.9c20.3-6.49 35.1-25.4 35.1-47.9C520 344 497 321 469 321zM50.7 392c-10.9 0-19.9-8.92-19.9-19.9c0-10.9 8.92-19.9 19.9-19.9s19.9 8.92 19.9 19.9C70.5 383 61.6 392 50.7 392zM98.3 30.4h323L437 91.9H82.6L98.3 30.4zM297 481h-74.1v-101h74.1V481zM415 473c0 4.56-3.04 8.31-6.69 8.31h-81.1V365c0-8.42-6.79-15.2-15.2-15.2H208c-8.42 0-15.2 6.79-15.2 15.2v116h-81.1c-3.65 0-6.69-3.85-6.69-8.31V122h311L415 473L415 473zM469 392c-10.9 0-19.9-8.92-19.9-19.9c0-10.9 8.92-19.9 19.9-19.9c10.9 0 19.9 8.92 19.9 19.9C489 383 480 392 469 392zM331 318h32.8c3.95 0 7.1-3.14 7.1-7.1v-32.8c0-3.95-3.14-7.1-7.1-7.1h-32.8c-3.95 0-7.1 3.14-7.1 7.1v32.8C324 315 328 318 331 318zM156 318h32.8c3.95 0 7.1-3.14 7.1-7.1v-32.8c0-3.95-3.14-7.1-7.1-7.1h-32.8c-3.95 0-7.1 3.14-7.1 7.1v32.8C149 315 152 318 156 318zM244 318h32.8c3.95 0 7.1-3.14 7.1-7.1v-32.8c0-3.95-3.14-7.1-7.1-7.1h-32.8c-3.95 0-7.1 3.14-7.1 7.1v32.8C236 315 240 318 244 318zM156 203h32.8c3.95 0 7.1-3.14 7.1-7.1V163c0-3.95-3.14-7.1-7.1-7.1h-32.8c-3.95 0-7.1 3.14-7.1 7.1v32.8C149 200 152 203 156 203zM244 203h32.8c3.95 0 7.1-3.14 7.1-7.1V163c0-3.95-3.14-7.1-7.1-7.1h-32.8c-3.95 0-7.1 3.14-7.1 7.1v32.8C236 200 240 203 244 203z"/></svg>