<svg xmlns="http://www.w3.org/2000/svg" viewBox="0 0 518 512"><path d="M475 122H43.2L69.7 18.5C72.5 7.57 82.3 0 93.5 0H425c11.2 0 21 7.57 23.7 18.5L475 122zM101 373c0-19.1-10.8-35.7-26.6-44.2c-6.97-3.74-14.9-5.86-23.4-5.86c-14.6 0-27.8 6.26-37 16.3C5.42 348 .475 360 .475 373s4.95 24.8 13.1 33.7c5.86 6.36 13.3 11.3 21.8 13.9v17.2v74.4h15.1h15.1v-74.4v-17.2c2.93-.909 5.66-2.12 8.28-3.53C89.7 409 101 392 101 373zM444 307v-166H74v166c27.3 9.69 46.8 35.6 46.8 66.2c0 25.4-13.5 48.4-34.9 60.7V512h121h104h121v-78.6c-6.06-3.53-11.7-8.08-16.5-13.3c-11.9-13-18.4-29.8-18.4-47.4s6.56-34.3 18.4-47.4C424 317 433 310 444 307zM195 337c0 3.94-3.13 7.07-7.07 7.07h-32.7c-3.94 0-7.07-3.13-7.07-7.07v-32.7c0-3.94 3.13-7.07 7.07-7.07h32.7c3.94 0 7.07 3.13 7.07 7.07V337zM195 223c0 3.94-3.13 7.07-7.07 7.07h-32.7c-3.94 0-7.07-3.13-7.07-7.07V190c0-3.94 3.13-7.07 7.07-7.07h32.7c3.94 0 7.07 3.13 7.07 7.07V223zM236 190c0-3.94 3.13-7.07 7.07-7.07h32.7c3.94 0 7.07 3.13 7.07 7.07v32.7c0 3.94-3.13 7.07-7.07 7.07h-32.7c-3.94 0-7.07-3.13-7.07-7.07L236 190L236 190zM236 305c0-3.94 3.13-7.07 7.07-7.07h32.7c3.94 0 7.07 3.13 7.07 7.07v32.7c0 3.94-3.13 7.07-7.07 7.07h-32.7c-3.94 0-7.07-3.13-7.07-7.07L236 305L236 305zM296 492h-73.8V381h73.8V492zM370 337c0 3.94-3.13 7.07-7.07 7.07h-32.7c-3.94 0-7.07-3.13-7.07-7.07v-32.7c0-3.94 3.13-7.07 7.07-7.07h32.7c3.94 0 7.07 3.13 7.07 7.07V337zM370 223c0 3.94-3.13 7.07-7.07 7.07h-32.7c-3.94 0-7.07-3.13-7.07-7.07V190c0-3.94 3.13-7.07 7.07-7.07h32.7c3.94 0 7.07 3.13 7.07 7.07V223zM467 323c-8.48 0-16.5 2.12-23.4 5.86c-5.05 2.73-9.59 6.26-13.4 10.4c-8.18 8.89-13.1 20.7-13.1 33.7s4.95 24.8 13.1 33.7c3.84 4.24 8.38 7.78 13.4 10.4c2.63 1.41 5.45 2.63 8.28 3.53v17.2V512h15.1h15.1v-74.4v-17.2c20.2-6.46 34.9-25.3 34.9-47.7C518 345 495 323 467 323z"/></svg>