<svg xmlns="http://www.w3.org/2000/svg" viewBox="0 0 527 512"><path d="M324 293c-3.55 20.8-19.2 34.3-41.4 39v6.15c0 10.9-8.86 19.8-19.8 19.8c-10.9 0-19.8-8.97-19.8-19.8v-6.78c-8.65-1.88-17.1-4.69-24.8-7.4l-4.28-1.46c-10.3-3.55-15.7-14.9-12.1-25.2c3.65-10.3 14.9-15.6 25.2-12.1l4.48 1.56c7.82 2.82 16.7 5.94 23.5 6.99c13.6 2.19 28.7 .209 30-7.51c.938-5.01 1.36-7.82-27.6-16.2l-5.74-1.67c-17.1-5.01-57.4-16.9-50.1-59.2c3.55-20.8 19.2-34.6 41.4-39.3v-5.94c0-10.9 8.86-19.8 19.8-19.8c10.9 0 19.8 8.97 19.8 19.8v6.57c5.42 1.15 11.3 2.82 18.5 5.21c10.3 3.55 15.7 14.9 12.2 25.2c-3.65 10.3-14.9 15.7-25.2 12.2c-5.84-1.98-11.9-3.96-17.4-4.8c-13.6-2.09-28.7-.209-30 7.51c-.834 3.55-1.25 7.61 21.3 14.6l6.36 1.56C291 238 332 250 324 293zM506 256c-8.24 0-15.1 6.47-15.6 14.7c-7.61 117-105 210-224 210c-62.3 0-121-25.5-163-70.5l64.1-64.1c6.57-6.57 1.88-17.8-7.4-17.8H11.7c-6.36 0-11.5 5.11-11.5 11.5v146c0 10.2 12.3 15.3 19.6 8.13l61.1-61.1c48.3 50.8 115 79.7 186 79.7c68.3 0 133-26.6 181-75c44.4-44.4 70.5-102 74.5-164C522 264 515 256 506 256zM31.5 359h78L31.5 437V359zM508 7.09l-64.3 64.3C396 25.8 333 0 266 0C198 0 134 26.6 85.5 75C41.1 119 15 177 11 239c-.521 8.97 6.67 16.6 15.6 16.6c8.24 0 15.1-6.47 15.6-14.7C49.8 124 148 31.3 266 31.3c58.2 0 114 22.4 155 62.3l-61 61c-7.2 7.2-2.09 19.6 8.13 19.6h146c6.36 0 11.5-5.11 11.5-11.5V14.5C526 5.11 515 .521 508 7.09zM495 143h-78l78-78V143z"/></svg>