<svg xmlns="http://www.w3.org/2000/svg" viewBox="0 0 506 512"><path d="M314 297c-3.55 20.4-19 33.8-40.9 38.6v6.12c0 10.8-8.68 19.6-19.6 19.6c-10.8 0-19.6-8.78-19.6-19.6v-6.61c-8.48-1.87-17-4.64-24.6-7.3l-4.24-1.48c-10.2-3.55-15.6-14.8-11.9-25s14.8-15.5 25-11.9l4.44 1.58c7.69 2.76 16.5 5.92 23.2 6.81c13.4 2.17 28.3 .197 29.7-7.4c.888-5.03 1.38-7.69-27.3-16l-5.72-1.68c-17-5.03-56.7-16.7-49.4-58.6c3.55-20.4 19-34.1 40.9-38.9v-5.92c0-10.8 8.68-19.6 19.6-19.6c10.8 0 19.6 8.78 19.6 19.6v6.51c5.43 1.18 11.1 2.76 18.3 5.23c10.2 3.55 15.6 14.8 12 25c-3.65 10.2-14.8 15.6-25 12c-5.82-1.97-11.7-3.95-17.3-4.74c-13.4-2.07-28.3-.197-29.7 7.4c-.789 3.55-1.28 7.5 21 14.4l6.31 1.58C280 243 321 255 314 297zM502 242c-6.02-13.7-19.6-23.3-35.6-23.3c-17.6 0-32.5 11.7-37.2 27.8c-.691 1.87-1.09 3.85-1.28 5.82c-.197 1.68-.395 3.45-.395 5.13h.197c-1.68 96.9-81.3 177-179 177c-46.2-.099-90-18-123-49.6l25-25c12.4-12.4 3.65-33.6-13.9-33.6H21.2c-6.02 0-10.9 4.83-10.9 10.9v116c0 17.6 21.2 26.3 33.6 13.9l27.6-27.6c47.5 46.3 111 72.3 178 72.3c70.3 0 136-28.2 185-79.2c45.9-48 70.7-112 70.7-179l0 0C506 249 504 245 502 242zM39.2 297c21.4 0 38.8-17.4 38.8-38.8l0 0c0-.197 0-.493 0-.691v-.395c0-96.7 76.5-177 173-180c47.4-1.28 92.7 16.2 127 48l-23.5 23.6c-12.4 12.4-3.65 33.6 13.9 33.6h116c6.02 0 10.9-4.83 10.9-10.9V55.6c0-17.6-21.2-26.3-33.6-13.9l-29.1 29.1C386 25.6 323 0 256 0C186 0 120 28.1 71.2 79.2C25.3 127 .453 191 .453 258l0 0c0 .197 0 .493 0 .691l0 0C.453 280 17.8 297 39.2 297z"/></svg>