<svg xmlns="http://www.w3.org/2000/svg" viewBox="0 0 384 512"><path d="M384 128h-128V0l128 128zm-128 32h128V464c0 26.5-21.5 48-48 48H48c-26.5 0-48-21.5-48-48V48C0 21.5 21.5 0 48 0H224V128c0 17.7 14.3 32 32 32zm-117-1.4c-1.11 6.17-13.1 7.76-24 6.02-5.46-.79-12.5-3.33-18.8-5.54l-3.56-1.27c-8.23-2.85-17.3 1.42-20.2 9.66-2.93 8.23 1.42 17.3 9.66 20.2l3.4 1.19c6.17 2.22 13 4.43 19.9 5.94v5.38c0 8.71 7.12 15.8 15.8 15.8s15.8-7.12 15.8-15.8v-4.91c17.7-3.8 30.2-14.6 33.1-31.2 5.86-34.4-27-43.8-44.7-48.8l-5.07-1.27c-18-5.54-17.6-8.79-17-11.6 1.11-6.17 13.1-7.68 24-6.02 4.43 .63 9.26 2.22 13.9 3.8 8.23 2.85 17.3-1.5 20.2-9.74 2.85-8.23-1.5-17.3-9.74-20.2-5.7-1.98-10.4-3.25-14.7-4.2v-5.22c0-8.71-7.12-15.8-15.8-15.8s-15.8 7.12-15.8 15.8v4.75c-17.7 3.8-30.2 14.9-33.1 31.4-5.86 33.9 26.3 43.3 40 47.3l4.59 1.35c23.2 6.65 22.8 8.87 22.1 12.9zm-44.4 197c0-9.77-7.8-17.7-17.5-17.9-10.1-.21-18.3 8.31-18.3 18.4v89.9c0 9.89 8.01 17.9 17.9 17.9s17.9-8.01 17.9-17.9v-90.4zm80.3 40c0-9.77-7.8-17.7-17.5-17.9-10.1-.21-18.3 8.31-18.3 18.4v49.9c0 9.89 8.01 17.9 17.9 17.9h0c9.89 0 17.9-8.01 17.9-17.9v-50.4zm80.3-40c0-9.77-7.8-17.7-17.5-17.9-10.1-.21-18.3 8.31-18.3 18.4v89.9c0 9.89 8.01 17.9 17.9 17.9h0c9.89 0 17.9-8.01 17.9-17.9v-90.4zm80.3 0c0-9.77-7.8-17.7-17.5-17.9-10.1-.21-18.3 8.31-18.3 18.4v89.9c0 9.89 8.01 17.9 17.9 17.9s17.9-8.01 17.9-17.9v-90.4zm-70.9-134l.4 26H75.8c-9.9 0-17.9 8-17.9 17.9s8 17.9 17.9 17.9h189l-.4 26c.4 11.6 14.9 17.6 23.3 9.2l43.7-43.6c5.2-5.3 5.2-13.8 0-19l-43.7-43.6c-8.4-8.4-22.9-2.4-23.3 9.2z"/></svg>