<svg xmlns="http://www.w3.org/2000/svg" viewBox="0 0 512 512"><path d="M496.2 133.7c8.9 5.6 15.8 15.9 15.8 27.1c0 17.2-14 31.2-31.2 31.2H31.2C14 192 0 178 0 160.8c0-11.2 6-21.5 15.8-27.1L248.1 2.1c4.9-2.8 10-2.8 15.8 0L496.2 133.7zM477.7 160L256 34.4 34.3 160H205.4c-3.5-7.3-5.4-15.4-5.4-24c0-30.9 25.1-56 56-56s56 25.1 56 56c0 8.6-1.9 16.7-5.4 24H477.7zM256 160c13.3 0 24-10.7 24-24s-10.7-24-24-24s-24 10.7-24 24s10.7 24 24 24zM64 224H96V352h80V224h32V352h96V224h32V352h80V224h32V352c8.8 0 16 7.2 16 16s-7.2 16-16 16H64c-8.8 0-16-7.2-16-16s7.2-16 16-16V224zM472 416c8.8 0 16 7.2 16 16s-7.2 16-16 16H40c-8.8 0-16-7.2-16-16s7.2-16 16-16H472zm24 64c8.8 0 16 7.2 16 16s-7.2 16-16 16H16c-8.8 0-16-7.2-16-16s7.2-16 16-16H496z"/></svg>