<svg xmlns="http://www.w3.org/2000/svg" viewBox="0 0 512 512"><path d="M298 114h0c49.8 0 90.4 40.5 90.4 90.4 0 49.8-40.5 90.4-90.4 90.4-49.8 0-90.4-40.5-90.4-90.4 0-49.8 40.5-90.4 90.4-90.4m0-30c-66.5 0-120 53.9-120 120v.02c0 66.5 53.9 120 120 120 66.5 0 120-53.9 120-120 0-66.5-53.9-120-120-120h0zm79.5 298c28.3 0 54.7 10.9 74.3 30.8 18.6 18.8 29 43.4 29.4 69.8H114c1.72-55.7 47.6-101 104-101h160m0-30H218c-73.9 0-134 59.9-134 134 0 14.8 12 26.8 26 26.8H485c14.8 0 26-12 26-26.8 .75-73.9-59.1-134-134-134h0zM75.5 0c9.26 0 16.8 7.5 16.8 16.8 0 0 0 .01 0 .02v18.7l2.47 .35c5.55 .83 22.1 3.5 28.9 5.23 8.5 2.27 14.4 11.4 12.1 20.4-2.28 8.99-11.4 14.4-20.4 12.2-4.88-1.73-19.7-3.73-25.6-4.56-16.8-2.52-31.3-1.26-41.2 2.51-9.59 3.67-13.6 8.87-14.6 14.7-1 5.61-.25 8.81 .68 10.8s2.92 4.46 6.78 7c8.52 5.61 21.5 9.38 38.4 14l1.47 .42c14.9 4 33.2 9 46.7 18 7.39 4.93 14.4 11.6 18.7 20.8s5.29 19.8 3.3 30.5c-3.67 20.4-17.8 33.7-34.5 40.6-7.46 2.98-15.3 4.91-23.3 5.73v17.5c0 9.27-7.51 16.8-16.8 16.8s-16.8-7.51-16.8-16.8v-18.3c-.21 0-.47-.53-.68-.11h-.06c-12.7-2-33.8-7.5-48-13.8-8.47-3.78-12.3-13.7-8.52-22.2 3.77-8.45 13.7-12.3 21.7-8.5 11.4 4.88 29.5 9.65 39.9 11.3 16.8 2.51 30.6 1 39.9-2.73 8.86-3.62 12.9-8.86 14-15.2 1-5.61 .26-8.81-.68-10.8s-2.94-4.46-6.77-7c-8.53-5.64-21.5-9.43-38.4-14l-1.46-.45c-14.9-4-33.2-9-46.7-18-7.4-4.93-14.3-11.6-18.6-20.8S-1.01 91.4 .99 80.2c3.71-20.4 18.4-33.4 35.7-40 7.12-2.65 14.5-4.41 22.1-5.24V16.8C58.7 7.52 66.2 0 75.5 0c0 0 .01 0 .02 0z"/></svg>