<svg xmlns="http://www.w3.org/2000/svg" viewBox="0 0 512 512"><path d="M297.854 324.75c66.482 0 120.375-53.893 120.375-120.375S364.336 84 297.854 84c-66.474 0-120.375 53.893-120.375 120.375S231.397 324.75 297.854 324.75zm79.497 26.75H217.604c-73.863 0-133.75 59.878-133.75 133.75 0 14.771 11.979 26.75 25.998 26.75h375.252c14.771 0 25.998-11.979 25.998-26.75.752-73.897-59.101-133.75-133.751-133.75zM75.52 0c9.282 0 16.781 7.515 16.781 16.781v18.711c.839.11 1.626.231 2.465.351 5.559.829 22.13 3.498 28.948 5.223 8.496 2.276 14.421 11.427 12.114 20.394-2.255 8.967-11.38 14.421-20.4 12.166-4.877-1.731-19.718-3.723-25.591-4.562-16.834-2.517-31.255-1.259-41.167 2.517-9.586 3.671-13.567 8.863-14.621 14.684-1.017 5.611-.246 8.81.676 10.803.991 2.098 2.926 4.458 6.781 7.027 8.527 5.611 21.532 9.387 38.419 13.949l1.468.42c14.893 4.038 33.143 9.02 46.673 17.987 7.394 4.929 14.369 11.59 18.669 20.819 4.353 9.335 5.297 19.823 3.304 30.521-3.671 20.4-17.83 33.72-34.454 40.642-7.132 2.937-14.998 4.825-23.284 5.769v17.515c0 9.282-7.499 16.781-16.781 16.781s-16.781-7.499-16.781-16.781v-18.302c-.21 0-.472-.524-.682-.105h-.105c-12.743-1.993-33.788-7.499-47.984-13.792-8.469-3.776-12.282-13.687-8.516-22.183 3.765-8.443 13.682-12.271 21.679-8.495 11.432 4.877 29.472 9.649 39.908 11.275 16.781 2.517 30.573 1.049 39.908-2.727 8.863-3.618 12.901-8.863 14.054-15.156.996-5.611.262-8.81-.682-10.803-.996-2.098-2.937-4.458-6.765-7.027-8.548-5.611-21.553-9.387-38.44-13.949l-1.468-.42c-14.893-4.038-33.153-9.02-46.694-17.987-7.399-4.93-14.332-11.59-18.638-20.819-4.368-9.335-5.318-19.823-3.288-30.993 3.713-20.4 18.407-33.41 35.665-39.997 6.828-2.606 14.233-4.321 22.046-5.244V16.781C58.739 7.515 66.238 0 75.52 0z"/></svg>