<svg xmlns="http://www.w3.org/2000/svg" viewBox="0 0 512 512"><path d="M464 320c-8.8 0-16 7.2-16 16v32c0 44.1-35.9 80-80 80H144c-44.1 0-80-35.9-80-80v-32c0-8.8-7.2-16-16-16s-16 7.2-16 16v32c0 30.4 12.3 57.9 32 78.1V496c0 8.8 7.2 16 16 16s16-7.2 16-16v-27.2c14.6 7 30.8 11.2 48 11.2h224c17.2 0 33.4-4.2 48-11.2V496c0 8.8 7.2 16 16 16c8.8 0 16-7.2 16-16v-49.9c19.7-20.2 32-47.7 32-78.1v-32C480 327 473 320 464 320zM496 256H64V61.3C64 45.1 77.1 32 93.3 32c6.8 0 15.3 3.1 20.7 8.6l25.3 25.3c-17.6 28-14.4 65.4 10 89.8l12.9 12.9c-3.2 6-2.5 13.6 2.6 18.7c3.1 3.1 7.2 4.7 11.3 4.7s8.2-1.6 11.3-4.7l96-96c6.3-6.3 6.3-16.4 0-22.6c-5.1-5.1-12.7-5.8-18.7-2.6l-12.9-12.9C238 39.1 218 32 201 32c-13.5 0-26.9 3.8-38.6 11.3l-25.3-25.3C125 6.4 110 0 93.3 0C59.5 0 32 27.5 32 61.3V256l-16 0c-8.8 0-16 7.2-16 16s7.2 16 16 16h480c8.8 0 16-7.2 16-16S505 256 496 256zM172 75.8c7.7-7.6 17.8-11.8 28.7-11.8s21 4.2 28.6 11.8l12.2 12.2l-57.2 57.2l-12.3-12.2C156 117 156 91.6 172 75.8z"/></svg>