<svg xmlns="http://www.w3.org/2000/svg" viewBox="0 0 512 512"><path d="M32 384c0 28.3 12.5 53.5 32 71.1V496c0 8.8 7.2 16 16 16h32c8.8 0 16-7.2 16-16v-15.1h256V496c0 8.8 7.2 16 16 16h32c8.8 0 16-7.2 16-16v-40.9c19.5-17.6 32-42.8 32-71.1v-32H32V384zM496 256H96V77.3c0-10.8 15-17 22.6-9.4l13.8 13.8c-8.8 26.9-3 52.8 11.8 71.5c-6.3 6.3-6.4 16.6-.2 22.8l11.3 11.3c6.2 6.2 16.4 6.2 22.6 0L283 81.9c6.2-6.2 6.2-16.4 0-22.6L272 48c-6.2-6.2-16.4-6.2-22.6 0c-18.7-14.7-44.7-20.4-71.7-11.6l-13.8-13.8C150 8.3 130 0 109 0C66.7 0 32 34.7 32 77.3V256l-16 0c-8.8 0-16 7.2-16 16v32c0 8.8 7.2 16 16 16h480c8.8 0 16-7.2 16-16v-32C512 263 505 256 496 256z"/></svg>