<svg xmlns="http://www.w3.org/2000/svg" viewBox="0 0 512 512"><path d="M256 140l30.6 63.4 7.14 14.8 16.2 2.38 69 10.1-50.2 49.1-11.6 11.4 2.79 15.9 11.9 70.7-61.3-32.9-14.7-7.86-14.7 7.86-61.3 32.8 11.9-70.7 2.69-15.9-11.6-11.4-50.1-49.1 69-10.1 16.2-2.38 7.14-14.7 30.8-63.4m0-45.1c-7.65 0-14.8 4.45-18.1 11.4l-40.6 83.5-90.5 13.3c-7.55 1.14-13.9 6.41-16.2 13.7-2.38 7.34-.414 15.3 4.96 20.7l65.7 64.4-15.5 92.5c-1.34 7.55 1.86 15.3 8.07 19.8 3.52 2.48 7.65 3.83 11.8 3.83 3.21 0 6.52-.724 9.52-2.38l80.9-43.2 80.9 43.3c2.9 1.55 6.21 2.38 9.41 2.38 4.14 0 8.27-1.24 11.8-3.83 6.31-4.45 9.41-12.2 8.17-19.8l-15.5-92.5 65.8-64.4c5.38-5.38 7.34-13.3 4.96-20.7-2.48-7.24-8.69-12.6-16.2-13.7l-90.6-13.3-40.3-83.6c-3.41-6.93-10.4-11.4-18.2-11.4h0zm10.2-32V12.9c0-7.14-5.79-12.9-12.9-12.9s-12.9 5.79-12.9 12.9V62.5c0 7.14 5.79 12.9 12.9 12.9s12.9-5.79 12.9-12.9zM126 130c5.07-5.07 5.07-13.2 0-18.3l-35-35c-5.07-5.07-13.2-5.07-18.3 0s-5.07 13.2 0 18.3l35.1 35.1c2.48 2.48 5.79 3.83 9.1 3.83s6.62-1.34 9.1-3.93zm-51 128c0-7.14-5.79-12.9-12.9-12.9H12.9c-7.14 0-12.9 5.79-12.9 12.9s5.79 12.9 12.9 12.9H62.5c7.14 0 12.9-5.79 12.9-12.9zm19.8 180l35.1-35.1c5.07-5.07 5.07-13.2 0-18.3-5.07-5.07-13.2-5.07-18.3 0l-35.1 35.1c-5.07 5.07-5.07 13.2 0 18.3 2.48 2.48 5.79 3.83 9.1 3.83s6.62-1.34 9.21-3.83zm176 60.2v-49.5c0-7.14-5.79-12.9-12.9-12.9s-12.9 5.79-12.9 12.9v49.5c0 7.14 5.79 12.9 12.9 12.9s12.9-5.79 12.9-12.9zm167-63.9c5.07-5.07 5.07-13.2 0-18.3l-35.1-35.1c-5.07-5.07-13.2-5.07-18.3 0-5.07 5.07-5.07 13.2 0 18.3l35.1 35.1c2.48 2.48 5.79 3.83 9.1 3.83s6.72-1.24 9.21-3.83zm73.1-182c0-7.14-5.79-12.9-12.9-12.9h-49.5c-7.14 0-12.9 5.79-12.9 12.9s5.79 12.9 12.9 12.9h49.5c7.14 0 12.9-5.79 12.9-12.9zm-112-127l35.1-35.1c5.07-5.07 5.07-13.2 0-18.3s-13.2-5.07-18.3 0l-35.1 35.1c-5.07 5.07-5.07 13.2 0 18.3 2.48 2.48 5.79 3.83 9.1 3.83s6.62-1.24 9.21-3.83z"/></svg>