<svg xmlns="http://www.w3.org/2000/svg" viewBox="0 0 384 512"><path d="M369 190h0c8.28 0 15 6.72 15 15V464c0 26.5-21.5 48-48 48H48c-26.5 0-48-21.5-48-48V48C0 21.5 21.5 0 48 0H179c8.28 0 15 6.72 15 15h0c0 8.28-6.72 15-15 15H48c-9.94 0-18 8.06-18 18V464c0 9.94 8.06 18 18 18H336c9.94 0 18-8.06 18-18V205c0-8.28 6.72-15 15-15zM64 72c0-4.37 3.63-8 8-8h80c4.4 0 8 3.63 8 8v16c0 4.38-3.6 8-8 8H72c-4.37 0-8-3.62-8-8v-16zm0 80v-16c0-4.4 3.63-8 8-8h80c4.4 0 8 3.6 8 8v16c0 4.4-3.6 8-8 8H72c-4.37 0-8-3.6-8-8zm190 226c-3.62 20.9-19.5 34.6-41.8 39.4v6.25c0 11-8.95 20-20 20s-20-8.97-20-20v-6.76c-8.68-1.92-17.3-4.72-25.1-7.51l-4.27-1.5c-10.4-3.69-15.9-15.1-12.2-25.5 3.69-10.4 15.1-15.8 25.5-12.2l4.47 1.62c7.85 2.81 16.7 6 23.7 7.03 13.7 2.12 28.9 .19 30.3-7.62 .88-5.09 1.36-7.9-27.9-16.3l-5.81-1.69c-17.3-5.09-57.9-17-50.5-59.8 3.6-20.9 19.4-34.9 41.8-39.7v-5.99c0-11 8.95-20 20-20s20 8.97 20 20v6.64c5.45 1.19 11.3 2.79 18.6 5.27 10.4 3.63 16 15 12.3 25.5-3.62 10.4-15.1 15.9-25.5 12.3-5.86-2.03-12-4-17.6-4.84-13.7-2.09-28.9-.19-30.3 7.62-.8 3.6-1.3 7.7 21.5 14.7l6.4 1.6c22.3 6.3 63.8 18.2 56.3 61.5zm-3.85-329v84.9h84.9L250 49.1M238 2c4.4 0 8.89 1.63 12.6 5.29l126 126c11.3 11.3 3.29 30.6-12.7 30.6h-126c-9.9 0-17.9-8.03-17.9-17.9V20c0-10.8 8.84-18 18-18h0z"/></svg>