<svg xmlns="http://www.w3.org/2000/svg" viewBox="0 0 384 512"><path d="M384 128h-128V0l128 128zm-128 32h128V464c0 26.5-21.5 48-48 48H48c-26.5 0-48-21.5-48-48V48C0 21.5 21.5 0 48 0H224V128c0 17.7 14.3 32 32 32zM64 88c0 4.38 3.63 8 8 8h80c4.4 0 8-3.62 8-8v-16c0-4.37-3.6-8-8-8H72c-4.37 0-8 3.63-8 8v16zm8 72h80c4.4 0 8-3.6 8-8v-16c0-4.4-3.6-8-8-8H72c-4.37 0-8 3.6-8 8v16c0 4.4 3.63 8 8 8zm126 157l-6.4-1.6c-22.8-7-22.3-11.1-21.5-14.7 1.38-7.81 16.6-9.72 30.3-7.62 5.59 .84 11.7 2.81 17.6 4.84 10.4 3.59 21.8-1.94 25.5-12.3 3.62-10.4-1.89-21.8-12.3-25.5-7.22-2.48-13.1-4.08-18.6-5.27v-6.64c0-11-8.95-20-20-20s-20 8.97-20 20v5.99c-22.4 4.81-38.2 18.8-41.8 39.7-7.41 42.8 33.2 54.8 50.5 59.8l5.81 1.69c29.3 8.38 28.8 11.2 27.9 16.3-1.38 7.81-16.6 9.75-30.3 7.62-6.94-1.03-15.8-4.22-23.7-7.03l-4.47-1.62c-10.4-3.59-21.8 1.81-25.5 12.2-3.67 10.4 1.78 21.8 12.2 25.5l4.27 1.5c7.76 2.79 16.4 5.59 25.1 7.51v6.76c0 11 8.95 20 20 20s20-8.97 20-20v-6.25c22.4-4.79 38.2-18.5 41.8-39.4 7.45-43.3-34-55.2-56.3-61.5z"/></svg>