<svg xmlns="http://www.w3.org/2000/svg" viewBox="0 0 512 512"><path d="M192 288H32c-17.6 0-32 14.4-32 32v160c0 17.6 14.4 32 32 32H192c17.6 0 32-14.4 32-32v-160c0-17.6-14.4-32-32-32zm-34.7 135c6.2 6.2 6.2 16.4 0 22.6s-16.4 6.2-22.6 0l-22.7-22.6-22.6 22.6c-6.2 6.2-16.4 6.2-22.6 0-6.2-6.2-6.2-16.4 0-22.6l22.6-22.6-22.6-22.6c-6.2-6.2-6.2-16.4 0-22.6 6.2-6.2 16.4-6.2 22.6 0l22.6 22.6 22.6-22.6c6.2-6.2 16.4-6.2 22.6 0 6.2 6.2 6.2 16.4 0 22.6l-22.6 22.6 22.7 22.6zm323-135h-160c-17.6 0-32 14.4-32 32v160c0 17.6 14.4 32 32 32h160c17.6 0 32-14.4 32-32v-160c0-17.6-14.4-32-32-32zm-16 143c0 9.6-7.2 16.9-16 16.9h-96.1c-8.7 0-15.9-7.2-15.9-16s7.2-16 15.1-16h96.1c9.6 0 16.8 7.2 16.8 15.1zm0-64c0 9.6-7.2 16.9-16 16.9h-96.1c-8.7 0-15.9-7.2-15.9-16s7.2-16 15.1-16h96.1c9.6 0 16.8 7.2 16.8 15.1zM480 0h-160c-17.6 0-32 14.4-32 32V192c0 17.6 14.4 32 32 32h160c17.6 0 32-14.4 32-32V32c0-17.6-14.4-32-32-32zm-16 111c0 9.7-7.2 16.9-16 16.9h-32v32c0 8.8-7.2 16-16 16s-16-7.2-16-16v-32h-32c-8.8 0-16-7.2-16-16s7.2-16 15.1-16h32.9v-32c0-8.8 7.2-16 15.1-16s16.9 7.2 16.9 16v32h32c8.8 0 16 7.2 16 15.1zM192 0H32C14.4 0 0 14.4 0 32V192c0 17.6 14.4 32 32 32H192c17.6 0 32-14.4 32-32V32c0-17.6-14.4-32-32-32zm-16 111c0 9.7-7.2 16.9-16 16.9H64c-8.8 0-16-7.2-16-16s7.2-16 16-16h96c8.8 0 16 7.2 16 15.1z"/></svg>