<svg xmlns="http://www.w3.org/2000/svg" viewBox="0 0 512 512"><path d="M478 31.8c1.11 0 2.12 1.01 2.12 2.12V204c0 1.11-1.01 2.12-2.12 2.12h-170c-1.11 0-2.12-1.01-2.12-2.12V33.9c0-1.11 1.01-2.12 2.12-2.12h170m0-31.8h-170c-18.7 0-33.9 15.2-33.9 33.9V204c0 18.7 15.2 33.9 33.9 33.9h170c18.7 0 33.9-15.2 33.9-33.9V33.9c0-18.7-15.3-33.9-33.9-33.9h0zm-20.8 118c0 9.7-7.2 16.9-16 16.9h-32v32c0 8.76-7.2 16-16 16s-16-7.2-16-16v-32h-32c-8.76 0-16-7.2-16-16s7.2-16 15.1-16h32.9v-32c0-8.78 7.2-16 15.1-16s16.9 7.18 16.9 16v32h32c8.76 0 16 7.2 16 15.1zm0 307c0 9.6-7.2 16.9-16 16.9h-96.1c-8.71 0-15.9-7.2-15.9-16s7.2-16 15.1-16h96.1c9.64 0 16.8 7.2 16.8 15.1zm0-64c0 9.6-7.2 16.9-16 16.9h-96.1c-8.74 0-15.9-7.2-15.9-16s7.2-16 15.1-16h96.1c9.61 0 16.8 7.2 16.8 15.1zm20.8-54c1.11 0 2.12 1.01 2.12 2.12v170c0 1.11-1.01 2.12-2.12 2.12h-170c-1.11 0-2.12-1.01-2.12-2.12v-170c0-1.11 1.01-2.12 2.12-2.12h170m0-31.8h-170c-18.7 0-33.9 15.2-33.9 33.9v170c0 18.7 15.2 33.9 33.9 33.9h170c18.7 0 33.9-15.2 33.9-33.9v-170c0-18.7-15.3-33.9-33.9-33.9h0zM164 416c6.22 6.22 6.22 16.4 0 22.6-6.22 6.22-16.4 6.22-22.6 0l-22.7-22.6-22.6 22.6c-6.22 6.22-16.4 6.22-22.6 0-6.22-6.22-6.22-16.4 0-22.6l22.6-22.6-22.6-22.6c-6.22-6.22-6.22-16.4 0-22.6 6.22-6.22 16.4-6.22 22.6 0l22.6 22.6 22.6-22.6c6.22-6.22 16.4-6.22 22.6 0 6.22 6.22 6.22 16.4 0 22.6l-22.6 22.6 22.7 22.6zm39.5-110c1.11 0 2.12 1.01 2.12 2.12v170c0 1.11-1.01 2.12-2.12 2.12H33.9c-1.11 0-2.12-1.01-2.12-2.12v-170c0-1.11 1.01-2.12 2.12-2.12H204m0-31.8H33.9c-18.7 0-33.9 15.2-33.9 33.9v170c0 18.7 15.2 33.9 33.9 33.9H204c18.7 0 33.9-15.2 33.9-33.9v-170c0-18.7-15.3-33.9-33.9-33.9h0zm0-243c1.11 0 2.12 1.01 2.12 2.12V204c0 1.11-1.01 2.12-2.12 2.12H33.9c-1.11 0-2.12-1.01-2.12-2.12V33.9c0-1.11 1.01-2.12 2.12-2.12H204m0-31.8H33.9C15.2 0 0 15.2 0 33.9V204c0 18.7 15.2 33.9 33.9 33.9H204c18.7 0 33.9-15.2 33.9-33.9V33.9c0-18.7-15.3-33.9-33.9-33.9h0zm-20.8 118c0 9.7-7.2 16.9-16 16.9H70.7c-8.78 0-16-7.2-16-16s7.18-16 16-16h96.1c8.75 0 15.9 7.2 15.9 15.1z"/></svg>