<svg xmlns="http://www.w3.org/2000/svg" viewBox="0 0 448 512"><path d="M112 0c8.8 0 16 7.16 16 16v48h192V16c0-8.84 7.2-16 16-16s16 7.16 16 16v48h32c35.3 0 64 28.6 64 64V448c0 35.3-28.7 64-64 64H64c-35.3 0-64-28.7-64-64V128c0-35.3 28.6-64 64-64h32V16c0-8.84 7.2-16 16-16zM416 192h-104v72h104v-72zm0 104h-104v80h104v-80zm0 112h-104v72h72c17.7 0 32-14.3 32-32v-40zm-136-32v-80h-112v80h112zm-112 104h112v-72h-112v72zm-32-104v-80H32v80h104zm-104 32v40c0 17.7 14.3 32 32 32h72v-72H32zm0-144h104v-72H32v72zm136 0h112v-72h-112v72zM384 96H64c-17.7 0-32 14.3-32 32v32H416v-32c0-17.7-14.3-32-32-32z"/></svg>