<svg xmlns="http://www.w3.org/2000/svg" viewBox="0 0 448 512"><path d="M96 32C96 14.3 110 0 128 0s32 14.3 32 32v32h128V32c0-17.7 14.3-32 32-32s32 14.3 32 32v32h48c26.5 0 48 21.5 48 48v48H0v-48c0-26.5 21.5-48 48-48h48V32zM0 192V464c0 26.5 21.5 48 48 48H400c26.5 0 48-21.5 48-48V192H0zm343 93.9h-16.7v-16.1l1.62-33-16.7 49.2h-11l-16.8-49.3 1.62 33.1v16.1h-16.7v-69.2h21.9l15.4 48.1 15.4-48.1h21.9v69.2zm69.2-33.2c0 6.74-1.25 12.7-3.75 17.9-2.5 5.19-6.06 9.19-10.7 12s-9.85 4.2-15.7 4.2-11.1-1.35-15.7-4.06c-4.56-2.71-8.11-6.58-10.7-11.6-2.55-5.03-3.89-10.8-4.01-17.3v-3.89c0-6.77 1.24-12.8 3.73-17.9 2.49-5.18 6.05-9.17 10.7-12 4.64-2.82 9.92-4.23 15.8-4.23s11.1 1.39 15.7 4.18c4.59 2.79 8.16 6.75 10.7 11.9 2.55 5.15 3.84 11 3.87 17.7v3.18zm18.3 31.4c-1.68 1.5-3.78 2.26-6.32 2.26s-4.68-.76-6.34-2.28-2.49-3.44-2.49-5.75 .83-4.23 2.49-5.75 3.78-2.28 6.34-2.28 4.64 .75 6.32 2.26c1.68 1.5 2.52 3.43 2.52 5.77s-.84 4.27-2.52 5.77zm-48.5-55.3c-8.36 0-12.8 6.27-13.3 18.8l-.05 5.08c0 6.78 1.12 12 3.37 15.6 2.25 3.64 5.59 5.46 10 5.46s7.46-1.79 9.74-5.37c2.28-3.58 3.44-8.72 3.47-15.4v-3.18c0-6.87-1.15-12.1-3.44-15.6-2.3-3.56-5.58-5.34-9.85-5.34z"/></svg>