<svg xmlns="http://www.w3.org/2000/svg" viewBox="0 0 574 512"><path d="M80 0c7.47 0 13.9 5.17 15.6 12.4l4.4 19.5h442c20.3 0 36.5 20.3 30.8 40.7l-54 192c-3.9 13.8-16.5 23.3-30.8 23.3H158l14.6 64H496c8.8 0 16 7.2 16 16s-7.2 16-16 16H160c-7.5 0-13.9-5.2-15.6-12.5L67.2 32H16C7.16 32 0 24.8 0 16S7.16 0 16 0H80zm27.3 64l42.8 192H488l54-192H107zm20.7 392c0-30.9 25.1-56 56-56s56 25.1 56 56-25.1 56-56 56-56-25.1-56-56zm56 24c13.3 0 24-10.7 24-24s-10.7-24-24-24-24 10.7-24 24 10.7 24 24 24zm328-24c0 30.9-25.1 56-56 56s-56-25.1-56-56 25.1-56 56-56 56 25.1 56 56zm-56-24c-13.3 0-24 10.7-24 24s10.7 24 24 24 24-10.7 24-24-10.7-24-24-24z"/></svg>