<svg xmlns="http://www.w3.org/2000/svg" viewBox="0 0 484 512"><path d="M264 270v-14.4c-.163 0-.366-.417-.529-.081h-.081c-10-1.57-26.5-5.89-37.7-10.8-6.64-2.98-9.63-10.8-6.69-17.4 2.82-6.52 10.4-9.54 16.9-6.72 .031 .01 .061 .031 .092 .041 10.1 4.03 20.6 7 31.3 8.86 13.2 1.97 24 .824 31.3-2.14 6.95-2.84 10.1-6.96 11-11.9 .784-4.41 .204-6.92-.539-8.49s-2.3-3.5-5.31-5.52c-6.71-4.41-16.9-7.37-30.2-11l-1.15-.326c-11.7-3.18-26-7.13-36.6-14.1-6.3-3.99-11.4-9.65-14.6-16.3-3.43-7.33-4.17-15.6-2.59-24.3 2.92-16 14.5-26.2 28-31.4 5.58-2.07 11.4-3.43 17.3-4.07v-14.4c.204-7.28 6.27-13 13.5-12.8 6.99 .193 12.6 5.82 12.8 12.8v14.7c.662 .081 1.28 .173 1.93 .275 4.37 .651 17.4 2.75 22.7 4.07 6.94 1.92 11.1 8.99 9.51 16-1.79 7.08-8.99 11.4-16.1 9.59-.01 0-.02 0-.031 0-3.83-1.35-15.5-2.92-20.1-3.57-13.2-1.98-24.5-1.02-32.3 1.97-7.52 2.88-10.6 6.95-11.5 11.5-.804 4.41-.193 6.92 .529 8.49 .723 1.57 2.3 3.5 5.32 5.52 6.7 4.41 16.9 7.37 30.2 11l1.15 .326c11.7 3.18 26 7.13 36.6 14.1 6.31 3.98 11.4 9.64 14.7 16.3 3.37 7.51 4.28 15.9 2.6 24-2.88 16-14 26.5-27.1 31.9-5.87 2.34-12 3.87-18.3 4.53v13.8c-.204 7.28-6.27 13-13.5 12.8-6.99-.193-12.6-5.82-12.8-12.8h.081zM.251 376l84.4 135 42-29.9L41 347 .251 376zm477-47.1c-9.61-14.3-29-18.3-43.4-8.75l-76.6 50.4c1.09 24.5-17.9 45.3-42.4 46.4-.346 .02-.692 .031-1.03 .031h-.896c-4.32 .041-8.61-.58-12.7-1.86l-73-21.7c-5.42-1.5-8.59-7.1-7.09-12.5 1.5-5.42 7.1-8.59 12.5-7.09 .122 .031 .244 .071 .356 .102l73.5 21.8c2.14 .631 4.36 .926 6.58 .875h.244c10.5 .122 19.7-6.78 22.6-16.8v-.132c3.67-11.9-2.51-24.6-14.1-29l-139-41.9c-14.1-4.06-29.2-1.97-41.6 5.75l-69 43.2 62.6 98.3 13.8-8.31c11.9-7.84 26.6-10 40.3-5.95l106 31.6c3.18 .977 6.48 1.45 9.8 1.39 8.92-.02 17.5-3.53 23.8-9.8l141-92.5c14.3-9.61 18.2-29 8.75-43.4h.031zm-22.9-160C455 75.8 379 0 286 0c-41.8 0-82 15.5-113 43.5-29.5 26.6-48.6 62.5-54.1 101h-51.9l71.5 124 71.5-124h-47.8c11.3-58.8 63.4-102 124-102 69.6 0 126 56.6 126 126 0 64.3-48.3 117-110 125v43c85.8-7.96 153-80.4 153-168z"/></svg>