<svg xmlns="http://www.w3.org/2000/svg" viewBox="0 0 503 512"><path d="M271 268v-14.6c-.165 0-.372-.424-.538-.083h-.083c-10.2-1.59-27-5.99-38.3-11-6.74-3.03-9.78-10.9-6.8-17.7 2.87-6.63 10.6-9.69 17.2-6.83 .031 .01 .062 .031 .093 .041 10.3 4.1 20.9 7.12 31.8 9 13.4 2.01 24.4 .838 31.8-2.17 7.06-2.89 10.3-7.07 11.2-12.1 .796-4.48 .207-7.03-.548-8.63s-2.34-3.56-5.4-5.61c-6.82-4.48-17.2-7.49-30.7-11.1l-1.17-.331c-11.9-3.23-26.5-7.24-37.2-14.4-6.4-4.05-11.6-9.81-14.9-16.6-3.49-7.45-4.24-15.8-2.63-24.7 2.97-16.3 14.7-26.7 28.5-31.9 5.67-2.1 11.6-3.49 17.6-4.14v-14.6c.207-7.4 6.37-13.2 13.8-13 7.11 .197 12.8 5.92 13 13v14.9c.672 .083 1.3 .176 1.97 .279 4.44 .662 17.7 2.79 23.1 4.14 7.05 1.95 11.3 9.13 9.66 16.3-1.82 7.2-9.13 11.6-16.3 9.74-.01 0-.021 0-.031 0-3.89-1.38-15.7-2.97-20.4-3.63-13.4-2.02-24.9-1.03-32.9 2.01-7.64 2.93-10.8 7.06-11.7 11.7-.817 4.48-.197 7.03 .538 8.63 .734 1.59 2.34 3.56 5.41 5.61 6.81 4.48 17.2 7.49 30.7 11.1l1.17 .331c11.9 3.23 26.4 7.24 37.2 14.4 6.41 4.04 11.6 9.8 14.9 16.6 3.42 7.63 4.34 16.2 2.64 24.3-2.93 16.3-14.2 26.9-27.5 32.4-5.97 2.38-12.2 3.93-18.6 4.6v14c-.207 7.4-6.37 13.2-13.8 13-7.11-.197-12.8-5.92-13-13h.083zM112 495L26.5 358 .155 374l85.7 137 26.3-16.4zm203-166c38.2-5.15 73.4-23.5 99.8-52.3 28.1-30.6 43.5-70.3 43.5-112C459 74.2 385 0 293 0c-41 0-80.3 15.2-111 42.7-28.8 26-47.6 61.3-53 99.4l-.755 5.34h-47.3l61.9 107 61.9-107h-45.4l1.42-7.37c12.2-63.1 67.7-109 132-109 74.1 0 134 60.3 134 134 0 65.8-47.9 122-112 133v31.4zm-11.2 163c-4.22 2.45-114-32.4-121-34.1-15.3-5.61-30.1 5.26-42.5 12.9-7.21 4.34-16.6 2.14-21.1-4.95-75.8-132-103-93.5 11.3-165 16.4-10.2 36.3-12.9 54.8-7.6 .186-.072 142 42.7 142 42.7 10.2 3.47 18.2 11.1 22.6 20.2 0 0 78.5-49.4 78.5-49.4 52.5-32.9 103 43.4 52.2 78.9-24.3 12-150 109-176 107zm-131-66.6c16.8-1.59 114 33.8 131 35.5 5.47 3.55 150-97.9 159-101 17.5-12.4-.134-38.8-18.3-26.9 0 0-97 61-97 61-7.09 11.9-20.4 19.5-34.7 19.1-5.02 1.51-78.8-22.2-85.4-23.7-19.8-5.79-10.6-36 9.12-29.7 0 0 74.3 22 74.3 22 4.36 1.26 10.1-.993 10.9-5.97 1.27-4.11-.776-8.51-4.68-10.2l-141-42.4c-10-2.88-20.8-1.37-29.7 4.14 0 0-56.8 35.6-56.8 35.6l47.1 73.9c10.8-7.14 23.3-11 36-11zm54.9-36.4h0z"/></svg>