<svg xmlns="http://www.w3.org/2000/svg" viewBox="0 0 512 512"><path d="M257 337c16.4 0 31.8-5.01 44.4-13.5l34.3 85c0 0 42.2 101-74.5 104s-104-49.8-95.5-63.2s61.4-45.5 72.1-68.6c6.31-13.7 9.62-31.2 11.2-43.9C251 336 254 337 257 337zM512 251c-2.71-117-104-74.5-104-74.5l-85.7 34.6c8.92 12.9 14.1 28.6 14.1 45.4c0 2.2-.1 4.41-.301 6.61c12.7 1.6 30.2 4.91 43.8 11.2c23.1 10.7 55.2 64.1 68.6 72.1C462 355 515 368 512 251zM263 177c1.6-12.8 4.81-31 11.4-45c10.7-23.1 64.1-55.2 72.1-68.6s21.3-65.9-95.5-63.2s-74.5 104-74.5 104l35 86.6c12.8-8.72 28.3-13.8 45-13.8C259 177 261 177 263 177zM177 249c-12.8-1.6-31-4.81-45.1-11.4c-23.1-10.7-55.2-64.1-68.6-72.1s-65.9-21.3-63.2 95.5s104 74.5 104 74.5l86-34.7c-8.32-12.6-13.2-27.8-13.2-44C177 254 177 251 177 249zM257 199c-31.6 0-57.2 25.7-57.2 57.2s25.7 57.2 57.2 57.2s57.2-25.7 57.2-57.2S288 199 257 199z"/></svg>