<svg xmlns="http://www.w3.org/2000/svg" viewBox="0 0 512 512"><path d="M260 30.1c27.2 0 42.5 3.51 50.6 6.51c8.72 3.21 10.8 6.31 11 6.71c.501 .902 .1 2.81-.301 4.01c-3.41 3.51-13.1 11.2-19.7 16.4c-26.3 20.7-45.5 36.9-54.1 55.5c-3.81 8.32-7.01 18-9.62 29c-3.31 .601-6.51 1.3-9.82 2.2l-23.3-57.7l-.1-.2l-.1-.2c-2.3-5.61-9.82-31.5-.601-45.7c8.32-12.8 30.8-16 48.1-16.4C255 30.1 257 30.1 260 30.1L260 30.1M44.5 190c1 0 2.1 .301 2.81 .501c3.51 3.41 11.2 13.1 16.4 19.7c20.7 26.3 36.9 45.5 55.5 54.1c8.22 3.81 17.8 7.01 28.7 9.52c.501 3.31 1.2 6.71 2.1 9.92l-57.4 23.1l0 0l-.2 .1c-1.1 .401-13.5 5.11-27.2 5.11c-14.5 0-20.1-5.41-21.9-7.21c-8.12-7.82-12.6-23.5-13.1-45.5c-1.2-52.3 9.82-66.3 12-68.5C43.3 190 43.8 190 44.5 190M447 199c14.5 0 20.1 5.41 21.9 7.21c8.12 7.82 12.6 23.5 13.1 45.5c1.2 52.3-9.82 66.3-12 68.5c-1.1 1.2-1.6 1.2-2.3 1.2c-1 0-2.1-.301-2.81-.501c-3.51-3.41-11.2-13.1-16.4-19.7c-20.7-26.3-36.9-45.5-55.5-54.1c-8.02-3.71-17.2-6.81-27.7-9.32c-.601-3.51-1.4-7.01-2.3-10.5l56.7-22.8l0 0l.301-.1C421 204 433 199 447 199M257 229c15 0 27.2 12.2 27.2 27.2c0 15-12.2 27.2-27.2 27.2c-15 0-27.2-12.2-27.2-27.2C229 242 242 229 257 229M285 363l22.7 56.3l0 0l.1 .301c3.11 7.72 9.62 32.2 .501 45.9c-8.42 12.7-30.8 15.9-48 16.3c-2.61 .1-5.21 .1-7.82 .1c-27.2 0-42.5-3.51-50.6-6.51c-8.72-3.21-10.8-6.31-11-6.71c-.501-.902-.1-2.81 .301-4.01c3.41-3.51 13.1-11.2 19.7-16.4c26.3-20.7 45.5-36.9 54.1-55.5c3.71-7.92 6.71-17.1 9.22-27.5C278 365 281 364 285 363M260 0c-2.71 0-5.51 0-8.52 .1c-117 2.71-74.5 104-74.5 104l35 86.6c12.8-8.72 28.3-13.8 45-13.8c2.2 0 4.41 .1 6.51 .301c1.6-12.8 4.81-31 11.4-45c10.7-23.1 64.1-55.2 72.1-68.6C354 50.2 367 0 260 0L260 0zM44.5 160c-20 0-46.3 17-44.4 100c1.6 67.7 36.3 82 65.1 82c20.8 0 38.7-7.41 38.7-7.41l86-34.7c-8.32-12.6-13.2-27.8-13.2-44c0-2.61 .1-5.21 .401-7.72c-12.8-1.6-31-4.81-45.1-11.4c-23.1-10.7-55.2-64.1-68.6-72.1C59.5 163 52.5 160 44.5 160L44.5 160zM447 169c-20.8 0-38.7 7.41-38.7 7.41l-85.7 34.6c8.92 12.9 14.1 28.6 14.1 45.4c0 2.2-.1 4.41-.301 6.61c12.7 1.6 30.2 4.91 43.8 11.2c23.1 10.7 55.2 64.1 68.6 72.1c3.81 2.3 10.8 5.01 18.8 5.01c20 0 46.3-17 44.4-100C510 183 476 169 447 169L447 169zM257 199c-31.6 0-57.2 25.7-57.2 57.2c0 31.6 25.7 57.2 57.2 57.2c31.6 0 57.2-25.7 57.2-57.2C314 225 288 199 257 199L257 199zM301 323c-12.7 8.52-28 13.5-44.4 13.5c-2.61 0-5.31-.1-7.82-.401c-1.6 12.7-4.91 30.2-11.2 43.9c-10.7 23.1-64.1 55.2-72.1 68.6c-7.82 13.1-20.6 63.3 87 63.3c2.71 0 5.61 0 8.52-.1c117-2.71 74.5-104 74.5-104L301 323L301 323z"/></svg>