<svg xmlns="http://www.w3.org/2000/svg" viewBox="0 0 586 512"><path d="M292 0C130 0 .463 106 .463 238c0 56.7 24.4 109 65.1 149-14.3 57.6-62 109-62.6 109-2.57 2.57-3.29 6.55-1.71 9.98 1.43 3.43 4.59 5.45 8.31 5.45 75.7 0 132-36.3 161-58.7 37.3 14 78.9 22.2 123 22.2 162 0 292-106 292-237S454 0 292 0zM145 274c-20.3 0-36.6-16.3-36.6-35.5s16.3-36.6 36.6-36.6 36.6 16.3 36.6 36.6-15.3 35.5-36.6 35.5zm147 0c-20.3 0-35.5-16.3-35.5-35.5s16.3-36.6 35.5-36.6 35.5 16.3 35.5 36.6-15.2 35.5-35.5 35.5zm145 0c-20.3 0-36.6-16.3-36.6-35.5s16.3-36.6 36.6-36.6 36.6 16.3 36.6 36.6-15.3 35.5-36.6 35.5z"/></svg>