<svg xmlns="http://www.w3.org/2000/svg" viewBox="0 0 552 512"><path d="M533.5 178.9h-68.7l-58.7 77.6h74.6c9 0 16.4 7.3 16.4 16.4h0c0 9-7.3 16.4-16.4 16.4h-99.3L346 336.1h134.8c9 0 16.4 7.3 16.4 16.4h0c0 9-7.3 16.4-16.4 16.4H321.1l-25.8 34.1c-2.6 5.1-51.4 26.5-56.9 30c-.4 7.4-4.3 15.5-7.4 20.7c16.5-11.6 34.4-22.7 36.1 7.2c4.4-3.1 8.2-6.4 11.4-9.9c5.5-6.4 16.7-1 15.1 7.3c2.3 2.5 9 2.1 11.1 .8c2.6-4.4 9.8-5.6 13.8-2l169.8 .1c4.8 0 8.7 3.9 8.7 8.7h0c0 4.8-3.9 8.7-8.7 8.7c-36.2 0-173.2 0-175.2-.3c-9.2 4.9-22.9 4.5-30.9-2.8c-18.6 14-30.6 21.9-32.4-8.8c-2.6 1.1-35.2 23.7-37.6 22.1c-19.5-4.5-2.4-29 4.4-40.8c-19.1 9.5-42.7 19.3-59.4 32.3c-9.2 6.7-19.4-8.1-9.9-14.3c7.3-5 15-9.9 22.7-14.6c-4.5-3.4 12-72.8 12-78.3h-5.1c-9 0-16.4-7.3-16.4-16.4h0c0-9 7.3-16.4 16.4-16.4h11.2c-1.1-9.5 26.2-39.3 30.8-46.8h-42c-9 0-16.4-7.3-16.4-16.4h0c0-9 7.3-16.4 16.4-16.4h66.8s58.8-77.7 58.8-77.7c-135.2 0-280.1-.1-283.5 .1c-10.3 0-18.7 8.4-18.7 18.7V493.6c0 10.3 8.4 18.7 18.7 18.7H533.4c10.3 0 18.7-8.4 18.7-18.7V197.6c.1-10.3-8.3-18.7-18.6-18.7zM127.3 365.1c-6.4 10.5-17.9 18-30.2 20.2c2.4 29.5-34.7 27.9-31.4-.9c-7.8-1.5-18.3-4.5-26.2-8c-15.4-5.9-9.5-30.3 6-30c12.1 2.3 25.7 9.2 39.4 8.6c13.1 0 15.6-5.3 16.4-7.6c.7-5-3.9-7.2-16.9-10.7c-17.8-5.6-41-8.7-51-28.8c-11.5-23.8 7.9-49.7 32.3-53.5c-2.7-29.8 34.8-28.6 31.5 .5c4.7 .8 11 1.9 15.1 2.7c17.4 3.8 13.4 31.2-3.7 30.8c-9.6-1.2-19.8-4.3-29.4-3.9c-9.9 .3-17.7 1.9-17.5 9.8c3.5 6 19.3 8.2 26.9 10.9c28.2 5 57.1 28.8 38.8 59.8zM469.2 12.8c5.3-7 13.2-11.5 22.2-12.4c.1 0 .3 0 .4-.1c14.4-2.1 25.1 7.2 30.3 16.5c5.1 9.2 7.4 22.9-1.6 34.1c-.1 .1-241.4 319.2-241.4 319.2l-51-38.5 241-318.7zM251.2 390l-43.8 21.7 9-48 34.8 26.3z"/></svg>