<svg xmlns="http://www.w3.org/2000/svg" viewBox="0 0 529 512"><path d="M526.1 210.1V494.6c0 9.8-8 17.8-17.8 17.8H18c-9.8 0-17.8-8-17.8-17.8V212.4c0-9.8 8-17.8 17.8-17.8c.9 0 165-.1 217.1-.1c8.6 0 15.6 7 15.6 15.7v.4c0 8.3-6.8 15.2-15.2 15.2H52.2c-11.5 0-20.8 9.3-20.8 20.8v213.7c0 11.5 9.3 20.8 20.8 20.8H474.1c11.5 0 20.8-9.3 20.8-20.8V210.6c0-8.4 6.5-15.7 14.9-16.1c9-.4 16.3 6.8 16.3 15.6zM136.4 369.4c5.4-9.1 6.2-17.7 2.6-25.6c-5.2-11.2-19.6-20.6-35.9-23.5l-.4-.1-.4-.1c-1.8-.6-4.3-1.2-6.9-2c-8.8-2.3-17.9-4.7-21.4-10.6l-.7-1.1V305c-.4-14 15.6-14.6 21.6-14.8h1.2c5.9 0 12 1.1 17.7 2.2c3.3 .6 6.3 1.1 9.5 1.6h0c6 0 8.2-5.6 8.6-8.9c.1-1.5 .5-8.6-6.7-10.2c-3.6-.8-9.4-1.9-14-2.6l-4.9-.8 .5-4.9c.6-5.2-.4-9.6-2.9-12.4c-1.8-2-4.4-3.2-7.1-3.2s-4.9 1-6.7 2.9c-2.5 2.7-3.5 7-3 12.2l.4 4.9-4.8 .7c-11 1.7-21 8.8-26.2 18.6c-4.3 8.1-4.6 17-.7 24.9c7 14 22.2 18.3 36.9 22.4c2.8 .8 5.7 1.6 8.5 2.5c10.5 2.8 21.3 5.8 19.9 15.9l-.1 .5-.2 .5c-1.7 4.9-6.6 10.7-20.4 10.7h-1.6c-8.7 0-17-2.6-24.9-5c-4.2-1.2-8.1-2.5-11.8-3.2c-4.7 .1-7.6 4.4-8.3 8.4c-.7 3.7 .3 8.4 5 10.2h.1l.1 .1c7.7 3.4 17.7 6 23.9 7.3l4.7 .9-.5 4.7c-.6 5.2 .4 9.5 2.9 12.3c1.8 2.1 4.4 3.2 7.1 3.2c2.5 0 4.9-1 6.6-2.9c2.4-2.6 3.5-6.8 3.1-12l-.4-4.7 4.7-.8c10.2-1.8 19.9-8.2 25.2-16.8zm97.1-100.8l184.6-244c10.2-13.5 25.3-22.1 42.4-24c2.6-.3 5.3-.5 7.9-.5c21.1 0 41.2 12.2 52.3 31.8c12.4 22.1 10.8 48.3-4.2 67c-3.7 4.9-69.1 91.3-128.4 169.7h48.6c8.4 0 15.7 6.5 16 14.9c.4 9-6.7 16.3-15.6 16.3h-72.6c-12.2 16.1-23.7 31.3-33.8 44.6h106c8.4 0 15.7 6.5 16 14.9c.4 9-6.7 16.3-15.6 16.3H307.1c-7.2 9.5-12.3 16.2-14.5 19.1c-.8 1-1.9 2-3 2.7L225 435.8c-1.4 3.9-3.2 7.6-5 10.4c15.7-11 32.8-21.6 34.4 6.9c4.2-2.9 7.8-6.1 10.8-9.5c5.2-6.1 15.9-.9 14.4 7c2.2 2.4 8.5 2 10.6 .7c2.5-4.2 9.4-5.3 13.1-1.9l141.1 .1c4.5 0 8.2 3.7 8.2 8.2h0c0 4.5-3.7 8.2-8.2 8.2c-31.7 0-144.3 0-146.2-.3c-8.7 4.7-21.9 4.3-29.5-2.7c-17.7 13.3-29.1 20.9-30.9-8.4c-2.5 1-33.5 22.6-35.8 21c-12-2.7-9.5-13.3-4.5-23.6L173 466.5c-5.8 3.4-12.7 .4-15-5c-2.9 1.9-5.8 3.9-8.4 5.9c-8.7 6.3-18.5-7.7-9.5-13.6c6.9-4.8 14-9.4 21.4-13.8l17.1-64.3c-8.8-.1-15.9-7.6-15.4-16.5c.5-8.3 7.7-14.7 16-14.7h7.6s5.4-20.3 5.4-20.3c.3-1.4 .9-2.5 1.8-3.6l15.7-20.7h-30.5c-8.4 0-15.7-6.5-16-14.9c-.4-9 6.7-16.3 15.6-16.3h54.6zm27.9 115.1l-48.1-36.3-19.9 76.3 68-40zm-29.5-61.4l48.6 36.7S491.8 79.8 491.9 79.7c8.6-10.7 6.6-23.7 1.6-32.5c-5-8.8-15.2-17.7-28.9-15.7c-.1 0-.3 0-.4 .1c-8.5 .9-16 5.2-21.1 11.9l-211 278.8z"/></svg>