<svg xmlns="http://www.w3.org/2000/svg" viewBox="0 0 512 512"><path d="M256 30c30.5 0 60.1 5.97 88 17.8 26.9 11.4 51.1 27.7 71.8 48.4 20.8 20.8 37.1 44.9 48.4 71.8 11.8 27.8 17.8 57.4 17.8 88s-5.97 60.1-17.8 88c-11.4 26.9-27.7 51.1-48.4 71.8-20.8 20.8-44.9 37.1-71.8 48.4-27.8 11.8-57.4 17.8-88 17.8s-60.1-5.97-88-17.8c-26.9-11.4-51.1-27.7-71.8-48.4-20.8-20.8-37.1-44.9-48.4-71.8-11.8-27.8-17.8-57.4-17.8-88s5.97-60.1 17.8-88c11.4-26.9 27.7-51.1 48.4-71.8 20.8-20.8 44.9-37.1 71.8-48.4 27.8-11.8 57.4-17.8 88-17.8m0-30C115 0 0 115 0 256s115 256 256 256 256-115 256-256S397 0 256 0h0zm13.8 378v-21.5l6.22-.7c8.57-.96 16.4-2.89 23.4-5.75 10.8-4.32 29.7-15.2 34.2-39.3 3.68-20.4-4.31-39.5-21.4-51.2-13.6-9.33-32.3-14.7-47.3-19l-.98-.28c-2.33-.61-4.99-1.39-7.7-2.92-10.3-2.05-23.3-5.35-34.4-12.4-8.69-5.56-9.5-12.6-9.21-16.2 .77-9.73 10.1-17.1 17.8-20.5 8.9-3.8 19.3-5.82 30-5.82 5.11 0 10.1 .46 15 1.38 6.37 1.26 12.6 2.97 18.7 4.63l3.07 .84 .19 .06c1.03 .34 2.24 .66 3.4 .97l.86 .23c1.29 .36 2.62 .54 3.94 .54 0 0 0 0 0 0 6.51 0 12.3-4.39 14-10.7 2.34-8.42-3.66-15.4-10.9-18.1-1.56-.41-2.48-.7-3.29-.96-.48-.15-.94-.3-1.59-.48-9.15-2.57-18.6-5.23-28-6.39l-6.14-.76v-20.4c0-8.05-6.55-14.6-14.6-14.6s-14.6 6.55-14.6 14.6v21.7l-5.43 1.25c-.81 .19-1.61 .36-2.41 .54-4.96 1.1-9.24 2.05-13.1 4.34l-.41 .25-.44 .19c-11.2 4.81-30.7 16.3-34.9 38.8-3.57 19.6 4.72 38.1 22.2 49.3 13.2 8.45 31.3 13.6 45.8 17.7l.39 .11c.86 .24 1.62 .47 2.39 .71 1.18 .37 2.3 .72 4.07 1.11l.16 .04 .16 .04c1.48 .4 2.97 .79 4.47 1.17 11 2.86 22.4 5.82 32.3 13.4 6.86 4.77 10.2 11.8 9.13 19.4-1.17 8.4-7.6 15.8-16.4 18.9-7.09 3.47-16.1 5.23-26.7 5.23-5.18 0-10.7-.43-16.6-1.29-11.7-1.81-23.1-5.66-34.2-9.39l-1.42-.48c-1.27-.41-2.55-.84-3.82-1.27-1.21-.41-2.42-.82-3.63-1.21l-.1-.03c-1.49-.5-3.03-.75-4.58-.75-6.32 0-11.9 4.02-13.9 10.1-1.24 3.67-.95 7.62 .8 11.1 1.76 3.5 4.75 6.09 8.43 7.3l1.73 .56c13.2 4.31 26.8 8.76 40.4 11.8l5.49 1.21v23c0 8.05 6.55 14.6 14.6 14.6s14.6-6.55 14.6-14.6z"/></svg>