<svg xmlns="http://www.w3.org/2000/svg" viewBox="0 0 512 512"><path d="M256 30c30.5 0 60.1 5.97 88 17.8 26.9 11.4 51.1 27.7 71.8 48.4 20.8 20.8 37.1 44.9 48.4 71.8 11.8 27.8 17.8 57.4 17.8 88s-5.97 60.1-17.8 88c-11.4 26.9-27.7 51.1-48.4 71.8-20.8 20.8-44.9 37.1-71.8 48.4-27.8 11.8-57.4 17.8-88 17.8s-60.1-5.97-88-17.8c-26.9-11.4-51.1-27.7-71.8-48.4-20.8-20.8-37.1-44.9-48.4-71.8-11.8-27.8-17.8-57.4-17.8-88s5.97-60.1 17.8-88c11.4-26.9 27.7-51.1 48.4-71.8 20.8-20.8 44.9-37.1 71.8-48.4 27.8-11.8 57.4-17.8 88-17.8m0-30C115 0 0 115 0 256s115 256 256 256 256-115 256-256S397 0 256 0h0zm27 160c0-14.9-12.1-27-27-27s-27 12.1-27 27 12.1 27 27 27 27-12.1 27-27zm13 219c10.5 0 19-8.52 19-19s-8.52-19-19-19h-21v-93c0-10.5-8.52-19-19-19h-32c-10.5 0-19 8.52-19 19s8.52 19 19 19h13v74h-21c-10.5 0-19 8.52-19 19s8.52 19 19 19h80z"/></svg>