<svg xmlns="http://www.w3.org/2000/svg" viewBox="0 0 512 512"><path d="M256 30c30.5 0 60.1 5.97 88 17.8 26.9 11.4 51.1 27.7 71.8 48.4 20.8 20.8 37.1 44.9 48.4 71.8 11.8 27.8 17.8 57.4 17.8 88s-5.97 60.1-17.8 88c-11.4 26.9-27.7 51.1-48.4 71.8-20.8 20.8-44.9 37.1-71.8 48.4-27.8 11.8-57.4 17.8-88 17.8s-60.1-5.97-88-17.8c-26.9-11.4-51.1-27.7-71.8-48.4-20.8-20.8-37.1-44.9-48.4-71.8-11.8-27.8-17.8-57.4-17.8-88s5.97-60.1 17.8-88c11.4-26.9 27.7-51.1 48.4-71.8 20.8-20.8 44.9-37.1 71.8-48.4 27.8-11.8 57.4-17.8 88-17.8m0-30C115 0 0 115 0 256s115 256 256 256 256-115 256-256S397 0 256 0h0zm96.5 338c5.61 0 10.6-2.81 13.4-7.53l.16-.28 .19-.26c2.88-3.86 4.03-8.53 3.24-13.1-.81-4.73-3.5-8.85-7.56-11.6l-88-58.6V120c0-10.1-8.3-18-18.9-18-9.59 0-18 8.41-18 18l.9 136c0 5.93 2.96 11.4 7.54 13.8l.25 .13 96.4 64.3 .13 .09c3.06 2.28 6.6 3.48 10.2 3.48h0z"/></svg>