<svg xmlns="http://www.w3.org/2000/svg" viewBox="0 0 512 512"><path d="M104 320H408c57.3 0 104-46.7 104-104s-43.1-100-97.3-104c-7.49-45.5-47.1-80.2-94.7-80.2-19 0-37.1 5.47-52.6 15.7C247 18.2 213 0 176 0c-61.7 0-112 50.3-112 112 0 2.72 .09 5.44 .31 8.19C25.8 136 0 174 0 216c0 57.3 46.7 104 104 104zm-18-173c8.22-2.16 13.3-10.3 11.7-18.7-1.07-5.14-1.63-10.4-1.63-15.9 0-44.1 35.9-80 80-80 31 0 59.4 18.3 72.5 46.6 2.19 4.78 6.59 8.19 11.8 9.06 5.19 1.09 10.5-.75 14.2-4.53 12.2-12.4 28.4-19.2 45.6-19.2 35.3 0 64 28.7 64 64 0 8.84 7.16 16 16 16h8c39.7 0 72 32.3 72 72s-32.3 72-72 72H104c-39.7 0-72-32.3-72-72 0-32.6 22.2-61.1 54-69.4zm417 237c-4.41-7.69-14.2-10.3-21.8-5.84l-17.6 10.1v-20.3c0-8.84-7.16-16-16-16s-16 7.16-16 16v20.3l-17.6-10.1c-7.64-4.36-17.4-1.86-21.8 5.84-4.44 7.66-1.81 17.4 5.84 21.8l17.6 10.2-17.6 10.2c-7.61 4.44-10.2 14.1-5.81 21.8 2.94 5.12 8.34 8 13.8 8 2.72 0 5.47-.69 8-2.16l17.6-10.1v20.3c0 8.84 7.16 16 16 16s16-7.16 16-16v-20.3l17.6 10.1c2.53 1.47 5.28 2.16 8 2.16 5.5 0 10.9-2.88 13.8-8 4.44-7.66 1.81-17.4-5.84-21.8l-18.5-10.2 17.6-10.2c8.51-4.44 11.1-14.1 6.71-21.8zm-384 0c-4.41-7.69-14.2-10.3-21.8-5.84l-17.6 10.1v-20.3c0-8.8-7.16-16-16-16s-16 7.16-16 16v20.3l-17.6-10.1c-7.63-4.36-17.4-1.86-21.9 5.84-4.44 7.66-1.81 17.4 5.84 21.8l17.6 10.2-17.6 10.2c-7.66 4.44-10.3 14.1-5.85 21.8 2.94 5.12 8.34 8 13.8 8 2.72 0 5.47-.69 8-2.16l17.6-10.1v20.3c0 8.8 7.16 16 16 16s16-7.16 16-16v-20.3l17.6 10.1c2.54 1.46 5.24 2.16 8.04 2.16 5.5 0 10.9-2.88 13.8-8 4.44-7.66 1.81-17.4-5.84-21.8l-17.6-10.2 17.6-10.2c7.64-4.44 10.2-14.1 5.84-21.8zm193 32c-4.41-7.69-14.2-10.3-21.8-5.84l-17.6 10.1v-20.3c0-8.84-7.16-16-16-16s-16 7.16-16 16v20.3l-16.7-10.1c-7.6-4.4-17.4-1.9-21.8 5.8-4.44 7.66-1.81 17.4 5.84 21.8l17.6 10.2-17.6 10.2c-7.7 4.4-10.3 14.1-5.8 21.8 2.94 5.12 8.34 8 13.8 8 2.72 0 5.47-.69 8-2.16l17.6-10.1v20.3c0 8.84 7.16 16 16 16s16-7.16 16-16v-20.3l17.6 10.1c2.53 1.47 5.28 2.16 8 2.16 5.5 0 10.9-2.88 13.8-8 4.44-7.66 1.81-17.4-5.84-21.8l-17.7-10.2 17.6-10.2c7.71-4.44 10.3-14.1 5.01-21.8z"/></svg>