<svg xmlns="http://www.w3.org/2000/svg" viewBox="0 0 732 512"><path d="M293 34.3c26.6 0 52.6 7.1 75.4 20.5 22.1 13.1 40.6 31.7 53.5 54l19.1 33 30.8-22.5c10.8-7.91 24.5-11.9 40.7-11.9 20.3 0 39.3 7.74 53.4 21.8 14.2 14.1 22 33.2 22 53.6 0 9.28-1.71 18.5-5.09 27.4l-14.3 37.8 39.6 8c24.9 5.03 47.6 18.7 63.9 38.4 16.5 20 25.6 45.3 25.6 71.3 0 61.8-50.2 112-112 112H165c-71.8 0-130-58.4-130-130 0-55.2 35-105 87-123l24.1-8.48-1.23-25.5c-.126-2.61-.194-5.17-.194-7.61 0-39.7 15.5-77 43.5-105s65.4-43.5 105-43.5m0-34.3C192 0 110 81.8 110 183c0 3.09 .08 6.17 .229 9.26C46.2 215 .286 276 .286 347c0 90.9 73.7 165 165 165h421c80.8 0 146-65.5 146-146 0-70.7-50.3-130-117-143 4.69-12.3 7.31-25.6 7.31-39.5 0-61.6-49.1-110-110-110-22.5 0-43.5 5.83-60.9 18.5C420 36.9 361 0 293 0h0z"/></svg>