<svg xmlns="http://www.w3.org/2000/svg" viewBox="0 0 512 512"><path d="M96 320H416c53 0 96-43 96-96s-43-96-96-96c-.6 0-1.1 .2-1.6 .2 1.1-5.2 1.6-10.7 1.6-16.2 0-44.2-35.7-80-80-80-24.6 0-46.2 11.2-61 28.8C256 24.8 219 0 176 0c-61.9 0-112 50.1-112 112 0 7.2 .8 14.2 2.1 21.2C27.8 146 0 182 0 224c0 53 43 96 96 96zM503 384c-4.4-7.7-14.2-10.3-21.8-5.8l-17.6 10.1v-20.3c0-8.8-7.2-16-16-16s-16 7.2-16 16v20.3l-17.6-10.1c-7.6-4.4-17.4-1.9-21.8 5.8-4.4 7.7-1.8 17.4 5.8 21.8l17.6 10.2-17.6 10.2c-7.6 4.4-10.2 14.1-5.8 21.8 2.9 5.1 8.3 8 13.8 8 2.7 0 5.5-.7 8-2.2l17.6-10.1v20.3c0 8.8 7.2 16 16 16s16-7.2 16-16v-20.3l17.6 10.1c2.5 1.5 5.3 2.2 8 2.2 5.5 0 10.9-2.9 13.8-8 4.4-7.7 1.8-17.4-5.8-21.8l-18.5-10.2 17.6-10.2c8.5-4.4 11.1-14.1 6.7-21.8zM119 384c-4.4-7.7-14.2-10.3-21.8-5.8l-17.6 10.1v-20.3c0-8.8-7.2-16-16-16s-16 7.2-16 16v20.3l-17.6-10.1c-7.6-4.4-17.4-1.9-21.8 5.8-4.4 7.7-1.8 17.4 5.8 21.8l17.6 10.2-17.6 10.2c-7.7 4.4-10.3 14.1-5.8 21.8 2.9 5.1 8.3 8 13.8 8 2.7 0 5.5-.7 8-2.2l17.6-10.1v20.3c0 8.8 7.2 16 16 16s16-7.2 16-16v-20.3l17.6 10.1c2.5 1.5 5.2 2.2 8 2.2 5.5 0 10.9-2.9 13.8-8 4.4-7.7 1.8-17.4-5.8-21.8l-17.6-10.2 17.6-10.2c7.6-4.4 10.2-14.1 5.8-21.8zM312 416c-4.4-7.7-14.2-10.3-21.8-5.8l-17.6 10.1v-20.3c0-8.8-7.2-16-16-16s-16 7.2-16 16v20.3l-16.7-10.1c-7.6-4.4-17.4-1.9-21.8 5.8-4.4 7.7-1.8 17.4 5.8 21.8l17.6 10.2-17.6 10.2c-7.7 4.4-10.3 14.1-5.8 21.8 2.9 5.1 8.3 8 13.8 8 2.7 0 5.5-.7 8-2.2l17.6-10.1v20.3c0 8.8 7.2 16 16 16s16-7.2 16-16v-20.3l17.6 10.1c2.5 1.5 5.3 2.2 8 2.2 5.5 0 10.9-2.9 13.8-8 4.4-7.7 1.8-17.4-5.8-21.8l-17.7-10.2 17.6-10.2c7.7-4.4 10.3-14.1 5-21.8z"/></svg>