<svg xmlns="http://www.w3.org/2000/svg" viewBox="0 0 512 512"><path d="M416 128c-.62 0-1.12 .25-1.62 .25 1.12-5.25 1.62-10.6 1.62-16.3 0-44.3-35.7-80-80-80-24.6 0-46.3 11.3-61 28.8C256 24.8 219 0 176 0c-61.9 0-112 50.1-112 112 0 7.25 .75 14.3 2.12 21.3C27.8 146 0 182 0 224c0 53 43 96 96 96H416c53 0 96-43 96-96s-43-96-96-96zM200 384c-13.3 0-24 10.8-24 24v80c0 13.3 10.8 24 24 24s24-10.7 24-24v-80c0-13.2-10.7-24-24-24zm-96-32c-13.3 0-24 10.8-24 24v80c0 13.3 10.8 24 24 24s24-10.7 24-24v-80c0-13.2-10.7-24-24-24zm192 0c-13.3 0-24 10.8-24 24v80c0 13.3 10.8 24 24 24s24-10.7 24-24v-80c0-13.2-10.7-24-24-24zm96 32c-13.3 0-24 10.8-24 24v80c0 13.3 10.8 24 24 24s24-10.7 24-24v-80c0-13.2-10.7-24-24-24z"/></svg>