<svg xmlns="http://www.w3.org/2000/svg" viewBox="0 0 512 512"><path d="M112 368c-8.7 0-16 7.3-16 16v80c0 8.8 7.3 16 16 16s16-7.2 16-16v-80c0-8.7-7.2-16-16-16zm192 0c-8.75 0-16 7.25-16 16v80c0 8.75 7.25 16 16 16s16-7.25 16-16v-80c0-8.7-7.2-16-16-16zm-96 32c-8.7 0-16 7.3-16 16v80c0 8.8 7.3 16 16 16s16-7.2 16-16v-80c0-8.7-7.2-16-16-16zm192 0c-8.75 0-16 7.25-16 16v80c0 8.75 7.25 16 16 16s16-7.25 16-16v-80c0-8.7-7.2-16-16-16zm14.7-288c-7.5-45.5-47.1-80.2-94.7-80.2-19 0-37.1 5.47-52.6 15.7C247 18.2 213 0 176 0c-61.7 0-112 50.3-112 112 0 2.72 .09 5.44 .31 8.19C25.8 136 0 174 0 216c0 57.3 46.7 104 104 104H408c57.3 0 104-46.7 104-104s-43.1-100-97.3-104zm-6.7 176H104c-39.7 0-72-32.3-72-72 0-32.6 22.2-61.1 54-69.4 8.22-2.16 13.3-10.3 11.7-18.7-1.07-5.16-1.63-10.5-1.63-16 0-44.1 35.9-80 80-80 31 0 59.4 18.3 72.5 46.6 2.19 4.78 6.59 8.19 11.8 9.06 5.19 1.09 10.5-.75 14.2-4.53 12.2-12.4 28.4-19.2 45.6-19.2 35.3 0 64 28.7 64 64 0 8.84 7.16 16 16 16h8c39.7 0 72 32.3 72 72s-32.3 72-72 72z"/></svg>