<svg xmlns="http://www.w3.org/2000/svg" viewBox="0 0 640 512"><path d="M417 318.4c-33.3 15-81.6 23.4-132.5 23.4s-99.2-8.6-132.5-23.4l-10.6-4.8v49c4.8 14.1 56 39 143 39s137.6-25 142.4-39v-49s-10.2 4.8-10.2 4.8zM467.2 329v69.4c42.9-8.3 68.8-22.7 72.3-32.3v-59.5s-10.2 4.8-10.2 4.8c-17.3 7.7-38.4 13.8-62.1 17.6zm62.1-114.2c-19.2 8.6-43.8 14.7-70.7 18.9c5.1 8.3 8.6 17 8.6 26.9v31c43.2-8.3 68.8-22.7 72.3-32.3v-49s-10.2 4.8-10.2 4.8zM427.2 250.6c-4.5-14.1-55.7-38.7-142.7-38.7s-138.6 25.3-142.7 39.4v1.3s0 6.4 0 6.4c4.5 14.1 55.7 39 142.7 39s137.6-25 142.4-39v-1.3s0-6.7 0-6.7zM267.8 175.4c3.8 0 8-.3 11.8-.3c49.9 0 101.1 8.6 137.6 25.6c73.3-3.5 117.4-25.3 121.9-38.1v-1.3s0-6.7 0-6.7c-4.5-14.1-55.7-38.7-142.7-38.7s-138.6 25.3-142.7 39.4v1s0 6.4 0 6.4c1.3 3.8 6.1 8.3 13.8 12.8zm16.6 264c-50.9 0-99.2-8.6-132.5-23.4l-10.6-4.8v59.5c4.8 13.4 57.6 38.7 143 38.7s137.6-25 142.4-38.7v-59.5s-10.2 4.8-10.2 4.8c-33.3 15-81.6 23.4-132.5 23.4zM222.4 64h0c34.2 4.2 42.6 12.8 46.7 48c0 2.6 2.2 4.2 4.8 4.2h0c2.6 0 4.5-1.9 4.8-4.2c4.2-35.2 12.5-43.8 46.7-48c2.6-.3 4.2-2.2 4.2-4.8s-1.9-4.5-4.2-4.8c-34.2-4.2-42.6-12.8-46.7-48c0-2.6-2.2-4.2-4.8-4.2h0c-2.6 0-4.5 1.6-4.8 4.2c-4.2 35.2-12.5 43.5-46.7 48c-2.6 0-4.2 2.2-4.2 4.8s1.6 4.5 4.2 4.8zM185 160.6c-26.9-2.9-33-9.3-36.5-36.5c0-2.2-2.2-3.8-4.5-3.8h0c-2.2 0-4.2 1.6-4.5 3.8c-2.9 27.5-9 33.9-35.5 37.4c-2.2 0-3.8 2.2-3.8 4.5s1.6 4.2 3.8 4.5c26.9 2.9 33 9.3 36.5 36.5c0 2.2 2.2 3.8 4.5 3.8h0c2.2 0 4.2-1.6 4.5-3.8c2.9-27.5 9-33.9 35.8-37.4c2.2-.3 3.8-2.2 3.8-4.5s-1.6-4.2-3.8-4.2z"/></svg>