<svg xmlns="http://www.w3.org/2000/svg" viewBox="0 0 512 512"><path d="M232 256c0-13.3 10.7-24 24-24s24 10.7 24 24-10.7 24-24 24-24-10.7-24-24zm117-133c25-8.3 48.8 15.5 40.5 40.5l-48.9 147c-4.7 14.3-16 25.6-30.3 30.3l-147 48.9c-25 8.3-48.8-15.5-40.5-40.5l48.9-147c4.7-14.3 16-25.6 30.3-30.3l147-48.9zm10.1 30.4l-147 48.8c-4.7 1.6-8.5 5.4-10.1 10.1l-48.8 147 147-48.8c4.7-1.6 8.5-5.4 10.1-10.1l48.8-147zM0 256C0 115 115 0 256 0s256 115 256 256-115 256-256 256S0 397 0 256zm256 224c124 0 224-100 224-224S380 32 256 32 32 132 32 256s100 224 224 224z"/></svg>