<svg xmlns="http://www.w3.org/2000/svg" viewBox="0 0 317 512"><path d="M179 214v21.4c0 11.1-9.71 20.4-20.8 20.4-11.1 .04-20-8.89-20.1-19.9 0-.16 0-.331 0-.491v-21.4c-.22-10.9 8.43-19.9 19.3-20.1 .25 0 .511 0 .761 0 11.1 .04 20.8 9.09 20.8 20.1zM317 27.4V485c-.05 15.2-12.4 27.4-27.6 27.4H27.6C12.4 512 .151 500 .191 484c0 0 0 0 0-.01V27.5C.201 12.3 12.5-.01 27.7 0c.01 0 .03 0 .04 0H289c15.2-.04 27.5 12.2 27.6 27.4 0 0 0 0 0 .01zm-101 429c.16-3.48-2.52-6.42-6-6.58 0 0-.02 0-.02 0H107c-3.5-.291-6.57 2.3-6.87 5.81-.291 3.5 2.3 6.57 5.81 6.87 .541 .05 1.08 .02 1.62-.07h102c3.27-.15 5.89-2.76 6.06-6.02zm33.8-277c0-34.8-24.4-59.3-62.3-59.3h-57.7c-38.2 0-62.3 24.4-62.3 59.3v92.5c0 34.9 24.1 59.2 62.3 59.2h87.8c2.35 0 3.35-1.06 3.35-3.35v-17.4c0-2.34-.992-3.35-3.35-3.35h-87.8c-23.5 0-38.5-14.4-38.5-35.2v-92.5c0-20.8 15.1-35.2 38.5-35.2h57.6c23.1 0 38.2 14.4 38.2 35.2v67c0 5.36-4.35 9.71-9.71 9.71h-3.67c-5.14 .22-9.49-3.77-9.71-8.91-.01-.271-.01-.531 0-.802v-73c0-2.34-1.06-3.35-3.35-3.35h-17.4c-1.67 0-2.69 .681-2.69 2.01 .13 1.16-.711 2.21-1.87 2.34-.16 .02-.311 .02-.471 0-1.76-.25-3.47-.822-5.03-1.67-4.28-1.66-8.81-2.58-13.4-2.69-26.8 0-44.2 16.8-44.2 41.5v26.5c0 25.1 17.1 41.9 44.2 41.9 8.41-.19 16.6-2.88 23.5-7.71 1.33-.992 2.34-2 3.68-2s2.35 1.01 3.36 1.67c6.57 5.22 14.7 8.06 23.1 8.04h4.05c20.8 0 33.8-13.1 33.8-31.8l.02-68.7z"/></svg>