<svg xmlns="http://www.w3.org/2000/svg" viewBox="0 0 317 512"><path d="M179 215v21.4c0 11-9.72 20.4-20.7 20.4s-20-8.92-20.1-19.9v-21.9c-.2-10.9 8.42-19.9 19.3-20.1h.802c11 0 20.7 9.02 20.7 20.1zm97.7 267H40.3c-5.51 0-10-4.51-10-10V40.1c0-5.51 4.51-10 10-10h236c5.51 0 10 4.51 10 10V472c.1 5.51-4.41 10-9.92 10zM289 0H27.7C12.5 0 .291 12.3 .191 27.5V484H.191c0 15.1 12.2 27.6 27.5 27.6H289c15.1 0 27.5-12.2 27.5-27.4V27.5h0c-.1-15.2-12.4-27.5-27.6-27.5h0zm-55.1 435c.471-8.27-5.9-15.1-14.2-15.6H98.4c-8.27-.711-15.6 5.43-16.3 13.7s5.43 15.6 13.7 16.3c1.18 0 2.6 0 3.78-.24h120c7.8-.471 13.9-6.61 14.4-14.2zm15.6-256c0-34.9-24.4-59.3-62.3-59.3h-57.6c-38.2 0-62.3 24.4-62.3 59.3v92.5c0 34.9 24.1 59.2 62.3 59.2h87.8c2.3 0 3.31-1.1 3.31-3.31v-17.3c0-2.3-1-3.31-3.31-3.31h-87.8c-23.4 0-38.5-14.4-38.5-35.2v-92.5c0-20.7 15-35.2 38.5-35.2h57.6c23.1 0 38.2 14.4 38.2 35.2v67c0 5.41-4.31 9.72-9.72 9.72h-3.71c-5.11 .2-9.52-3.81-9.72-8.92v-73.8c0-2.3-1.1-3.31-3.31-3.31h-17.4c-1.7 0-2.71 .701-2.71 2 .1 1.2-.701 2.2-1.9 2.3h-.501c-1.8-.301-3.51-.802-5.01-1.7-4.31-1.7-8.82-2.61-13.4-2.71-26.8 0-44.2 16.7-44.2 41.6v26.6c0 25.1 17 41.9 44.2 41.9 8.42-.2 16.5-2.91 23.4-7.72 1.3-1 2.3-2 3.71-2s2.3 1 3.41 1.7c6.61 5.21 14.7 8.02 23.1 8.02h4.01c20.7 0 33.9-13 33.9-31.8v-68.9z"/></svg>