<svg xmlns="http://www.w3.org/2000/svg" viewBox="0 0 449 512"><path d="M444 384c-5.9 10.2-16.7 15.9-27.7 15.9-5.5 0-11-1.4-16.1-4.4l-25.1-14.6 5.4 20.3c3.4 12.8-4.3 26-17.1 29.3-2.1 .6-4.1 .8-6.2 .8-10.6 0-20.4-7.1-23.2-17.8l-17.7-66.9-59.9-35v70.5l48.4 48.9c9.3 9.4 9.2 24.6-.2 33.9-4.7 4.7-10.8 7-16.9 7s-12.4-2.4-17.1-7.1l-14.2-14.4v29.5c0 17.7-14.3 32-32 32s-32-14.3-32-32v-29.5l-14.2 14.4c-9.3 9.4-24.5 9.5-34 .2-9.4-9.3-9.5-24.5-.2-33.9l48.4-48.9-.8-70.5-59.9 34.9-17.7 66.9c-2.8 10.8-12.6 17.8-23.2 17.8-2 0-4.1-.3-6.2-.8-12.8-3.4-20.5-16.5-17.1-29.3l5.4-20.3-25.1 14.6c-4.2 3-9.8 4.4-15.3 4.4-11 0-21.7-5.7-27.7-15.9-8.9-15.3-3.8-34.8 11.5-43.8l26-15.1-20.3-5.5c-12.8-3.4-20.4-16.6-16.9-29.4s16.6-20.3 29.5-16.9l65.9 17.9 60.5-35.3-60.6-35.3-65.9 17.9c-2.1 .6-4.2 .8-6.3 .8-10.6 0-20.3-7-23.2-17.7-3.5-12.8 4.1-25.9 16.9-29.4l20.3-5.5-26-15.2c-15.3-8.9-20.4-28.5-11.5-43.8 8.9-15.3 28.5-20.4 43.8-11.5l25.1 14.6-5.4-20.3c-3.4-12.8 4.3-25.9 16.2-29.3 13.8-3.5 26 4.3 30.3 17l17.7 66.9 59 35v-70.5l-47.5-48.9c-9.3-9.4-9.3-24.6 .2-33.9 9.4-9.3 24.6-9.2 34 .2l14.3 14.4-.9-29.5c0-17.7 14.3-32 32-32s32 14.3 32 32v29.5l14.2-14.4c9.3-9.4 24.5-9.5 34-.2 9.4 9.3 9.5 24.5 .2 33.9l-48.4 48.9 .8 70.5 59.9-34.9 17.7-66.9c3.4-12.8 16.6-20.5 29.4-17 12.8 3.4 20.5 16.5 17.1 29.3l-5.4 20.3 25.1-14.6c15.3-8.9 34.9-3.8 43.8 11.5 8.9 15.3 3.8 34.8-11.5 43.8l-26 15.1 20.3 5.5c12.8 3.5 20.4 16.7 16.9 29.4-2.9 10.7-12.6 17.7-23.2 17.7-2.1 0-4.2-.3-6.3-.8l-66.8-17.9-59.4 35.3 60.5 35.3 65.9-17.9c12.9-3.4 26 4.1 29.5 16.9s-4.1 26-16.9 29.4l-20.3 5.5 26 15.1c15.2 9 20.3 28.6 11.4 43.8z"/></svg>