<svg xmlns="http://www.w3.org/2000/svg" viewBox="0 0 501 512"><path d="M463 481.9V105.8c0-11.1-9-20-20-20H324.1V20c0-11.1-9-20-20-20H58.2c-11.1 0-20 9-20 20V481.9H15c-8.3 0-15 6.7-15 15H0c0 8.3 6.7 15 15 15H486.2c8.3 0 15-6.7 15-15h0c0-8.3-6.7-15-15-15H463zM433 125.8V471.9c0 5.5-4.5 10-10 10h-88.8c-5.5 0-10-4.5-10-10V125.8c0-5.5 4.5-10 10-10h88.8c5.5 0 10 4.5 10 10zM78.3 30.1h205.8c5.5 0 10 4.5 10 10V471.9c0 5.5-4.5 10-10 10H78.3c-5.5 0-10-4.5-10-10V40.1c0-5.5 4.5-10 10-10zm309 333.2h-20c-5.5 0-10-4.5-10-10v-20c0-5.5 4.5-10 10-10h20c5.5 0 10 4.5 10 10l.1 20c0 5.5-4.5 10-10 10zm-30 79.8v-20c0-5.5 4.5-10 10-10h20c5.5 0 10 4.5 10 10l.1 20c0 5.5-4.5 10-10 10h-20c-5.5 0-10-4.5-10-10zm30-169.6h-20c-5.5 0-10-4.5-10-10v-20c0-5.5 4.5-10 10-10h20c5.5 0 10 4.5 10 10l.1 20c0 5.5-4.5 10-10 10zm0-89.8h-20c-5.5 0-10-4.5-10-10v-20c0-5.5 4.5-10 10-10h20c5.5 0 10 4.5 10 10l.1 20c0 5.5-4.5 10-10 10zM154 333.1l.1 20c0 5.5-4.5 10-10 10h-20c-5.5 0-10-4.5-10-10v-20c0-5.5 4.5-10 10-10h20c5.5 0 10 4.5 10 10zm0 89.8l.1 20c0 5.5-4.5 10-10 10h-20c-5.5 0-10-4.5-10-10v-20c0-5.5 4.5-10 10-10h20c5.5 0 10 4.5 10 10zm.1-159.6c0 5.5-4.5 10-10 10h-20c-5.5 0-10-4.5-10-10v-20c0-5.5 4.5-10 10-10h20c5.5 0 10 4.5 10 10l.1 20zm-.1-109.8l.1 20c0 5.5-4.5 10-10 10h-20c-5.5 0-10-4.5-10-10v-20c0-5.5 4.5-10 10-10h20c5.5 0 10 4.5 10 10zm0-89.8l.1 20c0 5.5-4.5 10-10 10h-20c-5.5 0-10-4.5-10-10v-20c0-5.5 4.5-10 10-10h20c5.5 0 10 4.5 10 10zm94.2 269.4l.1 20c0 5.5-4.5 10-10 10h-20c-5.5 0-10-4.5-10-10v-20c0-5.5 4.5-10 10-10h20c5.5 0 10 4.5 10 10zm0 89.8l.1 20c0 5.5-4.5 10-10 10h-20c-5.5 0-10-4.5-10-10v-20c0-5.5 4.5-10 10-10h20c5.5 0 10 4.5 10 10zm0-179.7l.1 20c0 5.5-4.5 10-10 10h-20c-5.5 0-10-4.5-10-10v-20c0-5.5 4.5-10 10-10h20c5.5 0 10 4.5 10 10zm0-89.8l.1 20c0 5.5-4.5 10-10 10h-20c-5.5 0-10-4.5-10-10v-20c0-5.5 4.5-10 10-10h20c5.5 0 10 4.5 10 10zm-10-59.7h-20c-5.5 0-10-4.5-10-10v-20c0-5.5 4.5-10 10-10h20c5.5 0 10 4.5 10 10l.1 20c0 5.5-4.5 10-10 10z"/></svg>