<svg xmlns="http://www.w3.org/2000/svg" viewBox="0 0 508 512"><path d="M454.2 468.8V119.5c0-11.2-9.1-20.3-20.3-20.3h-96.8c-11.2 0-20.3 9.1-20.3 20.3V472.2c0 3.8-3 6.7-6.7 6.7h0c-3.8 0-6.7-3-6.7-6.7V20.3c0-11.2-9.1-20.3-20.3-20.3H74.3C63.1 0 54 9.1 54 20.3V468.8c0 5.6-4.6 10.2-10.2 10.2H16.5C7.3 479 0 486.4 0 495.4H0c0 9.1 7.4 16.5 16.5 16.5H491.6c9.1 0 16.5-7.4 16.5-16.5h0c0-9.1-7.4-16.5-16.5-16.5h-27.2c-5.6 0-10.2-4.6-10.2-10.2zM89.9 461v-40.6c0-5.6 4.6-10.2 10.2-10.2h40.5c5.6 0 10.2 4.6 10.2 10.2l.1 40.6c0 5.6-4.6 10.2-10.2 10.2h-40.6c-5.6 0-10.2-4.6-10.2-10.2zm0-94.2v-40.6c0-5.6 4.6-10.2 10.2-10.2h40.5c5.6 0 10.2 4.6 10.2 10.2l.1 40.6c0 5.6-4.6 10.2-10.2 10.2h-40.6c-5.6 0-10.2-4.6-10.2-10.2zm0-94.3v-40.6c0-5.6 4.6-10.2 10.2-10.2h40.5c5.6 0 10.2 4.6 10.2 10.2l.1 40.6c0 5.6-4.6 10.2-10.2 10.2h-40.6c-5.6 0-10.2-4.6-10.2-10.2zm0-94.2v-40.6c0-5.6 4.6-10.2 10.2-10.2h40.5c5.6 0 10.2 4.6 10.2 10.2l.1 40.6c0 5.6-4.6 10.2-10.2 10.2h-40.6c-5.6 0-10.2-4.6-10.2-10.2zm0-94.3V43.5c0-5.6 4.6-10.2 10.2-10.2h40.5c5.6 0 10.2 4.6 10.2 10.2l.1 40.6c0 5.6-4.6 10.2-10.2 10.2h-40.6c-5.6 0-10.2-4.6-10.2-10.2zM196.6 461v-40.6c0-5.6 4.6-10.2 10.2-10.2h40.5c5.6 0 10.2 4.6 10.2 10.2l.1 40.6c0 5.6-4.6 10.2-10.2 10.2h-40.6c-5.6 0-10.2-4.6-10.2-10.2zm0-94.2v-40.6c0-5.6 4.6-10.2 10.2-10.2h40.5c5.6 0 10.2 4.6 10.2 10.2l.1 40.6c0 5.6-4.6 10.2-10.2 10.2h-40.6c-5.6 0-10.2-4.6-10.2-10.2zm0-94.3v-40.6c0-5.6 4.6-10.2 10.2-10.2h40.5c5.6 0 10.2 4.6 10.2 10.2l.1 40.6c0 5.6-4.6 10.2-10.2 10.2h-40.6c-5.6 0-10.2-4.6-10.2-10.2zm0-94.2v-40.6c0-5.6 4.6-10.2 10.2-10.2h40.5c5.6 0 10.2 4.6 10.2 10.2l.1 40.6c0 5.6-4.6 10.2-10.2 10.2h-40.6c-5.6 0-10.2-4.6-10.2-10.2zm0-94.3V43.5c0-5.6 4.6-10.2 10.2-10.2h40.5c5.6 0 10.2 4.6 10.2 10.2l.1 40.6c0 5.6-4.6 10.2-10.2 10.2h-40.6c-5.6 0-10.2-4.6-10.2-10.2zM352 366.8v-40.6c0-5.6 4.6-10.2 10.2-10.2h40.5c5.6 0 10.2 4.6 10.2 10.2l.1 40.6c0 5.6-4.6 10.2-10.2 10.2h-40.6c-5.6 0-10.2-4.6-10.2-10.2zm0 94.2v-40.6c0-5.6 4.6-10.2 10.2-10.2h40.5c5.6 0 10.2 4.6 10.2 10.2l.1 40.6c0 5.6-4.6 10.2-10.2 10.2h-40.6c-5.6 0-10.2-4.6-10.2-10.2zm0-188.4v-40.6c0-5.6 4.6-10.2 10.2-10.2h40.5c5.6 0 10.2 4.6 10.2 10.2l.1 40.6c0 5.6-4.6 10.2-10.2 10.2h-40.6c-5.6 0-10.2-4.6-10.2-10.2zm0-94.2v-40.6c0-5.6 4.6-10.2 10.2-10.2h40.5c5.6 0 10.2 4.6 10.2 10.2l.1 40.6c0 5.6-4.6 10.2-10.2 10.2h-40.6c-5.6 0-10.2-4.6-10.2-10.2z"/></svg>