<svg xmlns="http://www.w3.org/2000/svg" viewBox="0 0 659 512"><path d="M586 34.3c21.4 0 38.9 17.4 38.9 38.9v36.6H34.6v-36.6c0-21.4 17.4-38.9 38.9-38.9h512m0-34.3H73.5C33.1 0 .357 32.7 .357 73.1v70.9H659v-70.9c0-40.4-32.8-73.1-73.1-73.1h0zm38.9 254v185c0 21.4-17.4 38.9-38.9 38.9H73.5c-21.4 0-38.9-17.4-38.9-38.9V254H624m34.3-34.3H.357v219c0 40.3 32.7 73.1 73.1 73.1h512c40.3 0 73.1-32.8 73.1-73.1V219h0zM128 366c-10.1 0-18.3 8.23-18.3 18.3s8.23 18.3 18.3 18.3h73.1c10.1 0 18.3-8.23 18.3-18.3s-8.23-18.3-18.3-18.3H128zm146 36.6h146c10.1 0 18.3-8.23 18.3-18.3s-8.23-18.3-18.3-18.3H275c-10.1 0-18.3 8.23-18.3 18.3s8.23 18.3 18.3 18.3z"/></svg>