<svg xmlns="http://www.w3.org/2000/svg" viewBox="0 0 640 512"><path d="M224 256c70.7 0 128-57.3 128-128S295 0 224 0 96 57.3 96 128s57.3 128 128 128zm50.7 48h-101C77.6 304 0 382 0 477c0 19.2 15.5 34.7 34.7 34.7H413c19.2 0 34.7-15.5 34.7-34.7 0-95.7-77.6-173-173-173zm204 16h-73.8c46 37.7 74.8 94.1 74.8 157 0 12.8-3.8 24.6-10 34.7h138c17.7 0 32-14.4 32-32.9 0-87.5-71.6-159-161-159zm-47.1-64c61.9 0 112-50.1 112-112s-50.1-112-112-112c-25.1 0-48 8.56-66.7 22.5 11.5 22.1 18.7 46.9 18.7 73.5 0 35.5-11.9 68.1-31.6 94.7 20.3 20.5 48.4 33.3 79.6 33.3z"/></svg>