<svg xmlns="http://www.w3.org/2000/svg" viewBox="0 0 506 512"><path d="M251 491h-49.7V343h15.4c12.4-42 42.1-76.7 80.9-95.8c-1.81-1.81-2.92-4.22-2.92-6.94v-45.6c0-5.43 4.43-9.86 9.86-9.86h45.6c5.43 0 9.86 4.43 9.86 9.86v36.8c2.01-.101 4.02-.101 6.04-.101c31.7 0 61.3 9.56 85.9 26v-86.6l29.4 20.1c2.62 1.81 5.63 2.62 8.55 2.62c4.83 0 9.56-2.31 12.5-6.54c4.73-6.84 3.02-16.3-3.92-21l-237-163c-5.13-3.52-12-3.52-17.1 0l-237 163c-6.84 4.73-8.65 14.1-3.92 21c4.73 6.84 14.1 8.65 21 3.92l29.4-20.1v305c0 20 15.7 36.3 34.9 36.3h98.4h87C265 505 258 499 251 491zM155 250c-5.43 0-9.86-4.43-9.86-9.86v-45.6c0-5.43 4.43-9.86 9.86-9.86h45.6c5.43 0 9.86 4.43 9.86 9.86v45.6c0 5.43-4.43 9.86-9.86 9.86H155zM383 387c0 9.15-7.44 16.6-16.6 16.6s-16.6-7.44-16.6-16.6s7.44-16.6 16.6-16.6C375 370 383 377 383 387zM452 295c-22.4-21.1-52.6-34-85.9-34c-53.8 0-99.7 33.9-117 81.5c-5.13 13.7-7.95 28.5-7.95 44c0 43.8 22.4 82.3 56.3 105c16.6 11 35.9 18.1 56.7 20.1h24.6c28.3-2.72 53.8-14.9 73.4-33.3c24.4-22.9 39.6-55.4 39.6-91.5C491 351 476 318 452 295zM413 387c0 3.12-.302 6.14-.905 9.05l15.8 9.05l-15.1 26.2l-15.8-9.15c-4.53 3.92-9.86 7.04-15.7 9.05v18.2h-30.2v-18.2c-5.83-2.01-11.1-5.13-15.7-9.05l-15.8 9.15l-15.1-26.2l15.8-9.05c-.604-2.92-.905-5.93-.905-9.05s.302-6.14 .905-9.05l-15.8-9.05l15.1-26.2l15.8 9.15c4.53-3.92 9.86-7.04 15.7-9.05v-18.2h30.2v18.2c5.83 2.01 11.1 5.13 15.7 9.05l15.8-9.15l15.1 26.2l-15.8 9.05C413 380 413 383 413 387z"/></svg>