<svg xmlns="http://www.w3.org/2000/svg" viewBox="0 0 640 512"><path d="M224 30c54 0 98 44 98 98s-44 98-98 98-98-44-98-98S170 30 224 30m0-30C153 0 96 57.3 96 128s57.3 128 128 128 128-57.3 128-128S295 0 224 0h0zm50.7 334c38.3 0 74.3 14.9 101 42 27.1 27.1 42 63 42 101 0 2.64-2.06 4.7-4.7 4.7H34.7c-2.61 0-4.66-2.06-4.66-4.7 0-38.3 14.9-74.3 42-101 27.1-27.1 63-42 101-42h101m0-30h-101C77.6 304 0 382 0 477c0 19.2 15.5 34.7 34.7 34.7H413c19.2 0 34.7-15.5 34.7-34.7 0-95.7-77.6-173-173-173h0zm204 16h-58.8c-8.28 0-15 6.72-15 15h0c0 8.28 6.72 15 15 15h58.8c35.1 0 68.1 13.5 92.8 38 24.6 24.4 38.1 56.7 38.1 91.1 0 1.44-.62 2.9-2 2.9h-123c-8.28 0-15 6.72-15 15h0c0 8.28 6.72 15 15 15h123c17.7 0 32-14.4 32-32.9 0-87.5-71.6-159-161-159zm32.8-255c-22-22.3-50.9-33.5-79.9-33.5-23.2 0-46.3 7.14-65.9 21.4-7.48 5.46-8.43 16.3-1.87 22.8h0c5.23 5.23 13.5 5.86 19.5 1.49 13.9-10.2 30.7-15.7 48.3-15.7 21.9 0 42.5 8.53 58 24 32 32 32 84 0 116-15.5 15.5-36.1 24-58 24-17.6 0-34.4-5.51-48.3-15.7-5.97-4.37-14.2-3.74-19.5 1.49h0c-6.55 6.55-5.61 17.4 1.87 22.8 19.6 14.3 42.7 21.4 65.9 21.4 29 0 57.9-11.2 79.9-33.5 42.6-43.4 42.6-114 0-157z"/></svg>