<svg xmlns="http://www.w3.org/2000/svg" viewBox="0 0 506 512"><path d="M201 183c5.44 0 9.88 4.43 9.88 9.88v45.7c0 5.44-4.43 9.88-9.88 9.88h-45.7c-5.44 0-9.88-4.43-9.88-9.88v-45.7c0-5.44 4.43-9.88 9.88-9.88H201zM361 193c0-5.44-4.43-9.88-9.88-9.88h-45.7c-5.44 0-9.88 4.43-9.88 9.88v45.7c0 2.72 1.11 5.14 2.92 6.95c18.9-9.37 40.1-14.9 62.5-15.7L361 193L361 193zM499 166L262 2.62c-5.14-3.53-12-3.53-17.1 0l-238 163c-6.85 4.74-8.67 14.1-3.93 21.1c4.74 6.85 14.1 8.67 21.1 3.93l29.4-20.2v303c0 20.1 15.7 36.4 35 36.4h98.6h87.2c-11.6-8.67-21.9-18.8-30.6-30.2h-41.3V341h15.4c3.12-10.6 7.36-20.8 12.5-30.2h-43.1c-8.37 0-15.1 6.75-15.1 15.1v154H88.1c-2.52 0-4.74-2.82-4.74-6.15V150L253 33.5l170 117V240c10.7 4.13 20.9 9.37 30.2 15.6v-84.8l29.4 20.2c2.62 1.81 5.64 2.62 8.57 2.62c4.84 0 9.57-2.32 12.5-6.55C508 180 506 171 499 166zM492 385c0 36.2-15.3 68.7-39.7 91.7c-19.7 18.4-45.3 30.6-73.6 33.4c-4.03 .403-8.16 .605-12.3 .605s-8.26-.202-12.3-.605c-8.26-.806-16.4-2.42-24.1-4.74c-17.1-5.24-32.8-14-46-25.5c-26.5-23.1-43.2-56.9-43.2-94.8c0-15.5 2.82-30.3 7.96-44c4.03-10.9 9.57-21.1 16.3-30.2c22.9-31.1 59.8-51.4 101-51.4c20.1 0 39 4.74 55.8 13.1c11.1 5.54 21.3 12.6 30.2 21.1C477 317 492 349 492 385zM465 385c0-16.8-4.23-32.7-11.7-46.5c-7.26-13.5-17.7-25.1-30.2-33.9c-15.8-11-35.1-17.4-55.8-17.4c-24.3 0-46.5 8.87-63.5 23.5c-9.78 8.37-17.8 18.6-23.8 30.2c-6.65 13.2-10.5 28.2-10.5 44c0 30.2 13.7 57.1 35.2 75.1c8.87 7.46 19 13.3 30.2 17.1c2.82 1.01 5.64 1.81 8.57 2.52c7.66 1.91 15.6 2.92 23.8 2.92s16.1-1.01 23.8-2.92c11.7-2.92 22.5-7.86 32.1-14.6c12.5-8.77 23-20.4 30.2-33.9C460 418 465 402 465 385zM423 371l-9.88 5.74c.605 2.92 .907 5.95 .907 9.07s-.302 6.15-.907 9.07l9.88 5.74l5.95 3.43l-5.95 10.3l-9.17 15.9l-15.8-9.17c-4.54 3.93-9.88 7.06-15.7 9.07v18.2h-30.2v-18.2c-5.85-2.02-11.1-5.14-15.7-9.07l-1.61 .907l-14.2 8.26l-15.1-26.2l15.8-9.07c-.605-2.92-.907-5.95-.907-9.07s.302-6.15 .907-9.07l-15.8-9.07l15.1-26.2l14.2 8.26l1.61 .907c4.54-3.93 9.88-7.06 15.7-9.07v-18.2h30.2v18.2c5.85 2.02 11.1 5.14 15.7 9.07l15.8-9.17l9.17 15.9l5.95 10.3L423 371zM383 385c0-9.17-7.46-16.6-16.6-16.6s-16.6 7.46-16.6 16.6s7.46 16.6 16.6 16.6S383 395 383 385z"/></svg>