<svg xmlns="http://www.w3.org/2000/svg" viewBox="0 0 453 512"><path d="M450.44 358.1c-7 38.9-34 64.3-65.7 77.5-13.6 5.6-28.6 9.2-44.4 11V480c0 17.7-14.3 32-32 32s-32-14.3-32-32v-34.9c-.4 0-.9-1-1.3-.2h-.2c-24.3-3.8-64.43-14.3-91.5-26.3-16.15-7.2-23.42-26.1-16.24-42.3 7.18-16.1 26.09-23.4 41.34-16.2 21.8 9.3 56.2 18.4 76.1 21.5 32 4.8 58.3 2 76.1-5.2 16.9-6.9 24.6-16.9 26.8-28.9 1.9-10.7.5-16.8-1.3-20.6-1.9-4-5.6-8.5-12.9-13.4-16.3-10.7-41.1-17.9-73.3-26.6l-2.8-.8c-10.504-2.848-21.887-5.945-33.367-9.579h-.001l-37.532-22.142-43.424-25.617-.034-.02c-3.894-5.003-7.367-10.52-10.222-16.641-8.33-17.8-10.14-37.8-6.27-59.1 7.08-38.9 35.1-63.71 68.01-76.27 13.02-4.97 27.14-8.24 42.04-10V32c0-17.67 14.3-32 32-32s32 14.33 32 32v35.68c1.6.21 3.1.44 4.7.67 10.6 1.58 42.2 6.67 55.2 9.96 16.2 4.34 27.5 21.79 23.1 38.89-4.3 17.1-21.7 27.5-38.9 23.2-9.3-3.3-37.6-7.1-48.8-8.7-32.1-4.8-59.6-2.4-78.5 4.8-18.28 7-25.87 16.9-27.88 28-1.94 10.7-.47 16.8 1.29 20.6 1.49 3.153 4.107 6.618 8.744 10.343a58.269 58.269 0 004.186 3.057c11.237 7.395 26.559 13.118 45.578 18.82 8.5 2.548 17.736 5.093 27.682 7.78l2.8.8c28.4 7.7 63.2 17.2 89 34.3 14.1 9.4 27.4 22.1 35.6 39.7 8.3 17.8 10.1 37.8 6.3 58.2zM258.999 184.497c12.533 6.868 31.174 12.579 53.819 18.806l22.671-13.375c-22.54-13.975-51.166-16.595-76.49-5.431zM250.3 343.028l-87.164-51.422-19.68 11.61-17.516 10.333a65.313 65.313 0 015.475 26.221c0 36.23-29.476 65.706-65.706 65.706-21.177 0-40.034-10.08-52.058-25.683C5.101 368.703 0 354.825 0 339.771c0-1.076.03-2.144.081-3.207 1.401-28.996 21.689-53.107 48.794-60.299a65.554 65.554 0 0116.832-2.201c5.817 0 11.457.763 16.83 2.191a65.45 65.45 0 0112.089 4.533l5.405-3.189 19.68-11.61-25.085-14.799a65.293 65.293 0 01-28.919 6.724c-35.156 0-63.947-27.753-65.626-62.5A66.822 66.822 0 010 192.208c0-15.054 5.101-28.932 13.649-40.023 12.024-15.603 30.881-25.683 52.058-25.683 36.23 0 65.706 29.476 65.706 65.706a65.313 65.313 0 01-5.475 26.221l37.197 21.944 6.393 3.772 37.03 21.845 3.395 2.003 45.639 26.924 79.896 47.134c-25.164 15.602-57.917 17.065-85.188.977zM94.64 192.208c0-15.954-12.979-28.933-28.933-28.933-7.677 0-14.646 3.026-19.831 7.922-5.59 5.279-9.103 12.735-9.103 21.012 0 15.954 12.98 28.934 28.934 28.934 13.465 0 24.777-9.258 27.99-21.734.594-2.308.943-4.712.943-7.201zm0 147.563c0-2.489-.349-4.893-.943-7.2-3.213-12.476-14.525-21.734-27.99-21.734-15.954 0-28.934 12.98-28.934 28.934 0 8.277 3.512 15.733 9.103 21.012 5.185 4.896 12.154 7.922 19.831 7.922 15.954-.001 28.933-12.98 28.933-28.934z"/></svg>