<svg xmlns="http://www.w3.org/2000/svg" viewBox="0 0 434 512"><path d="M283 206c-13.7-4.22-23.8-8.03-31.7-12 11-6.07 23.3-9.28 35.9-9.28 8.45 0 16.8 1.44 24.7 4.22l-28.9 17.1zm28.9 136c-7.89 2.78-16.2 4.22-24.7 4.22-13.3 0-26.3-3.57-37.7-10.3l-93-54.8-24.6 14.5-24.7 14.6 3.24 7.41c12.7 29-.547 63-29.6 75.7-7.32 3.2-15.1 4.84-23 4.84-17.8 0-34.9-8.44-45.7-22.6C4.26 365 .034 353 .034 340 .034 340 .034 339 .094 338v-.243c1.5-30.7 26.7-54.7 57.4-54.7 .943 0 1.9 .02 2.84 .071 4.04 .193 8.06 .821 12 1.86 3.64 .963 7.19 2.29 10.6 3.95l4.43 2.18 43-25.4-43-25.4-4.42 2.17c-7.97 3.91-16.5 5.89-25.3 5.89-22.1 0-41.9-12.3-51.6-32.2-3.48-7.08-5.42-14.7-5.81-22.5C.054 193 .034 192 .034 191c-.02-31.7 25.8-57.5 57.5-57.5 31.7 0 57.5 25.8 57.5 57.5 0 7.97-1.61 15.7-4.8 23l-3.23 7.41 49.4 29.1 17.8-10.5c6.03 6.97 12.8 13.2 20.3 18.8l-12 7.08 16.7 9.86 46.3 27.3 66.3 39.1zM96 191c.051-10.3-3.92-20-11.2-27.3-7.26-7.32-16.9-11.4-27.2-11.4h-.182c-21.2 0-38.5 17.2-38.6 38.4-.051 10.3 3.92 20 11.2 27.3 7.26 7.32 16.9 11.4 27.2 11.4h.172c17.5 0 32.9-11.9 37.3-28.9 .811-3.11 1.24-6.34 1.25-9.56zm0 150c-.03-21.2-17.3-38.4-38.4-38.4h-.051c-21.2 .03-38.4 17.3-38.4 38.5 .03 21.1 17.2 38.3 38.4 38.4 21.2-.051 38.4-17.3 38.5-38.4zm224 155v-61.7l14.5-1.52c13.9-1.46 27.6-4.84 40.6-10 18.1-7.58 49.5-26.3 56.8-66.5 3.38-18.1 1.64-34.6-5.15-49.1-6.07-13-16-24-30.4-33.6-24.1-16-58.2-25.2-85.5-32.6l-2.94-.842c-9.39-2.53-19.3-5.26-28.4-7.98-23.7-7.12-38.8-13.4-50.5-21.1l-.203-.142c-2.01-1.36-3.72-2.63-5.29-3.87-6.19-4.98-10.6-10.3-13.4-16.2l-.061-.122c-3.91-8.46-4.74-18.5-2.55-30.6 3.35-18.5 16.3-32.2 38.5-40.7 14.5-5.54 32.8-8.47 52.7-8.47 11.2 0 23 .912 35 2.7l3.35 .477c19.1 2.71 38.6 5.61 48.3 8.79 1.15 .253 2.31 .375 3.47 .375 7.44 0 13.9-5.05 15.8-12.3 2.33-9.08-4.35-17.7-11.8-19.7-12-3.06-42.2-8-54.2-9.77l-1.47-.213c-1.03-.152-2.04-.294-3.1-.436l-14.1-1.86V16.2c0-8.94-7.28-16.2-16.2-16.2s-16.2 7.28-16.2 16.2v61.9l-14.4 1.6c-13.2 1.46-26.2 4.55-38.6 9.2-18.8 7.21-51.5 25.2-58.7 65-3.41 18.8-1.69 35.6 5.08 50.1 1.88 4-3.13-2.36 6.7 11.4s28.4 34.1 72.3 45 26.8 7.07 36.8 9.79l2.93 .842c34.5 9.32 60.3 16.9 78.9 29l.142 .091c9.03 6.06 15.1 12.6 18.7 20.1 3.95 8.34 4.82 18.4 2.62 30.8-3.46 18.9-15.9 32.8-37 41.4-14.4 5.81-32.4 8.87-52.2 8.87-10.7 0-21.9-.872-33.5-2.62-21.2-3.3-57.3-12.8-81-22.9l-.284-.122-.274-.132c-1.77-.842-3.69-1.26-5.7-1.26-6.09 0-11.9 3.86-14.5 9.6-3.64 8.19 .061 17.8 8.21 21.5 25.2 11.2 62.1 21 85.8 25 .335-.02 .669-.03 1-.03 1.16 0 2.55 .122 4.09 .517h13.1v64.8c0 8.94 7.28 16.2 16.2 16.2s16.2-7.28 16.2-16.2z"/></svg>