<svg xmlns="http://www.w3.org/2000/svg" viewBox="0 0 525 512"><path d="M222.3 254.5c0-9.4 7.6-17 17-17s17 7.6 17 17-7.6 17-17 17-17-7.6-17-17zM525 469.3c.4 9-6.8 16.4-15.7 16.4h-189V501c0 5.9-4.8 10.5-10.5 10.5c-.6 0-1.3-.1-2-.2l-135.3-25.4H15.9c-8.9 0-16.1-7.4-15.7-16.4c.4-8.5 7.6-15 16.1-15H89.2V50.2c0-5 3.6-9.3 8.5-10.3L307.8 .2c.6-.1 1.4-.2 2-.2c5.7 0 10.5 4.6 10.5 10.5v25.8H378c8.7 0 15.7 7 15.7 15.7v262h21.8v-22.6c0-8.4 9.4-13.4 16.3-8.7l56.5 38.3c6.2 4.2 6.2 13.2 0 17.4l-56.5 38.3c-6.9 4.7-16.3-.3-16.3-8.7v-22.6h-21.8v98.6c0 5.8 4.7 10.5 10.5 10.5h104.6c8.6 0 15.8 6.5 16.2 14.9zM276.5 38.2L129.3 65.9c-4.9 .9-8.5 5.3-8.5 10.3V435.4c0 5 3.6 9.4 8.5 10.3l46.2 8.8 101 19c6.4 1.2 12.4-3.7 12.4-10.3V345.3h-49.6c-8.5 0-15.7-6.5-16.1-15c-.4-9 6.8-16.4 15.7-16.4h50V48.4c0-6.6-6-11.5-12.4-10.3zm85.9 307.2h-42.1v109.1h31.6c5.8 0 10.5-4.7 10.5-10.5v-98.6zM351.9 67.6h-31.6v246.3h42.1V78.1c0-5.8-4.7-10.5-10.5-10.5z"/></svg>