<svg xmlns="http://www.w3.org/2000/svg" viewBox="0 0 525 512"><path d="M508.9 454.3H404.3c-5.8 0-10.5-4.7-10.5-10.5v-98.6h21.7v22.6c0 8.4 9.4 13.4 16.3 8.7l56.5-38.3c6.2-4.2 6.2-13.2 0-17.4l-56.5-38.3c-6.9-4.7-16.3 .3-16.3 8.7v22.6h-21.8V51.8c0-8.7-7-15.7-15.7-15.7h-57.8V10.5c0-5.9-4.8-10.5-10.5-10.5c-.6 0-1.3 .1-2 .2L97.8 39.8c-4.9 .9-8.5 5.2-8.5 10.3V454.3h-73c-8.5 0-15.7 6.5-16.1 15c-.4 9 6.8 16.4 15.7 16.4H172.6L308 511.3c.6 .1 1.4 .2 2 .2c5.7 0 10.5-4.6 10.5-10.5v-15.3h189c8.9 0 16.1-7.4 15.7-16.4c-.5-8.5-7.7-15-16.2-15zM239.3 237.4c9.4 0 17 7.6 17 17s-7.6 17-17 17-17-7.6-17-17 7.6-17 17-17zm112.7 216.9h-31.6V345.2h42.1v98.6c0 5.8-4.7 10.5-10.5 10.5zm10.5-140.5h-42.1V67.5h31.6c5.8 0 10.5 4.7 10.5 10.5v235.8z"/></svg>