<svg xmlns="http://www.w3.org/2000/svg" viewBox="0 0 512 512"><path d="M215.744 288.035c5.252 25.289 16.317 48.821 32.465 68.654-25.592 23.202-60.467 35.679-101.071 35.679C60.541 392.368 0 335.582 0 239.099 0 179.401 57.108 80.083 138.609 3.344c4.728-4.459 12.302-4.46 17.036 0 43.799 41.29 80.693 89.245 105.385 134.054-25.3 25.007-42.521 58.1-47.377 95.015-7.724-18.019-23.816-44.501-57.218-81.245-4.836-5.328-13.753-5.328-18.591 0C76.793 218.362 73.569 251.2 73.569 260.756c0 41.367 30.271 70.304 73.569 70.304 32.957.001 58.348-16.793 68.606-43.025zM512 253.849c0 34.01-12.599 65.017-33.382 88.743-12.668 14.438-32.447 44.624-40.018 70.082-.024.192-.072.396-.096.599H315.735c-.024-.204-.072-.396-.096-.599-7.568-25.458-27.351-55.644-40.018-70.082a127.05 127.05 0 01-7.408-9.012c-16.344-21.854-25.967-49.355-25.967-79.731 0-33.533 12.467-64.293 33.061-87.877 24.819-28.422 61.441-46.424 102.275-46.3C455.72 119.912 512 183.246 512 253.849zm-49.046.69c0-47.329-38.509-85.141-85.831-85.141-6.778 0-12.262 5.486-12.262 12.262 0 6.775 5.518 11.579 12.262 11.579 33.819 0 61.308 27.504 61.308 60.618 0 7.426 5.518 12.944 12.262 12.944s12.261-5.518 12.261-12.262zm-147.04 213.274c0 4.085 1.847 10.163 4.098 13.564l13.089 19.68c4.023 6.038 13.16 10.943 20.392 10.943h47.26c7.257 0 16.392-4.908 20.415-10.943l13.135-19.687c2.658-4.023 4.049-8.731 4.049-13.557l.077-30.041H315.816l.098 30.041z"/></svg>