<svg xmlns="http://www.w3.org/2000/svg" viewBox="0 0 512 512"><path d="M179 118c7.79 8.56 28.7 35.7 40.7 55.9 2.64 4.43 2.24 10-.97 14.1l-.12 .15c-5.24 6.57-15.4 6.16-20-.85-7.44-11.3-18.9-24-41.7-49-2.54-2.64-5.93-3.97-9.32-3.97-3.16 0-6.32 1.15-8.78 3.47-.2 .2-.3 .3-.5 .5-61 67.2-64.3 100-64.3 110 0 41.4 30.3 70.3 73.6 70.3 21.5 0 39.8-7.15 52.8-19.4 7.82-7.42 20.5-4.8 24.7 5.16 .05 .13 .11 .26 .16 .38 2.75 6.62 .38 14.2-5.51 18.3-21.1 14.6-55.5 25.6-72.1 25.6-60 0-104-42.2-104-100 0-33.4 24.3-77.1 72.1-130l.49-.54 .51-.51 .5-.5 .32-.32 .33-.31c7.96-7.49 18.4-11.6 29.3-11.6 11.6 0 22.9 4.81 31 13.2l.28 .29 .27 .3zm-31.5 245h-.23c-34.9 0-64.2-10.9-84.5-31.5-21.2-21.5-32.4-53.2-32.4-91.7 0-23.5 12.6-58.7 34.6-96.4 21.3-36.4 50.2-73.5 82.5-106 28.3 24.4 61.3 71.9 83.4 106 5.23 8.17 16.8 8.98 23.2 1.74 .07-.08 .14-.16 .21-.23 4.2-4.69 4.8-11.6 1.63-17-24.5-42.1-59.3-86.1-100-125-2.4-2.2-5.45-3.3-8.5-3.3s-6.1 1.1-8.5 3.3C57.1 80.1 0 179 0 239c0 96.4 60.4 153 147 153 .07 0 .15 0 .23 0 34.8 0 65.4-9.19 89.6-26.4 6.42-4.59 8.06-13.4 3.62-19.9-.05-.08-.11-.16-.16-.24-4.17-6.15-12.3-8.06-18.9-4.48-21.9 12-56 21.1-74.2 21.1zm316-108c0 6.8-5.5 12.3-12.2 12.2-6.8 0-12.3-5.5-12.3-12.9 0-33.1-27.5-60.6-61.3-60.6-6.8 0-12.3-4.8-12.3-11.6h0c0-6.7 5.5-12.2 12.3-12.2 47.3 0 85.8 37.8 85.8 85.1h0zm-54.6 203h-62.4c.21 3.04 .73 7.5 1.23 10.3l9.25 13.9h41.5l9.45-14.2c.5-2.84 .98-7.42 .98-9.43v-.29s0-.26 0-.26m20.1-30c5.54 0 10 4.5 10 10l-.07 20c.1 4.9-1.3 19.6-4 23.6l-13.1 19.7c-4 6-13.1 10.9-20.4 10.9h-47.3c-7.2 0-16.4-4.9-20.4-10.9l-13.1-19.7c-2.5-4.1-3.9-18.8-4.1-23.6l-.13-19.9c-.04-5.55 4.45-10.1 10-10.1h103zm-51.5-278h0zm.69-30c-.23 0-.46 0-.69 0-39 0-76.1 16.9-102 46.3-21.3 24.3-33.1 55.6-33.1 87.9 0 30.3 9.7 57.8 26 79.7 2.3 3.1 4.8 6.1 7.4 9 11.1 12.8 27.9 37.8 36.9 61.1 2.13 5.51 7.35 9.2 13.3 9.31 .14 0 .29 0 .43 0 9.98 .18 17.1-9.55 14-19-1.98-5.98-3.72-10.7-3.72-10.7-10.5-23.2-25.9-46.2-38.2-60.4l-.15-.18-.16-.17c-2.2-2.45-4.04-4.69-5.67-6.89-13.1-17.6-20.1-39-20.1-61.8 0-25 9.11-49.3 25.7-68.1l.05-.05 .05-.05c19.9-22.9 48.6-36 79-36h.53s.04 0 .04 0h.04c28.8 .07 55.4 11.3 75 31.5 18.7 19.4 29.5 45.9 29.5 72.7s-9.2 49.9-25.9 68.9c-9.93 11.3-25.3 32.9-36.4 56.3-2.71 6.21-4.6 10.8-5.95 14.5-3.51 9.56 3.68 19.6 13.9 19.5 .29 0 .57-.01 .85-.02 5.92-.11 11.1-3.82 13.3-9.34 8.92-23.3 25.7-48.3 36.9-61 21.6-24.5 33.4-56 33.4-88.7 0-70.7-56.3-134-134-134z"/></svg>