<svg xmlns="http://www.w3.org/2000/svg" viewBox="0 0 450 512"><path d="M386 191h-36.6v-66.8C349 55.6 293 0 225 0S101 55.6 101 124V191H64.4c-35.4 0-64.3 28.8-64.3 64.3v193c0 35.4 28.8 64.3 64.3 64.3h321c35.4 0 64.3-28.8 64.3-64.3V255C450 220 421 191 386 191zM131 124c0-51.8 42.1-93.9 93.9-93.9s93.9 42.1 93.9 93.9V191h-188V124zM420 448c0 18.8-15.4 34.1-34.1 34.1H64.4c-18.8 0-34.1-15.4-34.1-34.1V255c0-18.8 15.4-34.1 34.1-34.1h321c18.8 0 34.1 15.4 34.1 34.1V448zM287 396c-3.01 17-14.9 28.1-28.7 33.9c-5.92 2.41-12.5 4.02-19.4 4.82v14.6c0 7.73-6.22 14-14 14s-14-6.22-14-14v-15.3c-.201 0-.402-.402-.602-.1h-.1c-10.6-1.71-28.2-6.22-40.1-11.5c-7.03-3.11-10.2-11.4-7.13-18.5c3.11-7.03 11.4-10.2 18.1-7.13c9.54 4.12 24.6 8.03 33.2 9.44c14 2.11 25.5 .904 33.2-2.31c7.43-3.01 10.7-7.43 11.7-12.6c.803-4.72 .201-7.33-.602-9.04c-.803-1.71-2.41-3.71-5.62-5.82c-7.13-4.72-18-7.83-32-11.6l-1.2-.301c-12.4-3.41-27.6-7.53-39-15c-6.12-4.12-11.9-9.64-15.6-17.4c-3.61-7.83-4.42-16.6-2.71-25.8c3.11-17 15.4-27.8 29.7-33.3c5.72-2.21 11.8-3.61 18.4-4.42v-15.2c0-7.73 6.22-14 14-14s14 6.22 14 14V269c.703 .1 1.41 .201 2.01 .301c4.62 .703 18.5 2.91 24.1 4.32c7.13 1.91 12 9.54 10.1 17s-9.54 12-17 10.1c-4.12-1.41-16.5-3.11-21.4-3.81c-14.1-2.11-26.1-1-34.3 2.11c-8.03 3.01-11.3 7.43-12.1 12.2c-.803 4.72-.201 7.33 .602 9.04s2.41 3.71 5.62 5.82c7.13 4.72 18 7.83 32 11.6l1.2 .301c12.4 3.41 27.6 7.53 39 15c6.12 4.12 11.9 9.64 15.6 17.4C288 378 289 387 287 396z"/></svg>