<svg xmlns="http://www.w3.org/2000/svg" viewBox="0 0 732 512"><path d="M319 183H421c7.43 0 14.1 4.46 16.9 11.3s1.26 14.6-4 19.9l-110 110c-7.09 7.2-18.7 7.2-25.8 0c-7.2-7.09-7.2-18.7 0-25.8l78.5-79.5H275c-7.43 0-14.1-3.43-16.9-10.3s-1.26-14.6 4-19.9l110-110c7.09-7.2 18.7-7.2 25.8 0c7.2 7.09 7.2 18.7 0 25.8L319 183zM60.6 183L111 57.5C125 22.7 159 0 196 0h208c27.8 0 54.1 12.6 71.4 34.3l119 149c76.6 4.69 137 67.3 137 146v54.9c0 20.2-16.3 36.6-36.6 36.6h-38.1c-8.69 51.9-53.8 91.4-108 91.4s-99.5-39.5-108-91.4H291c-8.69 51.9-53.8 91.4-108 91.4s-99.5-39.5-108-91.4H36.9c-20.2 0-36.6-16.3-36.6-36.6V256C.286 220 26.3 190 60.6 183L60.6 183zM100 183H183v36.6H73.4c-20.2 0-36.6 16.3-36.6 36.6v128h38.1c8.69-51.9 53.8-91.4 108-91.4s99.5 39.5 108 91.4h149c8.69-51.9 53.8-91.4 108-91.4s99.5 39.5 108 91.4H695v-54.9c0-61.6-49.1-110-110-110h-73.1v-36.6h35.1l-101-126c-10.4-13-26.2-20.6-42.9-20.6H196c-22.4 0-42.5 13.6-50.9 34.5L100 183zM478 384c-1.49 5.83-2.29 12-2.29 18.3s.8 12.5 2.29 18.3c8.11 31.5 36.8 54.9 70.9 54.9s62.7-23.3 69.8-54.9c2.51-5.83 3.31-12 3.31-18.3s-.8-12.5-3.31-18.3c-7.09-31.5-35.8-54.9-69.8-54.9S486 352 478 384L478 384zM112 421c8.11 31.5 36.8 54.9 70.9 54.9s62.7-23.3 69.8-54.9c2.51-5.83 3.31-12 3.31-18.3s-.8-12.5-3.31-18.3c-7.09-31.5-35.8-54.9-69.8-54.9s-62.7 23.3-70.9 54.9c-1.49 5.83-2.29 12-2.29 18.3S111 415 112 421L112 421z"/></svg>