<svg xmlns="http://www.w3.org/2000/svg" viewBox="0 0 448 512"><path d="M352 0H96C43 0 0 43 0 96v352c0 35.4 28.6 64 64 64h320c35.4 0 64-28.6 64-64V96C448 43 405 0 352 0zM416 448c0 17.6-14.4 32-32 32H64c-17.6 0-32-14.4-32-32V96c0-35.3 28.7-64 64-64h256c35.3 0 64 28.7 64 64V448zM192 120c13.2 0 23.9-10.7 23.9-24s-10.7-24-23.9-24C179 72 168 82.8 168 96S179 120 192 120zM120 96c0-13.3-10.7-24-24-24c-13.2 0-24 10.8-24 24s10.8 24 24 24C109 120 120 109 120 96zM224 160c-79.5 0-144 64.5-144 144s64.5 144 144 144s143-64.5 143-144S304 160 224 160zM224 416c-61.8 0-111-50.2-111-112S162 192 224 192c61.8 0 111 50.2 111 112S286 416 224 416zM213 350c-10.3-10.3-12.8-25.9-6.3-38.8c12.7-25.3 7.7-55.8-12.3-75.8l-6.7-6.7c-6.3-6.3-16.4-6.3-22.6 0c-6.3 5.4-6.3 16.4 0 22.6l6.7 6.7c10.3 10.3 12.8 25.9 6.3 38.8c-12.7 25.3-7.7 55.8 12.3 75.8l6.7 6.7c3.1 3.1 7.2 4.7 11.3 4.7s8.2-1.6 11.3-4.7c6.2-6.3 6.2-16.4 0-22.6L213 350zM277 350c-10.3-10.3-12.8-25.9-6.3-38.8c12.7-25.3 7.7-55.8-12.3-75.8l-6.7-6.7c-6.3-6.3-16.4-6.3-22.6 0c-6.2 6.3-6.2 16.4 0 22.6l6.7 6.7c10.3 10.3 12.8 25.9 6.3 38.8c-12.7 25.3-7.7 55.8 12.3 75.8l6.7 6.7c3.1 3.1 7.2 4.7 11.3 4.7s8.2-1.6 11.3-4.7c6.2-6.3 6.2-16.4 0-22.6L277 350z"/></svg>