<svg xmlns="http://www.w3.org/2000/svg" viewBox="0 0 512 512"><path d="M504 404l-34.2-19.8l24.3-6.5c7.8-2.1 12.5-10.2 10.4-18c-1.7-6.4-7.6-10.9-14.3-10.9c-1.2 0-2.5 .2-3.7 .5l-52.8 14.2l-47-27.1l47.6-27.1l52.9 14.1c1.3 .3 2.5 .5 3.7 .5c6.7 0 12.5-4.5 14.2-10.9c2.1-7.8-2.6-15.9-10.4-18l-24.3-6.5l34.3-19.8c3.4-1.9 5.8-5.1 6.8-8.9s.5-7.8-1.5-11.3c-2.7-4.5-7.5-7.4-12.7-7.4c-2.6 0-5.1 .7-7.3 2l-34.3 19.8l6.5-24.3c2.1-7.8-2.6-15.9-10.5-18.1c-1.2-.3-2.4-.4-3.6-.4c-6.7 0-12.6 4.5-14.4 10.9l-14.1 52.8l-47 27.1v-54.3l38.6-38.6c5.7-5.7 5.7-15.1 0-20.8c-2.8-2.8-6.5-4.3-10.4-4.3s-7.6 1.5-10.4 4.3L373 215v-39.6c0-8.1-6.6-14.7-14.7-14.7s-14.7 6.6-14.7 14.7V215l-18-18c-2.8-2.8-6.5-4.3-10.4-4.3s-7.6 1.5-10.4 4.3s-4.3 6.5-4.3 10.4s1.5 7.6 4.3 10.4l38.6 38.6v54.3l-47-27.1l-14.1-52.8c-1.7-6.4-7.6-10.9-14.4-10.9c-.1 0-.2 0-.4 0c.3-4.2 .4-8.5 .4-12.9c0-52-47.7-134-116-200c-4.7-4.5-11-7-17.7-7c-6.6 0-13 2.5-18.1 6.9L116 7C47.5 72.9 0 155 0 207C0 294 55 354 134 354c34 0 63.6-11.3 86.2-31c1.5 .5 3 .8 4.6 .8c.9 0 2.4-.1 3.8-.5l52.8-14.1l47 27.1l-47 27.1l-52.9-14.1c-1.1-.3-2.2-.4-3.4-.4c-6.6 0-12.7 4.5-14.6 10.7c-1 3.5-.5 7.5 1.4 11c2 3.5 5.2 6.1 9 7.1l24.3 6.5L211 404c-3.4 1.9-5.8 5.1-6.8 8.9s-.5 7.8 1.5 11.2c2.6 4.5 7.5 7.4 12.7 7.4c2.6 0 5.1-.7 7.4-2l34.3-19.8l-6.5 24.3c-2.1 7.8 2.6 15.9 10.5 18.1c1.3 .3 2.5 .5 3.7 .5c6.6 0 12.5-4.5 14.2-10.9l14.1-52.8l47-27.1V416l-38.6 38.6c-5.7 5.7-5.7 15.1 0 20.8c2.8 2.8 6.5 4.3 10.4 4.3s7.6-1.5 10.4-4.3l17.8-17.8v39.6c0 8.1 6.6 14.7 14.7 14.7s14.7-6.6 14.7-14.7v-39.4l17.2 17.6c3 3 6.2 4.3 10.4 4.3c4.4 0 8.2-1.5 11-4.3s4.3-6.5 4.3-10.4s-1.5-7.6-4.3-10.4L373 416v-54.3l47.1 27.1l14.1 52.8c1.7 6.4 7.6 10.9 14.2 10.9c1.2 0 2.5-.2 3.8-.5c7.8-2.1 12.5-10.2 10.4-18.1l-6.5-24.3l34.3 19.8c2.2 1.3 4.8 2 7.4 2c5.2 0 10.1-2.8 12.7-7.4c2-3.5 2.5-7.5 1.4-11.2C510 409 508 406 504 404zM29.6 207c0-25.2 15.2-60 43.9-101c22.4-31.7 47.2-58.9 60.3-71.9c13.1 13 37.8 40.1 60.3 71.9C223 147 238 182 238 207c0 14.2-1.8 27.6-5.3 39.9l-7-4c-2.1-1.2-4.5-1.9-6.9-2c-9.2-31.3-35.4-70.6-78.4-117c-1.6-1.7-2.7-3-3.4-3.7l-3-3.4l-3 3.4c-.7 .8-1.8 1.9-3.2 3.5c-54.6 59-82.3 106-82.3 141c0 2.8 .1 5.6 .4 8.4C35.1 254 29.6 232 29.6 207zM147 323c-.9 .1-1.9 .3-2.8 .4c-3.6 .5-7 1-10.6 1c-3.5 0-6.7-.5-10.2-1c-1.1-.2-2.1-.3-3.2-.4c-27.7-5.5-45.6-28.5-45.6-58.7c0-10.8 5.8-42.3 58.9-103c53.1 60.7 58.9 92.1 58.9 103C193 295 175 317 147 323z"/></svg>