<svg xmlns="http://www.w3.org/2000/svg" viewBox="0 0 512 512"><path d="M501 395L483 384l14-3.77c8.77-2.35 14-11.4 11.5-20.2c-2.45-8.77-11.3-13.9-20.2-11.5l-45.2 12.2l-41.4-24.2l40.8-24.2l45.7 12.2c1.43 .408 2.86 .612 4.28 .612c7.24 0 13.9-4.79 15.9-12.1c2.35-8.77-2.75-17.7-11.5-20.2l-14-3.77l17.7-10.4c10.5-6.12 14-19.5 7.85-30c-6.12-10.4-19.6-14-30-7.85l-17.1 10l3.67-13.9c2.35-8.77-2.96-17.7-11.7-20.1s-17.7 2.96-20.1 11.6l-12.1 45.8l-41 24l-.612-48.3l33.1-33.5c6.43-6.43 6.32-16.8-.102-23.3c-6.53-6.43-16.9-6.32-23.3 .102l-9.69 9.79v-20.2c0-12.1-9.79-21.9-21.9-21.9s-21.9 9.79-21.9 21.9l.612 20.2l-9.69-9.79c-6.43-6.43-16.8-6.53-23.3-.102c-6.53 6.43-6.53 16.8-.102 23.3l32.5 33.5v48.2L296 274L284 229c-2.96-8.67-11.2-14-20.6-11.7c0-1.12 0-2.24 0-3.37c0-53.4-51.4-142-124-211c-4.18-3.98-11-3.98-15.2 0C51 71.6 0 160 0 214C0 300 54.1 351 131 351c33.5 0 62.6-9.49 85-27.3c2.35 1.33 5.1 2.04 7.85 2.04c1.43 0 2.86-.204 4.28-.612l45.2-12.2l41.4 24.2l-41.4 24.2l-45.2-12.2c-8.77-2.35-17.8 2.86-20.2 11.5c-2.35 8.77 2.75 17.8 11.5 20.1l14 3.77l-17.7 10.4c-10.5 6.12-14 19.5-7.85 30c4.08 6.94 11.4 10.9 19 10.9c3.77 0 7.55-.918 10.4-3.06l17.1-10l-3.67 13.9c-2.35 8.77 2.96 17.7 11.7 20.1c1.43 .408 2.86 .51 4.18 .51c7.24 0 14-4.9 15.9-12.2l12.1-45.8l41-24l.612 48.3l-33.1 33.5c-6.43 6.43-6.32 16.8 .102 23.3c6.43 6.43 16.8 6.32 23.3-.102l9.69-9.79v20.2c0 12.1 9.79 21.9 21.9 21.9s21.9-9.79 21.9-21.9v-20.2l9.69 9.79c3.16 3.26 7.45 4.9 11.7 4.9c4.18 0 8.36-1.53 11.5-4.79c6.43-6.43 6.53-16.8 .102-23.3l-33.1-33.5v-48.2l41 24l12.1 45.8c1.94 7.34 8.57 12.2 15.9 12.2c1.43 0 2.86-.204 4.18-.51c8.77-2.35 14-11.3 11.7-20.1l-3.67-13.9l17.1 10c3.47 2.04 7.24 2.96 11 2.96c7.55 0 14.9-3.88 19-10.9C515 414 512 401 501 395zM131 296c-38.7 0-65.8-25.9-65.8-62.8c0-8.57 2.86-37.8 57.4-97.9c4.28-4.79 12.3-4.79 16.6 0c54.6 60 57.4 89.4 57.4 97.9C197 270 170 296 131 296z"/></svg>