<svg xmlns="http://www.w3.org/2000/svg" viewBox="0 0 448 512"><path d="M384 192h-16v-48C368 64.5 304 0 224 0S80 64.5 80 144v48H64c-35.3 0-64 28.7-64 64v192c0 35.3 28.7 64 64 64h320c35.3 0 64-28.7 64-64V256C448 221 419 192 384 192zM286 410c-3 16.9-14.8 28-28.6 33.8c-5.9 2.4-12.5 4-19.3 4.8v14.5c0 7.7-6.2 13.9-13.9 13.9s-13.9-6.2-13.9-13.9v-15.2c-.2 0-.4-.4-.6-.1h-.1c-10.6-1.7-28.1-6.2-39.9-11.5c-7-3.1-10.2-11.4-7.1-18.4c3.1-7 11.4-10.2 18-7.1c9.5 4.1 24.5 8 33.1 9.4c13.9 2.1 25.4 .9 33.1-2.3c7.4-3 10.7-7.4 11.7-12.6c.8-4.7 .2-7.3-.6-9c-.8-1.7-2.4-3.7-5.6-5.8c-7.1-4.7-17.9-7.8-31.9-11.6l-1.2-.3c-12.4-3.4-27.5-7.5-38.8-14.9c-6.1-4.1-11.9-9.6-15.5-17.3c-3.6-7.8-4.4-16.5-2.7-25.7c3.1-16.9 15.3-27.7 29.6-33.2c5.7-2.2 11.8-3.6 18.3-4.4v-15.1c0-7.7 6.2-13.9 13.9-13.9s13.9 6.2 13.9 13.9v15.5c.7 .1 1.4 .2 2 .3c4.6 .7 18.4 2.9 24 4.3c7.1 1.9 12 9.5 10.1 16.9c-1.9 7.4-9.5 12-16.9 10.1c-4.1-1.4-16.4-3.1-21.3-3.8c-14-2.1-26-1-34.2 2.1c-8 3-11.3 7.4-12.1 12.2c-.8 4.7-.2 7.3 .6 9c.8 1.7 2.4 3.7 5.6 5.8c7.1 4.7 17.9 7.8 31.9 11.6l1.2 .3c12.4 3.4 27.5 7.5 38.8 14.9c6.1 4.1 11.9 9.6 15.5 17.3C287 392 288 401 286 410zM304 192H144v-48c0-44.2 35.8-80 80-80s80 35.8 80 80V192z"/></svg>