<svg xmlns="http://www.w3.org/2000/svg" viewBox="0 0 512 512"><path d="M256 232c13.3 0 24 10.7 24 24c0 13.3-10.7 24-24 24c-13.3 0-24-10.7-24-24C232 243 243 232 256 232zM352 280c-13.3 0-24-10.7-24-24c0-13.3 10.7-24 24-24s24 10.7 24 24C376 269 365 280 352 280zM160 232c13.3 0 24 10.7 24 24c0 13.3-10.7 24-24 24s-24-10.7-24-24C136 243 147 232 160 232zM256 512C115 512 0 397 0 256S115 0 256 0s256 115 256 256S397 512 256 512zM480 256c0-124-100-224-224-224S32 132 32 256s100 224 224 224S480 380 480 256z"/></svg>