<svg xmlns="http://www.w3.org/2000/svg" viewBox="0 0 431 512"><path d="M418 18.1C361 6.02 288 0 216 0S70.2 6.02 13 18.1C5.48 19.6 .159 25 .159 31.3v449c0 6.32 5.42 11.7 12.9 13.3c65.5 13 134 18.2 202 18.2c19.3 0 38.6-.402 57.7-1.2c41-2.01 82.9-6.22 123-12.9c13.6-2.91 34.9-2.61 35.2-17.4v-449C431 25 425 19.6 418 18.1zM216 30.1c68.2 0 133 5.42 185 15.3v246c-25.3 .703-39.1 8.73-51.2 16c-11.2 6.63-20.1 11.8-39.7 11.8c-19.6 0-28.4-5.22-39.7-11.8c-12.7-7.53-27.1-16-54.8-16c-27.7 0-42.1 8.53-54.8 16c-11.2 6.63-20.1 11.8-39.6 11.8s-28.3-5.22-39.6-11.8C69.2 300 55.5 292 30.3 291V45.4C82.1 35.5 147 30.1 216 30.1zM400 466c-3.11 .502-6.32 1-9.64 1.61c-37 6.12-76.9 10.3-118 12.3c-19 .803-37.9 1.2-56.3 1.2c-66.5 0-129-5.22-185-15.5V322c16.9 .602 25.3 5.62 35.8 11.7c12.7 7.53 27.2 16 54.8 16s42.1-8.53 54.8-16c11.2-6.63 20.1-11.8 39.6-11.8c19.5 0 28.3 5.22 39.6 11.8c12.7 7.53 27.2 16 54.9 16c27.7 0 42.2-8.53 54.9-16c10.5-6.12 19-11.1 35.9-11.7v144C400 466 400 466 400 466zM119 162c0 53.4 43.3 96.6 96.6 96.6s96.6-43.3 96.6-96.6s-43.2-96.7-96.6-96.7C162 65.8 119 109 119 162zM281 162c0 36-29.2 65.3-65.3 65.3s-65.3-29.2-65.3-65.3s29.2-65.3 65.3-65.3S281 126 281 162zM203 152l49.1-27l-27 49.1l0 0c-4.32 7.83-14.3 10.7-22.1 6.43l0 0c-2.81-1.51-5.02-3.71-6.53-6.53C193 166 196 156 203 152z"/></svg>