<svg xmlns="http://www.w3.org/2000/svg" viewBox="0 0 428 512"><path d="M317.3 78.9V15c0-8.3-6.7-15-15-15h0c-8.3 0-15 6.7-15 15v60.9h-66.3V15c0-8.3-6.7-15-15-15h0c-8.3 0-15 6.7-15 15v64H95.5c-8.3 0-15 6.7-15 15V357c-28.5-5.3-50.2-30.3-50.2-60.3V15c0-8.3-6.7-15-15-15h0C7.1 0 .4 6.7 .4 15V296.7c0 46.6 35 85.1 80.1 90.6v109.9c0 8.3 6.7 15 15 15H413c8.3 0 15-6.7 15-15V93.9c0-8.3-6.7-15-15-15h-95.7zm-171.7 52.6h217.2v29.9H145.6v-29.9zm0 48.8h217.2v29.9H145.6v-29.9zm143.4 264.4c73.3-32.9 51.5-173.9-54.6-157.4c81.7 74.7-20.2 127.2-9.2 41.4c-49.9 20.9-44.9 82.1-10.8 109.5c-34.9-17-59.1-52.9-59.1-94.2c0-57.9 47.2-104.9 105.1-104.8c57.6 .2 104.4 47.1 104.4 104.8c0 47.7-32 88.1-75.9 100.7z"/></svg>