<svg xmlns="http://www.w3.org/2000/svg" viewBox="0 0 448 512"><path d="M384 0H64h-.1C28.7 0 .1 28.5 0 63.8c0 .1 0 .1 0 .2v416c0 17.7 14.3 32 32 32h384c17.7 0 32-14.3 32-32V64C448 28.7 419 0 384 0zM30 63.8C30 45.2 45.2 30 63.9 30l0 0l0 0H64h320c18.7 0 34 15.3 34 34v83H30V64V63.8zM418 177v258H30V177H418zM416 482H32c-1.1 0-2-.9-2-2v-15h388v15C418 481 417 482 416 482zM261 88c0-13.2 10.7-24 23.9-24h.1c13.3 0 24 10.7 24 24s-10.7 24-24 24S261 101 261 88zM357 88c0-13.3 10.7-24 24-24s24 10.7 24 24s-10.7 24-24 24S357 101 357 88zM245 418c12.2 0 24.3-2.5 35.5-7.1c59.5 25.7 128-20.1 128-85c.7-64.8-68.1-111-128-85c-59.5-25.7-128 20.1-128 85C153 377 195 418 245 418zM256 311c4.2-17.2 15.9-32 31.6-40.1c40.3-21.6 91 9.2 90.4 54.9c.6 45.7-50.2 76.6-90.4 54.9C263 368 249 339 256 311zM245 264c.9 0 1.8 0 2.7 .1c-31.7 34.6-31.7 89.1 0 124c-35.1 1.6-64.7-26.8-64.6-61.9C183 292 211 264 245 264zM77.4 355v34h-4.7c-7.8 0-14.2 6.4-14.2 14.2s6.4 14.2 14.2 14.2h37.7c7.8 0 14.2-6.4 14.2-14.2s-6.4-14.2-14.2-14.2h-4.7v-34c21.3-6.2 36.9-25.8 36.9-49v-70.9H40.5v70.9C40.5 329 56.1 349 77.4 355zM68.9 263h45.4v42.6c0 12.5-10.2 22.7-22.7 22.7s-22.7-10.2-22.7-22.7C68.9 306 68.9 263 68.9 263z"/></svg>