<svg xmlns="http://www.w3.org/2000/svg" viewBox="0 0 448 512"><path d="M352 0H96C43 0 0 43 0 96v352c0 35.4 28.6 64 64 64h320c35.4 0 64-28.6 64-64V96C448 43 405 0 352 0zM416 448c0 17.6-14.4 32-32 32H64c-17.6 0-32-14.4-32-32V96c0-35.3 28.7-64 64-64h256c35.3 0 64 28.7 64 64V448zM192 120c13.2 0 23.9-10.7 23.9-24s-10.7-24-23.9-24C179 72 168 82.8 168 96S179 120 192 120zM120 96c0-13.3-10.7-24-24-24c-13.2 0-24 10.8-24 24s10.8 24 24 24C109 120 120 109 120 96zM224 160c-79.5 0-143 64.5-143 144S145 448 224 448s143-64.5 143-144S304 160 224 160zM224 416c-57 0-104-42.9-111-98.1c22.5 7.6 47.7 4.7 67.7-8.9c12.5 8.6 27.5 13.3 42.9 13.3c15.4 0 30.4-4.8 42.9-13.4c12.3 8.5 26.8 13.1 42 13.3c8.9-.2 17.5-1.9 25.7-4.6C328 373 281 416 224 416zM309 290c-11.8-.2-22.8-4.9-31.1-13.4c-4.5-4.6-11.4-6.1-17.5-3.6c-2.4 1-4.5 2.5-6.1 4.5c-16.3 16.2-46 16-61.9-.6c-3-3.1-7.1-4.9-11.5-4.9c-4.4 .7-8.5 1.7-11.5 4.8c-15 15.4-38.2 16.7-55.5 5.4C124 231 170 192 224 192c54.6 0 100 39.3 110 91.1C327 288 318 290 309 290z"/></svg>