<svg xmlns="http://www.w3.org/2000/svg" viewBox="0 0 448 512"><path d="M384 0H64C28.6 0 0 28.6 0 64v400c0 26.4 21.6 48 48 48h352c26.4 0 48-21.6 48-48V64C448 28.6 419 0 384 0zM184 64c13.2 0 24 10.8 24 24s-10.8 24-24 24s-24-10.8-24-24S171 64 184 64zM64 88c0-13.3 10.8-24 24-24s24 10.8 24 24s-10.8 24-24 24S64 101 64 88zM224 448c-79.5 0-143-64.5-143-144S145 160 224 160s143 64.5 143 144S304 448 224 448zM216 272c0-22.6-12-34.6-20.8-43.4c-5.8-5.7-9.1-9.4-10.4-14.6c-.9-3.5-4.2-6-7.8-6h-16.2c-2.4 0-4.8 1.1-6.3 2.9c-1.5 1.9-2.3 4.2-1.7 6.6c2.8 16.6 12.5 26.4 19.9 33.9c7.8 7.7 11.3 11.6 11.3 20.6s-3.5 12.9-11.2 20.8C164 302 152 313 152 336c0 22.8 12 34.6 20.8 43.4c5.8 5.8 9.1 9.4 10.5 14.5c.9 3.6 4.1 6.1 7.8 6.1h16.4c2.4 0 4.6-1.1 6.1-2.9c1.6-1.9 2.3-4.3 1.9-6.6c-2.9-16.6-12.6-26.4-20-33.8C188 349 184 345 184 336c0-8.9 3.5-12.8 11.3-20.6C204 307 216 295 216 272zM296 272c0-22.6-12-34.6-20.8-43.4c-5.8-5.7-9.1-9.4-10.5-14.6c-.9-3.5-4.2-6-7.8-6h-16.3c-2.4 0-4.8 1.1-6.3 2.9c-1.5 1.9-2.3 4.2-1.7 6.6c2.8 16.6 12.5 26.4 19.9 33.9c7.8 7.7 11.3 11.6 11.3 20.6s-3.5 12.9-11.3 20.8C244 302 232 313 232 336c0 22.8 12 34.6 20.8 43.4c5.8 5.8 9.1 9.4 10.5 14.5c.9 3.6 4.1 6.1 7.8 6.1h16.4c2.4 0 4.6-1.1 6.1-2.9c1.5-1.9 2.1-4.3 1.8-6.6c-2.8-16.6-12.5-26.4-19.9-33.8C268 349 264 345 264 336c0-8.9 3.5-12.8 11.3-20.6C284 307 296 295 296 272z"/></svg>