<svg xmlns="http://www.w3.org/2000/svg" viewBox="0 0 448 512"><path d="M384 0H64c0 0-.1 0-.1 0C28.7 0 .1 28.5 0 63.8c0 .1 0 .1 0 .2v416c0 17.7 14.3 32 32 32h384c17.7 0 32-14.3 32-32V64C448 28.7 419 0 384 0zM381 64c13.3 0 24 10.7 24 24s-10.7 24-24 24s-24-10.7-24-24S368 64 381 64zM285 64c0 0 .1 0 .1 0c13.3 0 24 10.7 24 24s-10.7 24-24 24s-24-10.7-24-24C261 74.8 272 64 285 64zM418 435H30V177h388V435zM77.4 355v34h-4.7c-7.8 0-14.2 6.4-14.2 14.2s6.4 14.2 14.2 14.2h37.7c7.8 0 14.2-6.4 14.2-14.2s-6.4-14.2-14.2-14.2h-4.7v-34c21.3-6.2 36.9-25.8 36.9-49v-70.9H40.5v70.9C40.5 329 56.1 349 77.4 355zM68.9 263h45.4v42.6c0 12.5-10.2 22.7-22.7 22.7s-22.7-10.2-22.7-22.7V263zM240 418c12.2 0 24.3-2.5 35.5-7.1c11.2 4.7 23.3 7.1 35.5 7.1c50.8 0 92.1-41.3 92.1-92.1s-41.3-92.1-92.1-92.1c-12.2 0-24.3 2.5-35.5 7.1c-11.2-4.7-23.3-7.1-35.5-7.1c-50.8 0-92.1 41.3-92.1 92.1S189 418 240 418zM282 271c8.9-4.6 18.5-7 28.5-7c34.1 0 61.9 27.8 61.9 61.9s-27.8 61.9-61.9 61.9c-10 0-19.6-2.3-28.5-7c-20.6-10.7-33.4-31.8-33.4-54.9S261 282 282 271zM240 264c.9 0 1.8 0 2.7 .1c-.2 .2-.3 .4-.5 .5c-.6 .7-1.2 1.4-1.8 2.1c-.2 .3-.5 .6-.7 .8c-.8 1-1.6 1.9-2.3 2.9c-.1 .1-.2 .2-.3 .4c-.7 .9-1.3 1.8-1.9 2.7c-.2 .3-.4 .6-.6 1c-.5 .8-1 1.6-1.5 2.4c-.2 .3-.4 .6-.5 .9c-.7 1.1-1.3 2.1-1.9 3.2c-.1 .2-.2 .4-.3 .6c-.5 .9-1 1.8-1.4 2.7c-.2 .3-.3 .7-.5 1c-.4 .9-.8 1.8-1.2 2.6c-.1 .3-.3 .5-.4 .8c-.5 1.1-1 2.3-1.4 3.5c-.1 .3-.2 .5-.3 .8c-.4 .9-.7 1.8-1 2.8c-.1 .4-.3 .7-.4 1.1c-.3 1-.6 2-.9 3c-.1 .2-.1 .5-.2 .7c-.3 1.2-.7 2.4-1 3.7c-.1 .3-.1 .6-.2 1c-.2 .9-.4 1.9-.6 2.9c-.1 .4-.1 .8-.2 1.1c-.2 1.1-.4 2.2-.5 3.3c0 .2 0 .3-.1 .5c-.2 1.3-.3 2.5-.4 3.8c0 .4-.1 .7-.1 1.1c-.1 1-.2 1.9-.2 2.9c0 .4 0 .8-.1 1.1c-.1 1.3-.1 2.6-.1 3.9s0 2.6 .1 3.9c0 .4 0 .8 .1 1.1c.1 1 .1 2 .2 2.9c0 .4 .1 .7 .1 1.1c.1 1.3 .3 2.6 .4 3.8c0 .2 0 .3 .1 .5c.2 1.1 .3 2.2 .5 3.3c.1 .4 .1 .8 .2 1.1c.2 1 .4 1.9 .6 2.9c.1 .3 .1 .6 .2 1c.3 1.2 .6 2.4 1 3.7c.1 .2 .1 .5 .2 .7c.3 1 .6 2 .9 3c.1 .4 .2 .7 .4 1.1c.3 .9 .7 1.9 1 2.8c.1 .3 .2 .5 .3 .8c.5 1.2 .9 2.3 1.4 3.5c.1 .3 .3 .5 .4 .8c.4 .9 .8 1.8 1.2 2.6c.2 .3 .3 .7 .5 1c.5 .9 .9 1.8 1.4 2.7c.1 .2 .2 .4 .3 .6c.6 1.1 1.2 2.2 1.9 3.2c.2 .3 .4 .6 .5 .9c.5 .8 1 1.6 1.5 2.4c.2 .3 .4 .6 .6 1c.6 .9 1.3 1.8 1.9 2.7c.1 .1 .2 .2 .3 .4c.8 1 1.5 2 2.3 2.9c.2 .3 .5 .6 .7 .8c.6 .7 1.2 1.4 1.8 2.1c.2 .2 .3 .4 .5 .5c-.9 0-1.8 .1-2.7 .1c-34.1 0-61.9-27.8-61.9-61.9S205 264 240 264z"/></svg>