<svg xmlns="http://www.w3.org/2000/svg" viewBox="0 0 582 512"><path d="M326.069 376.34c2.735 0 5.375-.47 7.922-1.225 14.806-4.621 23.105-20.37 18.484-35.177-4.621-14.807-20.37-23.106-35.177-18.485-14.806 4.622-23.106 20.371-18.485 35.177 3.773 11.789 14.901 19.9 27.256 19.71zm-95.44 78.371a27.165 27.165 0 00-5.565-.566c-15.655-.094-28.48 12.543-28.575 28.198-.094 15.467 12.26 28.199 27.727 28.576h1.886c15.278-.472 27.443-13.015 27.443-28.387 0-4.621-1.226-9.148-3.395-13.203-3.96-7.545-11.128-13.015-19.521-14.618zm297.637-199.65c-29.142 0-52.719 23.576-52.813 52.718 0 13.486 5.187 26.5 14.43 36.308l-42.817 65.073c-6.318-2.546-13.014-3.866-19.805-3.866h-.094v-176.64h42.062c5.187 0 9.43-4.244 9.43-9.43 0-2.641-1.131-5.093-3.017-6.885l-39.044-36.12-9.62-8.865v-92.14c0-5.187-4.243-9.43-9.43-9.43h-56.774c-5.187 0-9.43 4.243-9.43 9.43v21.974L252.13 5.05a18.89 18.89 0 00-25.652 0L3.063 212.244c-3.867 3.584-4.056 9.526-.472 13.298 1.792 1.886 4.338 3.018 6.885 3.018h43.476v263.592c0 10.373 8.393 18.673 18.673 18.673h109.02c-15.75-24.52-8.582-57.057 15.844-72.806 14.806-9.526 33.29-10.94 49.418-3.961l39.232-52.813c-18.485-22.634-15.09-55.83 7.544-74.315s55.831-15.09 74.315 7.545c14.901 18.295 15.939 44.325 2.358 63.658 0 0 31.122 34.422 31.216 34.422-7.45 4.433-17.918 17.447-17.73 17.164l-31.499-35.27c-7.733 4.243-16.41 6.412-25.18 6.412-7.45 0-14.807-1.603-21.597-4.621l-39.043 52.53c14.9 17.635 16.598 42.91 4.055 62.338h157.495c-4.244 0-4.244-.095-.66-.095 28.01-.094 52.624-23.011 53.567-51.02.471-13.392-4.244-26.501-13.11-36.592l43.288-65.827c27.444 9.808 57.717-4.433 67.525-31.877 9.808-27.443-4.432-57.716-31.876-67.524-5.564-2.075-11.6-3.113-17.541-3.113zm28.48 52.812c0 15.75-12.73 28.481-28.48 28.481s-28.481-12.731-28.481-28.481c0-14.995 11.694-27.444 26.689-28.387 15.75-.943 29.235 10.94 30.178 26.69 0 .565.095 1.131.095 1.697zM452.443 445.28c2.075 3.961 3.206 8.3 3.206 12.826 0 15.75-12.731 28.481-28.48 28.387-15.75 0-28.482-12.732-28.388-28.481 0-15.75 12.732-28.387 28.481-28.387 1.98 0 3.961.189 5.942.66 8.299 1.792 15.372 7.356 19.239 14.995z"/></svg>