<svg xmlns="http://www.w3.org/2000/svg" viewBox="0 0 431 512"><path d="M273 510c41-2.01 82.9-6.22 123-12.9c13.6-2.91 34.9-2.61 35.2-17.4v-449c0-6.32-5.42-11.7-12.9-13.3C303-6.02 128-6.02 13 18.1C5.48 19.6 .159 25 .159 31.3v449c0 6.32 5.42 11.7 12.9 13.3C97 510 186 514 273 510zM389 286h-.301c-43.4 0-43.4 25.5-86.7 25.5s-43.4-25.5-86.6-25.5s-43.4 25.5-86.6 25.5s-43.4-25.5-86.6-25.5h-.301V47.3c52.8-9.04 112-13.9 174-13.9c61.3 0 121 4.82 174 13.9v238H389zM119 162c0 53.4 43.3 96.6 96.6 96.6s96.6-43.3 96.6-96.6s-43.2-96.7-96.6-96.7C162 65.8 119 109 119 162zM281 162c0 36-29.2 65.3-65.3 65.3s-65.3-29.2-65.3-65.3s29.2-65.3 65.3-65.3S281 126 281 162zM203 152l49.1-27l-27 49.1l0 0c-4.32 7.83-14.3 10.7-22.1 6.43l0 0c-2.81-1.51-5.02-3.71-6.53-6.53C193 166 196 156 203 152z"/></svg>