<svg xmlns="http://www.w3.org/2000/svg" viewBox="0 0 659 512"><path d="M366 110c0 .457-.229 .8-.229 1.26c0 .914 .229 1.83 .229 2.86V110zM220 401V293h219v110c45.3-.114 61.7-20.6 73.1-30.6V110c0-20.1 16.5-36.6 36.6-36.6s36.6 16.5 36.6 36.6c0 20.2 16.3 36.6 36.6 36.6s36.6-16.3 36.6-36.6c0-60.6-48.1-109-109-109C480 0 439 57 439 114V219H220V110c0-20.1 16.5-36.6 36.6-36.6s36.6 16.5 36.6 36.6c0 20.2 16.3 36.6 36.6 36.6c19.8 0 35.7-15.8 36.3-35.3C364 55 322 0 256 0c-61.6 0-110 48.1-110 110v262C159 382 173 402 220 401zM659 472c0-17.3-12.3-32.7-30.1-35.9c-55.4-10.2-52-33.7-79.5-33.7c-28.6 0-35.7 36.3-110 36.3c-55.5 0-83.1-25.3-83.9-25.8c-6.97-7.09-16.3-10.5-25.6-10.5c-28.3 0-36.1 36.3-110 36.3c-55.5 0-83.1-25.1-83.9-25.8c-6.97-7.09-16.2-10.5-25.6-10.5c-9.26 0-18.5 3.43-25.7 10.2C51.4 443 .357 427 .357 472c0 18.4 14.6 36.7 36.2 36.7c11.2 0 45.4-8.34 73.5-24.9c22.3 13.1 58.9 28.2 110 28.2s87.4-15 110-28.2c22.3 13.1 58.9 28.1 110 28.1c51 0 87.4-15 110-28.2c28.2 16.7 62.5 24.9 73.4 24.9C644 509 659 491 659 472z"/></svg>