<svg xmlns="http://www.w3.org/2000/svg" viewBox="0 0 640 512"><path d="M240 454c.1 6.3 2 12.4 5.4 17.7l17.1 25.7c5.3 7.9 17.3 14.3 26.6 14.3h61.7c9.5 0 21.4-6.4 26.6-14.3l17.1-25.7c3.3-5.4 5.1-11.4 5.4-17.7V416l-160 0L240 454zM320 0C218 .3 144 82.1 144 175c0 42.6 15.4 83.8 43.5 116c16.6 18.9 42.4 58.2 52.2 91.5c0 .3 .1 .5 .1 .8l160 0c0-.3 .1-.5 .1-.8c9.9-33.3 35.6-72.6 52.2-91.5c28.1-32 43.5-73.1 43.5-116C496 78.6 417-.2 320 0zM320 96c-44.1 0-80 35.9-80 79.1c0 8.9-7.1 16-16 16s-16-7.1-16-16c.1-61 50.1-111 112-111c8.9 0 16 7.1 16 16S329 96 320 96zM112 192c0-13.3-10.8-24-24-24H24c-13.3 0-24 10.8-24 24s10.8 24 24 24h64C101 216 112 205 112 192zM616 168h-64c-13.3 0-24 10.8-24 24s10.8 24 24 24h64c13.3 0 24-10.8 24-24S629 168 616 168zM131 55.2l-55.5-32c-7.4-4.5-16.6-4.6-24.3-.4c-7.5 4.4-12.1 12.4-12.1 21c.1 8.8 4.9 16.8 12.4 20.9l55.5 32c7.4 4.5 16.6 4.6 24.3 .4c7.5-4.4 12.1-12.4 12.1-21C143 67.4 139 59.4 131 55.2zM588 319l-55.5-32c-7.4-4.5-16.6-4.6-24.3-.4c-7.5 4.4-12.1 12.4-12.1 21c.1 8.8 4.9 16.8 12.4 20.9l55.5 32c11.4 6.4 25.9 2.4 32.4-9C603 341 600 326 588 319zM107 287l-55.5 32c-7.5 4.1-12.3 12.1-12.4 20.9c0 8.6 4.6 16.6 12.1 21c7.6 4.3 16.9 4.1 24.2-.4l55.5-32c11.1-6.8 14.9-21.3 8.4-32.5C133 285 119 281 107 287zM521 100c4.1 0 8.3-1.1 12-3.3l55.4-32c11.3-6.8 14.9-21.3 8.4-32.5c-6.5-11.4-21-15.4-32.4-9l-55.4 32c-9.5 5.4-14 16.5-11.3 27C501 92.7 510 100 521 100z"/></svg>