<svg xmlns="http://www.w3.org/2000/svg" viewBox="0 0 659 512"><path d="M643 474c-32.1-4.11-60.9-20.9-78.9-46.2c-6.86-9.6-22.9-9.6-29.7 0c-21 29.6-56.5 47.2-95.8 47.2c-38.3 0-73.7-17.6-94.9-47.2c-6.86-9.6-22.9-9.6-29.8 0C294 458 258 475 220 475c-38.3 0-73.7-17.6-94.9-47.2c-3.43-4.8-8.91-7.66-14.9-7.66s-11.4 2.86-14.9 7.66c-17.9 25.1-46.7 42.1-78.9 46.2C6.3 476-.786 485 .471 495c1.26 10.1 10.3 17.3 20.5 15.8c34.3-4.46 65.7-20 89-43.5c28.1 28.3 67.8 44.9 110 44.9s81.5-16.5 110-44.9c28.1 28.3 67.8 44.8 110 44.8c42.1 0 81.5-16.5 110-44.8c23.4 23.5 54.9 39.1 89 43.5c10.3 1.6 19.2-5.83 20.5-15.8C659 485 653 476 643 474zM165 402c10.1 0 18.3-8.23 18.3-18.3V256h256v128c0 10.1 8.23 18.3 18.3 18.3s18.3-8.23 18.3-18.3V91.4c0-30.3 24.6-54.9 54.9-54.9s54.9 24.6 54.9 54.9v18.3c0 10.1 8.23 18.3 18.3 18.3s18.3-8.23 18.3-18.3V91.4c0-50.4-41-91.4-91.4-91.4s-91.4 41-91.4 91.4v128H183V91.4c0-30.3 24.6-54.9 54.9-54.9s54.9 24.6 54.9 54.9v18.3c0 10.1 8.23 18.3 18.3 18.3s18.3-8.23 18.3-18.3V91.4c0-50.4-41-91.4-91.4-91.4s-91.4 41-91.4 91.4v293C147 394 155 402 165 402z"/></svg>