<svg xmlns="http://www.w3.org/2000/svg" viewBox="0 0 428 512"><path d="M260.2 239.2c-57.8 0-104.8 47-104.8 104.8c0 43.4 26.5 80.7 64.3 96.6c9.3 5.2 19.9 8.2 31.2 8.2c1.5 0 2.9 0 4.4-.1c1.6 .1 3.3 .1 4.9 .1c57.8 0 104.8-47 104.8-104.8s-47-104.8-104.8-104.8zm-48.4 145.4c0-6.6 1.6-12.8 4.5-18.4c6.9 10.5 17 16.9 28 16.9c19.9 0 35.8-20 37.1-46.3c.1-1.3 .1-2.4 .1-3.5c0-6.2-.8-12.1-2.2-17.5c17.6 9.9 29.3 28.7 29.3 50.3c0 30.4-23.7 55.4-53.5 57.6c-8.7-.5-17-2.5-24.7-5.6c-11.3-7-18.8-19.4-18.8-33.5zm121.2-7.8c.5-3.5 .7-7.1 .7-10.8c0-45.6-37.1-82.6-82.6-82.6c-1.6 0-3.3 .1-5.2 .2c-6.4 .4-11.5 5.6-11.7 12s4.5 12 10.8 12.8c4.9 .7 11.7 10.4 11.7 24.9c0 .7 0 1.4-.1 2.3c-.7 14.1-7.6 22.7-12.2 22.7c-4.1 0-9.7-6.7-11.7-17.4c-.8-4.3-3.6-7.8-7.7-9.4c-4-1.6-8.6-1-12 1.5c-14.2 10.5-23.5 26.3-25.6 43.6c-4.4-9.9-6.9-20.9-6.9-32.4c0-44 35.8-79.8 79.8-79.8s79.8 35.8 79.8 79.8c-.1 11.6-2.7 22.8-7.2 32.7zM317.4 78.9V15c0-8.3-6.7-15-15-15h0c-8.3 0-15 6.7-15 15v60.9h-66.3V15c0-8.3-6.7-15-15-15h0c-8.3 0-15 6.7-15 15v64s-90.7 0-90.7 0c-11 0-20 8.9-20 20V357c-28.5-5.3-50.2-30.3-50.2-60.3V15c0-8.3-6.7-15-15-15h0C7.1 0 .4 6.7 .4 15V296.7c0 46.6 35 85.1 80.1 90.6v104.9c0 11 8.9 20 20 20H408c11 0 20-8.9 20-20V98.9c0-11-8.9-20-20-20h-90.6zm70.7 403.3H120.5c-5.5 0-10-4.5-10-10V118.9c0-5.5 4.5-10 10-10H388.1c5.5 0 10 4.5 10 10V472.3c0 5.5-4.5 10-10 10zM160.7 161.5c-8.3 0-15-6.7-15-15h0c0-8.3 6.7-15 15-15h187.2c8.3 0 15 6.7 15 15h0c0 8.3-6.7 15-15 15H160.7zm0 48.8c-8.3 0-15-6.7-15-15h0c0-8.3 6.7-15 15-15h187.2c8.3 0 15 6.7 15 15h0c0 8.3-6.7 15-15 15H160.7z"/></svg>