<svg xmlns="http://www.w3.org/2000/svg" viewBox="0 0 583 512"><path d="M530 255c-29.4 0-53.3 23.9-53.3 53.3c0 12.5 4.35 23.9 11.5 33.1L449 409c-5.86-2.27-12.3-3.5-19-3.5c-.567 0-1.13 0-1.7 0h0l0-176h42c5.2 0 9.45-4.25 9.45-9.45c0-2.65-1.13-5.1-3.02-6.9l-73.6-68.2V66.6h-28.3V118L253 5.01c-3.59-3.4-8.22-5.01-12.8-5.01c-4.63 0-9.26 1.7-12.8 5.01L3.1 213c-3.87 3.59-4.06 9.54-.472 13.3c1.79 1.89 4.35 3.02 6.9 3.02h43.5v264c0 10.4 8.41 18.7 18.7 18.8c0 0 353 0 358 0c29.4 0 53.3-23.9 53.3-53.3c0-12.4-4.25-23.7-11.3-32.8l39.1-68c5.86 2.17 12.1 3.4 18.7 3.4c29.4 0 53.3-23.9 53.3-53.3S559 255 530 255zM250 483c-.85 13-11.6 23.3-24.8 23.3s-24-10.3-24.8-23.3c0-.567-.094-1.04-.094-1.61c0-13.7 11.1-24.9 24.9-24.9s24.9 11.1 24.9 24.9C250 482 250 483 250 483zM384 432c-4.63 7.94-7.37 17.1-7.37 26.9c0 8.97 2.27 17.4 6.14 24.7c0 0 0 .094 .094 .094c0 0 0 0-.094 0H278c0 0 0 0 0 0c0 0 0-.094 0-.094c0-.472 0-1.04 0-1.51c0-11.7-3.87-22.6-10.3-31.4l0-.094c0 0 0 0 0-.094l37.6-53.3c6.52 2.83 13.7 4.44 21.3 4.44c8.79 0 17.1-2.17 24.5-5.95l32.4 36C384 432 384 432 384 432L384 432zM302 348c0-13.7 11.1-24.9 24.9-24.9s24.9 11.1 24.9 24.9c0 0 0 0 0 .094c0 0 0 0 0 .094c0 13.7-11.1 24.9-24.9 24.9s-24.9-11.1-24.9-24.9C302 348 302 348 302 348C302 348 302 348 302 348zM400 407v.094l-27.4-30.5c0 0 0 0 0-.094l0 0c5.01-8.12 7.94-17.7 8.03-28c0-29.4-23.9-53.2-53.3-53.2c-29.4 0-53.2 23.9-53.3 53.2c0 11.5 3.68 22.1 9.92 30.8l0 .094c0 0 0 0 0 .094l-37.8 53.6c-6.33-2.65-13.3-4.16-20.7-4.16c-29.4 0-53.2 23.9-53.3 53.2c0 .472 0 1.04 0 1.51c0 0 0 .094 0 .094c0 0 0 0 0 0h-90.7V201H57.7L240 31.7l182 169H400l.094 205V407zM430 483c-.567 0-1.13 0-1.7-.094c-12.9-.85-23.1-11.7-23.1-24.8s10.2-24 23.1-24.8c.567 0 1.13-.094 1.7-.094c13.7 0 24.9 11.1 24.9 24.9S443 483 430 483zM554 308c0 13.7-11.1 24.9-24.9 24.9s-24.9-11.1-24.9-24.9c0 0 0 0 0-.094c0 0 0 0 0-.094c0-13.7 11.1-24.9 24.9-24.9s24.9 11.1 24.9 24.9C554 308 554 308 554 308C554 308 554 308 554 308zM172 482C172 482 172 482 172 482c0 .472 0 .945 0 1.51c0 0 0 .094 0 .094c0 0 0 0 0 0C172 483 172 482 172 482z"/></svg>