<svg xmlns="http://www.w3.org/2000/svg" viewBox="0 0 448 512"><path d="M261 284c-9.5 10-22.9 15.7-36.8 15.7s-27.3-5.6-36.8-15.6c-20 20.5-52.8 20.9-73.3 1c-1.2 6.1-1.8 12.4-1.9 18.6c0 61.9 50.1 112 112 112s112-50.1 112-112c-.1-6.3-.7-12.5-1.9-18.8C314 305 281 305 261 284zM384 0H64C28.6 0 0 28.6 0 64v416c0 17.6 14.3 32 32 32h384c17.7 0 32-14.4 32-32V64C448 28.6 419 0 384 0zM184 64c13.3 0 24 10.8 24 24s-10.7 24-24 24c-13.3 0-24-10.7-24-24S171 64 184 64zM64 88c0-13.3 10.8-24 24-24c13.3 0 24 10.8 24 24s-10.7 24-24 24C74.8 112 64 101 64 88zM224 448c-79.5 0-143-64.5-143-144S145 160 224 160s143 64.5 143 144S304 448 224 448z"/></svg>