<svg xmlns="http://www.w3.org/2000/svg" viewBox="0 0 732 512"><path d="M196 0h208c33.4 0 63.9 15.2 85.7 41.1l114 143c72 8.11 128 70.6 128 145v54.9c0 20.2-16.3 36.6-36.6 36.6h-38.1c-8.69 51.9-53.8 91.4-108 91.4s-99.5-39.5-108-91.4H291c-8.69 51.9-53.8 91.4-108 91.4s-99.5-39.5-108-91.4H36.9c-20.2 0-36.6-16.3-36.6-36.6V256c0-31 19.2-57.4 46.4-68.1l47.5-119C111 27.3 151 0 196 0L196 0zM601 421c1.94-6.74 3.09-11.9 3.09-18.3c0-30.3-24.6-54.9-54.9-54.9s-54.9 24.6-54.9 54.9c0 6.4 .114 11.5 3.09 18.3c7.54 21.3 27.9 36.6 51.8 36.6S593 442 601 421zM235 421c1.94-6.74 2.06-11.9 2.06-18.3c0-30.3-23.5-54.9-54.9-54.9c-29.3 0-54.9 24.6-54.9 54.9c0 6.4 1.14 11.5 4.11 18.3c7.54 21.3 27.9 36.6 50.7 36.6C207 457 227 442 235 421zM356 75.9l-146 91.4c-6.86 4.34-10.1 12.8-7.89 20.6c2.29 7.89 9.49 13.3 17.6 13.3h59.1l-38.2 63.8c-4.34 7.2-3.2 16.5 2.86 22.4c6.06 5.94 15.3 6.97 22.5 2.51l146-91.4c6.86-4.34 10.2-12.7 7.89-20.6c-2.29-7.89-9.49-13.3-17.6-13.3h-59.1l38.2-63.8c4.34-7.2 3.2-16.5-2.86-22.4C373 72.5 363 71.4 356 75.9L356 75.9z"/></svg>