<svg xmlns="http://www.w3.org/2000/svg" viewBox="0 0 448 512"><path d="M384 222H129V125c0-52.6 42.8-95.3 95.3-95.3s95.3 42.8 95.3 95.3v34.4c0 8.26 6.71 15 15 15s15-6.71 15-15v-34.4C349 56.2 293 0 224 0S98.7 56.2 98.7 125v97.2h-34.4C29.1 222 .437 251 .437 286v162c0 35.2 28.6 63.9 63.9 63.9H384c35.2 0 63.9-28.6 63.9-63.9v-162c0-35.2-28.6-63.9-63.9-63.9zm33.9 226c0 18.7-15.2 33.9-33.9 33.9H64.3c-18.7 0-33.9-15.2-33.9-33.9v-162c0-18.7 15.2-33.9 33.9-33.9H384c18.7 0 33.9 15.2 33.9 33.9v162zm-179-132v104c0 8.26-6.71 15-15 15s-15-6.71-15-15v-104c0-8.26 6.71-15 15-15s15 6.71 15 15z"/></svg>