<svg xmlns="http://www.w3.org/2000/svg" viewBox="0 0 640 512"><path d="M341.1 67.8l-6.7 1V53.4c0-33 54.7-48 105.3-48s105.3 15 105.3 48v116.5c0 19.8-19.5 34.9-55.4 42.9l-7.4 1.6v-29.8l4.5-1.3c19.8-5.1 28.2-11.5 28.8-13.8v-25.3c-7.4 3.2-16 6.1-26.2 8.3l-7.4 1.6v-29.8l4.5-1.3c19.8-5.1 28.2-11.5 28.8-13.8V89.9c-9.9 4.5-21.8 7.7-35.5 10.2l-3.5 .6-2.2-2.6c-4.2-5.1-9.6-9.6-16.6-13.8l-16.3-9.3 18.9-1.6c36.2-3.2 54.4-14.4 55.7-18.2v-1.6c-1.3-4.5-26.9-18.9-76.2-18.9s-74.9 14.4-76.2 19.2v1.6h0s.3 .3 1 1.3l8.6 9.6-12.8 .6c-6.7 0-13.1 .6-19.5 1.6zM362.2 81c50.9 0 105.3 15 105.3 48v116.5c0 33-54.7 48-105.3 48s-105.3-15-105.3-48V129c0-33 54.7-48 105.3-48zm76.2 138.9c-19.2 8.6-46.7 13.4-76.2 13.4s-57-5.1-76.2-13.4v25.6c1.3 4.5 26.9 18.9 76.2 18.9s74.6-14.4 76.2-19.2v-25.6zm0-54.4c-19.2 8.6-46.7 13.4-76.2 13.4s-57-5.1-76.2-13.4v19.8c1.3 4.5 26.9 18.9 76.2 18.9s74.6-14.4 76.2-19.2v-19.5zm-76.2-55.4c-49.3 0-74.9 14.4-76.2 19.2v1.6c1.3 4.5 26.9 18.9 76.2 18.9s74.6-14.4 76.2-19.2V129c-1.3-4.5-26.9-18.9-76.2-18.9zM68.8 374.7l85.8 137.3 25.9-16.3-85.4-137-26.2 16zM232.3 108.8c0 1.6 2.9 1.6 2.9 0c4.5-38.1 14.4-47.7 51.2-52.2c1.6 0 1.6-2.9 0-2.9c-36.8-4.5-46.7-14.1-51.2-52.2c0-1.6-2.9-1.6-2.9 0c-4.5 38.1-14.4 47.7-51.2 52.2c-1.6 0-1.6 2.9 0 2.9c36.8 4.5 46.7 14.1 51.2 52.2zm317.8 277.8c-24.3 12.2-150.4 109.1-176.3 107.2l-1-.6c-4.2 2.6-114.2-32.3-121.3-34.2c-15.4-5.8-30.1 5.1-42.6 12.8c-7.4 4.5-16.6 2.2-21.1-4.8c-75.8-132.2-103.4-93.8 11.2-165.4c16.3-10.2 36.5-12.8 55-7.7c0 0 142.4 42.9 142.4 42.9c10.2 3.5 18.2 11.2 22.7 20.2l78.7-49.6c52.5-33 103.4 43.5 52.2 79zm-36.2-52.8l-97.3 61.1c-7 11.8-20.5 19.5-34.9 19.2c-5.1 1.6-79-22.4-85.4-23.7c-19.8-5.8-10.6-36.2 9.3-29.8l74.6 22.1c4.5 1.3 10.2-1 10.9-6.1c1.3-4.2-.6-8.6-4.8-10.2l-141.1-42.6c-9.9-2.9-20.8-1.3-29.8 4.2l-57 35.5 47 73.9c10.9-7 23.4-10.9 36.2-10.9h0c17-1.9 114.2 33.6 131.2 35.2c5.4 3.5 150.4-98.2 159.4-101.1c17.6-12.5 0-38.7-18.2-26.9zM180.8 496h0s0 0 0 0h0z"/></svg>