<svg xmlns="http://www.w3.org/2000/svg" viewBox="0 0 640 512"><path d="M460.5 164.5v32.3c-3.5 9.3-37.8 25.6-94.4 25.6s-91.2-16.6-94.1-25.6v-1.6s0-31 0-31l7 3.2c22.1 9.9 53.8 15.4 87.4 15.4s65.3-5.8 87.4-15.4l7-3.2zm26.2 10.2v45.8c28.5-5.4 45.4-15 47.7-21.4v-39.4s-6.7 3.2-6.7 3.2c-11.2 5.1-25.3 9-41 11.5zm41-75.5c-12.8 5.8-28.8 9.9-46.7 12.5c3.5 5.4 5.8 11.2 5.8 17.9v20.5c28.5-5.4 45.4-15 47.7-21.4V96.3s-6.7 3.2-6.7 3.2zm-67.2 23.7c-2.9-9.3-36.8-25.6-94.1-25.6s-91.5 16.6-94.1 25.9v.6s0 4.2 0 4.2c2.9 9.3 36.8 25.6 94.1 25.6s90.9-16.6 94.1-25.6v-1s0-4.5 0-4.5zM355.2 73.3c2.6 0 5.1 0 7.7 0c33 0 66.9 5.8 90.9 17c48.3-2.2 77.4-16.6 80.6-25.3v-1s0-4.5 0-4.5c-2.9-9.3-36.8-25.6-94.1-25.6s-91.5 16.6-94.1 25.9v.6s0 4.2 0 4.2c.6 2.6 3.8 5.4 9 8.6zm10.9 174.4c-33.6 0-65.3-5.8-87.4-15.4l-7-3.2v39.4c3.2 9 38.1 25.6 94.4 25.6s90.9-16.3 94.1-25.6v-39.4s-6.7 3.2-6.7 3.2c-22.1 9.9-53.8 15.4-87.4 15.4zM193.9 58.6h0c33 3.8 40.6 12.2 44.8 45.8c0 2.2 2.2 3.8 4.5 3.8h0c2.2 0 4.2-1.6 4.5-3.8c3.8-33.6 11.8-41.6 44.8-45.8c2.2 0 3.8-2.2 3.8-4.5s-1.6-4.2-3.8-4.5c-33-3.8-40.6-12.2-44.8-45.8C247 1.6 245.4 0 242.9 0h0c-2.2 0-4.2 1.6-4.5 3.8c-3.8 33.6-11.8 41.6-44.5 45.8c-2.2 0-3.8 2.2-4.2 4.5c0 2.2 1.6 4.2 3.8 4.5zM111 341.4l89 139.5-43.5 31-87.7-140.5 42.2-30.1zm454.7-18.6h0c9.9 15 5.8 35.2-9 45.1l-146.6 96.3c-6.4 6.4-15.4 10.2-24.6 10.2c-3.5 0-7-.3-10.2-1.6l-110.1-33c-14.4-4.2-29.4-1.9-41.9 6.1l-14.4 8.6-65-102.1 71.7-44.8c12.8-8 28.5-10.2 43.2-6.1l144.6 43.5c12.2 4.5 18.6 17.9 14.7 30.1h0c-2.9 10.6-12.5 17.6-23.4 17.6h0c-2.2 0-4.5 0-6.7-1l-76.5-22.7s0 0-.3 0c-5.8-1.6-11.5 1.6-13.1 7.4s1.6 11.5 7.4 13.1l75.8 22.7c4.2 1.3 8.6 1.9 13.1 1.9h1s.6 0 1 0c25.6-1.3 45.1-22.7 44.2-48.3l79.7-52.5c15-9.9 35.2-5.8 45.1 9h1z"/></svg>