<svg xmlns="http://www.w3.org/2000/svg" viewBox="0 0 512 512"><path d="M94.6 60.6c-1.44-7.2 .01-15 3.33-21.4 2.84-5.51 6.92-10.2 11.8-13.8 1.14-1.95 2.23-4.13 3.2-6.78 2.09-5.8 2.58-11.6 2.42-18.6 8.57 1.21 15.3 7.75 18.6 15.6 3.54 8.33 3.11 18.4-.517 26.7 0 0-.706 1.65-.706 1.65-5.37 5.23-10.8 10.3-14.5 16.7 0 0-.089-1.46-.089-1.46-1.65 7.61-3.68 14.3-2.77 22.3-10.3-.845-17.3-10.5-20.7-19.4 0 0-.089-1.46-.089-1.46zm159 1.46c3.35 8.92 10.3 18.6 20.7 19.4-.905-8.06 1.12-14.7 2.77-22.3 0 0 .089 1.46 .089 1.46 3.71-6.34 9.11-11.4 14.5-16.7 0 0 .706-1.65 .706-1.65 3.63-8.32 4.06-18.4 .517-26.7-3.31-7.88-9.99-14.4-18.6-15.6 .169 7.04-.328 12.8-2.42 18.6-.974 2.65-2.06 4.82-3.2 6.78-4.89 3.62-8.97 8.31-11.8 13.8-3.31 6.42-4.77 14.2-3.33 21.4 0 0 .089 1.46 .089 1.46zm-79.5 0c3.35 8.92 10.3 18.6 20.7 19.4-.905-8.06 1.12-14.7 2.77-22.3 0 0 .089 1.46 .089 1.46 3.71-6.34 9.11-11.4 14.5-16.7 0 0 .706-1.65 .706-1.65 3.63-8.32 4.06-18.4 .517-26.7-3.31-7.88-9.99-14.4-18.6-15.6 .169 7.04-.328 12.8-2.42 18.6-.974 2.65-2.06 4.82-3.2 6.78-4.89 3.62-8.97 8.31-11.8 13.8-3.31 6.42-4.77 14.2-3.33 21.4 0 0 .089 1.46 .089 1.46zM431 450h18.4v-29.8h-18.4v29.8zm80.3-52.8c0 8.23-6.68 14.9-14.9 14.9h-74.6c-8.23 0-14.9-6.68-14.9-14.9 0-4.58 2.07-8.68 5.32-11.4v-14.6c0-20.6 13.4-38.2 32-44.4v-55.5c0-3.14-2.56-5.7-5.71-5.7h-39v162c0 20.8-16.9 37.7-37.7 37.7h-15.7v31c0 8.23-6.68 14.9-14.9 14.9s-14.9-6.68-14.9-14.9v-31H93.1v31c0 8.23-6.68 14.9-14.9 14.9s-14.9-6.68-14.9-14.9v-31h-25.6c-20.8 0-37.7-16.9-37.7-37.7V140c0-20.8 16.9-37.7 37.7-37.7H362c20.8 0 37.7 16.9 37.7 37.7v96.5h39c19.6 0 35.5 15.9 35.5 35.5v55.5c18.6 6.24 32 23.8 32 44.4v14.6c3.25 2.73 5.33 6.83 5.33 11.4zM87.8 189c0-8.23-6.68-14.9-14.9-14.9s-14.9 6.68-14.9 14.9v189c0 8.23 6.68 14.9 14.9 14.9s14.9-6.68 14.9-14.9V189zm84.7 0c0-8.23-6.68-14.9-14.9-14.9s-14.9 6.68-14.9 14.9v189c0 8.23 6.68 14.9 14.9 14.9s14.9-6.68 14.9-14.9V189zm84.7 0c0-8.23-6.68-14.9-14.9-14.9s-14.9 6.68-14.9 14.9v189c0 8.23 6.68 14.9 14.9 14.9s14.9-6.68 14.9-14.9V189zm84.7 0c0-8.23-6.68-14.9-14.9-14.9s-14.9 6.68-14.9 14.9v189c0 8.23 6.68 14.9 14.9 14.9s14.9-6.68 14.9-14.9V189zm127 261h18.4v-29.8h-18.4v29.8z"/></svg>