<svg xmlns="http://www.w3.org/2000/svg" viewBox="0 0 640 512"><path d="M240.077 454.355a34.104 34.104 0 005.359 17.678l17.088 25.688c5.25 7.87 17.269 14.278 26.648 14.278h61.714c9.499 0 21.378-6.399 26.627-14.268l17.088-25.688a36.994 36.994 0 005.36-17.678V416.01H240.077v38.346zM319.469 0c-101.99.27-175.483 82.092-175.483 175.083a175.404 175.404 0 0043.516 115.79c16.618 18.867 42.356 58.223 52.235 91.47 0 .25.11.51.11.76H400.13c0-.25.09-.51.09-.76 9.869-33.247 35.606-72.603 52.235-91.47a175.254 175.254 0 0043.496-115.79C495.952 78.613 416.759-.23 319.469 0zm-207.48 191.982c0-13.254-10.744-23.998-23.998-23.998H23.998C10.744 167.984 0 178.728 0 191.982s10.744 23.997 23.998 23.997H87.99c13.254 0 23.998-10.745 23.998-23.997zm503.95-23.998h-63.993c-13.254 0-23.998 10.744-23.998 23.998s10.744 23.997 23.998 23.997h63.994c13.254 0 23.998-10.744 23.998-23.997s-10.744-23.998-23.998-23.998zM131.088 55.245L75.593 23.248a23.998 23.998 0 00-24.248-.37c-11.522 6.55-15.553 21.2-9.004 32.722a24 24 0 009.254 9.144l55.495 31.997a23.999 23.999 0 0024.247.38 24.358 24.358 0 0012.119-20.998 24.076 24.076 0 00-12.369-20.878zm457.256 264.023l-55.495-31.997a23.999 23.999 0 00-24.248-.38c-11.524 6.548-15.557 21.196-9.01 32.72a24.004 24.004 0 009.27 9.156l55.495 31.997c11.79 6.054 26.255 1.403 32.309-10.387 5.63-10.965 2.037-24.412-8.311-31.109h-.01zM107.09 287.271l-55.475 31.997c-11.79 6.054-16.44 20.52-10.387 32.31 6.053 11.789 20.519 16.44 32.309 10.386.71-.365 1.404-.766 2.076-1.2l55.494-31.997c11.127-7.2 14.312-22.056 7.112-33.184-6.697-10.35-20.145-13.942-31.11-8.312h-.02zm413.86-187.28a24.31 24.31 0 0011.998-3.25l55.375-31.997c11.126-7.2 14.311-22.057 7.11-33.185-6.695-10.349-20.143-13.941-31.108-8.31L508.95 55.244c-11.459 6.66-15.35 21.348-8.689 32.807A24 24 0 00520.95 99.99zM298.97 318.878a24.868 24.868 0 01-13.698-4.11l-74.993-49.264c-11.541-7.577-14.755-23.075-7.179-34.617 7.576-11.542 23.075-14.756 34.617-7.18l54.144 35.547 101.5-154.605c7.65-11.493 23.168-14.607 34.661-6.958 11.394 7.584 14.57 22.92 7.126 34.406l-115.24 175.492a24.994 24.994 0 01-20.937 11.29z"/></svg>