<svg xmlns="http://www.w3.org/2000/svg" viewBox="0 0 506 512"><path d="M191 391c6.51 4.74 15.5 4.34 21.6-.987l139-121c5.52-4.74 7.3-12.5 4.34-19.1-2.27-6.81-8.68-11.3-15.8-11.2h-60.4l41.6-97.2c3.75-8.78-.296-18.9-9.17-22.8-6.12-2.56-13.2-1.48-18.3 2.86l-139 121c-7.2 6.31-7.89 17.3-1.68 24.5 3.16 3.65 7.69 5.82 12.5 5.92h60.9l-41.6 97.2c-3.16 7.4-.789 16 5.82 20.7zM502 242c-6.02-13.7-19.6-23.3-35.6-23.3-17.6 0-32.5 11.7-37.2 27.8-.691 1.87-1.09 3.85-1.28 5.82-.197 1.68-.395 3.45-.395 5.13h.197c-1.68 96.9-81.3 177-179 177-46.2-.099-90-18-123-49.6l25-25c12.4-12.4 3.65-33.6-13.9-33.6H21.2c-6.02 0-10.9 4.83-10.9 10.9v116c0 17.6 21.2 26.3 33.6 13.9l27.6-27.6c47.5 46.3 111 72.3 178 72.3s136-28.2 185-79.2c45.9-48 70.7-112 70.7-179h0c0-4.44-1.28-8.58-3.45-12zM39.2 297c21.4 0 38.8-17.4 38.8-38.8h0v-1.09c0-96.7 76.5-177 173-180 47.4-1.28 92.7 16.2 127 48l-23.5 23.6c-12.4 12.4-3.65 33.6 13.9 33.6h116c6.02 0 10.9-4.83 10.9-10.9V55.6c0-17.6-21.2-26.3-33.6-13.9l-29.1 29.1C386 25.6 323 0 256 0 186 0 120 28.1 71.2 79.2 25.3 127 .453 191 .453 258H.453v.691H.453c0 21.4 17.4 38.8 38.8 38.8z"/></svg>