<svg xmlns="http://www.w3.org/2000/svg" viewBox="0 0 526 512"><path d="M297 136l-15.9 85-6.94 37h70.5l-115 117 15.9-85 6.94-37h-70.5l115-117m21.1-58.3c-4.36 0-8.65 1.55-12.1 4.53L139 253c-7.62 6.66-8.39 18.2-1.73 25.9 3.36 3.85 8.18 6.11 13.3 6.26h64.3l-23.2 124c-3.37 7.86-.855 17 6.06 22 3.22 2.34 7 3.49 10.8 3.49 4.33 0 8.63-1.52 12.1-4.54l167-170c5.81-5.02 7.66-13.2 4.59-20.3-2.34-7.08-8.96-11.8-16.4-11.8-.094 0-.198 0-.292 0h-63.8l23.2-124c3.97-9.3-.344-20.1-9.66-24-2.31-.991-4.77-1.47-7.2-1.47h0zm188 178c-8.24 0-15.1 6.47-15.6 14.7-7.61 117-105 210-224 210-62.3 0-121-25.5-163-70.5l64.1-64.1c6.57-6.57 1.88-17.8-7.4-17.8H11.7c-6.36 0-11.5 5.11-11.5 11.5v146c0 10.2 12.3 15.3 19.6 8.13l61.1-61.1c48.3 50.8 115 79.7 186 79.7s133-26.6 181-75c44.4-44.4 70.5-102 74.5-164 .521-8.97-6.67-16.6-15.6-16.6zM31.5 359H110L31.5 437v-77.9zM508 7.09l-64.3 64.3C396 25.8 333 0 266 0S134 26.6 85.5 75C41.1 119 15 177 11.1 239c-.521 8.97 6.67 16.6 15.6 16.6 8.24 0 15.1-6.47 15.6-14.7C49.9 124 147 31.3 266 31.3c58.2 0 114 22.4 155 62.3l-61 61c-7.2 7.2-2.09 19.6 8.13 19.6h146c6.36 0 11.5-5.11 11.5-11.5V14.5c0-9.28-11.2-14-17.7-7.4zm-13.6 136h-78l78-77.9v77.9z"/></svg>