<svg xmlns="http://www.w3.org/2000/svg" viewBox="0 0 576 512"><path d="M96 32c0-17.7 14.3-32 32-32s32 14.3 32 32v32h128V32c0-17.7 14.3-32 32-32s32 14.3 32 32v32h48c26.5 0 48 21.5 48 48v48H0v-48c0-26.5 21.5-48 48-48h48V32zM416 193c-89.7 8.1-160 83.5-160 175c0 59.5 29.6 112 74.8 144H48c-26.5 0-48-21.5-48-48V192h416V193zM576 368c0 79.5-64.5 144-144 144s-144-64.5-144-144s64.5-144 144-144S576 289 576 368zM416 303v48h-48c-8.8 0-16 8.1-16 16c0 9.7 7.2 16 16 16h48v48c0 9.7 7.2 16 16 16s16-6.3 16-16v-48h48c8.8 0 16-6.3 16-16c0-7.9-7.2-16-16-16h-48v-48c0-7.9-7.2-16-16-16S416 295 416 303z"/></svg>