<svg xmlns="http://www.w3.org/2000/svg" viewBox="0 0 659 512"><path d="M476 256c0 80.8-65.5 146-146 146s-146-65.5-146-146 65.5-146 146-146 146 65.5 146 146zm-146-110c-61.6 0-110 48.1-110 110s48.1 110 110 110 110-49.1 110-110-49.1-110-110-110zm220-54.2c53.5 49.6 89.3 108 106 150 3.77 9.03 3.77 19.1 0 28.1-16.9 40.8-52.7 99.2-106 150-53.8 50.1-128 92.1-220 92.1s-166-42.1-220-92.1C55.9 369 20.2 311 3.17 270c-3.75-9.03-3.75-19.1 0-28.1 17-41.8 52.8-100 106-150C163 42.1 237 0 330 0s166 42.1 220 92.1h0zM36.9 256c15.2 36.6 48.1 91.4 97.4 137 49.3 45.7 115 82.3 195 82.3s146-36.6 195-82.3c49.3-45.7 82.2-101 97.4-137-15.2-37.6-48.1-92.5-97.4-137-49.3-45.7-115-82.3-195-82.3s-146 36.6-195 82.3c-49.2 44.7-82.1 99.5-97.4 137h0z"/></svg>