<svg xmlns="http://www.w3.org/2000/svg" viewBox="0 0 584 512"><path d="M174 202c-7.39 16.3-11.5 34.5-11.5 53.5 0 71.5 58 130 130 130 19.1 0 37.2-4.15 53.5-11.5l-25.1-25.1c-9.01 2.73-18.6 4.25-28.5 4.25-54.5 0-97.1-43.5-97.1-97.1 0-10 1.42-19.6 4.15-28.6l-24.9-24.9zM410 309c7.39-16.3 11.5-34.5 11.5-53.5 0-71.5-58-130-130-130-19.1 0-37.2 4.15-53.5 11.5l24.9 24.9c9.01-2.63 18.6-4.15 28.6-4.15 53.6 0 97.1 42.6 97.1 97.1 0 9.92-1.52 19.5-4.25 28.5l25.1 25.1zM292 450c-71.2 0-129-32.4-173-72.9-43.6-40.5-72.8-89-86.2-121 12.7-31.6 39.7-76.8 79.5-115l-22.9-22.8C46 160 16.8 208 2.58 243c-3.34 7.99-3.34 16.9 0 24.9 15.1 36.1 46.7 87.8 94.1 133 47.7 44.3 113 81.6 195 81.6 48.9 0 91.9-13.3 129-33.5l-24-24c-30.9 15.4-65.9 25.1-105 25.1zM580 243c-15-37-46.6-88.7-94-133-47.7-44.3-113-81.6-195-81.6-48.9 0-91.9 13.4-129 33.5l24 24c30.9-15.4 65.9-25.1 105-25.1 71.2 0 129 32.4 173 72.9 43.6 39.6 72.8 88.1 86.2 121-12.7 30.7-39.7 76-79.5 115l22.9 22.9c43.3-43.1 72.4-91.3 86.6-125 3.24-7.99 3.24-16.9-.101-24.9zM57.2 0L14.3 0L526 512L569 512L57.2 0z"/></svg>