<svg xmlns="http://www.w3.org/2000/svg" viewBox="0 0 587 512"><path d="M237 120l-63.7-63.7c34.9-17.4 74.8-28.6 120-28.6 81.9 0 148 37.3 195 81.7 47.4 44 79.2 95.8 94.2 133 3.35 8.01 3.35 16.9 0 24.9-13.4 32.3-40.3 77.3-79.7 118l-74.9-74.9c7.2-17.2 11.2-36.2 11.2-56 0-80.6-65.4-146-146-146-19.9 0-38.7 3.95-56 11.2zm-41.3 130c-.101 .507-.101 1.12-.101 1.62v2.94c0 53.7 42.7 97.3 97.3 97.3 5.78 0 11.6-.507 17-1.42l-113-113c-.71 4.06-1.22 8.21-1.42 12.5zm195 4.56c0-.811 0-1.62-.101-2.43v-.507c-.101-.507-.101-1.12-.101-1.62-2.23-50.9-42.5-90.3-92.6-92.7-.507-.101-1.12-.101-1.72-.101h-5.68c-.608 .101-1.22 .101-1.82 .101-4.16 .203-8.31 .71-12.4 1.42l113 113c1.01-5.58 1.52-11.3 1.52-17zm-97.3 146c-80.6 0-146-65.4-146-146 0-19.9 3.95-38.7 11.2-56L82.7 123C43.3 164 16.6 209 3 242c-3.35 8.01-3.35 16.9 0 24.9 15.1 36.2 46.8 88 94.3 133 47.8 44.3 113 81.6 195 81.6 44.8 0 84.8-11.2 120-28.6l-63.7-63.7c-17.2 7.2-36.1 11.2-56 11.2zM74 0H2.19L514 512h71.7L74 0z"/></svg>