<svg xmlns="http://www.w3.org/2000/svg" viewBox="0 0 512 512"><path d="M256 368c43.4 0 73.1-21.8 91.9-42.5 5.8-6.7 15.9-7.4 22.6-1.6 6.7 5.8 7.4 15.9 1.6 22.6-22.3 25.6-61 53.5-116 53.5s-93.8-27.9-116-53.5c-5.8-6.7-5.1-16.8 1.6-22.6 6.7-5.8 16.8-5.1 22.6 1.6 17.9 20.7 48.5 42.5 91.9 42.5h0zm-55.6-160c0 13.3-10.8 24-24 24s-24-10.7-24-24 10.7-24 24-24 24 10.7 24 24zm112 0c0-13.3 10.7-24 24-24s24 10.7 24 24-10.8 24-24 24-24-10.7-24-24zm200 48c0 141-115 256-256 256S0 397 0 256 115 0 256 0s256 115 256 256zM256 32c-124 0-224 100-224 224s100 224 224 224 224-100 224-224S380 32 256 32z"/></svg>