<svg xmlns="http://www.w3.org/2000/svg" viewBox="0 0 586 512"><path d="M292 34.3c35.7 0 70.3 5.66 103 16.8 31 10.7 58.8 25.8 82.5 45.1 47.1 38.3 73 88.5 73 141s-25.8 103-72.6 142c-23.6 19.3-51.2 34.4-82.1 45.1-32.4 11.2-66.9 16.8-103 16.8-38.1 0-75.4-6.72-111-20l-17.9-6.7-15.1 11.6c-27 20.8-54.9 35.4-83.5 43.6 13.1-21 26.2-46.8 33-74.3l4.66-18.8-13.7-13.7c-36-36.1-55.1-79.4-55.1-125 0-53.1 25.8-103 72.6-142 23.6-19.3 51.2-34.4 82.1-45.1 32.4-11.2 66.9-16.8 103-16.8m0-34.3C130 0 .463 106 .463 238c0 56.7 24.4 109 65.1 149-14.3 57.6-62 109-62.6 109-2.57 2.57-3.29 6.55-1.71 9.98 1.43 3.43 4.59 5.45 8.31 5.45 75.7 0 132-36.3 161-58.7 37.3 14 78.9 22.2 123 22.2 162 0 292-106 292-238S454 0 292 0h0zm13.8 337c0-12.4-9.34-21.7-21.7-21.7-11.4 0-20.7 9.74-20.7 21.7s9.28 21.7 20.7 21.7c12.8 0 21.7-8.93 21.7-21.7zm-6.55-75.2v-6.4l47.6-28.7c17.6-10.8 28.5-29.9 28.5-49.9 0-32.6-25.8-58.1-58.7-58.1h-49.5c-32.9 0-58.6 25.5-58.6 58.1 0 7.94 6.79 14.7 14.8 14.7s14.9-6.86 14.9-14.7c0-15.9 13-28.8 28.9-28.8h49.6c16 0 28.9 12.9 28.9 28.8 0 10.8-5.65 20-14.8 24.1l-53.8 31.8c-4.81 3.01-7.58 7.74-7.58 13v16.1c0 7.81 6.94 14.7 14.9 14.7s14.9-6.86 14.9-14.7z"/></svg>