<svg xmlns="http://www.w3.org/2000/svg" viewBox="0 0 586 512"><path d="M292 0C130 0 .463 106 .463 238c0 56.7 24.4 109 65.1 149-14.3 57.6-62 109-62.6 109-2.57 2.57-3.29 6.55-1.71 9.98 1.43 3.43 4.59 5.45 8.31 5.45 75.7 0 132-36.3 161-58.7 37.3 14 78.9 22.2 123 22.2 162 0 292-106 292-238S454 0 292 0zm-7.89 367c-15.7 0-28.7-13-28.7-29.7s13-29.7 28.7-29.7c16.7 0 29.7 13 29.7 29.7s-12 29.7-29.7 29.7zm67-133l-43.8 26.4v1.89c0 12.3-10.5 22.7-22.9 22.7s-22.9-10.4-22.9-22.7v-16.1c0-7.55 3.81-15.1 11.4-19.8l54.3-32.1c6.66-2.81 10.4-9.44 10.4-17 0-11.3-9.52-20.8-20.9-20.8h-49.6c-11.4 0-20.9 9.44-20.9 20.8 0 12.3-10.5 22.7-22.9 22.7s-22.8-10.3-22.8-22.7c0-36.8 29.5-66.1 66.6-66.1h49.5c37.2 0 66.7 29.3 66.7 66.1 0 22.7-12.3 44.5-32.3 56.7z"/></svg>