<svg xmlns="http://www.w3.org/2000/svg" viewBox="0 0 512 512"><path d="M435 391c-10.4 15.2-34.8 52.7-34.8 73.1 0 26.5 21.5 48 48 48s48-21.5 48-48c0-20.4-24.4-57.9-34.8-73.1-5.97-8.61-20.4-8.61-26.4-.01zm13.2 89.1c-8.81 0-16-7.19-16-16 .14-4.88 6.8-18.8 16-34.3 9.2 15.5 15.9 29.5 16 34.3 0 8.8-7.2 16-16 16zm-96-320h-17.8c-19.6-33.7-53.8-57.8-94.3-62.9v-33.1h128c8.8 0 16-7.16 16-16s-7.15-16-16-16l-128-.03V16c0-8.84-7.2-16-16-16s-16 7.16-16 16v16l-128 .03c-8.84 0-16 7.13-16 16s7.16 16 16 16H208v33.1c-40.4 5.11-74.6 29.2-94.2 62.9H16c-8.84 0-16 7.2-16 16s7.16 16 16 16h118c13.3-37.2 48.4-64 90.1-64s76.8 26.8 90.1 64h37.9c70.6 0 128 57.4 128 128h-64c0-35.3-28.7-64-64-64h-37.9c-13.3 37.2-48.4 64-90.1 64s-76.8-26.8-90.1-64H16c-8.84 0-16 7.2-16 16s7.16 16 16 16H114c22.1 38.1 63 64 110 64s88.1-25.9 110-64h19.3c17.6 0 30.2 14.9 30.5 32.5 .35 17.4 14.6 31.5 32 31.5h64c17.6 0 32-14.2 32-31.8 .1-88.5-71.6-160-160-160z"/></svg>