<svg xmlns="http://www.w3.org/2000/svg" viewBox="0 0 512 512"><path d="M416 480c0 17.6 14.4 32 32 32s32-14.4 32-32-32-64-32-64c0 0-32 46.4-32 64zm-64-288h-38.5c-15.8-13.5-35.6-23.1-57.5-28v-47.5l-32-3.5-32 3.5v47.5c-21.9 5-41.7 14.6-57.5 28H16c-8.9 0-16 7.1-16 16v96c0 8.9 7.1 16 16 16H109c20.6 37.8 64.2 64 115 64s94.6-26.3 115-64h12.8c17.6 0 32 14.3 32 31.9s14.4 32.1 32 32.1h64c17.6 0 32-14.4 32-32 0-88.4-71.6-160-160-160zM81.6 95.9l142-15 142 15c9.5 1 17.6-6.8 17.6-16.8v-30.2c0-10-8.1-17.7-17.6-16.7l-110 11.6V16c0-8.9-7.1-16-16-16h-32c-8.9 0-16 7.1-16 16v27.8l-110-11.7c-9.5-1-17.6 6.8-17.6 16.8v30.2c0 10 8.1 17.8 17.6 16.8z"/></svg>