<svg xmlns="http://www.w3.org/2000/svg" viewBox="0 0 384 512"><path d="M384 448c0 35.3-28.7 64-64 64H64c-35.3 0-64-28.7-64-64H32c0 17.7 14.3 32 32 32H320c17.7 0 32-14.3 32-32h32zM240 192c-26.5 0-48-21.5-48-48V32H64c-17.7 0-32 14.3-32 32V224H0V64C0 28.6 28.6 0 64 0H220c12.7 0 25 5.06 34 14.1l116 116c9 9 14.1 21.3 14.1 34v60.1h-32v-32h-112zm107-39.4L231 36.7c-2-2.07-4.6-3.51-7.4-4.21v112c0 8.8 7.2 16 16 16h112c-.7-2.8-2.1-5.4-4.2-7.4zM88 256c30.9 0 56 25.1 56 56s-25.1 56-56 56h-8v32c0 8.8-7.16 16-16 16s-16-7.2-16-16v-128c0-8.8 7.16-16 16-16h24zm24 56c0-13.3-10.7-24-24-24h-8v48h8c13.3 0 24-10.7 24-24zm48-40c0-8.8 7.2-16 16-16h24c26.5 0 48 21.5 48 48v64c0 26.5-21.5 48-48 48h-24c-8.8 0-16-7.2-16-16v-128zm32 112h8c8.8 0 16-7.2 16-16v-64c0-8.8-7.2-16-16-16h-8v96zm144-128c8.8 0 16 7.2 16 16s-7.2 16-16 16h-32v32h32c8.8 0 16 7.2 16 16s-7.2 16-16 16h-32v48c0 8.8-7.2 16-16 16s-16-7.2-16-16v-128c0-8.8 7.2-16 16-16h48z"/></svg>