<svg xmlns="http://www.w3.org/2000/svg" viewBox="0 0 512 512"><path d="M256 246c-13.2 0-23.1 10.7-23.1 23.1 1.12 72.1-8.1 142-27.7 211-3.54 10.7 1.35 31.3 22.2 31.3 10.5 0 20.1-6.87 23.1-17.5 13.5-47.8 30-125 29.4-224-.02-13.2-10.7-24-24-24zm-.898-81.5c-62-.2-104 46.9-103 101 .749 47.8-3.74 95.7-13.3 142-2.74 12.1 5.61 25.6 18.6 28.3 12.1 2.61 25.6-5.61 28.3-18.6 10.3-50 15.1-101 14.3-152-.389-26.9 19-53.3 54.3-53.1 31.3 .499 57.1 25.3 57.5 55.4 .868 47-2.74 96.1-10.6 143-2.12 12.1 6.74 25.3 19.8 27.6 19.8 3.24 26.7-15.1 27.4-19.8 8.23-49 12.1-101 11.2-151-.918-56.7-47.8-103-105-103zm-110-19.8c-10.4-8.38-25.4-6.89-33.8 3.39-25.4 31.4-39.2 71.3-38.6 112 .619 37.5-2.38 75.2-8.98 112-2.38 12.1 6.24 25.5 19.2 27.8 20.1 3.49 27.1-14.8 27-19.3 7.11-39.8 10.5-80.5 9.73-121 .499-29.7 10.1-57.7 27.9-80.6 9.28-10.4 7.78-25.4-2.5-33.7zm108-62.2c-14.5-.369-29.9 1.38-44.8 4.99-12.8 2.1-20.8 15.1-17.8 28.8 3.11 12.8 15.1 20.7 28 17.7 11.9-2.46 23.2-3.75 34.9-3.65 75.2 1.12 137 61.4 139 134 .499 37.8-1.38 75-5.61 113-1.5 13.1 7.98 24.1 21.1 26.4 16.7 1.1 25.5-11.8 26.4-21.1 4.61-39.7 6.61-79.6 5.99-119-1.69-98.5-85-180-187-181zm253 121c-2.87-12.1-15.5-21.2-28.6-18.3-12.1 2.87-21.1 15.7-18.2 28.6 4.74 21.5 4.87 37.4 4.74 61.5-.12 13.2 10.5 24.1 23.7 24.2 13.1 0 24.1-10.6 24.2-23.8 .13-22 .329-44-5.86-72.1zm-40.9-90.5C416 43.5 337 1.22 252 .02 183-.848 118 24.8 70.3 72.8 24 119-.878 181 .12 246l-.12 21.5c.499 13.3 10.8 24.3 24.1 24.7 .25 .1 .499 .1 .749 .1 12.1 0 23.6-10.3 23.1-23.3l.12-23.6c.15-52.4 20-102 57.1-139 38.8-38.7 91.2-59.5 147-58.8 69.2 .1 134 35.6 174 92.2 7.61 10.8 22.5 13.5 33.3 5.87 10-7.67 13.5-22.4 5.02-33.3z"/></svg>