<svg xmlns="http://www.w3.org/2000/svg" viewBox="0 0 512 512"><path d="M256 170c-28.1 .499-52.8 9.58-71.3 28.2-17.1 17.1-27.6 41.8-27.2 67.2 .749 50.2-3.87 100-13.1 149-1.88 8.73 3.74 17.1 12.3 18.1 8.48 1.62 17.1-3.87 18.8-12.5 10.6-51 15.5-103 14.7-156-1.14-15.8 5.25-31.6 17-43.3 18.6-18.6 42.2-18.8 48.7-18.8 37 .619 66.2 30.2 66 66 .749 50.3-2.1 101-11.1 149-1.5 8.73 4.37 16.1 13.1 18.5 .998 .12 1.75 .12 2.74 .12 7.61 0 14.3-5.49 15.7-13.3 8.36-50 12.2-103 11.5-155-.05-52.1-43.8-95.7-98-96.6zm-.1 85.9c-8.73 .12-15.8 7.36-15.7 16.2 1.12 73.2-8.1 144-27.7 215l-1.25 4.24c-1.85 6.69 1.75 20.4 15.4 20.4 6.09 0 13.3-4.61 15.3-11.6l1.25-4.37c20.3-73 30.1-147 28.8-224-.09-8.88-8.07-15.9-16.2-15.8zM112 150c-25 30.9-38.5 70-37.9 110 .619 39.4-2.61 79-9.6 117-1.62 8.73 4.11 17.1 12.8 18.6 .1 .25 1.88 .25 2.87 .25 7.61 0 14.3-5.37 15.7-13.1 7.39-40.4 10.8-82 10.1-124-.599-32.9 10.2-63.9 30.8-89.3 5.61-6.86 4.49-16.1-2.38-22.5-6.72-5.59-16.8-4.59-22.5 2.3zm399 103c-.25-16.5-2.16-33.1-5.77-49.2-1.88-8.48-10.3-14-18.9-12.1-8.6 1.88-14.1 10.3-12.2 19 3.11 13.1 4.76 28.4 5.01 42.8 .12 7.61 .12 15.2 .12 22.8-.12 8.85 6.09 16.1 15.8 16.1 8.73 0 15.1-6.99 16.1-15.8-.02-7.9-.02-15.7-.12-23.6zM252 .04C182-1.21 118 24.1 70.3 72.9 24.1 119-.868 180 .13 246c.12 7.49 .12 15-.13 22.6-.25 8.73 6.74 16.1 15.5 16.3h.499c8.6 0 15.7-6.86 15.1-15.5 .25-7.98 .25-16 .12-23.9 .02-56.7 21.6-110 61.7-150 41.7-41.7 97.9-64.3 159-63.4 74.5 1.12 144 38.1 187 99.1 5.11 7.24 15.1 9.09 22.2 3.98 7.24-4.09 8.95-15.1 3.84-22.3C416 43.4 337 1.29 252 .04zm1.2 84.8c-15.3-.25-30.3 1.37-45 4.86-8.6 1.1-13.1 10.6-11.8 19.2 1.1 8.6 10.7 13.8 19.2 11.8 12.1-2.87 24.1-4.24 37.2-3.09 82.6 1.25 151 67.4 152 148 .619 39.5-1.38 79.5-5.74 118-.1 8.73 5.24 16.6 13.1 17.6 .629 .12 1.25 .12 1.88 .12 7.09 0 14.8-5.09 15.8-14.1 4.61-40.4 6.61-81.7 5.09-123 .269-98.2-82.1-178-182-180z"/></svg>