<svg xmlns="http://www.w3.org/2000/svg" viewBox="0 0 521 512"><path d="M348 237c-1.35-5.1 0-10.3 3.12-14c-4.89-.416-9.57-3.12-12.2-7.7c-2.6-4.58-2.71-9.99-.624-14.4c-.937 .208-1.77 .208-2.71 .208c-3.95 0-8.01-1.56-11-4.58c-3.75-3.75-5.2-8.95-4.37-13.7c-2.08 .937-4.37 1.46-6.66 1.46c-2.6 0-5.31-.624-7.8-2.08c-4.58-2.6-7.28-7.28-7.7-12.2c-2.81 2.29-6.35 3.64-9.99 3.64c-1.35 0-2.71-.208-4.06-.52c-5.1-1.35-8.95-5.1-10.6-9.78c-2.81 4.06-7.49 6.66-12.8 6.66c-5.31 0-9.99-2.6-12.8-6.66c-1.67 4.58-5.52 8.43-10.6 9.78c-1.35 .312-2.71 .52-4.06 .52c-3.75 0-7.28-1.35-9.99-3.64c-.416 4.89-3.12 9.57-7.7 12.2c-2.5 1.46-5.1 2.08-7.8 2.08c-2.29 0-4.58-.52-6.66-1.46c.833 4.89-.624 9.99-4.37 13.7c-3.02 3.02-7.08 4.58-11 4.58c-.937 0-1.87-.104-2.71-.208c2.08 4.47 1.98 9.78-.624 14.4c-2.6 4.58-7.28 7.28-12.2 7.7c3.12 3.75 4.47 8.95 3.12 14c-1.35 5.1-5.1 8.95-9.78 10.6c4.06 2.81 6.66 7.49 6.66 12.8c0 8.64-6.97 15.6-15.6 15.6H15.9c-8.64 0-15.6-6.97-15.6-15.6s6.97-15.6 15.6-15.6h126l-122-32.6c-8.33-2.19-13.3-10.8-11-19.1c2.19-8.33 10.8-13.3 19.1-11l122 32.6L40.9 151c-7.49-4.27-9.99-13.8-5.72-21.3c4.27-7.49 13.8-9.99 21.3-5.72l109 63.1L76.5 98.2c-6.14-6.14-6.14-16 0-22.1c6.14-6.14 16-6.14 22.1 0l89.1 89.1L125 56.2c-4.27-7.49-1.77-17 5.72-21.3c7.49-4.27 17-1.77 21.3 5.72L215 150l-32.6-122c-2.19-8.33 2.71-16.9 11-19.1c8.33-2.19 16.9 2.71 19.1 11l32.6 122V15.6c0-8.64 6.97-15.6 15.6-15.6s15.6 6.97 15.6 15.6v126l32.6-122c2.19-8.33 10.8-13.3 19.1-11c8.33 2.19 13.3 10.8 11 19.1l-32.6 122L369 40.6c4.27-7.49 13.8-9.99 21.3-5.72c7.49 4.27 9.99 13.8 5.72 21.3L333 165l89.1-89.1c6.14-6.14 16-6.14 22.1 0c6.14 6.14 6.14 16 0 22.1l-89.1 89.1l109-63.1c7.49-4.27 17-1.77 21.3 5.72c4.27 7.49 1.77 17-5.72 21.3L371 214l122-32.6c8.33-2.19 16.9 2.71 19.1 11c2.19 8.33-2.71 16.9-11 19.1l-122 32.6H505c8.64 0 15.6 6.97 15.6 15.6s-6.97 15.6-15.6 15.6H367c-8.64 0-15.6-6.97-15.6-15.6c0-5.31 2.6-9.99 6.66-12.8C353 246 349 242 348 237zM505 280H367c-8.64 0-15.6 6.97-15.6 15.6s6.97 15.6 15.6 15.6H505c8.64 0 15.6-6.97 15.6-15.6S514 280 505 280zM154 280H15.9c-8.64 0-15.6 6.97-15.6 15.6s6.97 15.6 15.6 15.6h139c8.64 0 15.6-6.97 15.6-15.6S163 280 154 280zM505 317H367c-8.64 0-15.6 6.97-15.6 15.6s6.97 15.6 15.6 15.6H505c8.64 0 15.6-6.97 15.6-15.6S514 317 505 317zM154 317H15.9c-8.64 0-15.6 6.97-15.6 15.6s6.97 15.6 15.6 15.6h139c8.64 0 15.6-6.97 15.6-15.6S163 317 154 317zM505 357H367c-8.64 0-15.6 6.97-15.6 15.6s6.97 15.6 15.6 15.6H505c8.64 0 15.6-6.97 15.6-15.6S514 357 505 357zM154 357H15.9c-8.64 0-15.6 6.97-15.6 15.6s6.97 15.6 15.6 15.6h139c8.64 0 15.6-6.97 15.6-15.6S163 357 154 357zM505 397H367c-8.64 0-15.6 6.97-15.6 15.6s6.97 15.6 15.6 15.6H505c8.64 0 15.6-6.97 15.6-15.6S514 397 505 397zM154 397H15.9c-8.64 0-15.6 6.97-15.6 15.6s6.97 15.6 15.6 15.6h139c8.64 0 15.6-6.97 15.6-15.6S163 397 154 397zM505 438H367c-8.64 0-15.6 6.97-15.6 15.6s6.97 15.6 15.6 15.6H505c8.64 0 15.6-6.97 15.6-15.6S514 438 505 438zM154 438H15.9c-8.64 0-15.6 6.97-15.6 15.6s6.97 15.6 15.6 15.6h139c8.64 0 15.6-6.97 15.6-15.6S163 438 154 438zM505 480H367c-8.64 0-15.6 6.97-15.6 15.6s6.97 15.6 15.6 15.6H505c8.64 0 15.6-6.97 15.6-15.6S514 480 505 480zM154 480H15.9c-8.64 0-15.6 6.97-15.6 15.6s6.97 15.6 15.6 15.6h139c8.64 0 15.6-6.97 15.6-15.6S163 480 154 480z"/></svg>