<svg xmlns="http://www.w3.org/2000/svg" viewBox="0 0 525 512"><path d="M525 449c0 10.8-8.77 19.6-19.6 19.6H368c-10.8 0-19.6-8.77-19.6-19.6s8.77-19.6 19.6-19.6H505C516 430 525 439 525 449zM157 430H19.9c-10.8 0-19.6 8.77-19.6 19.6s8.77 19.6 19.6 19.6h137c10.8 0 19.6-8.77 19.6-19.6S168 430 157 430zM525 296c0-7.23-3.92-13.6-9.81-16.9c5.88-3.41 9.81-9.7 9.81-16.9c0-10.8-8.77-19.6-19.6-19.6h-93.6l90.4-24.3c10.4-2.79 16.6-13.6 13.8-24.1c-2.27-8.57-10.1-14.6-18.9-14.6c-1.75 0-3.41 .206-5.06 .723l-90.4 24.3l81.1-46.9c4.54-2.58 7.74-6.81 9.19-11.9s.619-10.3-1.96-14.9c-3.51-6.09-10-9.81-17-9.81c-3.41 0-6.81 .929-9.81 2.58l-81.1 46.9l66.2-66.2c3.72-3.72 5.78-8.67 5.78-13.8s-2.06-10.1-5.78-13.8C444 73.3 439 71.2 434 71.2s-10.1 2.06-13.8 5.78l-66.2 66.2L401 61.8c2.58-4.54 3.3-9.81 1.96-14.9s-4.65-9.29-9.19-11.9c-2.99-1.75-6.4-2.58-9.81-2.58c-7.02 0-13.5 3.72-17 9.81l-46.9 81.1L344 33c2.79-10.4-3.41-21.3-13.8-24.1c-1.65-.413-3.41-.723-5.06-.723c-8.88 0-16.6 5.99-18.9 14.6L282 113V19.6c0-10.8-8.77-19.6-19.6-19.6s-19.6 8.77-19.6 19.6v93.6l-24.3-90.4C216 14.2 209 8.26 200 8.26c-1.75 0-3.41 .206-5.06 .723c-5.06 1.34-9.29 4.65-11.9 9.19s-3.3 9.81-1.96 14.9l24.3 90.4L158 42.3c-3.51-6.09-10-9.81-17-9.81c-3.41 0-6.81 .929-9.81 2.58c-9.39 5.37-12.6 17.4-7.23 26.8l46.9 81.1l-66.2-66.2c-3.72-3.72-8.67-5.78-13.8-5.78s-10.1 2.06-13.8 5.78c-7.64 7.64-7.64 20.1 0 27.8l66.2 66.2L62.2 124c-2.99-1.75-6.4-2.58-9.81-2.58c-7.02 0-13.5 3.72-17 9.81c-5.37 9.39-2.17 21.4 7.23 26.8l81.1 46.9L33.3 181c-1.65-.413-3.41-.723-5.06-.723c-8.88 0-16.6 5.99-18.9 14.6c-1.34 5.06-.619 10.3 1.96 14.9s6.81 7.74 11.9 9.19l90.4 24.3H19.9c-10.8 0-19.6 8.77-19.6 19.6c0 7.23 3.92 13.6 9.81 16.9C4.23 283 .306 289 .306 296c0 8.05 4.85 15 11.9 18C5.16 317 .306 324 .306 332c0 9.19 6.4 16.9 14.9 19c-8.46 2.06-14.9 9.81-14.9 19.1c0 10.3 8.05 18.8 18.2 19.5c-10.1 .723-18.2 9.19-18.2 19.6c0 10.8 8.77 19.6 19.6 19.6h137c10.8 0 19.6-8.77 19.6-19.6c0-10.3-8.05-18.8-18.2-19.5c10.1-.723 18.2-9.19 18.2-19.5c0-9.19-6.4-16.9-14.9-19c8.57-2.06 14.9-9.81 14.9-19c0-8.05-4.85-15-11.9-18c6.92-2.99 11.9-9.91 11.9-18c0-7.23-3.92-13.6-9.81-16.9c5.88-3.41 9.81-9.7 9.81-16.9c0-4.34-1.45-8.46-3.92-11.8c3.3-2.58 5.78-6.19 6.81-10.3c1.14-4.13 .826-8.46-.723-12.4c3.92-1.65 7.12-4.54 9.29-8.26s2.99-7.95 2.48-12.2c4.23-.619 8.05-2.48 11.1-5.57c2.99-2.99 4.95-6.92 5.57-11.1c.826 .103 1.55 .103 2.37 .103c3.41 0 6.81-.929 9.81-2.58c3.72-2.17 6.61-5.47 8.26-9.29c2.27 .929 4.85 1.45 7.33 1.45c1.75 0 3.41-.206 5.06-.723c4.13-1.14 7.74-3.51 10.3-6.81c3.41 2.58 7.54 3.92 11.8 3.92c4.34 0 8.46-1.45 11.8-3.92c2.58 3.3 6.19 5.78 10.3 6.81c1.65 .413 3.41 .723 5.06 .723c2.48 0 5.06-.516 7.33-1.45c1.65 3.92 4.54 7.12 8.26 9.29c2.99 1.75 6.4 2.58 9.81 2.58c.826 0 1.55 0 2.37-.103c.619 4.13 2.48 8.05 5.57 11.1s6.92 4.95 11.1 5.57c-.516 4.13 .31 8.46 2.48 12.2s5.47 6.61 9.29 8.26c-1.55 3.92-1.86 8.26-.723 12.4c1.14 4.13 3.51 7.74 6.81 10.3c-2.58 3.41-3.92 7.54-3.92 11.8c0 7.23 3.92 13.6 9.81 16.9c-5.88 3.41-9.81 9.7-9.81 16.9c0 8.05 4.85 15 11.9 18c-6.92 2.99-11.9 9.91-11.9 18c0 9.19 6.4 16.9 14.9 19c-8.57 2.06-14.9 9.81-14.9 19c0 10.3 8.05 18.8 18.2 19.5c-10.1 .723-18.2 9.19-18.2 19.5c0 10.8 8.77 19.6 19.6 19.6H505c10.8 0 19.6-8.77 19.6-19.6c0-10.3-8.05-18.8-18.2-19.5c10.1-.723 18.2-9.19 18.2-19.5c0-9.19-6.4-16.9-14.9-19c8.57-2.06 14.9-9.81 14.9-19c0-8.05-4.85-15-11.9-18C520 311 525 304 525 296zM505 472H368c-10.8 0-19.6 8.77-19.6 19.6s8.77 19.6 19.6 19.6H505c10.8 0 19.6-8.77 19.6-19.6S516 472 505 472zM157 472H19.9c-10.8 0-19.6 8.77-19.6 19.6s8.77 19.6 19.6 19.6h137c10.8 0 19.6-8.77 19.6-19.6S168 472 157 472z"/></svg>