<svg xmlns="http://www.w3.org/2000/svg" viewBox="0 0 448 512"><path d="M398 343l-10.6-10.6 42.8-85.7c2.47-4.95 2.22-10.8-.69-15.6-2.96-4.66-8.16-7.56-13.7-7.56h-68.5c2.67-10.3 4.53-20.9 4.53-32 0-8.84-7.15-16-15.1-16s-16.9 7.2-16.9 16c0 52.9-43.1 96-96 96s-96-43.1-96-96c0-8.84-7.16-16-16-16s-16 7.2-16 16.1c0 11.1 1.85 21.6 4.5 31.9H32c-5.53 0-10.7 2.9-13.6 7.6-2.91 4.72-3.16 10.6-.69 15.6l42.8 85.7-10.6 10.6C17.8 376 0 419 0 464c0 26.5 21.5 48 48 48H176c5.03 0 9.75-2.36 12.8-6.36 3.03-4.02 3.97-9.2 2.59-14l-32-112c-2.41-8.5-11.3-13.4-19.8-11-8.5 2.44-13.4 11.3-11 19.8l26.2 91.6H48c-8.81 0-16-7.2-16-16 0-37 14.4-71.8 40.6-97.9l18.8-18.8c4.88-4.88 6.09-12.3 3-18.5l-36.4-72.8h54.1c.58 0 1.06-.27 1.62-.33 22.2 38.2 63.1 64.3 109 64.3s88.2-26.1 110-64.3c1.4 .03 1.9 .33 2.5 .33h54.1l-36.4 72.8c-3.09 6.16-1.88 13.6 3 18.5l18.8 18.8c26.2 26.1 40.6 60.9 40.6 97.9 0 8.83-7.19 16-16 16h-107l26.2-91.6c2.44-8.48-2.47-17.3-11-19.8-8.62-2.42-17.4 2.5-19.8 11l-32 112c-1.38 4.83-.44 10 2.59 14 3.1 3.96 6.9 6.36 12.8 6.36h128c26.5 0 48-21.5 48-48 0-45.5-17.7-88.4-49.9-121zM224 160c137 0 185-46.7 187-48.7 6.19-6.19 6.19-16.1 .06-22.4-6.12-6.25-16.2-6.36-22.6-.34-.24 .23-14.8 13.5-50.7 24.5C326 58.5 307 0 277 0c-9.16 0-18.3 3.97-27.3 11.8-14.9 13.1-36.7 13.1-51.5-.05-8.93-7.81-18.3-11.8-27.5-11.8-29.3 0-48.8 58.5-60.8 113-35.5-10.9-50.2-24-50.7-24.5-6.22-6.14-16.3-6.08-22.5 .12-6.25 6.25-6.25 16.4 0 22.6 2 2 50.3 48.7 187 48.7zm-51.1-127c1 .55 2.41 1.47 4.19 3.03 27.1 23.9 66.6 23.9 93.7 .06 1.72-1.5 3.09-2.42 4.09-3 4.86 5.49 18.7 26.2 32.1 87.8-22.2 4.27-49.5 7.27-83 7.27s-60.7-3-83-7.3c13.8-62.9 27.3-82.8 31.9-87.9zm99.1 335c0-8.84-7.16-16-16-16h-64c-8.84 0-16 7.16-16 16s7.2 16 16 16h16v112c0 8.84 7.16 16 16 16s16-7.16 16-16v-112h16c8.8 0 16-7.2 16-16z"/></svg>