<svg xmlns="http://www.w3.org/2000/svg" viewBox="0 0 448 512"><path d="M378 339l37.2-92.9c4.15-10.5-3.55-21.9-15.8-21.9h-57.5c6.88-14.8 10.4-31 10.4-48 0-4.12-.84-8.06-1.22-12.1 39.9-8.82 65.2-21.6 65.2-35.9 0-16.1-31.8-30.3-80.3-39C324 45.2 305 0 277 0c-10.4 0-19.6 4.5-27.4 10.5-15.3 11.9-36.8 11.9-52 0-7.72-6-16.9-10.5-27.3-10.5-27.5 0-46.3 45.2-58.2 89-48.7 8.7-80.5 22.9-80.5 39 0 14.3 25.3 27.1 65.2 35.9-.38 3.98-1.22 7.98-1.22 12.1 0 17 3.47 33.2 9.5 48H48c-11.3 0-19.1 11.4-14.9 21.9l37.2 92.9C27.9 370 0 420 0 477c0 19.2 15.5 34.7 34.7 34.7H413c19.2 0 34.7-15.5 34.7-34.7 0-56.9-27.9-107-70.3-139zm-202 140l-48-191 64 32 16 32-32 127zm95.1 0l-31.1-127 16-32 64-32-48.9 191zm48.9-293c0 21-17.2 38-38.4 38h-12.3c-16.5 0-30.3-10.4-35.6-25-1.54-4.11-5.24-7.01-9.64-7.01s-8.1 2.9-9.6 7c-5.4 14.6-19.2 25-35.6 25h-12.3c-21.3 0-38.5-17-38.5-38v-16.5c28.3 4.1 60.1 6.5 96 6.5s67.7-2.38 96-6.47v16.5z"/></svg>