<svg xmlns="http://www.w3.org/2000/svg" viewBox="0 0 449 512"><path d="M160 31.5v32h128v-32c.3-17.7 15-31.8 32.6-31.5c17.3 .3 31.1 14.2 31.5 31.5v32h48.1c26.6 0 48.1 21.5 48.1 48.1l0 0v48.1H0v-48.1C0 85 21.5 63.5 48 63.5h48.1v-32c.3-17.7 15-31.8 32.6-31.5C146 .3 160 14.2 160 31.5L160 31.5zM213 292h28.4l-14.3-42.6L213 292zM0 192v272C0 491 21.5 512 48 512h352c26.6 0 48.1-21.5 48.1-48.1V192H0zM275 221h92.6v19h-34.8v94.7h-23.3V240h-34.4v-19H275zM133 382c-3.3-2.9-8.1-4.3-13.8-4.3c-5.7 0-10.2 1.2-13.4 3.6c-3.1 2.2-4.9 5.8-4.8 9.6c0 3.7 1.9 6.8 5.6 9.3c5.1 3.1 10.7 5.5 16.5 7c13.3 4 23 9 29.1 14.9c6 5.8 9.3 13.8 9.1 22.2c0 9.8-3.7 17.6-11.2 23.2c-7.4 5.6-17.5 8.4-30.1 8.4c-8.2 .1-16.4-1.5-23.9-4.8c-6.6-2.7-12.3-7.3-16.4-13.2c-3.8-5.7-5.8-12.5-5.7-19.4h23.6c0 12.5 7.5 18.8 22.5 18.8c5.6 0 9.9-1.1 13-3.4c3.1-2.2 4.8-5.7 4.7-9.5c.2-4-1.5-7.8-4.7-10.2c-3.1-2.4-8.7-4.9-16.9-7.5c-6.6-2-13.1-4.6-19.3-7.8c-12.9-7-19.4-16.4-19.4-28.2c-.1-5.9 1.7-11.7 5.2-16.4c3.8-5.1 9-9 14.9-11.3c6.9-2.8 14.3-4.2 21.8-4.1c7.5-.1 14.9 1.4 21.8 4.4c6 2.7 11.1 7 14.8 12.4c3.5 5.4 5.3 11.8 5.2 18.3h-23.4C138 389 136 385 133 382zM140 243c-3.3-2.9-8.1-4.3-13.8-4.3s-10.2 1.2-13.4 3.6c-3.1 2.2-4.8 5.8-4.8 9.6c0 3.7 1.9 6.8 5.6 9.3c5.1 3.1 10.7 5.5 16.4 7c13.3 4 23.1 9 29.1 14.9c6 5.8 9.3 13.8 9.1 22.2c0 9.8-3.7 17.5-11.2 23.1s-17.5 8.4-30.1 8.4c-8.2 .1-16.4-1.5-23.9-4.8c-6.6-2.7-12.3-7.3-16.5-13.2c-3.8-5.7-5.8-12.5-5.7-19.4h23.5c0 12.6 7.5 18.9 22.6 18.9c5.6 0 9.9-1.1 13-3.4l0 0c3.1-2.2 4.8-5.7 4.6-9.5c.2-4-1.5-7.8-4.7-10.2c-3.1-2.4-8.8-4.9-16.9-7.5c-6.6-2-13.1-4.6-19.3-7.8c-12.9-7-19.4-16.4-19.4-28.2c-.1-5.9 1.7-11.7 5.2-16.4c3.8-5.1 9-9 14.9-11.3c6.9-2.8 14.3-4.2 21.8-4.1c7.5-.1 14.9 1.4 21.8 4.4c6 2.7 11.2 7 14.8 12.4c3.5 5.4 5.4 11.8 5.3 18.3h-23.4C145 250 143 246 140 243zM263 435c0 12.4-3.9 22.3-11.7 29.5c-7.8 7.3-18.4 10.9-31.9 10.9c-13.3 0-23.8-3.5-31.6-10.5s-11.8-16.7-11.9-29V360h23.4v75c0 7.5 1.8 12.9 5.3 16.3c3.6 3.4 8.5 5.1 14.8 5.1c13.2 0 19.9-6.9 20.1-20.8V360H263V435zM256 335l-8-23.4h-41.1l-7.8 23.4h-24.9L217 221h21.8l42.5 114H256zM375 474h-23.4l-45.6-74.8v74.9h-23.4V360h23.5l45.7 75v-75h23.3L375 474z"/></svg>