<svg xmlns="http://www.w3.org/2000/svg" viewBox="0 0 339 512"><path d="M221 175l-31.1 113-10.8 39.4h84L105 466l31-114 10.8-39.4H62.8L221 175m13.7-45.5c-5.59 0-11.2 1.95-15.7 5.93L27.8 303c-7.51 6.56-10.1 17.1-6.63 26.4 3.5 9.22 12.4 15.5 21.7 15.5h63.1l-36.6 134c-3.62 8.47-2.06 18.3 4.03 25.2 4.73 5.36 11.3 8.1 17.9 8.1 5.61 0 11.2-1.96 15.8-5.96l191-167c7.58-6.53 10-17.3 5.97-26.4-2.84-9.22-11.8-15.5-21.7-15.5h-62.5l36.7-134c3.63-8.46 2.09-18.3-3.99-25.2-4.73-5.38-11.3-8.13-18-8.13h0zM65.2 63.9H22.5v44.1H.218V0H70.5V18H22.5v27.9H65.2v17.9zm58.2 4.6h-17.7v39.5h-22.2V0h40.1c12.8 0 22.6 2.85 29.5 8.53 6.92 5.68 10.4 13.7 10.4 24.1 0 7.36-1.59 13.5-4.78 18.4-3.19 4.91-8.03 8.84-14.5 11.8l23.4 44.1v1.04h-23.9l-20.2-39.5zm-17.7-18h18c5.59 0 9.91-1.42 13-4.27 3.06-2.85 4.58-6.76 4.56-11.8 0-5.09-1.44-9.1-4.34-12s-7.33-4.38-13.3-4.37h-17.8v32.4zm140 10.7h-42.7v29h50.1v17.9h-72.4V.052h72.2V18h-50v25.7h42.7v17.4zm85.4 0h-42.7v29h50.1v17.9h-72.4V.052h72.2V18h-50v25.7h42.7v17.4z"/></svg>