<svg xmlns="http://www.w3.org/2000/svg" viewBox="0 0 450 512"><path d="M215 273h28.5l-14.3-42.7L215 273zM277 201h92.8v19h-34.9v94.9h-23.3V220h-34.5v-19H277zM134 362c-3.31-2.91-8.12-4.31-13.8-4.31c-5.71 0-10.2 1.2-13.4 3.61c-3.11 2.2-4.91 5.81-4.81 9.62c0 3.71 1.9 6.81 5.61 9.32c5.11 3.11 10.7 5.51 16.5 7.01c13.3 4.01 23 9.02 29.2 14.9c6.01 5.81 9.32 13.8 9.12 22.2c0 9.82-3.71 17.6-11.2 23.2c-7.41 5.61-17.5 8.42-30.2 8.42c-8.22 .1-16.4-1.5-23.9-4.81c-6.61-2.71-12.3-7.31-16.4-13.2c-3.81-5.71-5.81-12.5-5.71-19.4h23.6c0 12.5 7.51 18.8 22.5 18.8c5.61 0 9.92-1.1 13-3.41c3.11-2.2 4.81-5.71 4.71-9.52c.2-4.01-1.5-7.82-4.71-10.2c-3.11-2.4-8.72-4.91-16.9-7.51c-6.61-2-13.1-4.61-19.3-7.82c-12.9-7.01-19.4-16.4-19.4-28.3c-.1-5.91 1.7-11.7 5.21-16.4c3.81-5.11 9.02-9.02 14.9-11.3c6.91-2.81 14.3-4.21 21.8-4.11c7.51-.1 14.9 1.4 21.8 4.41c6.01 2.71 11.1 7.01 14.8 12.4c3.51 5.41 5.31 11.8 5.21 18.3h-23.4C139 370 137 365 134 362zM141 223c-3.31-2.91-8.12-4.31-13.8-4.31s-10.2 1.2-13.4 3.61c-3.11 2.2-4.81 5.81-4.81 9.62c0 3.71 1.9 6.81 5.61 9.32c5.11 3.11 10.7 5.51 16.4 7.01c13.3 4.01 23.1 9.02 29.2 14.9c6.01 5.81 9.32 13.8 9.12 22.2c0 9.82-3.71 17.5-11.2 23.1s-17.5 8.42-30.2 8.42c-8.22 .1-16.4-1.5-23.9-4.81c-6.61-2.71-12.3-7.31-16.5-13.2c-3.81-5.71-5.81-12.5-5.71-19.4h23.5c0 12.6 7.51 18.9 22.6 18.9c5.61 0 9.92-1.1 13-3.41l0 0c3.11-2.2 4.81-5.71 4.61-9.52c.2-4.01-1.5-7.82-4.71-10.2c-3.11-2.4-8.82-4.91-16.9-7.51c-6.61-2-13.1-4.61-19.3-7.82c-12.9-7.01-19.4-16.4-19.4-28.3c-.1-5.91 1.7-11.7 5.21-16.4c3.81-5.11 9.02-9.02 14.9-11.3c6.91-2.81 14.3-4.21 21.8-4.11c7.51-.1 14.9 1.4 21.8 4.41c6.01 2.71 11.2 7.01 14.8 12.4c3.51 5.41 5.41 11.8 5.31 18.3h-23.4C146 230 144 226 141 223zM265 416c0 12.4-3.91 22.3-11.7 29.6c-7.82 7.31-18.4 10.9-32 10.9c-13.3 0-23.8-3.51-31.7-10.5s-11.8-16.7-11.9-29.1V341h23.4v75.1c0 7.51 1.8 12.9 5.31 16.3c3.61 3.41 8.52 5.11 14.8 5.11c13.2 0 19.9-6.91 20.1-20.8V341H265V416zM258 315l-8.02-23.4h-41.2l-7.82 23.4h-24.9L218 201h21.8l42.6 114H258zM376 455h-23.4l-45.7-74.9v75h-23.4V341h23.5l45.8 75.1v-75.1h23.3L376 455zM401 52.7H336V15c0-8.32-6.71-15-15-15s-15 6.71-15 15v37.7H144V15c0-8.32-6.71-15-15-15s-15 6.71-15 15v37.7H48.2c-26.6 0-48.1 21.5-48.1 48.2V463c0 26.7 21.5 48.2 48.1 48.2h353c26.7 0 48.2-21.5 48.2-48.2l0-362C449 74.2 428 52.7 401 52.7zM48.2 82.8h353c10 0 18.1 8.12 18.1 18.1l0 36.3H30.1v-36.3C30.1 90.9 38.2 82.8 48.2 82.8zM401 481H48.2c-9.92 0-18-8.12-18-18.1V167h389L419 463C419 473 411 481 401 481z"/></svg>