<svg xmlns="http://www.w3.org/2000/svg" viewBox="0 0 339 512"><path d="M198.986 296.936h83.26c9.931 0 18.892 6.199 21.73 15.457 4.107 9.334 1.494 19.863-5.974 26.434L106.841 506.094c-8.438 7.318-20.781 7.915-29.802 1.344-9.029-6.571-12.314-18.519-7.916-28.749l57.43-133.963h-83.93c-9.282 0-18.196-6.198-21.697-15.457a23.966 23.966 0 016.635-26.434l191.14-167.252c8.438-7.347 20.758-7.906 29.794-1.348a23.87 23.87 0 017.915 28.746l-57.424 133.955zM64.992 63.88H22.258v44.144H0V0h70.335v18.03H22.258v27.896h42.734V63.88zm58.242 4.6h-17.732v39.544H83.244V0h40.139c12.76 0 22.603 2.845 29.528 8.532 6.924 5.689 10.387 13.725 10.387 24.112 0 7.37-1.595 13.516-4.786 18.436-3.19 4.923-8.025 8.843-14.504 11.76l23.37 44.144v1.04h-23.89L123.235 68.48zm-17.732-18.03h17.954c5.589 0 9.917-1.42 12.985-4.265 3.065-2.844 4.6-6.763 4.6-11.76 0-5.093-1.447-9.1-4.34-12.019-2.894-2.918-7.334-4.377-13.318-4.377h-17.88v32.422zM245.207 61.21h-42.735v28.936h50.154v17.88h-72.412V0h72.264v18.03h-50.006v25.744h42.735v17.435zm85.47 0H287.94v28.936h50.154v17.88h-72.411V0h72.264v18.03H287.94v25.744h42.735v17.435z"/></svg>