<svg xmlns="http://www.w3.org/2000/svg" viewBox="0 0 640 512"><path d="M127 1c.9 .1 1.8 .3 2.7 .4C134 2.1 138 3 142 4.1c3.7 1 7.4 2.3 10.9 3.6c6.9 2.7 5.4 12.6-1.1 15.9c-2.3 1.1-4.4 2.4-6.6 3.7c-3.3 2.1-6.5 4.6-9.4 7.2c-.3 .3-.6 .5-.9 .8C121 48.5 112 67.2 112 88c0 37.2 28.2 67.8 64.3 71.6c.4 0 .8 .1 1.2 .1c2.2 .2 4.3 .3 6.5 .3c1.8 0 3.6-.1 5.4-.2c2.5-.2 5-.5 7.5-.9c7.2-1.4 14.3 5.7 10.4 12c-2 3.2-4.2 6.4-6.5 9.4c-2.6 3.3-5.4 6.5-8.3 9.5c-.6 .7-1.3 1.3-1.9 2c-20.2 19.9-48 32.2-78.6 32.2C50.1 224 0 174 0 112C0 50.1 50.1 0 112 0C117 0 122 .3 127 1L127 1zM80 88c0-19.9 5.6-38.5 15.3-54.2C59.1 41.5 32 73.6 32 112c0 44.2 35.8 80 80 80c11.1 0 23.3-2.6 33.5-7.3C107 169 80 132 80 88L80 88zM336 304c0-17.7 14.3-32 32-32h64c17.7 0 32 14.3 32 32v64c0 17.7-14.3 32-32 32h-64c-17.7 0-32-14.3-32-32V304zM432 304h-64v64h64V304zM634 292c6.7 5.7 7.5 15.8 1.8 22.5c-5.8 6.7-15.9 7.5-22.6 1.7L576 284V448c0 35.3-28.7 64-64 64H288c-35.3 0-64-28.7-64-64V284l-37.6 32.2c-6.7 5.8-16.8 5-22.5-1.7c-5.8-6.7-5-16.8 1.7-22.5l224-192c6-5.1 14.8-5.1 20.8 0L634 292zM544 257L400 133L256 257V448c0 17.7 14.3 32 32 32h224c17.7 0 32-14.3 32-32V257zM256 0c8.8 0 16 7.2 16 16v32h32c8.8 0 16 7.2 16 16s-7.2 16-16 16h-32v32c0 8.8-7.2 16-16 16c-8.8 0-16-7.2-16-16V80h-32c-8.8 0-16-7.2-16-16s7.2-16 16-16h32V16C240 7.2 247 0 256 0zM96 320c8.8 0 16 7.2 16 16v32h32c8.8 0 16 7.2 16 16s-7.2 16-16 16h-32v32c0 8.8-7.2 16-16 16c-8.8 0-16-7.2-16-16v-32H48c-8.8 0-16-7.2-16-16s7.2-16 16-16h32v-32C80 327 87.2 320 96 320z"/></svg>