<svg xmlns="http://www.w3.org/2000/svg" viewBox="0 0 640 512"><path d="M88 88c0 48.6 39.4 88 88 88c3 0 6-.2 8.1-.4c8.5-.8 14.7 7.6 9.4 13.2C173 211 144 224 112 224C50.1 224 0 174 0 112S50.1 0 112 0c3.7 0 7.4 .2 11 .5c7.6 .7 8.5 11.2 2.2 15.6C103 32.1 88 58.3 88 88L88 88zM275 44.5l32.3 12c7 2.6 7 12.4 0 15l-32.3 11.9l-11.9 32.3c-2.6 7-12.4 7-15 0l-11.9-32.3l-32.3-11.9c-7-2.6-7-12.4 0-15l32.3-12l11.9-32.3c2.6-7 12.4-7 15 0L275 44.5zM630 297c9.7 8.9 12.9 22.9 8.1 35.2C633 344 621 352 608 352h-32v112c0 26.5-21.5 48-48 48H272c-26.5 0-48-21.5-48-48V352h-32c-13.2 0-25.9-8.1-29.8-20.3c-4.8-12.3-1.6-26.3 8.1-35.2l208-192c12.3-11.3 31.1-11.3 43.4 0L630 297zM352 368c0 8.8 7.2 16 16 16h64c8.8 0 16-7.2 16-16v-64c0-8.8-7.2-16-16-16h-64c-8.8 0-16 7.2-16 16V368zM88.5 332c2.6-7 12.4-7 15 0l11.9 32.3l32.3 11.9c7 2.6 7 12.4 0 15l-32.3 11.9l-11.9 32.3c-2.6 7-12.4 7-15 0l-11.9-32.3l-32.3-11.9c-7-2.6-7-12.4 0-15l32.3-11.9L88.5 332z"/></svg>