<svg xmlns="http://www.w3.org/2000/svg" viewBox="0 0 438 512"><path d="M90.1 18V169.5c0 12-13.4 19.2-23.3 12.5c-16.3-11.1-27-29.7-27-50.8V15c0-8.3-6.7-15-15-15h0c-8.3 0-15 6.7-15 15v116.2c0 42.7 29.3 78.6 68.9 88.7c6.7 1.7 11.4 7.7 11.4 14.6v74.5c0 2.6-.7 5.1-1.9 7.3c-6.2 11.2-9.7 23.9-9.7 37.5c0 1.6-63 67.8-63 67.8c-20.6 20.6-20.6 54.2 0 74.8c10 10 23.3 15.5 37.4 15.5s27.4-5.5 37.4-15.5c0 0 36.7-36.9 55.2-55.1c2.8-2.8 6.6-4.3 10.5-4.3H423.2c8.3 0 15-6.7 15-15V18c0-8.3-6.7-15-15-15H105.1c-8.3 0-15 6.7-15 15zm106.7 370.1c-5 5-10.8 8.8-17 11.3c-10.7 4.4-22.6 5-33.7 1.8c-.8-.2-1.5-.4-2.3-.7l-6.5 6.5-30 30-38.2 38.2c-1.9 1.9-4 3.3-6.3 4.4c-8.5 4.1-19 2.6-26.1-4.4h0c-8.9-8.9-8.9-23.5 0-32.4l53.4-53.4 21.3-21.3c-5.5-16.3-2.6-34.8 8.7-48.8c1.2-1.4 2.4-2.8 3.7-4.2c6.2-6.2 13.7-10.5 21.6-12.9c10.2-3.1 21.2-2.9 31.3 .5l-24.3 24.3 3 29.4 29.4 3 1.9-1.9 22.4-22.4c.3 .8 .5 1.5 .7 2.3c5 17.5 .7 37-13 50.7zm64.1-210.2c-1.6 0-3.3 .1-5.2 .2c-6.4 .4-11.5 5.6-11.7 12s4.5 12 10.8 12.8c4.9 .7 11.7 10.4 11.7 24.9c0 .7 0 1.4-.1 2.3c-.7 14.1-7.6 22.7-12.2 22.7c-4.1 0-9.7-6.7-11.7-17.4c-.8-4.3-3.6-7.8-7.7-9.4c-4-1.6-8.6-1-12 1.5c-14.2 10.5-23.5 26.4-25.7 43.7c-4.4-9.9-6.9-20.9-6.9-32.5c0-44.1 35.9-80 80-80s80 35.9 80 80c-.1 11.6-2.7 22.8-7.2 32.8c.5-3.5 .7-7.1 .7-10.8c0-45.7-37.2-82.8-82.8-82.8zm28.4 32.5c17.6 9.9 29.4 28.8 29.4 50.4c0 30.5-23.7 55.5-53.6 57.7c-8.7-.5-17-2.5-24.7-5.6c-11.3-7-18.8-19.4-18.8-33.6c0-6.6 1.6-12.8 4.5-18.4c6.9 10.5 17 16.9 28.1 16.9c19.9 0 35.9-20 37.2-46.4c.1-1.3 .1-2.4 .1-3.5c0-6.2-.8-12.1-2.2-17.5zm-76.7 196.7c13.1-13.9 21.2-32.6 21.2-53.2c0-5.9-.7-11.7-1.9-17.2c8.7 4.4 18.5 7 29 7c1.5 0 2.9 0 4.4-.1c1.6 .1 3.3 .1 4.9 .1c59.3 0 107.2-49.4 104.9-109.2c-2.1-54.5-46.3-98.7-100.8-100.8c-59.8-2.3-109.2 45.6-109.2 104.9c0 14 2.7 27.3 7.7 39.5c-5.4-1.2-11-1.8-16.7-1.8c-13 0-25.2 3.2-36 8.9V43c0-5.5 4.5-10 10-10H398.3c5.5 0 10 4.5 10 10V397.1c0 5.5-4.5 10-10 10H212.6zM170.4 104.6c-8.3 0-15-6.7-15-15h0c0-8.3 6.7-15 15-15h187.6c8.3 0 15 6.8 15 15.1h0c0 8.3-6.7 15-15 15H170.4z"/></svg>