<svg xmlns="http://www.w3.org/2000/svg" viewBox="0 0 457 512"><path d="M441.2 .1H101.9c-8.8 0-16 7.2-16 16V297.3c-30.5-5.7-53.7-32.4-53.7-64.4V16c0-8.8-7.2-16-16-16h0C7.4 0 .2 7.2 .2 16V232.9c0 48 34.9 88 80.5 96.1c17.2-27.4 51.3-44.5 85.2-39.5c-3.6-63.9 48.2-118.3 112.1-118c127.8-.7 152.3 186.5 30.5 219.6c78.3-35.2 55-185.8-58.3-168.2c87.4 79.8-21.5 135.9-9.8 44.3c-19.2 8-30.8 21.8-36.2 37.3c66.2 42.3 36.8 155.3-42.7 158.7H441.1c8.8 0 16-7.2 16-16V16.1c.1-8.9-7-16-15.9-16zM371.5 109H171.4c-8.8 0-16-7.2-16-16h0c0-8.8 7.2-16 16-16h200.1c8.8 0 16 7.2 16 16h0c0 8.8-7.2 16-16 16zM143.1 424.6c-25.2 23.6-59.6 62.9-86.4 84.5c-23.9 12.1-47.3-20.4-27.8-39.3c19.3-19.2 60.9-61 79.7-79.7c-15.3-41.4 27.9-85 69.7-69.7c-2.7 2.7-22.7 22.7-25.9 25.9l3.2 31.4 31.4 3.2c7.3-7.3 18.7-18.7 25.9-25.9c6.4 19.6 1.8 41.3-13.2 56.4c-14.6 14.7-36.9 19.7-56.4 13.1z"/></svg>