<svg xmlns="http://www.w3.org/2000/svg" viewBox="0 0 500 512"><path d="M212 0H20C9 0 0 9 0 20V297.4c0 11.1 9 20 20 20H212c11.1 0 20-9 20-20V20c0-11.1-9-20-20-20zM36.4 52.4H195.6l-.1 21.9H36.4V52.4zm84 196.8c-42.3 0-76.8-34.4-76.8-76.8s34.4-76.8 76.8-76.8 76.8 34.4 76.8 76.8-34.5 76.8-76.8 76.8zm35.5-60.6c0 22.3-17.3 40.6-39.2 42.2c-6.4-.4-12.4-1.8-18.1-4.1c-8.3-5.1-13.8-14.2-13.8-24.6c0-4.8 1.2-9.4 3.3-13.5c5 7.7 12.4 12.4 20.6 12.4c14.6 0 26.3-14.6 27.2-33.9c.1-1 .1-1.8 .1-2.6c0-4.5-.6-8.8-1.6-12.8c12.8 7.2 21.5 21.1 21.5 36.9zm23-16.2c-.1 8.5-2 16.7-5.3 24c.4-2.6 .5-5.2 .5-7.9c0-33.4-27.2-60.6-60.6-60.6c-1.2 0-2.4 .1-3.8 .1c-4.7 .3-8.4 4.1-8.6 8.8c-.1 4.7 3.3 8.8 7.9 9.4c3.6 .5 8.6 7.6 8.6 18.2c0 .5 0 1-.1 1.7c-.5 10.3-5.6 16.6-8.9 16.6c-3 0-7.1-4.9-8.6-12.7c-.6-3.1-2.6-5.7-5.6-6.9c-2.9-1.2-6.3-.7-8.8 1.1c-10.4 7.7-17.2 19.3-18.8 32c-3.2-7.2-5-15.3-5-23.8c0-32.3 26.3-58.5 58.5-58.5c32.3 0 58.6 26.2 58.6 58.5zm89.4 42.2V492c0 11.1 9 20 20 20h192c11.1 0 20-9 20-20V214.6c0-11.1-9-20-20-20h-192c-11.1 0-20 9-20 20zm36.4 32.3h159.2l-.1 21.9H304.7v-21.9zm84 196.9c-42.3 0-76.8-34.4-76.8-76.8s34.4-76.8 76.8-76.8 76.8 34.4 76.8 76.8c0 42.3-34.4 76.8-76.8 76.8zm35.5-60.7c0 22.3-17.3 40.6-39.2 42.2c-6.4-.4-12.4-1.8-18.1-4.1c-8.3-5.1-13.8-14.2-13.8-24.6c0-4.8 1.2-9.4 3.3-13.5c5 7.7 12.4 12.4 20.6 12.4c14.6 0 26.3-14.6 27.2-33.9c.1-1 .1-1.8 .1-2.6c0-4.5-.6-8.8-1.6-12.8c12.8 7.3 21.5 21.1 21.5 36.9zm23-16.1c-.1 8.5-2 16.7-5.3 24c.4-2.6 .5-5.2 .5-7.9c0-33.4-27.2-60.6-60.6-60.6c-1.2 0-2.4 .1-3.8 .1c-4.7 .3-8.4 4.1-8.6 8.8c-.1 4.7 3.3 8.8 7.9 9.4c3.6 .5 8.6 7.6 8.6 18.2c0 .5 0 1-.1 1.7c-.5 10.3-5.6 16.6-8.9 16.6c-3 0-7.1-4.9-8.6-12.7c-.6-3.1-2.6-5.7-5.6-6.9c-2.9-1.2-6.3-.7-8.8 1.1c-10.4 7.7-17.2 19.3-18.8 32c-3.2-7.2-5-15.3-5-23.8c0-32.3 26.3-58.5 58.5-58.5c32.4 0 58.6 26.2 58.6 58.5zM272.2 47.6c-4.8-.9-8.8-4.1-10.8-8.6h0c-5-11.1 4.6-23.3 16.5-21c55.1 10.8 105 44.9 134 96.6l22.6-10.2c2.1-.9 4.4-1.2 6.6-.6c5.3 1.5 8.5 6.9 7.1 12.3l-15.7 59.5c-.2 .8-.5 1.4-.8 2c-2.5 4.9-8.5 6.9-13.5 4.4l-55-27.6c-2-1-3.6-2.7-4.5-4.7c-2.4-5-.1-10.9 4.9-13.3l20.9-9.4c-24.8-42.4-66.3-70.4-112.3-79.4zM246 424c-.4 .5-.9 1-1.5 1.5l-46.6 40.2c-4.2 3.6-10.5 3.1-14.1-1c-1.6-1.8-2.3-3.9-2.4-6.2l-.8-24.8c-59.2-3.4-111.7-33.3-145.6-78.1c-7.3-9.7-.5-23.6 11.6-24h0c4.9-.1 9.5 2.1 12.4 6c28.2 37.3 71.7 62.4 120.7 66l-.7-22.9c-.1-5.5 4.3-10.1 9.8-10.2c2.2-.1 4.4 .7 6.2 2l49 37.3c4.4 3.5 5.2 9.8 2 14.2z"/></svg>