<svg xmlns="http://www.w3.org/2000/svg" viewBox="0 0 503 512"><path d="M237 64H109c-8.8 0-16 7.2-16 16v96c0 8.8 7.2 16 16 16H237c8.8 0 16-7.2 16-16V80c0-8.8-7.2-16-16-16zm-14 98H123V94h100v68zm279-.29c0-17.3-6.74-33.6-19-45.9L400 30.5c-5.79-5.93-15.3-6.04-21.2-.25-5.93 5.79-6.04 15.3-.25 21.2l34.7 35.6v73c0 29.8 20.4 54.9 48 62l11.3 .71 .72 153c0 19.3-15.7 35-35 35s-35-15.7-35-35v-36c0-41.4-33.6-75-75-75h-11V64C317 28.7 288 0 253 0H93C57.7 0 29 28.7 29 64V482H15c-8.28 0-15 6.72-15 15s6.72 15 15 15H331c8.28 0 15-6.72 15-15s-6.72-15-15-15h-14v-187h11c24.8 0 45 20.2 45 45v36c0 35.8 29.2 65 65 65s65-29.2 65-65.1l-1-214zm-33.5 31.2c-15-3.86-25.5-17.4-25.5-33v-42.2l18.6 19.1s.08 .08 .12 .13c6.61 6.61 10.3 15.4 10.3 24.8l.15 32.1-3.68-.95zM59 482V64c0-18.8 15.3-34 34-34H253c18.8 0 34 15.3 34 34V482H59z"/></svg>