<svg xmlns="http://www.w3.org/2000/svg" viewBox="0 0 530 512"><path d="M462 0H67.4C30.2 0 .082 30.2 .082 67.3v61.4H10.9v254c0 11.6 9.39 21 21 21H65.9v73.8c0 9.01 6.92 16.8 15.9 17.2 9.61 .451 17.5-7.21 17.5-16.7v-17h256c7.37 28.6 33.1 49.9 63.9 50.4 37 .63 67.9-29.4 68.3-66.4 .168-15.5-4.97-29.8-13.7-41.3h23.5c11.6 0 21-9.39 21-21V129h10.8v-61.4C529 30.2 499 0 462 0zm-106 428H99.3v-23.9h268c-5.33 7.01-9.33 15.1-11.6 23.9zm65.1 50.4c-18.6 0-33.7-15.1-33.7-33.7s15.1-33.7 33.7-33.7 33.7 15.1 33.7 33.7-15.1 33.7-33.7 33.7zm54-108H54.8c-5.79 0-10.5-4.7-10.5-10.5V129H485v232c0 5.79-4.7 10.5-10.5 10.5zm21.3-275H33.5v-27.9c0-18.7 15.2-33.9 33.9-33.9H462c18.7 0 33.9 15.2 33.9 33.9v27.9zm-107 186h-91.6l103-133-45.1 93.2h91.8l-91.7 108 33.5-68.5zM119 207v83.5c0 9.24-7.49 16.7-16.7 16.7h0c-9.24 0-16.7-7.49-16.7-16.7v-83.5c0-9.24 7.49-16.7 16.7-16.7h0c9.24 0 16.7 7.49 16.7 16.7zm73.4 0v83.5c0 9.24-7.49 16.7-16.7 16.7h0c-9.24 0-16.7-7.49-16.7-16.7v-83.5c0-9.24 7.49-16.7 16.7-16.7h0c9.24 0 16.7 7.49 16.7 16.7zm73.4 0v83.5c0 9.24-7.49 16.7-16.7 16.7h0c-9.24 0-16.7-7.49-16.7-16.7v-83.5c0-9.24 7.49-16.7 16.7-16.7h0c9.24 0 16.7 7.49 16.7 16.7z"/></svg>