<svg xmlns="http://www.w3.org/2000/svg" viewBox="0 0 530 512"><path d="M529 67.3v60.3H.082v1.05h0v-61.4C.082 30.2 30.2 0 67.4 0H462c37.2 0 67.3 30.2 67.3 67.3zm-21.3 91.8v224c0 11.6-9.39 21-21 21h-13c8.72 11.5 13.8 25.8 13.7 41.3-.388 37-31.3 67.1-68.3 66.4-30.8-.525-56.5-21.8-63.9-50.4H99.3v17c0 9.51-7.93 17.2-17.5 16.7-9-.42-15.9-8.17-15.9-17.2v-73.8h-23.5c-11.6 0-21-9.39-21-21V159H508zM232 311c0 9.24 7.49 16.7 16.7 16.7s16.7-7.49 16.7-16.7v-83.5c0-9.24-7.49-16.7-16.7-16.7s-16.7 7.49-16.7 16.7v83.5zm-73.4 0c0 9.24 7.49 16.7 16.7 16.7s16.7-7.49 16.7-16.7v-83.5c0-9.24-7.49-16.7-16.7-16.7s-16.7 7.49-16.7 16.7v83.5zm-56.6 16.7c9.24 0 16.7-7.49 16.7-16.7v-83.5c0-9.24-7.49-16.7-16.7-16.7s-16.7 7.49-16.7 16.7v83.5c0 9.24 7.49 16.7 16.7 16.7zm265 76H99.3v23.9h256c2.26-8.77 6.25-16.8 11.6-23.9zm80.3-132h-91.8l45.1-93.2-103 133h91.6l-33.5 68.5 91.7-108zm6.87 172c0-18.6-15.1-33.7-33.7-33.7s-33.7 15.1-33.7 33.7 15.1 33.7 33.7 33.7 33.7-15.1 33.7-33.7z"/></svg>