<svg xmlns="http://www.w3.org/2000/svg" viewBox="0 0 586 512"><path d="M292 34.3c35.7 0 70.3 5.71 103 16.8c31 10.6 58.7 25.8 82.5 45.1c47.1 38.3 73 88.5 73 141c0 53-25.8 103-72.6 141c-23.7 19.3-51.2 34.4-82.2 45.1C363 435 329 441 293 441l-.114 0h-.114c-37.8 0-75-6.74-111-20l-17.8-6.63l-15.1 11.7C122 447 94.4 461 65.8 470c13.1-21 26.2-46.9 33-74.3l4.69-18.7l-13.7-13.7C53.8 327 34.7 283 34.7 238c0-53 25.8-103 72.6-141c23.7-19.3 51.2-34.4 82.2-45.1C222 39.9 256 34.3 292 34.3M292 0C130 0 .429 106 .429 238c0 56.7 24.5 109 65.1 149C51.3 445 3.51 496 2.94 497c-2.63 2.63-3.31 6.63-1.71 9.94c1.37 3.31 4.57 5.49 8.11 5.49c.114 0 .114 0 .229 0c75.8 0 132-36.3 161-58.7c39.2 14.6 80.7 22.2 123 22.2c.114 0 .114 0 .229 0c162 0 292-106 292-238S454 0 292 0L292 0zM292 78.7c10.9 0 19.7 8.8 19.7 19.7c0 0 0 0 0 0v21.9c1.03 .114 1.94 .229 2.86 .457c6.51 1.03 25.9 4.11 33.8 6.17c9.94 2.63 16.9 13.4 14.2 23.9c-2.63 10.5-13.4 16.9-23.9 14.3c-5.71-2.06-23.1-4.34-29.9-5.37c-19.8-2.97-36.6-1.49-48.2 2.97c-11.2 4.34-15.9 10.4-17.1 17.1c-1.14 6.63-.343 10.3 .8 12.7s3.43 5.26 7.89 8.23c9.94 6.51 25.3 11 44.9 16.3l1.71 .457c17.5 4.69 38.7 10.5 54.6 21c8.69 5.71 16.8 13.6 21.8 24.3s6.17 23.2 3.89 35.8c-4.23 23.9-20.8 39.5-40.3 47.7c-8.69 3.54-17.9 5.83-27.3 6.74v20.5c0 10.9-8.8 19.7-19.7 19.7c-10.9 0-19.7-8.8-19.7-19.7l0 0V352c-.229 0-.571-.571-.8-.114h-.114c-14.9-2.29-39.5-8.8-56.1-16.1c-9.94-4.46-14.4-16-9.94-25.9c4.46-9.83 16-14.4 25.4-9.94c13.4 5.71 34.5 11.3 46.7 13.1c19.7 2.97 35.8 1.26 46.7-3.2c10.4-4.23 15.1-10.4 16.5-17.7c1.14-6.63 .343-10.3-.8-12.7s-3.43-5.26-7.89-8.23c-10.1-6.51-25.3-11-45-16.3l-1.71-.457c-17.5-4.69-38.9-10.5-54.6-21c-8.69-5.71-16.8-13.6-21.8-24.3s-6.17-23.2-3.89-36.2c4.34-23.9 21.6-39.1 41.7-46.9c8.34-3.09 17-5.14 25.8-6.17V98.4C272 87.5 281 78.7 292 78.7C292 78.7 292 78.7 292 78.7z"/></svg>