<svg xmlns="http://www.w3.org/2000/svg" viewBox="0 0 616 512"><path d="M615 135v340c0 20.4-16.5 36.9-36.9 36.9H135c-20.4 0-36.9-16.5-36.9-36.9v-22.6h395c34 0 61.5-27.6 61.5-61.5V98.1h22.5C598 98.1 615 115 615 135zM205 141c-2.22-1.11-5.54-1.97-8.74 .123c-1.35 .862-7.14 5.91-24.4 32c15.4 5.05 29.4 7.63 33.6 5.91c8.12-3.69 12.3-15.1 9.23-25.4C213 148 210 143 205 141zM183 107c10.3-6.52 22-7.02 33.2-1.48c12.2 6.15 22.2 19.1 26.7 34.8c3.82 13.3 3.57 27.2 0 39.6h274V36.9c0-20.4-16.5-36.9-36.9-36.9h-321v138C176 113 180 109 183 107zM124 248c-27.4 47-49.2 91.7-49.5 92.2c-2.95 5.29-7.51 8.12-12.3 8.12c-2.95 0-5.91-1.11-8.49-3.32c-6.77-5.91-8.49-17.6-3.82-26.2c.246-.492 26.2-48.2 55-97.4c.738-1.23 1.35-2.34 2.09-3.45H.308v159c0 20.4 16.5 36.9 36.9 36.9h86.5C124 414 124 248 124 248zM517 377V218H176l2.09 3.45c28.7 49.1 54.8 96.9 55 97.4c4.68 8.62 2.95 20.3-3.82 26.2c-2.58 2.22-5.54 3.32-8.49 3.32c-4.8 0-9.48-2.83-12.3-8.12c-.246-.492-22.2-45.2-49.6-92.2v166h321C500 414 517 397 517 377zM39.2 140c4.55-15.6 14.5-28.7 26.7-34.8c11.1-5.54 22.9-5.05 33.2 1.48c3.32 2.09 7.02 6.03 24.6 31.4V0H37.2C16.8 0 .308 16.5 .308 36.9v143h39C35.6 168 35.4 154 39.2 140zM85.7 141c-1.48-.862-2.83-1.23-4.31-1.23c-1.72 0-3.32 .492-4.55 1.11c-4.31 2.22-8.12 7.02-9.72 12.7c-2.95 10.2 1.23 21.5 9.35 25.4c4.18 1.85 18.2-.862 33.6-5.91C92.9 147 87.1 142 85.7 141z"/></svg>