<svg xmlns="http://www.w3.org/2000/svg" viewBox="0 0 614 512"><path d="M178 427h317c21.1 0 38.2-17.1 38.2-38.1V225V187V38.1c0-21.1-17-38.1-38.1-38.1H178h-38.1H38.2C17.2 0 .172 17 .172 38.1V187v38.1v164c0 21.1 17 38.1 38.1 38.1h101H178zM178 38.1h318l0 149H264c3.47-12.5 3.6-26.4-.248-39.8c-4.71-16.2-15-29.6-27.5-36c-11.5-5.7-23.7-5.21-34.3 1.49c-3.35 2.11-7.07 6.07-24.1 30.5V38.1zM225 187c-.248 .124-.496 .124-.868 .248h-7.56c-6.69-.744-16.2-3.1-26.3-6.32c17.7-26.9 23.8-32.1 25.2-33c3.35-2.11 6.69-1.24 9.05-.124c4.46 2.23 8.43 7.31 10 13.1C238 171 233 183 225 187zM178 258c27.6 47.6 49.6 92.2 49.8 92.7c2.98 5.45 7.81 8.43 12.6 8.43c3.1 0 6.07-1.12 8.8-3.47c6.94-6.07 8.8-18.2 3.97-27c-.248-.496-54.3-95.7-58.6-103h301l0 163c0 0-.124 .124-.124 .124H178V258zM38.2 38.1h101v106c-17.4-25-21.2-29-24.5-31.1c-10.7-6.69-22.8-7.19-34.3-1.49c-12.5 6.32-22.8 19.8-27.5 36c-3.84 13.4-3.72 27.3-.124 39.8H38.2V38.1zM126 181c-9.79 3.22-19.1 5.58-25.8 6.32h-8.06c-.248-.124-.496-.124-.744-.248c-8.43-3.97-12.6-15.6-9.67-26.2c1.61-5.83 5.58-10.8 10-13.1c1.24-.62 2.98-1.12 4.71-1.12c1.49 0 2.98 .372 4.46 1.24C102 149 108 154 126 181zM38.2 225h84.2c-4.34 7.69-58.4 103-58.6 104c-4.83 8.93-3.1 21 3.97 27c2.73 2.23 5.7 3.47 8.8 3.47c4.96 0 9.67-2.98 12.6-8.43c.248-.496 22.3-45.6 50.2-93.6v132H38.2V225zM613 117v275c0 66.3-53.9 120-120 120H121c-10.3 0-18.6-8.31-18.6-18.6s8.31-18.6 18.6-18.6h372c45.7 0 83.1-37.2 83.1-83.1V117c0-10.3 8.31-18.6 18.6-18.6S613 107 613 117z"/></svg>