<svg xmlns="http://www.w3.org/2000/svg" viewBox="0 0 640 512"><path d="M119 33.8L55.1 2.65c-7.9-3.1-17.5-.9-21.4 7.1-4 7.9-.9 17.5 7.1 21.4l64 31.1c2.3 1.1 4.7 1.8 7.2 1.8 7.4 0 13.9-5.1 15.6-12.4 1.7-7.1-1.8-14.6-8.5-17.9zm-7.1 253c-2.5 0-4.9 .6-7.1 1.8l-64 31.1c-8 3.9-11.1 13.5-7.2 21.4 4 7.1 13.6 11.1 21.5 7.2l64-31.1c6.6-3.4 10.1-10.9 8.5-17.1-1.8-7.3-8.3-13.3-15.7-13.3zM528 64.1c2.5 0 4.9-.6 7.1-1.8l64-31.1c8-3.9 11.1-13.5 7.1-21.4-3.9-7.1-13.5-11.1-21.4-7.1l-64 31.1c-6.6 3.2-10.1 10.8-8.5 17.9 1.8 7.3 8.3 12.4 15.7 12.4zM96 175c0-8-7.1-16-16-16H16c-8.9 0-16 7.1-16 15.1s7.1 16.9 16 16.9H80c8.9 0 16-6.2 16-16zm528-16h-64c-8.9 0-16 7.1-16 15.1s7.1 15.1 16 15.1h64c8.9 0 16-7.1 16-15.1s-7.1-15.1-16-15.1zm-24.9 163l-64-31.1c-7.9-3.1-17.5-.8-21.5 7.1-3.9 7.9-.8 17.5 7.2 21.5l64 31.1c7.9 3.9 17.5 .8 21.5-7.2 4-7.9 .8-17.5-7.2-21.4zM320 .05c-96.8 .3-176 79.9-176 177 0 42.9 15.5 84.3 43.6 117 13.3 15.3 35.8 49.6 43.7 76 1.1 8.7 8.8 14.6 17.6 13.7 8.7-1 15-9 14.1-17.6l-.6-3.3c-10.3-35-36-72.8-50.7-89.8-23-26.5-35.7-60.4-35.7-95.6 0-81.2 63.1-145 144-145h.5c38.1 0 74 14.9 101 41.9 27.6 27.5 42.8 64.2 42.8 103 0 35.2-12.7 69.1-35.7 95.6-14.8 16.9-40.4 54.8-50.8 89.8l-.6 3.3c-1 8.8 4.9 17.6 13.7 18.7 .8 .1 1.5 .2 2.3 .2 7.8 0 14.4-5.1 15.4-13.1 8.3-28.2 30.9-62.5 44.2-77.8 28-32.3 43.5-73.7 43.5-117 0-47.7-18.5-92.5-52.2-126C411 18.1 366-1.15 320 .05zm63.6 415h-127c-8.8 0-16 7.2-16 16l.1 22.3c0 6.3 1.9 12.5 5.4 17.7l17.1 25.7c5.2 7.9 17.2 14.3 26.6 14.3h61.7c9.4 0 21.4-6.4 26.6-14.3l17.1-25.7c3-4.4 5.4-12.4 5.4-17.7v-22.3c-.9-7.9-7.2-16-16.9-16zm-15.2 39.3l-16.1 24.5c-.5 .4-1.7 1.1-.9 1.1l-60.3 .1c-.4-.1-1.1-.3-1.4-.3-.1 0-.1-.2 0 0l-17.1-25.5v-6.4h95.9v5.2c-.1 .5-.3 1.3-.1 1.3 0 0-.1 .1 0 0zm-47.9-178s-83.7-48.6-83.7-98.3c0-24.7 20.1-44.8 44.8-44.8 16.1 0 30.9 8.6 38.9 22.5 12.3-21.5 39.7-28.9 61.1-16.6 13.9 7.98 22.5 22.8 22.5 38.9 0 49.7-83.7 98.3-83.7 98.3h0z"/></svg>