<svg xmlns="http://www.w3.org/2000/svg" viewBox="0 0 639 512"><path d="M239.632 453.499c.125 6.238 1.98 12.406 5.349 17.645l17.056 25.64c5.24 7.86 17.237 14.253 26.598 14.253h61.6c9.481 0 21.338-6.383 26.578-14.243l17.057-25.64c3.243-5.364 5.099-11.407 5.348-17.645v-38.285l-159.588.005.002 38.27zM318.877 0C217.076.25 143.72 81.925 143.72 174.743c0 42.537 15.37 83.597 43.435 115.575 16.588 18.833 42.278 58.116 52.139 91.301 0 .25.114.51.114.759h159.988c0-.249.083-.51.083-.759 9.856-33.185 35.54-72.468 52.138-91.301 28.065-31.938 43.435-72.998 43.435-115.575C495.033 78.451 415.988-.249 318.877.001zm.508 288.61s-98.807-57.408-98.807-116.083c.008-29.214 23.698-52.89 52.912-52.882a52.896 52.896 0 0145.895 26.623c14.51-25.356 46.829-34.147 72.184-19.637a52.896 52.896 0 0126.623 45.896c0 58.675-98.807 116.093-98.807 116.093v-.01zm-207.603-97c0-13.225-10.73-23.954-23.954-23.954H23.953C10.73 167.657 0 178.387 0 191.61s10.729 23.954 23.953 23.954h63.875c13.175 0 23.954-10.68 23.954-23.954zm503.017-23.954h-63.875c-13.224 0-23.953 10.73-23.953 23.953s10.729 23.954 23.953 23.954h63.875c13.224 0 23.953-10.73 23.953-23.954s-10.679-23.953-23.953-23.953zM130.844 55.127L75.453 23.189c-7.361-4.49-16.598-4.616-24.203-.374-7.485 4.367-12.106 12.356-12.106 20.96.124 8.732 4.865 16.716 12.355 20.838l55.392 31.933c7.36 4.491 16.598 4.616 24.203.374 7.485-4.366 12.096-12.356 12.096-20.959-.07-8.728-4.86-16.712-12.346-20.834zm456.409 263.535l-55.392-31.937c-7.36-4.492-16.587-4.616-24.203-.375-7.485 4.367-12.096 12.356-12.096 20.96.125 8.732 4.866 16.717 12.356 20.839l55.392 31.937c11.358 6.363 25.83 2.37 32.317-8.982 6.497-11.283 2.704-25.755-8.374-32.442zm-480.362-31.937L51.52 318.662c-7.485 4.117-12.226 12.107-12.355 20.84 0 8.608 4.615 16.597 12.106 20.959 7.61 4.241 16.837 4.117 24.203-.375l55.391-31.937c11.099-6.737 14.841-21.209 8.36-32.437-6.483-11.383-20.955-15.375-32.333-8.987zM519.984 99.79c4.117 0 8.234-1.123 11.977-3.244l55.272-31.938c11.228-6.736 14.851-21.208 8.359-32.436-6.488-11.348-20.96-15.35-32.317-8.983l-55.267 31.938c-9.482 5.364-13.973 16.468-11.228 26.947 2.844 10.48 12.326 17.716 23.204 17.716z"/></svg>