<svg xmlns="http://www.w3.org/2000/svg" viewBox="0 0 512 512"><path d="M256 0C397.4 0 512 114.6 512 256s-114.6 256-256 256S0 397.4 0 256S114.6 0 256 0zm0 480c16.7 0 40.4-14.4 61.9-57.3c9.9-19.8 18.2-44.6 23.2-70.7H170c5.9 26.1 14.2 50.9 24.1 70.7C215.6 465.6 239.3 480 256 480v0zM164.3 320H347.7c2.8-20.2 4.3-41.7 4.3-64s-1.5-43.8-4.3-64H164.3c-2.8 20.2-4.3 41.7-4.3 64s1.5 43.8 4.3 64v0zM341.1 160c-5-27-13.3-50.9-23.2-70.7C296.4 46.4 272.7 32 256 32s-40.4 14.4-61.9 57.3C184.2 109.1 175.9 133 170 160H341.1zm38 32c3.5 20.5 4.9 41.9 4.9 64s-1.4 43.5-4.9 64h91.6c6.1-20.3 9.3-41.8 9.3-64s-3.2-43.7-9.3-64H379.1zM327.5 43.7c21 28.3 37.6 68.7 47.2 116.3h83.7c-25.8-54.5-73.1-96.9-130.9-116.3v0zm-143 0C126.7 63.1 79.4 105.5 53.6 160h83.7c9.6-47.6 26.2-88 47.2-116.3v0zM32 256c0 22.2 3.2 43.7 9.3 64H132c-2.6-20.5-4-41.9-4-64s1.4-43.5 4-64H41.3c-6 20.3-9.3 41.8-9.3 64v0zm426.4 96H374.7c-9.6 47.6-26.2 88-47.2 116.3c57.8-19.4 105.1-61.8 130.9-116.3zm-321.1 0H53.6c25.9 54.5 73.1 96.9 130.9 116.3c-21-28.3-37.6-68.7-47.2-116.3v0z"/></svg>