<svg xmlns="http://www.w3.org/2000/svg" viewBox="0 0 492 512"><path d="M341 512c-.101 0-.202 0-.403 0H236c-47.1-.101-92.1-22.6-120-60.3l-18-24.1c-7.76-10.4-12.1-23.2-12.1-36.2v-45.2c.101-17.9 7.86-34.9 21.3-46.7l.504-.403l52.9-42.3L160 52.7C160 23.7 184 0 213 0s52.7 23.7 52.7 52.7v130c5.74-1.51 11.7-2.12 17.8-1.81c16 .706 30.7 7.66 41.6 19.5c1.71 1.81 3.33 3.83 4.74 5.85c5.74-3.93 12.3-6.75 19.3-8.57c15.6-3.83 31.7-1.41 45.5 6.85c9.47 5.64 17 13.8 22.1 23.4c9.27-2.32 19-2.52 28.6-.202c15.6 3.73 28.8 13.2 37.3 26.9c5.95 9.57 9.07 20.6 8.97 31.8v75.2c0 38.3-14.5 74.8-40.9 103c-25.9 27.4-60.9 44-98.5 46.9C349 512 345 512 341 512zM126 323c-6.75 6.05-10.7 14.7-10.7 23.8v45.1c0 6.45 2.12 12.9 6.05 18l18 24.1c22.7 30 58.7 48.1 96.4 48.2h105c1.91 0 3.93-.202 5.85-.605l1.11-.202l1.11-.101c63-4.33 112-56.7 112-119v-75.3c0-5.64-1.51-11.1-4.43-15.8c-8.67-14-27.1-18.3-41-9.68l-18.8 11.6l-4.03-21.8c-1.51-8.47-6.65-15.8-14-20.2c-6.85-4.13-14.9-5.34-22.6-3.43c-7.76 1.91-14.3 6.75-18.3 13.6l-20.7 34.4l-7.16-39.4c-1.01-5.54-3.53-10.6-7.36-14.8c-5.34-5.85-12.7-9.27-20.7-9.68c-7.96-.403-15.5 2.42-21.4 7.76l-25.3 23.2V52.7c0-12.4-10.1-22.5-22.5-22.5S191 40.3 191 52.7v279c0 8.37-7.66 15.1-15.9 15.1c0 0 0 0 0 0c-8.37 0-15.1-6.85-15.1-15.1l.101-36.3L126 323zM407 24.1l-21.4 21.4L427 86.7H283v30.2h144l-41.1 41.1l21.4 21.4l77.7-77.7L407 24.1zM141 86.7H57.9l41.1-41.1L77.8 24.1L.079 102l77.7 77.7l21.4-21.4L57.9 117h83.4V86.7z"/></svg>