<svg xmlns="http://www.w3.org/2000/svg" viewBox="0 0 487 512"><path d="M487 288v80c0 76.09-59.49 137.9-134.3 143-3.1.7-6.4 1-9.7 1H231c-45.09 0-88.16-21.53-115.2-57.61L96.61 428.8A47.97 47.97 0 0187 400v-48c0-14.58 6.625-28.38 17.1-37.48l29.99-23.99V336c0 8.836 7.162 16 16 16 8.836 0 16.01-7.161 16.01-15.1L167 40c0-22.09 17.9-40 40-40s40 17.91 40 40v164.5c8.5-7.7 19.7-12.5 32-12.5 23.48 0 42.96 16.88 47.11 39.17C334.5 217.3 349.6 208 367 208c23.47 0 42.94 16.87 47.11 39.14C421.4 242.7 429.9 240 439 240c26.5 0 48 21.5 48 48zm0-184l-89.095-69.095V79h-121v50h121v44.095L487 104zM0 104l89.095 69.095V129h51V79h-51V34.905L0 104z"/></svg>