<svg xmlns="http://www.w3.org/2000/svg" viewBox="0 0 576 512"><path d="M298.7 97.6L257 143.7 213.5 97.9C173.6 57.4 110 52.6 70.7 86.8l-.2 .2c-48.7 41.7-51.1 116.3-7.8 161.2l0 0L256.4 447.9c.1 0 .2-.1 .3-.2l12.4-12.9c4.3 10.5 9.6 20.5 15.8 29.8l-5.5 5.7c-13 12.9-33.9 12.9-45.9 0L39.7 270.5c-55.9-58-52.9-153.9 10-207.8c53.1-46.3 134.4-38.2 184.6 10.8c.7 .7 1.4 1.5 2.2 2.2l19.9 21 19-21c.9-.9 1.8-1.8 2.7-2.7c50.2-48.6 130.2-56.4 185.1-10.3c42.9 37.4 57.5 94.9 43.8 146c-9.6-4.5-19.7-8.2-30.2-10.9c9.5-39-2-82.5-34.4-110.8C400.9 52.3 338.2 57.7 298.7 97.6v0zM448 351.1h48c8.8 0 16 8.1 16 16c0 9.7-7.2 16-16 16H448v48c0 9.7-7.2 16-16 16s-16-6.3-16-16v-48H368c-8.8 0-16-6.3-16-16c0-7.9 7.2-16 16-16h48v-48c0-7.9 7.2-16 16-16s16 8.1 16 16v48zM576 368c0 79.5-64.5 144-144 144s-144-64.5-144-144s64.5-144 144-144s144 64.5 144 144zM432 256c-61.9 0-112 50.1-112 112s50.1 112 112 112s112-50.1 112-112s-50.1-112-112-112z"/></svg>