<svg xmlns="http://www.w3.org/2000/svg" viewBox="0 0 488 512"><path d="M485 211c-4.92 8.43-15.7 11.2-24.1 6.32c0 0 0 0 0 0l-13.9-8.03l2.91 11.1c1.91 7.03-2.31 14.3-9.34 16.2c0 0 0 0 0 0c-1.1 .301-2.21 .402-3.41 .402c-6.02 0-11.2-4.02-12.7-9.84l-9.74-36.8l-32.9-19.3v38.8l26.6 26.9c5.12 5.22 5.12 13.6-.1 18.7c-5.22 5.12-13.6 5.12-18.7-.1l-7.83-7.93V264c-.201 9.74-8.33 17.5-18.1 17.2c-9.44-.201-17-7.83-17.2-17.2v-16.3l-7.83 7.93c-5.12 5.22-13.5 5.22-18.7 .1c-5.22-5.12-5.22-13.5-.1-18.7l0 0l26.6-26.9l-.502-38.8L313 191l-9.74 36.8c-1.51 5.82-6.73 9.84-12.7 9.84c-1.1 0-2.31-.1-3.41-.402c-7.03-1.91-11.2-9.14-9.44-16.2l2.91-11.1l-13.8 8.03c-2.51 1.61-5.42 2.51-8.43 2.41c-9.74 0-17.6-7.83-17.6-17.6c0-6.22 3.31-12 8.73-15.2l14.3-8.33l-11.1-3.11c-7.13-1.71-11.4-8.93-9.64-16s8.93-11.4 16-9.64c.201 .1 .402 .1 .602 .201l36.2 9.84l33.2-19.5l-33.2-19.5l-36.2 9.94c-6.93 2.21-14.4-1.71-16.6-8.63c-2.21-6.93 1.71-14.4 8.63-16.6c.301-.1 .703-.201 1-.301l11.1-3.11L250 94.4c-8.43-4.82-11.3-15.6-6.53-24s15.6-11.3 24-6.53c.1 0 .1 .1 .201 .1l13.9 8.03l-2.91-11.1c-1.81-6.93 2.11-14.1 8.93-16.2c7.63-1.91 14.4 2.31 16.7 9.34l9.74 36.8l32.4 19.3V71.4l-26.1-26.9c-5.12-5.22-5.12-13.6 .1-18.7c5.22-5.12 13.6-5.12 18.7 .1l0 0l7.83 7.93l-.502-16.3c.201-9.74 8.33-17.5 18.1-17.2c9.44 .201 17 7.83 17.2 17.2v16.3l7.83-7.93c5.12-5.22 13.5-5.22 18.7-.1s5.22 13.5 .1 18.7l0 0l-26.6 26.9l.502 38.8l32.9-19.2l9.74-36.8c1.91-7.03 9.14-11.2 16.2-9.44c7.03 1.91 11.2 9.14 9.44 16.2l0 0l-2.91 11.1l13.8-8.03c8.43-4.92 19.2-2.11 24.1 6.32c4.92 8.43 2.11 19.2-6.32 24.1l-14.4 8.33l11.1 3.11c7.03 1.91 11.1 9.14 9.24 16.2c-1.61 5.72-6.73 9.74-12.7 9.74c-1.2 0-2.31-.201-3.51-.502l-36.7-9.84l-32.7 19.5l33.2 19.4l36.2-9.84c7.03-1.91 14.3 2.21 16.2 9.24c1.91 7.03-2.21 14.3-9.24 16.2l-11.1 3.11l14.3 8.33C487 192 490 203 485 211zM106 38.8c20.2 21.1 38.1 44.8 51.7 68c14.9 25.4 23.8 49.7 23.8 65c0 25.4-7.23 46.1-20.8 59.8c-13 13.2-31.9 20.1-54.7 20.1c-22.8 0-41.7-6.93-54.7-20.1C37.4 218 30.2 197 30.2 172c0-15.2 8.83-39.5 23.7-64.9C67.4 83.5 85.5 59.9 106 38.8M106 0c-2.21 0-4.42 .803-6.12 2.41C41 57.5 .047 129 .047 172c0 69.3 43.5 110 106 110S211 241 211 172c0-43-41.3-114-99.5-169C110 .803 108 0 106 0L106 0zM106 147c21.7 27.5 22.7 40 22.7 40.1v0l0 0c0 6.02-1.71 10.8-5.12 14.3c-3.92 3.92-10.1 6.02-17.6 6.02c-6.83 0-22.7-2.01-22.7-20.4C83 187 83.6 175 106 147M106 106c-2.41 0-4.82 .904-6.63 2.81c-43.9 48.2-46.2 71.8-46.2 78.7c0 29.7 21.7 50.5 52.8 50.5h0c31.1 0 52.8-20.8 52.7-50.4c0-6.93-2.31-30.5-46.2-78.7c-.1-.1-.201-.201-.301-.301C110 107 108 106 106 106L106 106zM434 284l-83.8 18.3l2.41 10.8c-.201 0-.402 0-.602 0c-2.31 0-4.52-.803-6.32-2.11l-9.74-8.23c-6.32-5.12-14-8.33-22.1-9.24l-63.1-6.83h-1c-3.71 0-6.43 .201-8.43 .502c-13.5 2.31-23.8 12.1-27.6 16.3l-3.11 3.31l-.904-.402c-3.61-1.41-7.43-2.11-11.2-2.11c-1.51 0-2.91 .1-4.42 .301h-.301l-30.5 6.12l-.602 .1c-.402 .1-.703 .1-1.1 .1c-.201 0-.402 0-.602-.1l.602-1.31l-80-32.1l-50.2 135l55.1 19l-.201 .602l21.1 7.93c2.31 10.2 9.44 18.9 18.9 23.1c4.22 1.91 8.73 2.91 13.4 2.91c.904 0 1.71 0 2.51-.1c.904 1.61 1.91 3.11 3.01 4.52c5.52 7.03 13.4 11.5 22.2 12.6c1.41 .201 2.81 .301 4.22 .301c2.91 0 5.72-.402 8.53-1.1c6.12 7.73 15.7 12.4 25.8 12.4c.602 0 1.1 0 1.71 0c2.11-.1 4.22-.402 6.22-.904c3.11 3.71 7.03 6.73 11.5 8.63l.301 .1c3.81 1.61 7.93 2.41 12 2.41c5.92 0 11.6-1.61 16.6-4.72l21.8 8.93c3.71 1.61 7.63 2.41 11.6 2.41c3.92 0 7.73-.803 11.2-2.21c7.23-2.91 13.2-8.73 16.2-16l.1-.201c1.1-2.51 1.81-5.12 2.11-7.83c8.83-3.01 16.2-9.84 19.7-18.9l59.2-18.4l64.5-12.7L434 284zM90.5 403l-23.1-7.93L97.4 315l26.3 10.5L90.5 403zM151 438l-.803 1.91l-.1 .301l-.1 .201c-.1 .201-.201 .301-.301 .502c0 .1-.1 .1-.1 .1c-.904 1.2-2.01 2.31-3.21 3.11c-.502 .301-1 .602-1.61 .904c-.402 .201-.703 .402-1.1 .502c-3.11 1.2-6.63 1.2-9.64-.201c-3.41-1.51-5.92-4.32-7.13-7.73c-.201-.502-.402-1.1-.502-1.71c-.301-1.51-.402-3.11-.201-4.72c0-.201 .1-.402 .1-.602l.1-.602c.1-.703 .402-1.41 .602-2.01c0-.1 .1-.201 .1-.201l.703-1.71l7.33-17.1l.1-.1c1.31-3.31 3.92-5.92 7.13-7.33c3.21-1.31 6.73-1.31 9.94 0c3.31 1.31 5.92 3.92 7.33 7.13c1 2.41 1.31 5.02 .703 7.63c-.1 .402-.201 .904-.301 1.31l-7.93 18.3L151 438zM185 451l-.803 1.91l-.201 .402l-.1 .1l-.201 .502l-.502 1.2v.1c-.402 .904-.803 1.71-1.41 2.51c-.301 .502-.703 .904-1.1 1.31c-1.2 1.31-2.71 2.41-4.42 3.11c-2.11 .904-4.52 1.2-6.83 .904c-6.83-.904-11.7-6.73-11.7-13.5c0-.502 0-1.1 .1-1.61c.1-1 .402-2.01 .803-3.01c.1-.201 .1-.301 .201-.502l.301-.703v-.1l.201-.502l.201-.502l.803-1.91l.904-2.01l7.93-18.5l.703-1.61l3.81-8.73c.201-.402 .301-.803 .502-1.2c3.21-6.63 11.2-9.34 17.8-6.02c6.63 3.21 9.34 11.2 6.02 17.8l-2.61 6.12l-.803 2.01l-.1 .201l-8.63 19.8L185 451zM219 463l-.904 2.01l-.803 1.91l-.1 .201c-.1 .1-.1 .1-.201 .301c-.1 .201-.201 .402-.301 .502c-.703 1.31-1.61 2.51-2.71 3.51c-.502 .502-1.1 .904-1.61 1.31c-1.91 1.31-4.22 2.01-6.53 2.21c-6.53 .301-12.2-4.22-13.5-10.4c-.1-.602-.201-1.31-.301-1.91c-.1-1.51 .1-3.01 .502-4.42c.1-.201 .1-.402 .201-.602c0 0 0 0 0 0c.1-.201 .1-.301 .201-.502c.1-.201 .1-.402 .201-.602l.602-1.41l.904-2.01l7.93-18.7l.402-1v-.1c.201-.502 .502-1 .803-1.41c1.61-2.51 4.02-4.42 6.93-5.42c3.21-1.1 6.73-.803 9.74 .703l0 0c6.22 3.01 9.04 10.3 6.63 16.8L219 463zM255 462l-5.72 13.2l-.803 2.01l-.602 1.41l-.301 .602c-.1 .201-.201 .301-.301 .502l-.301 .502c-1.41 2.11-3.41 3.51-5.62 4.32c-2.61 .904-5.52 .904-8.23-.201c-2.51-1.1-4.42-3.01-5.62-5.52c-.1-.201-.201-.402-.301-.602c-.201-.502-.402-1.1-.502-1.71c-.301-1.51-.301-3.11 0-4.62c0-.201 .1-.402 .201-.602c.1-.201 .1-.301 .201-.602c.1-.301 .201-.502 .301-.803l.502-1.1l.803-2.01l5.92-13.6c2.71-5.52 9.34-7.83 14.9-5.12v0C254 451 257 457 255 462zM289 387c-2.41-.703-5.02 .703-5.72 3.21c-.602 2.31 .602 4.82 2.91 5.62l2.01 .803l28.6 11.6l18.1 7.33c2.01 .904 3.71 2.21 5.02 3.92l.803 1.61c.201 .402 .502 .904 .602 1.41c1.2 3.01 1.1 6.43-.201 9.44c-.703 1.61-1.71 2.91-2.91 4.12l.1 .201c-3.41 3.21-8.43 4.42-13.1 2.71l-7.73-3.21c-.703-.402-1.51-.803-2.21-1.1l-8.23-3.41l-11.2-4.62l-17.4-7.13c-.502-.201-1-.301-1.51-.301c-2.31-.201-4.32 1.41-4.82 3.61c-.402 2.21 .803 4.42 2.91 5.32h.1l14.2 5.82l6.12 2.51c.301 .301 .703 .502 1.1 .602l6.83 2.81l9.94 4.12c2.21 1.41 4.02 3.51 4.92 5.92c.1 .301 .201 .502 .301 .803c.904 2.71 .803 5.62-.201 8.23c-2.41 6.53-9.74 9.94-16.3 7.53l-5.42-2.21c-.703-.402-1.51-.803-2.21-1.1c-.301-.1-.602-.201-.904-.201h-.201l-20-8.23c-.602-.301-1.31-.402-2.01-.301c-1.81 .1-3.31 1.2-4.02 2.91c-1 2.31 .201 5.02 2.51 6.02l22.8 9.34c1.81 1.1 3.21 2.81 4.02 4.82c1.1 2.51 1.1 5.32 0 7.83l-.1 .1c-1 2.61-3.11 4.62-5.62 5.72c-2.51 1.1-5.42 1-7.93-.1l-25.7-10.5l6.43-15l.1-.301c4.12-10.2-1.51-23.3-10.6-26.6c-9.14-3.41-14.2-1.41-14.2-1.41c-.402 .1-.803 .201-1.1 .301c-.402-8.23-5.22-15.8-13.1-19.7l-3.61-1.71l-.602 .201c-1.91-.502-3.92-.803-5.92-.803c-2.01 0-3.92 .301-5.82 .803c.201-3.01-.201-6.02-1.2-8.93c-2.01-5.82-6.12-10.6-11.7-13.4c-3.21-1.61-6.73-2.41-10.2-2.41c-7.53 0-14.5 3.61-18.8 9.54c-2.61-4.22-6.53-7.63-11.1-9.54c-2.81-1.2-5.72-1.71-8.73-1.71c-3.01 0-6.02 .602-8.83 1.81c-5.62 2.31-10.1 6.93-12.4 12.5l-7.33 17.1l-.803 1.91l-.1 .201c0 0 0 0 0 .1l-6.22-2.51l39.7-93.2l.703 .201c4.72 2.01 9.94 2.41 14.9 1.2l28.6-5.72h.1c2.31-.502 4.72-.402 6.93 .502l3.81 1.61l-2.71 3.01c-.502 .502-.904 1-1.2 1.61l-6.12 6.73c0 0-.1 .1-.1 .1c-1.41 1.61-1.2 4.02 .402 5.42l.602 .502c.1 .1 3.01 2.51 8.03 5.02c.904 .703 1.81 1.2 2.71 1.71c5.62 2.51 11.6 3.81 17.8 3.81c7.03 0 14-1.71 20.1-4.92c1.61-.803 3.21-1.71 4.62-2.71l.1-.1c0 0 0 0 0 0l.201-.1l.602-.402c.402-.201 .703-.402 1.1-.502l18.3 7.43l10.9 4.42l0 .1l67.2 27.3l.402 .201l.602 .201l.1 0c5.82 3.21 8.23 11 5.12 16.9c-1.71 3.11-4.62 5.32-8.03 6.12L344 409c-1.91 .1-3.81-.301-5.72-1.1l-17.4-7.13c-.402-.201-.904-.301-1.41-.301l-30.5-12.4h0C289 388 289 388 289 387zM345 443c2.21-2.21 4.02-4.92 5.22-8.03c1.91-5.02 1.81-10.6-.1-15.7c-.301-.703-.602-1.51-1-2.21c5.92-1.41 11.1-5.32 14.2-10.7l.1-.201c2.71-5.12 3.31-11.2 1.51-16.8c-1.71-5.62-5.42-10.2-10.5-13.1l-.502-.301l-.904-.402l-.301-.1l-67-27.2l4.72 .703c2.51 .301 4.82-1.41 5.22-3.92c.301-2.51-1.41-4.82-3.92-5.22c0 0-2.31-.301-6.63-1c-5.22-.703-13.6-2.01-24.4-3.81c-2.51-.502-5.12-.502-7.63-.1l-.904-.402l-3.61 1.51c-1.1 .502-2.31 1-3.31 1.71l-.301 .201c-5.62 3.92-12.2 5.92-19 6.02c-6.22 0-11.6-1.81-15.7-3.71c-1-1.2-1.31-2.81-.602-4.22l12.5-13.8l-.201-.1l5.52-6.02c4.32-4.72 10.7-9.24 16.6-10.2c1.31-.201 5.22-.201 5.22-.201l62.1 6.73c4.42 .502 8.53 2.21 11.9 5.02l9.64 8.13c5.82 4.72 13.4 7.03 20.8 6.43l7.43-.703l21.8 100L345 443zM404 418l-20.5-94l27.4-6.02l16.6 95.3L404 418z"/></svg>