<svg xmlns="http://www.w3.org/2000/svg" viewBox="0 0 514 512"><path d="M510 222c-5.12 8.83-16.5 11.8-25.3 6.63l-14.5-8.43l3.11 11.7c2.01 7.43-2.41 15-9.84 17c0 0 0 0 0 0c-1.2 .301-2.41 .502-3.51 .502c-6.32 0-11.7-4.22-13.5-10.3l-10.2-38.7l-34.6-20.2v40.8l28 28.3c5.42 5.42 5.32 14.3-.1 19.7c-5.42 5.42-14.3 5.32-19.7-.1l-8.23-8.23v17.1c-.201 10.2-8.73 18.3-19 18.1c-9.84-.201-17.9-8.23-18.1-18.1v-17.1l-8.23 8.33c-5.52 5.32-14.3 5.22-19.7-.201c-5.22-5.32-5.22-13.9-.1-19.3l28-28.3l-.502-40.8L330 200l-10.2 38.7c-1.61 6.12-7.13 10.3-13.5 10.3c-1.2 0-2.41-.201-3.51-.502c-7.43-2.01-11.8-9.54-9.84-17l3.11-11.7l-14.6 8.43c-2.61 1.71-5.72 2.61-8.83 2.51c-10.2 0-18.5-8.23-18.5-18.5c0-6.53 3.51-12.6 9.14-16l15-8.73l-11.7-3.21c-7.43-2.01-11.7-9.64-9.74-17.1c2.01-7.43 9.64-11.7 17.1-9.74l38.1 10.3l34.9-20.5L312 127l-38.1 10.3c-7.43 2.01-15-2.31-17-9.74c-2.01-7.43 2.31-15 9.74-17l0 0l11.7-3.21l-15-8.73c-8.83-5.12-11.7-16.5-6.63-25.3c5.12-8.83 16.5-11.7 25.3-6.63l0 0l14.5 8.43l-3.11-11.7c-1.91-7.23 2.21-14.8 9.34-17c8.03-2.01 15.1 2.41 17.6 9.84l10.2 38.7l34 20.2V75l-27.5-28.3c-5.42-5.42-5.32-14.3 .1-19.7c5.42-5.42 14.3-5.32 19.7 .1l8.23 8.23l-.502-17.1c.201-10.2 8.73-18.3 19-18.1c9.84 .201 17.9 8.23 18.1 18.1v17.1l8.23-8.33c5.52-5.32 14.3-5.22 19.7 .201c5.22 5.32 5.22 13.9 .1 19.3l-28 28.3l.502 40.8l34.6-20.2l10.2-38.7c2.21-7.33 9.84-11.5 17.3-9.44c7.13 2.11 11.3 9.34 9.64 16.6l-3.11 11.7l14.6-8.43c8.83-5.22 20.2-2.31 25.4 6.43c5.22 8.83 2.31 20.2-6.43 25.4c-.1 0-.201 .1-.201 .1l-15 8.73l11.7 3.21c7.43 2.01 11.7 9.64 9.74 17.1c-1.61 6.02-7.13 10.2-13.4 10.2c-1.2 0-2.41-.201-3.61-.502l-38.7-10.3L420 148l34.9 20.4l38.1-10.3c7.33-2.21 15.1 2.01 17.3 9.34c2.21 7.33-2.01 15.1-9.34 17.3c-.201 .1-.502 .1-.703 .201l-11.7 3.21l15 8.73C512 202 515 213 510 222zM111 38.6c21.7 22.6 41.2 48 55.7 72.9c16.1 27.4 25.2 52.5 25.2 69c0 27.1-7.73 49.2-22.3 63.9c-14 14.2-34.2 21.6-58.6 21.6c-24.4 0-44.7-7.43-58.6-21.6C38.3 229 30.6 207 30.6 180c0-16.5 9.14-41.6 25.1-68.9C70.3 86.5 89.7 61.1 111 38.6M112 0c-2.31 0-4.62 .803-6.43 2.51C43.6 60.4 .498 135 .498 180c0 72.8 45.7 116 111 116s111-42.8 111-116c0-45.2-43.4-120-105-178C116 .803 114 0 112 0L112 0zM112 152c24.6 30.8 25.4 44.4 25.4 44.6c0 6.83-2.01 12.2-5.82 16.1c-4.32 4.32-11.2 6.73-19.5 6.73c-7.63 0-25.4-2.21-25.4-22.9C86.1 197 86.9 183 112 152M111 111c-2.51 0-5.12 1-7.03 3.01c-46 50.7-48.4 75.5-48.4 82.7c0 31.2 22.8 53 55.5 53c32.6 0 55.4-21.8 55.4-53c0-7.23-2.41-32-48.5-82.7c-.1-.1-.201-.201-.301-.301C116 112 114 111 111 111L111 111zM391 511c-21.2 0-42.3-6.53-60.2-19.4c-10.9-7.93-20.3-17.9-27.4-29.2H63.9c-14.7-.1-28.3-5.72-38.8-16l-.301-.301c-9.94-10.2-15.3-24.3-14.9-38.6c.1-30.1 24.6-54.6 54.7-54.6h240c7.13-11.3 16.5-21.2 27.6-28.7c33.5-24 78.1-25.8 113-4.52c14.9 9.04 27.1 21 35.4 34.5l2.21 3.61v41.4H420l-9.54 7.43l9.44 7.43h63v44.1l-2.21 3.61c-8.43 13.9-21.6 26.1-37 34.4C428 507 409 511 391 511zM312 433h9.24l4.22 8.23c5.32 10.5 13.3 19.8 22.8 26.7c23.8 17.1 55.3 18.4 80.4 3.21l.602-.402c9.64-5.22 17.9-12.3 23.7-20.4V445h-43.4l-48-37.5l48.1-37.5h43.3v-2.51c-5.72-8.13-13.8-15.5-23.2-21.2c-25.1-15.1-56.7-13.9-80.5 3.31l-.402 .301c-9.54 6.43-17.3 15.3-22.3 25.5l-4.12 8.43H64.8c-13.6 0-24.6 11.1-24.6 24.7l0 .301l0 .301c-.201 6.12 2.01 12.1 6.22 16.6c4.72 4.62 10.9 7.13 17.6 7.13H312z"/></svg>