<svg xmlns="http://www.w3.org/2000/svg" viewBox="0 0 401 512"><path d="M211 421v78.9c.205 6.26-4.72 11.5-11.1 11.7s-11.5-4.72-11.7-11.1c0-.205 0-.41 0-.718v-78.9c-.205-6.26 4.72-11.5 11.1-11.7s11.5 4.72 11.7 11.1C211 420 211 421 211 421zM66.5 387L3.7 450c-4.41 4.41-4.41 11.7 0 16.1s11.7 4.41 16.1 0l0 0l62.9-62.9c4.41-4.41 4.41-11.7 0-16.1C78.2 383 70.9 383 66.5 387zM396 451L333 388c-4.41-4.41-11.7-4.41-16.1 0s-4.41 11.7 0 16.1l0 0l63 63c4.41 4.41 11.7 4.41 16.1 0S401 455 396 451zM367 310c-.923-16.1-9.23-31.8-24.1-45.2L343 265c-5.34-4.82-9.54-10.9-12.2-17.6c-11.3-30.1-35.7-55.2-67.7-69.7V100C263 72.5 243 49.5 216 45.4V15.4c0-8.52-6.87-15.4-15.4-15.4s-15.4 6.87-15.4 15.4v30.1c-26.4 4.31-46.8 27.3-46.9 54.9V178c-32 14.4-56.5 39.5-67.7 69.7c-2.57 6.77-6.77 12.8-12.2 17.6l-.103 .103c-14.7 13.4-23 29-24 45.1l-.103 1.44l2.05 16.4l.41 1.33c13.5 44 82.6 76 164 76s151-32 164-76l.41-1.23l2.05-16.4L367 310zM201 375c-63.2 0-112-21.1-129-43.8h258C313 353 264 375 201 375zM68.9 300c2.77-4.82 6.67-9.03 10.1-12.2c9.03-8.11 16-18.3 20.4-29.6v-.103c8.93-23.8 29.3-43.6 56.2-54.4l13.5-5.44V100c.103-13.6 11.2-24.8 24.8-24.9h13.6c13.6 .103 24.8 11.2 24.8 24.8v97.9l13.5 5.44c26.8 10.7 47.3 30.5 56.1 54.4l.103 .103c4.31 11.3 11.4 21.5 20.3 29.6c3.49 3.18 7.28 7.28 10.2 12.2H68.9z"/></svg>