<svg xmlns="http://www.w3.org/2000/svg" viewBox="0 0 399 512"><path d="M210 421v78.6c.204 6.23-4.7 11.4-11 11.7s-11.4-4.7-11.7-11c0-.204 0-.409 0-.715v-78.6c-.204-6.23 4.7-11.4 11-11.7s11.4 4.7 11.7 11C210 420 210 421 210 421zM66 387L3.49 450c-4.39 4.39-4.39 11.7 0 16s11.7 4.39 16 0l0 0l62.6-62.6c4.39-4.39 4.39-11.7 0-16C77.7 383 70.4 383 66 387zM394 451l-62.7-62.7c-4.39-4.39-11.7-4.39-16 0s-4.39 11.7 0 16l0 0l62.7 62.7c4.39 4.39 11.7 4.39 16 0S399 455 394 451zM207 49.3c5.31 0 10.5 .818 15.5 2.35V15.2c0-8.38-6.74-15.2-15.2-15.2l0 0h-14.4c-8.38 0-15.2 6.85-15.2 15.2l0 0v36.5c5.01-1.64 10.2-2.35 15.5-2.35L207 49.3L207 49.3zM331 277L331 277c-7.26-6.44-12.8-14.5-16.2-23.6c-10.3-27.8-33.8-50.7-64.6-63.1l-3.88-1.53V102c-.102-22.1-18-40-40.1-40.1h-13.8c-22.1 .102-40 18-40.1 40.1v87.2l-3.88 1.53c-30.8 12.3-54.3 35.3-64.6 63.1c-3.47 8.99-8.99 17.1-16.2 23.6c-11.8 10.6-18.3 22.6-19 34.6h301C350 299 343 287 331 277zM200 390c74.1 0 138-28.4 149-64.9H50.9C62.1 362 126 390 200 390z"/></svg>