<svg xmlns="http://www.w3.org/2000/svg" viewBox="0 0 491 512"><path d="M488 213c-4.95 8.48-15.8 11.3-24.2 6.36c0 0 0 0 0 0l-13.9-8.08l2.93 11.2c1.92 7.07-2.32 14.3-9.39 16.3c0 0 0 0 0 0c-1.11 .303-2.22 .404-3.43 .404c-6.06 0-11.3-4.04-12.8-9.9l-9.8-37.1l-33.1-19.4v39l26.8 27.1c5.15 5.25 5.15 13.6-.101 18.8c-5.25 5.15-13.6 5.15-18.8-.101l-7.88-7.98V266c-.202 9.8-8.38 17.6-18.2 17.3c-9.49-.202-17.1-7.88-17.3-17.3v-16.4l-7.88 7.98c-5.15 5.25-13.5 5.25-18.8 .101c-5.25-5.15-5.25-13.5-.101-18.8l0 0l26.8-27.1l-.505-39L315 192l-9.8 37.1c-1.51 5.86-6.77 9.9-12.8 9.9c-1.11 0-2.32-.101-3.43-.404c-7.07-1.92-11.3-9.19-9.49-16.3l2.93-11.2l-13.8 8.08c-2.52 1.62-5.45 2.52-8.48 2.42c-9.8 0-17.7-7.88-17.7-17.7c0-6.26 3.33-12.1 8.79-15.2l14.3-8.38l-11.2-3.13c-7.17-1.72-11.5-8.99-9.69-16.1c1.72-7.17 8.99-11.5 16.1-9.69c.202 .101 .404 .101 .606 .202l36.5 9.9l33.4-19.6l-33.4-19.6l-36.5 10c-6.97 2.22-14.4-1.72-16.7-8.68c-2.22-6.97 1.72-14.4 8.68-16.7c.303-.101 .707-.202 1.01-.303l11.2-3.13L251 94.9c-8.48-4.85-11.4-15.7-6.56-24.1c4.85-8.48 15.7-11.4 24.1-6.56c.101 0 .101 .101 .202 .101l13.9 8.08l-2.93-11.2c-1.82-6.97 2.12-14.1 8.99-16.3c7.67-1.92 14.4 2.32 16.8 9.39l9.8 37.1l32.6 19.4V71.8l-26.3-27.1c-5.15-5.25-5.15-13.6 .101-18.8s13.6-5.15 18.8 .101l0 0l7.88 7.98l-.505-16.4c.202-9.8 8.38-17.6 18.2-17.3c9.49 .202 17.1 7.88 17.3 17.3v16.4l7.88-7.98c5.15-5.25 13.5-5.25 18.8-.101c5.25 5.15 5.25 13.5 .101 18.8l0 0l-26.8 27.1l.505 39l33.1-19.3l9.8-37.1c1.92-7.07 9.19-11.3 16.3-9.49c7.07 1.92 11.3 9.19 9.49 16.3l0 0l-2.93 11.2l13.8-8.08c8.48-4.95 19.3-2.12 24.2 6.36c4.95 8.48 2.12 19.3-6.36 24.2l-14.4 8.38l11.2 3.13c7.07 1.92 11.2 9.19 9.29 16.3c-1.62 5.76-6.77 9.8-12.8 9.8c-1.21 0-2.32-.202-3.53-.505l-37-9.9l-32.9 19.6l33.4 19.5l36.5-9.9c7.07-1.92 14.3 2.22 16.3 9.29c1.92 7.07-2.22 14.3-9.29 16.3l-11.2 3.13l14.3 8.38C490 193 493 204 488 213zM113 2.42c-3.43-3.23-8.79-3.23-12.3 0C41.3 57.9 .104 130 .104 173c0 69.7 43.7 111 106 111S213 242 213 173C213 129 171 57.7 113 2.42zM106 239c-31.3 0-53.1-20.9-53.1-50.8c0-6.87 2.32-30.6 46.5-79.2c3.53-3.74 9.39-3.84 13.1-.303c.101 .101 .202 .202 .303 .303c44.1 48.5 46.5 72.2 46.5 79.2C159 218 138 239 106 239L106 239zM138 327c.202-.606 .606-1.11 1.01-1.62l3.03-7.07l-63.6-25.5l-45.7 129l56.7 20.3l48.4-114C138 328 138 328 138 327L138 327zM363 340c-8.08 .606-16.1-1.82-22.3-6.87l-10.4-8.68c-3.64-2.93-8.08-4.85-12.8-5.35l-66.7-7.17c0 0-4.14 0-5.55 .303c-6.16 1.01-13.1 5.96-17.8 10.9l-6.06 6.56L218 333l-.404 .505l-.404 .505l-2.83 3.13l-5.35 5.86c-1.51 1.72-1.41 4.24 .303 5.86c.303 .303 .707 .505 1.11 .707c10.2 4.54 21.9 4.24 31.8-1.01c1.41-.707 2.83-1.51 4.14-2.42l.202-.101c.202-.101 .404-.303 .606-.404l.606-.404c2.02-1.11 4.24-1.92 6.46-2.42c2.83-.606 5.76-.606 8.58 0c11.7 1.92 20.6 3.33 26.2 4.14c4.54 .707 6.97 1.01 7.07 1.01c2.73 .404 4.65 2.83 4.24 5.55c-.404 2.73-2.83 4.65-5.55 4.24l-5.66-.808l72.6 29.5l.303 .101c.505 .202 1.01 .404 1.41 .707c11.1 6.06 15.6 20.6 9.49 31.6c-3.13 5.96-8.79 10.2-15.3 11.6c.404 .808 .808 1.62 1.11 2.52c2.22 5.76 2.12 12.2-.303 17.9c-1.31 2.93-3.13 5.45-5.45 7.67l41.3-12.5l-23.4-107L363 340zM294 399l32.7 13.3c.505 0 1.01 .101 1.51 .303l18.6 7.67c6.46 2.93 14.1 .404 17.7-5.86c1.72-3.13 2.02-6.87 .909-10.2c-1.01-3.43-3.33-6.36-6.56-8.08l-.202-.101c-.303-.101-.707-.303-1.11-.505l-83.6-34l-19.9-8.08c-.707 .303-1.31 .606-2.02 1.01c-7.67 5.25-16.8 8.18-26.1 8.28c-18 0-31-10.9-31.1-11l-.606-.606c-1.72-1.51-1.92-4.04-.404-5.86c0 0 .101-.101 .101-.101l11-12l-4.24-1.72c-2.32-.909-4.95-1.11-7.37-.505H193l-30.7 6.16c-5.35 1.21-10.9 .808-16-1.31l-.707-.303l-42.4 99.8l11.8 4.85l7.47-17.4c2.32-5.76 6.87-10.4 12.6-12.8c5.66-2.42 12-2.42 17.7-.101c4.85 1.92 8.89 5.45 11.5 10c6.46-8.48 17.9-11.6 27.9-7.67l.202 .101c8.79 4.04 14.3 13 13.8 22.6c5.55-1.72 11.5-1.21 16.7 1.41c7.67 3.84 12.6 11.5 13 20c5.15-1.62 10.6-1.31 15.6 1.01c10.1 4.65 14.8 16.5 10.7 26.8l-.101 .202l-5.76 13.3l1.31 .505l29.4 12c2.73 1.21 5.76 1.21 8.48 .101c2.73-1.11 4.95-3.33 6.06-6.06l.101-.101c1.11-2.73 1.11-5.76 0-8.38c-.909-2.12-2.42-3.94-4.34-5.15l-24.4-10.1c-2.52-1.01-3.74-3.94-2.73-6.46c.707-1.82 2.42-2.93 4.34-3.03c.707 0 1.51 .101 2.12 .303l21.4 8.79h.202c.303 .101 .606 .101 .909 .303c.808 .303 1.62 .707 2.42 1.21l5.76 2.32c7.07 2.63 14.8-1.01 17.4-7.98c1.01-2.83 1.11-5.96 .202-8.79c-.101-.303-.202-.606-.303-.909c-1.01-2.63-2.83-4.85-5.25-6.36l-10.7-4.44l-7.37-3.03c-.404-.202-.808-.404-1.11-.707l-6.56-2.73l-15.2-6.26h-.101c-2.22-.909-3.53-3.33-3.13-5.66c.505-2.42 2.73-4.04 5.15-3.84c.505 0 1.11 .101 1.62 .303l18.6 7.67l12 4.95l8.79 3.64c.808 .404 1.62 .808 2.42 1.21l8.38 3.43c7.07 2.63 14.8-1.01 17.5-8.08c1.11-3.13 1.11-6.56-.101-9.59c-1.21-3.33-3.84-5.96-7.07-7.37l-19.4-7.88l-30.7-12.5l-2.12-.909c-2.42-.909-3.74-3.53-3.13-6.06c.707-2.63 3.53-4.14 6.16-3.43C294 399 294 399 294 399L294 399zM436 306L377 319l28.4 130l54.2-10.7L436 306zM156 426c-1.41-3.33-4.04-5.96-7.37-7.27c-3.23-1.41-6.87-1.41-10.1 0c-3.33 1.41-5.96 4.04-7.27 7.37l-.101 .101l-7.37 17.3l-.808 1.72c-.303 .707-.505 1.51-.707 2.32l-.101 .606c0 .202-.101 .404-.101 .606c-.202 1.62-.101 3.23 .202 4.85c.909 4.24 3.84 7.78 7.78 9.49l0 0c3.13 1.41 6.67 1.51 9.8 .202c1.01-.404 1.92-.909 2.73-1.41c1.31-.909 2.42-2.02 3.43-3.33c.101-.202 .202-.303 .303-.505l.101-.202l.101-.303l1.72-3.94l7.98-18.6C158 433 158 429 156 426zM192 447L192 447l3.53-8.28c3.33-6.67 .505-14.7-6.16-18.1s-14.7-.505-18.1 6.16c-.202 .404-.404 .808-.505 1.21l-4.54 10.4l-8.08 18.7l-1.72 3.94l-.202 .606l-.202 .505v.101l-.303 .707c-.505 1.11-.808 2.32-1.01 3.53c-.909 7.47 4.34 14.3 11.8 15.2c2.32 .303 4.75 0 6.87-.909c2.22-.909 4.14-2.42 5.55-4.44c.606-.808 1.01-1.72 1.41-2.63v-.101l.505-1.21l.202-.505l.202-.505l1.72-3.94l8.79-20.1L192 447zM218 445c-3.03-1.51-6.56-1.82-9.8-.707c-3.43 1.21-6.26 3.64-7.88 6.97v.101l-.404 1.01l-8.08 19l-1.51 3.43c-.101 .202-.101 .404-.202 .606c-.101 .202-.202 .404-.202 .606s-.101 .404-.202 .606c-.404 1.51-.606 3.03-.505 4.54c.404 7.37 6.67 12.9 13.9 12.5c3.13-.202 6.06-1.41 8.28-3.53c1.11-1.01 2.12-2.22 2.83-3.64c.101-.202 .202-.303 .303-.505c.101-.202 .101-.202 .202-.303l.101-.202l1.72-3.94l8.28-19.3C228 456 225 448 218 445L218 445zM247 467c-5.66-2.73-12.3-.303-15 5.25l-5.96 13.8l-1.41 3.13c-.101 .303-.202 .505-.303 .808c-.101 .303-.101 .404-.202 .606c-.101 .202-.101 .404-.202 .606c-.303 1.51-.303 3.13 0 4.75c.101 .606 .303 1.11 .505 1.72c1.11 2.73 3.23 5.05 5.96 6.16l0 0c5.15 2.12 11 .404 14.1-4.24l.303-.505c.101-.202 .202-.303 .303-.505l.303-.606l1.41-3.33l5.76-13.4C255 475 253 469 247 467L247 467z"/></svg>