<svg xmlns="http://www.w3.org/2000/svg" viewBox="0 0 577 512"><path d="M567 232L310 8c-7-7-15-8-22-8s-15 1-22 8L10 232c-6.5 6.3-10.2 15-10 24c-.2 17.5 13.8 31.9 31.3 32.1c.3 0 .5 0 .8 0h32L64 472c0 22.1 17.9 40 40 40l0 0h369c22.1 0 40-17.9 40-40v0l-.1-184h32c17.5 .2 31.8-13.9 32-31.4c0-.2 0-.5 0-.7C577 247 573 238 567 232zM197 292c11.7 12 26.3 26.8 26.3 55.4s-14.6 43.5-26.3 55.4c-10.3 10.5-17.7 18.1-17.7 34.4h-30c0-28.6 14.6-43.5 26.3-55.4c10.3-10.5 17.7-18.1 17.7-34.4s-7.4-23.9-17.7-34.4c-11.7-12-26.3-26.8-26.3-55.4s14.6-43.5 26.3-55.4c10.3-10.5 17.7-18.1 17.7-34.4h30c0 28.6-14.6 43.5-26.3 55.4c-10.3 10.5-17.7 18.1-17.7 34.4S186 281 197 292zM299 292c11.7 12 26.3 26.8 26.3 55.4s-14.6 43.5-26.3 55.4c-10.3 10.5-17.7 18.1-17.7 34.4h-30c0-28.6 14.6-43.5 26.3-55.4c10.3-10.5 17.7-18.1 17.7-34.4s-7.4-23.9-17.7-34.4c-11.7-11.9-26.3-26.8-26.3-55.4s14.6-43.5 26.3-55.4c10.3-10.5 17.7-18.1 17.7-34.4h30c0 28.6-14.6 43.5-26.3 55.4c-10.3 10.5-17.7 18.1-17.7 34.4S289 281 299 292zM402 292c11.7 12 26.3 26.8 26.3 55.4s-14.6 43.5-26.3 55.4c-10.3 10.5-17.7 18.1-17.7 34.4h-30c0-28.6 14.6-43.5 26.3-55.4c10.3-10.5 17.7-18.1 17.7-34.4s-7.4-23.9-17.7-34.4c-11.7-12-26.3-26.8-26.3-55.4s14.6-43.5 26.3-55.4c10.3-10.5 17.7-18.1 17.7-34.4h30c0 28.6-14.6 43.5-26.3 55.4c-10.3 10.5-17.7 18.1-17.7 34.4S392 281 402 292z"/></svg>