<svg xmlns="http://www.w3.org/2000/svg" viewBox="0 0 577 512"><path d="M288 30c.7 0 1.3 0 1.6 0l.7 .6l256 223c.4 .4 .5 1 .5 1.6l0 .5l0 .5c0 .9-.8 1.7-1.7 1.7l-.1 0h-.1h-32h-30l0 30l.1 184c0 5.5-4.5 10-10 10H104c-5.5 0-10-4.5-10-10l.1-184l0-30h-30h-32h-.2l-.2 0c-.2 0-.7 0-1.2-.5c-.5-.5-.5-1-.5-1.2l0-.4l0-.4c0-.6 .2-1.2 .6-1.6L286 30.6l.7-.6C287 30 288 30 288 30M288 0c-7 0-15 1-22 8L10 232c-6.5 6.3-10.2 15-10 24c-.2 17.5 13.8 31.9 31.3 32.1c.1 0 .3 0 .4 0c.1 0 .2 0 .4 0h32L64 472c0 22.1 17.9 40 40 40h369c22.1 0 40-17.9 40-40l-.1-184h32c.1 0 .2 0 .3 0c17.4 0 31.5-14 31.7-31.4c0-.2 0-.5 0-.7c.2-9-3.4-17.7-9.9-24L310 8C303 1 295 0 288 0L288 0zM197 292c11.7 12 26.3 26.8 26.3 55.4s-14.6 43.5-26.3 55.4c-10.3 10.5-17.7 18.1-17.7 34.4h-30c0-28.6 14.6-43.5 26.3-55.4c10.3-10.5 17.7-18.1 17.7-34.4s-7.4-23.9-17.7-34.4c-11.7-12-26.3-26.8-26.3-55.4s14.6-43.5 26.3-55.4c10.3-10.5 17.7-18.1 17.7-34.4h30c0 28.6-14.6 43.5-26.3 55.4c-10.3 10.5-17.7 18.1-17.7 34.4S186 281 197 292zM299 292c11.7 12 26.3 26.8 26.3 55.4s-14.6 43.5-26.3 55.4c-10.3 10.5-17.7 18.1-17.7 34.4h-30c0-28.6 14.6-43.5 26.3-55.4c10.3-10.5 17.7-18.1 17.7-34.4s-7.4-23.9-17.7-34.4c-11.7-11.9-26.3-26.8-26.3-55.4s14.6-43.5 26.3-55.4c10.3-10.5 17.7-18.1 17.7-34.4h30c0 28.6-14.6 43.5-26.3 55.4c-10.3 10.5-17.7 18.1-17.7 34.4S289 281 299 292zM402 292c11.7 12 26.3 26.8 26.3 55.4s-14.6 43.5-26.3 55.4c-10.3 10.5-17.7 18.1-17.7 34.4h-30c0-28.6 14.6-43.5 26.3-55.4c10.3-10.5 17.7-18.1 17.7-34.4s-7.4-23.9-17.7-34.4c-11.7-12-26.3-26.8-26.3-55.4s14.6-43.5 26.3-55.4c10.3-10.5 17.7-18.1 17.7-34.4h30c0 28.6-14.6 43.5-26.3 55.4c-10.3 10.5-17.7 18.1-17.7 34.4S392 281 402 292z"/></svg>