<svg xmlns="http://www.w3.org/2000/svg" viewBox="0 0 521 512"><path d="M514 224c-5.16 8.9-16.6 11.9-25.5 6.68l-14.6-8.5l3.14 11.8c2.02 7.49-2.43 15.1-9.92 17.1c0 0 0 0 0 0c-1.21 .304-2.43 .506-3.54 .506c-6.37 0-11.8-4.25-13.6-10.4l-10.3-39l-34.9-20.3v41.1l28.2 28.5c5.46 5.46 5.36 14.4-.101 19.8c-5.46 5.46-14.4 5.36-19.8-.101l-8.3-8.3v17.2c-.202 10.3-8.8 18.4-19.1 18.2c-9.92-.202-18-8.3-18.2-18.2v-17.2l-8.3 8.4c-5.57 5.36-14.4 5.26-19.8-.202c-5.26-5.36-5.26-14-.101-19.4l28.2-28.5l-.506-41.1L332 202l-10.3 39c-1.62 6.17-7.18 10.4-13.6 10.4c-1.21 0-2.43-.202-3.54-.506c-7.49-2.02-11.9-9.61-9.92-17.1l3.14-11.8l-14.7 8.5c-2.63 1.72-5.77 2.63-8.9 2.53c-10.3 0-18.6-8.3-18.6-18.6c0-6.58 3.54-12.7 9.21-16.1l15.1-8.8l-11.8-3.24c-7.49-2.02-11.8-9.71-9.82-17.2c2.02-7.49 9.71-11.8 17.2-9.82l38.5 10.4l35.2-20.6L314 129l-38.5 10.4c-7.49 2.02-15.1-2.33-17.1-9.82c-2.02-7.49 2.33-15.1 9.82-17.1l0 0l11.8-3.24l-15.1-8.8c-8.9-5.16-11.8-16.6-6.68-25.5c5.16-8.9 16.6-11.8 25.5-6.68l0 0l14.6 8.5l-3.14-11.8c-1.92-7.29 2.23-14.9 9.41-17.1c8.09-2.02 15.2 2.43 17.7 9.92l10.3 39l34.3 20.3V75.6l-27.7-28.5c-5.46-5.46-5.36-14.4 .101-19.8c5.46-5.46 14.4-5.36 19.8 .101l8.3 8.3l-.506-17.2c.202-10.3 8.8-18.4 19.1-18.2c9.92 .202 18 8.3 18.2 18.2v17.2l8.3-8.4c5.57-5.36 14.4-5.26 19.8 .202c5.26 5.36 5.26 14 .101 19.4l-28.2 28.5l.506 41.1l34.9-20.3l10.3-39c2.23-7.39 9.92-11.6 17.4-9.51c7.18 2.12 11.4 9.41 9.71 16.7l-3.14 11.8l14.7-8.5c8.9-5.26 20.3-2.33 25.6 6.48c5.26 8.9 2.33 20.3-6.48 25.6c-.101 0-.202 .101-.202 .101l-15.1 8.8l11.8 3.24c7.49 2.02 11.8 9.71 9.82 17.2c-1.62 6.07-7.18 10.3-13.5 10.3c-1.21 0-2.43-.202-3.64-.506l-39-10.4L423 149l35.2 20.5l38.5-10.4c7.39-2.23 15.2 2.02 17.4 9.41c2.23 7.39-2.02 15.2-9.41 17.4c-.202 .101-.506 .101-.708 .202l-11.8 3.24l15.1 8.8C517 204 519 215 514 224zM472 456h-60.3L379 423l32.7-32.7h60.3c4.96 0 9.01-4.05 9.01-9.01c0-1.62-.405-3.14-1.21-4.55c-7.49-12.1-17.7-22.4-30-29.7c-30.5-18.3-69-16.8-97.8 3.95c-11.8 7.99-21.4 18.8-27.6 31.7H74.2c-22.2 0-40.1 18-40 40.1c0 0 0 0 0 0C33.8 433 37.7 443 45 451c7.59 7.49 17.7 11.6 28.3 11.7h250c6.48 12.9 16 23.9 27.6 32.4c28.9 20.7 67.4 22.3 97.8 3.95c12.7-6.88 23.5-17 31-29.4c2.53-4.25 1.11-9.82-3.24-12.3C475 456 474 456 472 456L472 456zM89.4 432L89.4 432c-5.26 5.26-13.7 5.26-18.9 0c0 0 0 0 0 0l0 0c-5.26-5.26-5.26-13.7 0-18.9c5.26-5.26 13.7-5.26 18.9 0C94.6 418 94.6 427 89.4 432C89.4 432 89.4 432 89.4 432L89.4 432zM119 2.53c-3.64-3.34-9.31-3.34-13 0C43.9 60.9 .453 136 .453 182c0 73.4 46 117 112 117s112-43.1 112-117C224 136 180 60.7 119 2.53zM112 252c-32.9 0-56-22-56-53.4c0-7.29 2.43-32.3 48.8-83.4c3.74-3.85 9.92-4.05 13.8-.304c.101 .101 .202 .202 .304 .304c46.4 51.1 48.9 76.1 48.9 83.4C168 230 145 252 112 252z"/></svg>