<svg xmlns="http://www.w3.org/2000/svg" viewBox="0 0 574 512"><path d="M505 431c1.78 0 3.59-.07 5.38-.169l.07 15.3c-.01 2.7-.179 5.39-.498 8.07v16.1c0 22-17.8 39.8-39.8 39.8h-15.9c-1.1 0-2.19-.896-3.29-.1-1.39-.797-2.79 .1-4.18 .1h-33l79.8-79.8c3.8 .448 7.61 .677 11.4 .677zm-94.7-113c6.22-37.9 35.3-69.2 72.6-78.2 7.62-1.82 15.4-2.76 23.3-2.77 7.61 0 15.2 .896 22.6 2.68 19.5 4.72 31.6 24.3 27 43.8 10.9-5.4 17.8-16.5 17.8-28.6 1.1-8.96-2.99-16.9-11-23.9L308 6.97c-6.08-4.98-14-6.97-21-6.97s-14.9 .996-21.9 7.97L10.1 231C3.58 237-.029 246 .121 255c-.219 17.4 13.7 31.8 31.2 32 .249 0 .498 0 .747 0h31.9v69.3c-.06 .896-.09 1.89-.09 2.79v112c0 22 17.8 39.8 39.8 39.8h15.9c1.2 0 2.39-.1 3.59-.199 1.49 .1 2.99 .199 4.48 .199h55.7c22 0 39.8-17.8 39.8-39.8v-87.7c0-17.6 14.3-31.9 31.9-31.9h63.8c17.6 0 31.9 14.3 31.9 31.9v20.9l58.7-58.7c-1.05-9.07-.697-18.2 1.02-27.2zm160 32.5c-6.48 26-27.8 45.7-54.3 50.1-10.7 1.73-21.7 .867-32-2.52l-105 105c-5.71 5.63-13.4 8.81-21.4 8.87-7.85-.139-15.3-3.48-20.6-9.24-11.8-11.8-11.9-30.9-.06-42.8 .02-.02 .04-.04 .06-.06l105-105c-3.46-10.2-4.19-21.1-2.14-31.6 4.33-26.5 24-47.9 50.1-54.4 10.5-2.56 21.4-2.6 31.9-.1 3.63 .946 5.8 4.64 4.86 8.27-.309 1.18-.916 2.24-1.77 3.1l-32.2 32.2v34.9h34.9l32.2-32.2c2.67-2.63 6.96-2.61 9.59 .06 .847 .857 1.44 1.91 1.74 3.07 2.59 10.6 2.3 21.8-.847 32.2zm-199 127c0-5.57-4.52-10.1-10.1-10.1-5.57 0-10.1 4.52-10.1 10.1s4.52 10.1 10.1 10.1h.01c5.57 0 10.1-4.51 10.1-10.1h0z"/></svg>