<svg xmlns="http://www.w3.org/2000/svg" viewBox="0 0 622 512"><path d="M441.7 512h-48.9c-22.1 0-40-17.9-40-40v-88c0-17.7-14.3-32-32-32H256c-17.7 0-32 14.3-32 32v88c0 22.1-17.9 40-40 40h-80c-22.1 0-40-17.9-40-40l.1-184.4h-32C14.6 287.8.2 273.8 0 256.3v-.8c-.2-9 3.5-17.7 10-24L266.4 8c7-7 15-8 22-8s15 1 22 8l256.4 223.5c6.5 6.3 10.2 15 10 24 0 3.8-.7 7.6-2 11.3l-47.7-20.1c-13.2-5.6-28.1-5.6-41.2 0l-94.2 39.8-1.9 1.1c-4 2.4-23.9 15.6-27.3 38.8-6 41.1 6.9 90.2 35.5 134.9 13.1 20.3 28 37.5 43.7 50.7zm179.2-181.3c-1.5-10.4-13.2-17.5-13.2-17.5l-92.2-38.9c-5.7-2.4-12.2-2.4-17.9 0l-92.2 38.9s-11.7 7.1-13.2 17.5C381.6 402.8 447.6 503 506.6 512c58.9-9 124.9-109.2 114.3-181.3z"/></svg>