<svg xmlns="http://www.w3.org/2000/svg" viewBox="0 0 617 512"><path d="M616 331c-.398-6.57-8.67-14.9-13.1-17.4c0 0-60.4-25.5-60.4-25.5c28.7 1.69 43.5-36.4 22.9-55.6c-6.67-1.29-274-250-278-231c-6.97 0-14.9 .996-21.9 7.97C265 9.36 10.1 232 9.77 232c-20.1 18.8-6.38 56.4 21.9 55.6c-.1 .1 32.2-.1 32.3 0c0 0-.1 184-.1 184c0 22 17.8 39.8 39.8 39.8c137 3.98 119-.996 120-128c.797-46.8 67.6-28.5 96.4-31.9c17.6 0 31.9 14.2 31.9 31.9c0 0 0 87.7 0 87.7c0 22 17.8 39.8 39.8 39.8c21.7-.199 89.7 .199 110 0C570 497 625 397 616 331zM391 481c-5.48 0-9.96-4.48-9.96-9.96v-87.7c0-34.1-27.7-61.8-61.8-61.8h-64.5c-34.1 0-61.8 27.7-61.8 61.8v87.7c0 5.48-4.48 9.96-9.96 9.96h-79.7c-5.48 0-9.96-4.48-9.96-9.96L93.8 288l0-29.9H64H32.1h-.199l-.199 0c-.896 0-1.69-.797-1.69-1.69l0-.1l0-.199v-.199c0-.199 0-.398 0-.598c0-.598 .199-1.1 .598-1.59L285 31.6l.697-.598c.398 0 .896 0 1.59 0h0c.697 0 1.29 0 1.59 0l.697 .598l255 222c.398 .398 .598 .996 .598 1.59c0 .199 0 .398 0 .598v.199l0 .199l0 0c0 .896-.797 1.69-1.69 1.69l-.199 0h-.199h-31.9h-29.9l0 21.6l-15.4 6.47l-64.5 27.3c0 0-11.7 7.07-13.1 17.4c-.498 3.39-.797 6.87-.996 10.4c-.1 2.29-.199 4.58-.1 6.87c0 0 0 0 0 0c.398 34.2 15.1 72.2 36.4 103c5.88 8.47 12.3 16.4 18.9 23.6c2.19 2.29 4.38 4.58 6.67 6.77v0H391zM560 428c-9.66 15.1-21 28.3-32.7 37.9c-5.48 4.58-11.1 8.17-16.2 10.9c-3.09 1.49-5.98 2.69-8.77 3.59c-6.38-1.89-13.4-5.68-20.7-11c-1.49-1.1-2.89-2.19-4.38-3.39c-7.57-6.28-14.9-13.9-21.9-22.7v0l0 0c-3.79-4.78-7.37-9.86-10.8-15.1c-19.2-30-29.4-63.9-27-89.6l84.8-35.8l84.8 35.8C589 364 579 398 560 428z"/></svg>