<svg xmlns="http://www.w3.org/2000/svg" viewBox="0 0 571 512"><path d="M495 436c4.02 0 8.06-.238 12.1-.693l.02 31.7c0 21.9-17.7 39.6-39.6 39.6h-47.4l29.7-29.7h17.7c5.46 0 9.9-4.45 9.9-9.9v-17.7s13.4-13.4 13.4-13.4c1.41 .059 2.81 .079 4.21 .079zm75.4-185c.188-4.34-.852-8.44-2.98-12.3-1.66-3.58-3.99-6.87-6.9-9.67l-134-116L307 6.93c-2.76-2.27-5.91-3.9-9.19-5.02-2.92-1.09-5.86-1.58-8.71-1.79-1.01-.079-2.01-.129-2.99-.129-.139 0-.277 0-.406 0-.139 0-.277 0-.406 0-.98 0-1.98 .04-2.99 .129-2.84 .198-5.79 .703-8.71 1.79-3.28 1.12-6.43 2.75-9.19 5.02l-.119 1.03L10.2 229C3.72 235 .137 244 .285 253c-.218 17.3 13.7 31.6 31 31.8 .129 0 .267 0 .396 0 .119 0 .238 0 .347 0h31.7l-.089 183c0 21.9 17.7 39.6 39.6 39.6h79.3c21.9 0 39.6-17.7 39.6-39.6v-87.1c0-.109 0-.218 0-.327l.733-6.47c2.65-12.2 12.3-21.7 24.5-24.2 .04 0 .079-.02 .129-.03 .446-.089 .901-.168 1.35-.238 .089-.01 .168-.03 .257-.04 .416-.059 68.1-.347 68.1-.347 15.4 0 28.3 11 31.1 25.6l23-23c-10.4-19.2-30.7-32.3-54.1-32.3h-.129q-69.8 .297-72.3 .673l-.456 .069h-.03s-.03 .01-.03 .01c-.881 .139-1.76 .297-2.6 .465l-.257 .05c-23.7 4.89-42.4 23.3-47.5 47l-.327 1.5-.168 1.52-.733 6.47-.168 1.53v1.25c-.02 .297-.02 .584-.02 .881v87.1c0 5.46-4.45 9.9-9.9 9.9H103c-5.46 0-9.9-4.45-9.9-9.89l.089-183v-29.7s-29.7 0-29.7 0H31.7c-.931-.01-1.67-.772-1.66-1.7v-.446s0-.446 0-.446c0-.574 .188-1.14 .545-1.58L284 30.4l.693-.604h.059s.149-.02 .149-.02c.257-.02 .436-.03 .535-.03h.317s.158 0 .158 0h.158s.307 0 .307 0c.099 0 .277 0 .535 .03h.149s.149 .02 .149 .02c.337 .02 .545 .05 .644 .069l.188 .069 .396 .139s.079 .03 .109 .04l119 105 .05 .04 .05 .04 102 88.5 55.2 47.9c.743-1.04 1.41-2.14 2.03-3.27 2.5-4.58 3.9-9.81 3.83-15.4 .01-.604 0-1.21-.02-1.81zm-214 261c11.3-.089 22-4.52 30.1-12.5l90.8-90.8c9.03 1.78 18.4 1.96 27.5 .485 30.3-4.98 54.6-27.4 62.1-57.1 3.58-12.1 3.88-25 .881-37.3l-.05-.188c-.931-3.6-2.8-6.91-5.43-9.57-8.19-8.28-21.6-8.37-29.9-.119l-18.4 18.4h-11.3v-11.3s18.4-18.4 18.4-18.4c2.66-2.66 4.58-5.99 5.52-9.64 1.42-5.47 .624-11.2-2.23-16-2.86-4.86-7.45-8.33-12.9-9.74l-.287-.069c-11.9-2.84-24.5-2.8-36.5 .129-29.8 7.41-52.3 31.8-57.4 62.1-1.73 9.06-1.7 18.4 .069 27.4l-90.6 90.6-.188 .188c-16.6 16.6-16.6 43.7-.119 60.3 7.63 8.13 18.4 12.9 29.5 13.1h.188s.188 0 .188 0zm94.6-156l-2.98-8.75c-2.36-6.94-2.87-14.4-1.47-21.6l.079-.446c3.05-18.7 16.9-33.7 35.2-38.2 1.54-.376 3.11-.683 4.68-.901l-13.5 13.5v53.3h53.3s13.1-13.1 13.1-13.1c-.257 1.31-.584 2.59-.971 3.88l-.188 .683c-4.57 18.4-19.6 32.2-38.2 35.3-7.54 1.22-15.4 .604-22.6-1.78l-8.68-2.85-103 103c-2.5 2.44-5.77 3.82-9.25 3.89-3.13-.109-6.13-1.48-8.26-3.77l-.416-.436c-5.09-5.08-5.13-13.3-.109-18.5l103-103zm-81.9 110c0 5.15-4.17 9.32-9.32 9.32h0c-5.15 0-9.33-4.18-9.33-9.33 0-5.15 4.18-9.33 9.33-9.33 5.15 0 9.33 4.18 9.33 9.33h0z"/></svg>