<svg xmlns="http://www.w3.org/2000/svg" viewBox="0 0 576 512"><path d="M277 3.98c6.1-5.3 15.1-5.3 21.2 0l272 240c6.6 5.8 7.2 15.1 .5 22.6-4.9 6.6-15.1 7.2-21.7 .5l-37.4-33v198c0 44.2-35.8 80-80 80H144c-44.2 0-80-35.8-80-80V234l-37.4 33c-6.6 6.7-16.7 6.1-22.6-.5-5.8-7.5-5.2-16.8 1.4-22.6L277 3.98zm68.6 195c-15.4-15.3-36-24.1-56.6-24.1h-1.8c-45.4 .2-82.4 37.5-82.4 83.3 0 20.1 7.3 39.6 20.4 54.7 5.4 6.2 14.5 20.2 17.7 30.5 1.1 6.1 6.4 11 12.8 11h63.4c6.5-.1 11.7-4.1 12.7-10.2 3.4-11.3 12.7-25.3 17.9-31.3 13.2-15.2 20.4-34.6 20.4-54.7 0-22.4-8.7-43.4-24.5-59.2zm-12.4 182c0-8.3-6.7-15-15-15h-61.4c-8.3 0-15 6.7-15 15s6.7 15 15 15h61.4c8.3 0 15-6.7 15-15zm-16 41.7c0-8.3-6.7-15-15-15h-29.4c-8.3 0-15 6.7-15 15s6.7 15 15 15h29.4c8.3 0 15-6.7 15-15z"/></svg>