<svg xmlns="http://www.w3.org/2000/svg" viewBox="0 0 576 512"><path d="M277 4c6.1-5.34 15.1-5.34 21.2 0l272 240c6.6 5.8 7.2 15.1 .5 22.6-4.9 6.6-15.1 7.2-21.7 .5l-37.4-33v198c0 44.2-35.8 80-80 80H144c-44.2 0-80-35.8-80-80V234l-37.4 33c-6.63 6.7-16.7 6.1-22.6-.5-5.85-7.5-5.21-16.8 1.41-22.6L277 4zM96 207v225c0 26.5 21.5 48 48 48H432c26.5 0 48-21.5 48-48V207L288 37.3 96 207zm236 137c3.44-11.3 12.7-25.3 17.9-31.3 13.2-15.2 20.4-34.6 20.4-54.7 0-22.4-8.7-43.4-24.5-59.2-15.4-15.3-36-24.1-56.6-24.1-.61 0-1.23 0-1.84 .02-45.4 .17-82.3 37.5-82.3 83.3 0 20.1 7.26 39.6 20.4 54.7 5.42 6.23 14.5 20.2 17.7 30.5 1.05 6.13 6.45 10.7 12.8 10.7 .46 0 .92-.02 1.43-.08 7.02-.78 12.2-7.17 11.4-14.3l-.02-.25-.37-1.99-.09-.3c-5.13-17.4-17.5-34.7-23.3-41.3-9.08-10.4-14.1-23.8-14.1-37.7 0-32 24.8-57.2 56.5-57.3h.22c15 0 29.2 5.86 39.8 16.5 10.9 10.8 16.9 25.3 16.9 40.8 0 13.9-5 27.3-14.1 37.7-5.83 6.69-18.2 24-23.3 41.3l-.09 .29-.36 1.95-.02 .2c-.86 7.16 4.25 13.9 11.2 14.8 .63 .08 1.17 .11 1.71 .11 6.33 0 11.5-4.34 12.6-10.4zm1.41 37.1c0-8.28-6.72-15-15-15h-61.5c-8.28 0-15 6.72-15 15s6.72 15 15 15h61.5c8.28 0 15-6.72 15-15zm-16 41.7c0-8.28-6.72-15-15-15h-29.5c-8.28 0-15 6.72-15 15s6.72 15 15 15h29.5c8.28 0 15-6.72 15-15z"/></svg>