<svg xmlns="http://www.w3.org/2000/svg" viewBox="0 0 716 512"><path d="M645 0H69.9C31.1 0 .04 31.7 .04 70.4v308c.587 39.3 31.7 70.4 70.4 70.4H646c38.1-.147 69.1-31.1 69.2-69.2V70.4c-.293-38.9-31.7-70.3-70.4-70.4zm25.1 389v.587c-1.47 7.92-8.36 13.8-16.4 13.8H62.2c-7.92 0-14.5-6.01-15.4-13.9V61.8c-.293-8.22 6.31-15.1 14.5-15.4H655c7.78 .147 14.4 6.01 15.4 13.8v.44l.147 329zm-14.7-327v326c-.44 .587-1.17 1.03-1.91 1.03H62.2c-.147 0-.587 0-.734-.734V61.8c0-.293 .147-.587 .293-.734H655c.293 .147 .587 .44 .734 .88zM98 464H619c-.293 26.6-21.9 48-48.4 48.1H147c-26.7-.147-48.3-21.6-48.6-48.1z"/></svg>