<svg xmlns="http://www.w3.org/2000/svg" viewBox="0 0 384 512"><path d="M224 400c0-8.84-7.16-16-16-16-97 0-176-79-176-176 0-89.9 66.6-166 155-176 8.78-1.03 15.1-9 14-17.8-1.1-8.8-9.5-15.3-17.8-14C78.7 12.6 0 102 0 208c0 115 93.3 208 208 208 8.8 0 16-7.1 16-15.9zM176 96c-8.84 0-16 7.13-16 16s7.16 16 16 16c97 0 176 79 176 176 0 89.9-66.6 166-155 176-8.78 1.03-15.1 9-14 17.8 .97 8.16 7.72 14.1 15.7 14.1 .66 0 1.46-.02 2.08-.12 104-12.3 183-102 183-208 0-115-93.3-208-208-208zm16 240c43.3 0 78.6-35.9 78.6-80s-35.3-80-78.6-80-78.6 35.9-78.6 80.1 35.3 79.9 78.6 79.9zm0-128c25.7 0 46.6 21.5 46.6 48s-20.9 48-46.6 48-46.6-21.6-46.6-48 20.9-48 46.6-48z"/></svg>