<svg xmlns="http://www.w3.org/2000/svg" viewBox="0 0 480 512"><path d="M80 0c8.8 0 16 7.2 16 16v65.6c36.5 7.4 64 39.7 64 78.4s-27.5 70.1-64 78.4V496c0 8.8-7.2 16-16 16c-8.8 0-16-7.2-16-16V238C27.5 230 0 199 0 160s27.5-71 64-78.4V16C64 7.2 71.2 0 80 0zM80 208c26.5 0 48-21.5 48-48s-21.5-48-48-48c-26.5 0-48 21.5-48 48S53.5 208 80 208zM320 352c0 38.7-27.5 70.1-64 78.4V496c0 8.8-7.2 16-16 16c-8.8 0-16-7.2-16-16v-65.6c-36.5-8.3-64-39.7-64-78.4s27.5-71 64-78.4V16c0-8.8 7.2-16 16-16c8.8 0 16 7.2 16 16v258C293 281 320 313 320 352zM240 400c26.5 0 48-21.5 48-48s-21.5-48-48-48s-48 21.5-48 48S214 400 240 400zM416 496c0 8.8-7.2 16-16 16s-16-7.2-16-16V270c-36.5-8.3-64-39.7-64-78.4s27.5-71 64-78.4V16c0-8.8 7.2-16 16-16s16 7.2 16 16v97.6c36.5 7.4 64 39.7 64 78.4s-27.5 70.1-64 78.4V496zM400 144c-26.5 0-48 21.5-48 48s21.5 48 48 48s48-21.5 48-48S427 144 400 144z"/></svg>