<svg xmlns="http://www.w3.org/2000/svg" viewBox="0 0 480 512"><path d="M80 0c17.7 0 32 14.3 32 32v54.7c28.3 12.3 48 40.5 48 73.3s-19.7 60.1-48 73.3V480c0 17.7-14.3 32-32 32c-17.7 0-32-14.3-32-32V233C19.8 220 0 193 0 160s19.8-61 48-73.3V32C48 14.3 62.3 0 80 0L80 0zM80 192c17.7 0 32-14.3 32-32s-14.3-32-32-32c-17.7 0-32 14.3-32 32S62.3 192 80 192zM320 352c0 32.8-19.7 60.1-48 73.3V480c0 17.7-14.3 32-32 32s-32-14.3-32-32v-54.7c-28.3-13.2-48-40.5-48-73.3s19.7-61 48-73.3V32c0-17.7 14.3-32 32-32s32 14.3 32 32v247C300 291 320 319 320 352zM240 384c17.7 0 32-14.3 32-32s-14.3-32-32-32s-32 14.3-32 32S222 384 240 384zM432 480c0 17.7-14.3 32-32 32s-32-14.3-32-32V265c-28.3-13.2-48-40.5-48-73.3s19.7-61 48-73.3V32c0-17.7 14.3-32 32-32s32 14.3 32 32v86.7c28.3 12.3 48 40.5 48 73.3s-19.7 60.1-48 73.3V480zM400 160c-17.7 0-32 14.3-32 32s14.3 32 32 32s32-14.3 32-32S418 160 400 160z"/></svg>