<svg xmlns="http://www.w3.org/2000/svg" viewBox="0 0 512 512"><path d="M344 144c0-13.3 10.7-24 24-24s24 10.7 24 24s-10.7 24-24 24S344 157 344 144zM336 352c-9.5 0-18.8-.7-27.9-2.2l-28 26.3c-3.6 5.4-9.7 7.9-16.1 7.9h-40v40c0 13.3-10.7 24-24 24h-40v40c0 13.3-10.7 24-24 24H24c-13.3 0-24-10.7-24-24v-96c0-6.4 2.5-12.5 7-17l158-158c-3.2-14.1-4.9-27-4.9-41.2C160 78.8 239 0 336 0s176 78.8 176 176S433 352 336 352zM336 320c79.5 0 144-64.5 144-144c0-79.5-64.5-144-144-144S192 96.5 192 176c0 11.7 1.4 22.1 3.1 33.7l5 17.5L32 395V480h96v-64h64v-64h68.7l36.3-36.4l16.2 2.6C321 319 328 320 336 320L336 320z"/></svg>