<svg xmlns="http://www.w3.org/2000/svg" viewBox="0 0 387 512"><path d="M29.286 123.708H0V49.483C0 22.151 22.151 0 49.483 0h147.44c27.332 0 49.483 22.151 49.483 49.483v74.225H54.028v-62.55c0-6.107-5.568-11.675-12.371-11.675s-12.371 5.568-12.371 11.675v62.55zM189.054 229.5h57.352v-81.05H54.028v75.487c0 6.803-5.568 12.37-12.371 12.37s-12.371-5.567-12.371-12.37V148.45H0v222.674c0 13.663 11.08 24.742 24.742 24.742h111.337v-113.38c0-29.217 23.764-52.986 52.975-52.986zm196.716 52.986v213.12c0 9.027-7.331 16.394-16.384 16.394H172.66c-9.052 0-16.384-7.367-16.384-16.394v-213.12c0-18.12 14.667-32.788 32.777-32.788h163.95c18.135 0 32.787 14.667 32.767 32.788zM238.246 294.78a12.27 12.27 0 0012.316 12.295c6.773 0 12.275-5.508 12.275-12.295s-5.482-12.295-12.295-12.295-12.296 5.481-12.296 12.295zm-36.887 12.295c6.819 0 12.295-5.508 12.295-12.295s-5.476-12.295-12.295-12.295c-6.752 0-12.295 5.507-12.295 12.295 0 6.813 5.543 12.295 12.295 12.295zm142.986 98.363c0-40.728-32.583-73.772-73.311-73.772s-73.312 33.044-73.312 73.772 32.573 73.773 73.312 73.773c40.728 0 73.31-33.044 73.31-73.773zm-16.89-9.605c.575 3.202.895 6.403.957 9.605 0 31.697-25.692 57.379-57.378 57.379s-57.379-25.677-57.379-57.379c.052-3.176.359-6.403.974-9.529 10.523 10.185 27.285 9.99 37.553-.512 4.866 5.123 11.731 7.992 18.853 7.992 7.121 0 13.985-2.92 18.853-8.043 10.295 10.554 27.048 10.759 37.568.487z"/></svg>