<svg xmlns="http://www.w3.org/2000/svg" viewBox="0 0 386 512"><path d="M338 219h-91.5V49.5c0-27.3-22.2-49.5-49.5-49.5H49.6C22.3 0 .116 22.2 .116 49.5V371c0 13.7 11.1 24.7 24.7 24.7H126v84.6c.02 17.3 14.1 31.5 31.5 31.5h197c17.3-.03 31.5-14.2 31.5-31.5v-213c-.03-26.4-21.5-47.8-47.9-47.8zM30.4 49.5c0-10.6 8.6-19.2 19.2-19.2H197c10.6 0 19.2 8.6 19.2 19.2V122H86v-50.5c0-8.36-6.79-15.1-15.1-15.1s-15.1 6.79-15.1 15.1v50.5H30.4V49.5zm95.7 218v98.2H30.4V152h25.2v64.6c0 8.36 6.79 15.1 15.1 15.1s15.1-6.79 15.1-15.1v-64.6H216v67h-42.2c-26.4 .02-47.9 21.5-47.9 47.9zm229 213c0 .697-.566 1.26-1.23 1.26H158c-.697 0-1.26-.566-1.26-1.24v-213c0-9.71 7.9-17.6 17.6-17.6h164c9.68 0 17.6 7.88 17.6 17.5v213zm-132-201v-.04c.01-6.78 5.51-12.3 12.3-12.2h.02c6.8 0 12.3 5.51 12.3 12.3 0 6.8-5.51 12.3-12.3 12.3s-12.3-5.51-12.3-12.3zm-49.2 0h0c0-6.81 5.51-12.3 12.3-12.3 6.8 0 12.3 5.51 12.3 12.3 0 6.8-5.51 12.3-12.3 12.3h-.01c-6.79 0-12.3-5.51-12.3-12.3zm144 48.2c-16.8-16.6-39-25.7-62.7-25.6-48.8 .273-88.2 40.2-88 88.9 .273 48.5 40 88 88.5 88h.01c48.8-.061 88.5-39.8 88.4-88.6v-.313c-.131-23.6-9.45-45.8-26.3-62.4zm-62.2 121h0c-25.9 0-48-17.1-55.5-40.7 3.84 1.01 7.79 1.52 11.7 1.52 7.58 0 15.2-1.86 22-5.56 13.5 7.39 30.1 7.41 43.7-.04 10.3 5.61 22.4 6.97 33.6 4.04-7.44 23.6-29.5 40.7-55.5 40.7zm55-74.2l-.424 .404c-6.13 5.9-15.9 5.76-21.9-.343l-10.9-11.2-10.8 11.3c-.121 .131-.252 .252-.394 .394-5.99 5.79-15.6 5.62-21.4-.364l-10.8-11.2-10.9 11.2c-5.99 6.14-15.9 6.27-22 .293l-1.92 1.98c6.15-25.4 29-44.3 56.2-44.5 .111 0 .222 0 .333 0 15.4 0 29.9 5.96 40.9 16.8 7.03 6.95 12.1 15.4 14.8 24.6l-.747 .687z"/></svg>