<svg xmlns="http://www.w3.org/2000/svg" viewBox="0 0 732 512"><path d="M713 401H18.6c-10 0-18.3 8.29-18.3 18.3v18.3c0 40.3 32.9 73.1 73.1 73.1H659c40.3 0 73.1-32.9 73.1-73.1v-18.3c0-9.03-8.23-18.3-18.3-18.3zm-54.9 74.2H73.4c-20.2 0-36.6-16.4-36.6-36.6H695c0 20.1-16.5 36.6-36.6 36.6zM91.7 366c10.1 0 18.3-8.23 18.3-18.3V73.1c0-20.2 16.4-36.6 36.6-36.6h439c20.2 0 36.6 16.4 36.6 36.6v274c0 10.1 8.18 18.3 18.3 18.3s18.3-8.18 18.3-18.3V73.1c0-40.3-32.8-73.1-73.1-73.1H147c-40.3 0-73.1 32.8-73.1 73.1v274c0 10.1 8.18 18.3 18.3 18.3z"/></svg>