<svg xmlns="http://www.w3.org/2000/svg" viewBox="0 0 586 512"><path d="M556 10.7c-1.03-2.06-2.86-4.46-4.57-6.06c-4.11-3.66-9.71-5.37-15.2-4.34c-5.49 .914-10.3 4.23-12.9 9.03C494 61.5 441 91.4 379 91.4h-78.4C196 91.4 110 178 110 285c0 6.4 .571 12.8 1.14 19.2c-54.5 47.4-94.6 112-111 186c-2.17 9.83 4.11 19.5 14.1 20.7c1.26 1.37 2.63 1.49 3.89 1.49c8.46 0 16-5.83 17.8-14.5c12.7-59.3 42.7-112 83.8-152c3.43 10.2 7.31 20.1 12.3 29.5c0 0 0 0 0 0c33.4 62.1 97.8 101 168 101c6.86 0 13.7-.343 19.5-1.03C474 463 586 328 586 154C586 105 575 53 556 10.7zM316 438c-5.26 .571-10.6 .914-16.1 .914c-56.8 0-109-31.2-136-81.4c-7.2-13.4-11.5-26.5-14.3-38.5C202 279 266 256 334 256h49c10.1 0 18.3-8.23 18.3-17.3s-8.23-18.3-18.3-18.3l-49 0c-68.5 0-133 20.9-188 56.9c4.57-81.1 72.6-148 153-148h78.4c61.9 0 118-25.9 155-70.7c10.4 29.4 15.5 63.2 15.5 95.5C549 309 452 428 316 438z"/></svg>