<svg xmlns="http://www.w3.org/2000/svg" viewBox="0 0 584 512"><path d="M584 152c0 146-79.8 268-200 308c-22.8 9.01-47.7 14.3-73.8 14.3c-74 0-143-41.6-178-108c-61.7 56.9-78.3 122-78.7 123c-2.96 12.5-14.3 21-26.6 21c-2.05 0-4.22-.228-6.39-.798c-14.7-3.53-23.7-18.4-20.3-33.1C11.8 432 104 219 383 219c10 0 18.2-8.21 18.2-18.2s-8.21-18.2-18.2-18.2c-122 0-211 39.5-273 86.2c.228-12.3 1.37-24.9 3.99-37.7c15.4-75 75.3-136 150-153c32.3-7.53 63.5-6.84 92.3 0c63.9 15.2 135-8.44 170-69.8c6.5-11.2 22.8-10.8 28.2 .912C573 51.1 584 103 584 152z"/></svg>