<svg xmlns="http://www.w3.org/2000/svg" viewBox="0 0 640 512"><path d="M89.1 398l217 48.4c4.54 1 9.14 1.5 13.8 1.5s9.31-.51 13.9-1.53l217-48.4c14.6-3.27 25-16.3 25-31.4V39.5C576 17.3 558 .01 537 .01c-.49 0-.79-.01-1.09-.01-2.9 0-13 1.67-216 33.1C117 1.63 107 0 104 0c-.36 0-.62 .01-1.11 .01-21.3 0-39.3 17.3-39.3 39.5V367c0 15.1 10.4 28.1 25.1 31.4zM336 63.1s195-30.4 201-31.1c3.5 0 7.4 2.88 7.4 7.53l-.02 327-208 46.3V63.1zM96 39.6c0-2.62 1.2-4.37 2.21-5.37 .74-.73 2.25-1.92 5.26-2.15 5.33 .7 201 31.1 201 31.1V413l-208-46.5V39.6zm528-7.56c-8.8 0-16 7.16-16 16V384c0 22.9-16.3 42.7-38.7 47.1l-249 49-249-49c-22.4-4.43-38.7-24.2-38.7-47.1V48c0-8.84-7.16-16-16-16S0 39.2 0 48V384c0 38.1 27.2 71.1 64.6 78.5l252 49.6c1.02 .22 1.22 .32 3.12 .32s2.06-.09 3.08-.3l252-49.6c37.3-7.32 64.5-40.3 64.5-78.5V48c0-8.84-7.2-16-16-16z"/></svg>