<svg xmlns="http://www.w3.org/2000/svg" viewBox="0 0 515 512"><path d="M306 143v46.2c0 5.36 4.35 9.71 9.71 9.71h43.9c5.36 0 9.71-4.35 9.71-9.71v-46.2c0-5.36-4.35-9.71-9.71-9.71h-43.9C310 133 306 138 306 143zM359 233h-43.9c-5.36 0-9.71 4.35-9.71 9.71V289c0 5.36 4.35 9.71 9.71 9.71h43.9c5.36 0 9.71-4.35 9.71-9.71v-46.2C369 238 365 233 359 233zM148 368h-46.1c-5.36 0-9.71 4.35-9.71 9.71v43.9c0 5.36 4.35 9.71 9.71 9.71h46.2c5.36 0 9.71-4.35 9.71-9.71v-43.9C158 373 154 368 148 368zM509 168L348 4.55C346 1.62 342 0 338 0s-7.89 1.72-10.7 4.55L166 168c-5.87 5.97-5.87 15.6 .101 21.5c5.97 5.87 15.6 5.87 21.5-.101l10-10.1V202H46.4c-11.2 0-21 7.59-23.8 18.5L.994 305c-1.21 4.55-.202 9.41 2.73 13.1c2.83 3.74 7.29 5.87 12 5.87h11.2v149c0 21.4 16.6 38.7 37 38.7h149h5.67h244c8.4 0 15.2-6.78 15.2-15.2V179l10 10.1c2.93 3.04 6.88 4.55 10.8 4.55c3.85 0 7.69-1.42 10.6-4.35C515 183 515 174 509 168zM50.9 233h147v61.3H35.2L50.9 233zM57.3 473V324h140V482H64C60.4 482 57.3 478 57.3 473zM321 478v-101h33.7v101H321zM447 482h-62.6V362c0-8.4-6.78-15.2-15.2-15.2h-63.9c-8.4 0-15.2 6.78-15.2 15.2V482h-62.6V148l110-111l110 111V482z"/></svg>