<svg xmlns="http://www.w3.org/2000/svg" viewBox="0 0 518 512"><path d="M177 209v111H.465l26.6-92.6C29.9 217 39.6 209 50.9 209H177zM512 190c-2.94 2.94-6.79 4.36-10.6 4.36c-3.95 0-7.81-1.52-10.8-4.56l-10-10.1V497c0 8.42-6.79 15.2-15.2 15.2h-250c-8.42 0-15.2-6.79-15.2-15.2V179l-10 10.1c-5.88 5.98-15.5 6.08-21.5 .101c-5.98-5.88-6.08-15.5-.101-21.5L330 4.56c.203-.203 .304-.304 .507-.507s.304-.304 .507-.507s.406-.304 .71-.507c.203-.101 .406-.304 .507-.406c.203-.203 .507-.304 .71-.406s.406-.203 .608-.304c.203-.101 .507-.304 .811-.406c.203-.101 .406-.203 .608-.304c.304-.101 .507-.203 .811-.304c.203-.101 .406-.101 .608-.203c.304-.101 .608-.203 .912-.203c.203 0 .406-.101 .608-.101c.304-.101 .71-.101 1.01-.203c.203 0 .304-.101 .507-.101c.507-.101 1.01-.101 1.52-.101s1.01 0 1.52 .101c.203 0 .304 .101 .507 .101c.304 0 .71 .101 1.01 .203c.203 0 .406 .101 .608 .101c.304 .101 .608 .101 .912 .203c.203 .101 .406 .101 .608 .203c.304 .101 .608 .203 .811 .304c.203 .101 .406 .203 .608 .304c.304 .101 .507 .203 .811 .406c.203 .101 .406 .203 .608 .304c.203 .101 .507 .304 .71 .406s.406 .304 .507 .406c.203 .203 .406 .304 .71 .507c.203 .101 .304 .304 .507 .507s.304 .304 .507 .507l161 163C519 174 518 184 512 190zM309 196c0 5.37 4.36 9.73 9.73 9.73h44c5.37 0 9.73-4.36 9.73-9.73v-46.3c0-5.37-4.36-9.73-9.73-9.73h-44c-5.37 0-9.73 4.36-9.73 9.73V196zM309 296c0 5.37 4.36 9.73 9.73 9.73h44c5.37 0 9.73-4.36 9.73-9.73v-46.3c0-5.37-4.36-9.73-9.73-9.73h-44c-5.37 0-9.73 4.36-9.73 9.73V296zM373 358h-64.2v132h64.2V358zM31.3 342h145V512H68.5c-20.5 0-37.1-17.3-37.1-38.7V342H31.3zM81.1 445c0 5.37 4.36 9.73 9.73 9.73h46.3c5.37 0 9.73-4.36 9.73-9.73v-44c0-5.37-4.36-9.73-9.73-9.73H90.8c-5.37 0-9.73 4.36-9.73 9.73C81.1 401 81.1 445 81.1 445z"/></svg>