<svg xmlns="http://www.w3.org/2000/svg" viewBox="0 0 352 512"><path d="M240 414H112c-8.78 0-16 7.19-16 16v23.2c0 6.29 1.8 12.5 5.29 17.7l17.1 25.6c5.19 7.88 17.2 14.3 26.5 14.3h61.6c9.38 0 21.4-6.39 26.5-14.3l17.1-25.6c2.99-4.39 5.29-12.4 5.29-17.7l-.1-22.3c.1-8.78-6.99-16.9-15.8-16.9zm-16 39.2l-16.1 24.5c-.499 .399-1.7 1.1-.898 1.1l-60.2 .1c-.399-.1-1.1-.299-1.4-.299-.1 0-.1-.2 0 0l-17.1-25.5v-6.39h95.7v5.19c-.1 .499-.299 1.3-.1 1.3 0 0-.1 .1 0 0zM300 51.2C266 18.1 222-1.15 176 .05 78.9 .349 .343 79.8 .343 177c0 42.8 15.5 84.1 43.4 116 13.3 15.3 35.7 49.5 43.6 75.9 1.1 8.68 8.78 14.6 17.6 13.7 8.68-.998 15-8.98 14.1-17.6l-.599-3.29c-10.3-34.9-35.9-72.7-50.6-89.6-23-26.4-35.6-60.3-35.6-95.4 0-81 63-145 143-145h.499c38 0 73.9 14.9 101 41.8 27.5 27.4 42.7 64.1 42.7 103 0 35.1-12.7 69-35.6 95.4-14.8 16.9-40.3 54.7-50.7 89.6l-.599 3.29c-.998 8.68 4.89 17.6 13.7 18.7 .798 .1 1.5 .2 2.3 .2 7.78 0 14.4-5.09 15.4-13.1 8.28-28.1 30.8-62.4 44.1-77.6 27.9-32.2 43.4-73.6 43.4-116 .1-47.7-18.4-92.4-52-126zm-126 228c-8.48 0-15.5-6.99-15.5-15.5v-15l-1.2-.299c-10.5-2.3-20.9-5.69-30.9-8.98l-1.4-.499-1.4-.499c-3.79-1.3-6.99-3.99-8.88-7.68-1.9-3.59-2.2-7.78-.898-11.8 2-6.39 7.88-10.8 14.7-10.8 1.4 0 2.79 .2 4.19 .599h0l.699 .2 2.89 .998h.1c.798 .299 1.7 .599 2.69 .898l.2 .1 1.1 .399 1.1 .399c8.18 2.69 16.7 5.59 25.3 6.89 4.29 .699 8.38 .998 12.5 .998 7.88 0 14.4-1.2 19.4-3.69l.2-.1 .2-.1c5.49-2 9.58-6.59 10.3-11.7 .599-4.49-1.3-8.58-5.49-11.5l-.2-.1c-6.99-5.39-15.5-7.59-23.6-9.78l-3.59-.998h-.2l-.399-.1c-1.5-.299-2.4-.599-3.49-.898-.299-.1-.599-.2-.898-.299-.2-.1-.499-.2-.699-.2l-.499-.1h-.1c-11.7-3.29-26.2-7.39-37.1-14.4-15.3-9.78-22.5-25.8-19.3-43 3.69-19.6 20.2-29.3 29.8-33.5l.399-.2c3.49-1.9 7.09-2.79 11.4-3.79h.399c.399 0 .898-.2 1.4-.299l1.2-.299v-14.1c0-8.58 6.99-15.5 15.5-15.5s15.5 6.99 15.5 15.5v12.6l1.3 .2c7.98 .998 16.2 3.29 22.7 5.19l.299 .1c.399 .1 .898 .2 1.4 .499 .399 .1 .898 .299 2.1 .599h.2l.2 .1c7.39 2.69 13.6 10.1 11.1 19.1-1.8 6.69-7.98 11.4-14.9 11.4-.998 0-2.5-.1-4.09-.499l-.699-.2c-.798-.2-1.5-.399-2.2-.599l-.998-.299h-.1l-2-.499-2-.499c-4.09-1.1-8.28-2.2-12.6-3.09-3.69-.699-7.39-.998-11.1-.998-7.98 0-15.6 1.5-22.2 4.29-5.49 2.4-11.2 7.29-11.7 12.9-.2 2 .299 5.79 5.49 9.08 8.48 5.39 18.8 7.88 25.7 9.18l.599 .1 .599 .299c1.7 .998 3.49 1.5 5.19 1.9l.898 .299c12.1 3.49 27.1 7.78 38.4 15.6 14.9 10.2 21.8 26.7 18.6 44.4-3.89 21-20.2 30.3-29.4 34-5.79 2.3-12.4 3.89-19.5 4.79l-1.4 .2v13.4c0 4.09-1.6 7.88-4.39 10.8-2.79 2.89-6.59 4.49-10.7 4.49 .299-.1-.1-.1-.2-.1z"/></svg>