<svg xmlns="http://www.w3.org/2000/svg" viewBox="0 0 352 512"><path d="M96.1 454c0 6.3 1.82 12.4 5.28 17.7l17.1 25.7c5.25 7.88 17.2 14.3 26.6 14.3h61.7c9.44 0 21.4-6.4 26.6-14.3l17.1-25.7c2.94-4.44 5.35-12.4 5.35-17.7l.13-39.2H96l.1 39.2zM175 0C73.4 .31 0 83 0 175c0 44.4 16.4 84.8 43.6 116 16.5 18.8 42.3 58.2 52.2 91.4 .03 .25 .09 .52 .12 .78h160c.03-.27 .09-.52 .12-.78 9.88-33.2 35.7-72.6 52.2-91.4 27.1-30.1 43.5-70.5 43.5-116C352 78.6 273-.3 175 0zm.6 96c-44.1 0-80 35.9-80 79.1 0 9.69-7.2 16.9-16 16.9s-16-7.2-16-16c0-61.8 50.3-111 112-111 8.84 0 16 7.16 16 16s-7.2 15.1-16 15.1z"/></svg>