<svg xmlns="http://www.w3.org/2000/svg" viewBox="0 0 352 512"><path d="M96.1 454c0 6.3 1.8 12.4 5.3 17.7l17.1 25.7c5.2 7.9 17.2 14.3 26.6 14.3h61.7c9.4 0 21.4-6.4 26.6-14.3l17.1-25.7c2.9-4.4 5.3-12.4 5.3-17.7l.1-39.2H96l.1 39.2zM175 0C73.4 .3 0 83 0 175c0 44.4 16.4 84.8 43.6 116 16.5 18.8 42.3 58.2 52.2 91.5 0 .2 .1 .5 .1 .8h160c0-.3 .1-.5 .1-.8 9.9-33.2 35.7-72.6 52.2-91.5 27.2-30.1 43.6-70.5 43.6-116C352 78.6 273-.3 175 0zm-2.2 280c-8.5 0-15.5-7-15.5-15.5v-15l-1.2-.3c-10.5-2.3-20.9-5.7-31-9l-1.4-.5-1.4-.5c-3.8-1.3-7-4-8.9-7.7-1.9-3.6-2.2-7.8-.9-11.8 2-6.4 7.9-10.8 14.7-10.8 1.4 0 2.8 .2 4.2 .6h0l.7 .2 2.9 1h.1c.8 .3 1.7 .6 2.7 .9l.2 .1 1.1 .4 1.1 .4c8.2 2.7 16.7 5.6 25.3 6.9 4.3 .7 8.4 1 12.5 1 7.9 0 14.4-1.2 19.4-3.7l.2-.1 .2-.1c5.5-2 9.6-6.6 10.3-11.7 .6-4.5-1.3-8.6-5.5-11.5l-.2-.1c-7-5.4-15.5-7.6-23.6-9.8l-3.6-1h-.2l-.4-.1c-1.5-.3-2.4-.6-3.5-.9-.3-.1-.6-.2-.9-.3-.2-.1-.5-.2-.7-.2l-.5-.1h-.1c-11.7-3.3-26.3-7.4-37.2-14.4-15.3-9.8-22.5-25.9-19.3-43.1 3.7-19.6 20.2-29.4 29.9-33.6l.4-.2c3.5-1.9 7.1-2.8 11.4-3.8h.4c.4 0 .9-.2 1.4-.3l1.2-.3v-14.1c0-8.6 7-15.5 15.5-15.5s15.5 7 15.5 15.5v12.6l1.3 .2c8 1 16.2 3.3 22.7 5.2l.3 .1c.4 .1 .9 .2 1.4 .5 .4 .1 .9 .3 2.1 .6h.2l.2 .1c7.4 2.7 13.6 10.1 11.1 19.1-1.8 6.7-8 11.4-14.9 11.4-1 0-2.5-.1-4.1-.5l-.7-.2c-.8-.2-1.5-.4-2.2-.6l-1-.3h-.1l-2-.5-2-.5c-4.1-1.1-8.3-2.2-12.6-3.1-3.7-.7-7.4-1-11.1-1-8 0-15.6 1.5-22.2 4.3-5.5 2.4-11.2 7.3-11.7 12.9-.2 2 .3 5.8 5.5 9.1 8.5 5.4 18.8 7.9 25.8 9.2l.6 .1 .6 .3c1.7 1 3.5 1.5 5.2 1.9l.9 .3c12.1 3.5 27.2 7.8 38.5 15.6 14.9 10.2 21.8 26.8 18.6 44.5-3.9 21-20.2 30.4-29.5 34.1-5.8 2.3-12.4 3.9-19.5 4.8l-1.4 .2v13.4c0 4.1-1.6 7.9-4.4 10.8-2.8 2.9-6.6 4.5-10.7 4.5 .3-.1-.1-.1-.2-.1z"/></svg>