<svg xmlns="http://www.w3.org/2000/svg" viewBox="0 0 576 512"><path d="M365.3 125.3L258.8 18.8C246.7 6.7 230.5 0 213.5 0C163.7 0 113.8 0 64 0C28.7 0 0 28.7 0 64C0 192 0 320 0 448c0 35.4 28.7 64 64 64c85.3 0 170.7 0 256 0c3.3 0 6.6-.3 9.8-.7c-12.5-8.9-23.7-19.5-33.5-31.3c-77.4 0-154.9 0-232.3 0c-17.6 0-32-14.4-32-32c0-128 0-256 0-384c0-17.6 14.4-32 32-32c42.7 0 85.3 0 128 0c0 37.3 0 74.7 0 112c0 26.5 21.5 48 48 48c37.3 0 74.7 0 112 0c0 6.4 0 12.8 0 19.2c10.1-5.2 20.8-9.4 32-12.6c0-9.4 0-18.8 0-28.1c0-17-6.7-33.2-18.7-45.2zM224 34.1c4.5 1.6 8.7 3.8 12.1 7.3c35.5 35.5 71 71 106.5 106.5c3.5 3.4 5.8 7.6 7.3 12.1c-36.6 0-73.3 0-109.9 0c-8.8 0-16-7.2-16-16c0-36.6 0-73.3 0-109.9zM80 96l64 0c8.8 0 16-7.2 16-16s-7.2-16-16-16c-21.3 0-42.7 0-64 0c-8.8 0-16 7.2-16 16s7.2 16 16 16zm80 48c0-8.8-7.2-16-16-16c-21.3 0-42.7 0-64 0c-8.8 0-16 7.2-16 16s7.2 16 16 16c21.3 0 42.7 0 64 0c8.8 0 16-7.2 16-16zm42 144.9c6.8 .9 14.2 3 21.3 5.2c8.5 2.6 17.4-2.2 20-10.6c2.6-8.4-2.2-17.4-10.6-20c-10-3.1-18-4.9-25-6c.1-1.4 .3-1 .3-1.5c0-5.3 0-10.7 0-16c0-8.8-7.1-16-16-16s-16 7.2-16 16c0 5.3 0 10.7 0 16c0 .3 .2 .5 .2 .8c-25.6 3.3-43.3 16.5-47.3 37.3c-7.8 40 33.1 50.6 52.7 55.8c2.2 .6 4.3 1.1 6.5 1.7c32.3 8.2 37.2 12.3 35.6 20.3c-1.8 9.5-19.8 14.3-41.8 11.2c-8.6-1.1-18.9-4.5-28.1-7.4c-1.7-.5-3.3-1.1-5-1.6c-8.4-2.6-17.4 2-20.1 10.5c-2.7 8.4 2 17.4 10.4 20.1c1.6 .5 3.2 1 4.8 1.5c10.1 3.2 21.4 6.8 32.3 8.4c0 .5-.3 1-.3 1.5c0 5.3 0 10.7 0 16c0 8.8 7.2 16 16 16s16-7.2 16-16c0-5.3 0-10.7 0-16c0-.5-.2-.9-.3-1.4c25.4-3.3 43.4-16 47.4-36.6c.5-2.6 .8-5 .9-7.3c0-.9 0-1.7 0-2.6c0-.8 0-1.6 0-2.4c-1.8-30.3-36.3-39.1-60.1-45.1c-2.1-.5-4.2-1.1-6.3-1.6c-31.4-8.2-30.4-13.3-29.4-18.7c1.8-9.5 19.8-14.3 41.7-11.3zm230-.9c8.8 0 16 7.2 16 16c0 16 0 32 0 48c16 0 32 0 48 0c8.8 0 16 7.2 16 16s-7.2 16-16 16c-16 0-32 0-48 0c0 16 0 32 0 48c0 8.8-7.2 16-16 16s-16-7.2-16-16c0-16 0-32 0-48c-16 0-32 0-48 0c-8.8 0-16-7.2-16-16s7.2-16 16-16c16 0 32 0 48 0c0-16 0-32 0-48c0-8.8 7.2-16 16-16zM288 368c0-79.5 64.5-144 144-144s144 64.5 144 144s-64.5 144-144 144s-144-64.5-144-144zM432 480c61.9 0 112-50.1 112-112s-50.1-112-112-112s-112 50.1-112 112s50.1 112 112 112z"/></svg>