<svg xmlns="http://www.w3.org/2000/svg" viewBox="0 0 352 512"><path d="M240 415H112c-8.85 0-16 7.18-16 16l-.03 23.2c0 6.27 1.81 12.5 5.28 17.7l17.1 25.7c5.23 7.86 17.2 14.3 26.6 14.3h61.7c9.42 0 21.4-6.44 26.6-14.3l17.1-25.7c2.95-4.44 5.34-12.4 5.35-17.7l-.05-22.3c-.02-8.77-7.12-16.9-15.9-16.9zm-16 39.3l-16.1 24.5c-.48 .43-1.69 1.08-.87 1.12l-60.3 .12c-.42-.11-1.14-.28-1.42-.28-.14 0-.13-.23 0 0l-17.1-25.5v-6.37s95.9 0 95.9 0v5.18c-.14 .47-.34 1.27-.14 1.27 0 0-.1 .1 0 0zM300 51.3C266 18.1 222-1.14 176 .05 78.7 .33 0 79.9 0 177c0 42.9 15.5 84.3 43.5 117 13.3 15.3 35.8 49.6 43.7 76 1.08 8.69 8.84 14.6 17.6 13.7 8.7-.97 15-8.97 14.1-17.6l-.61-3.31c-10.3-35-36-72.8-50.7-89.8-23-26.5-35.7-60.4-35.7-95.6 0-81.2 63-145 144-145h.5c38.1 0 74.1 14.9 101 41.9 27.6 27.5 42.8 64.2 42.8 103 0 35.2-12.7 69.2-35.7 95.6-14.8 16.9-40.4 54.8-50.8 89.8l-.62 3.34c-1.05 8.75 4.94 17.6 13.7 18.7 .78 .09 1.53 .16 2.28 .16 7.8 0 14.4-5.12 15.4-13.1 8.34-28.3 30.9-62.5 44.2-77.8 28-32.3 43.5-73.7 43.5-117 0-47.7-18.5-92.5-52.2-126zm-108 28.7c0-8.84-7.16-16-16-16-61.8 0-112 50.2-112 111 0 9.69 7.16 16.9 16 16.9s16-7.16 16-16c0-44.1 35.9-79.1 80-79.1 8.8-.89 16-8.04 16-16.9z"/></svg>