<svg xmlns="http://www.w3.org/2000/svg" viewBox="0 0 491 512"><path d="M468 297l-83.1-34.7c-8.77-3.59-18.7-3.59-27.5 0l-83 34.7c-13.2 5.38-21.8 18.1-22 32.4v.199c0 64.9 25.7 109 47.2 135 22.7 27.1 52.8 46.8 71.6 46.8 18.6-.1 48.8-19.8 71.6-47.1 21.5-25.7 47.1-69.9 47.1-135v-.199c-.199-14.2-8.87-26.9-22-32.4zm-51.3 95l-66.5 53.3c-1.49 1.2-3.39 1.89-5.28 1.89-1.59 0-3.69-.498-4.68-1.49-3.09-1.99-4.18-5.88-2.69-9.26l21.5-44.3h-28c-3.49 .1-6.47-2.09-7.57-5.38-1.2-3.09-.299-6.47 2.19-8.57l66.5-52.9c2.89-2.39 6.97-2.49 10.1-.398 3.09 1.99 4.18 5.88 2.69 9.26l-21.6 44.2h28c3.29 0 6.38 1.99 7.57 5.08 1.2 3.09 .299 6.47-2.19 8.57zM331 56.8c-4.9-4.9-10-9.48-15.3-13.8 .01-.01 .03-.02 .04-.03C262-.299 191-10.9 129 11.2c-26.4 9.29-51.2 24.5-72.4 45.6-9.65 9.65-18.1 20.1-25.4 31.1l.329 .329c-3.46 5.33-6.61 10.8-9.49 16.3-.279 .538-.568 1.08-.837 1.62-.189 .379-.379 .747-.558 1.13C7.78 133 .457 163 .457 194c0 11.5 1.01 22.8 2.93 33.8 .06-.01 .129-.03 .199-.04 6.59 37.8 24.5 74.1 53.7 103 9.65 9.65 20.1 18.1 31.1 25.4l.359-.359c30.3 19.7 66.5 31.2 105 31.2 11.5 0 22.8-1.01 33.8-2.93 0 0 0 0 0 0-3.57-16.5-5.7-34.6-5.7-54.3v-.618c.369-26.3 16.3-49.7 40.5-59.6l83.1-34.7c7.97-3.26 16.4-4.91 25.1-4.91 4.36 0 8.67 .418 12.9 1.26 12.1-61.1-5.59-127-53-174zm-99.9 199c-.02 1.51-.259 8.97-3.38 13.6l-7.07 10.6c-3.51 5.25-10.6 9.06-16.9 9.06h-25.6c-6.32 0-13.4-3.81-16.9-9.05l-7.18-10.8-.07-.12c-2.69-4.4-3.2-11.9-3.25-13v-.259s-.06-10.8-.06-10.8c0-6.95 5.6-12.6 12.5-12.6h55.6c6.88 0 12.5 5.6 12.5 12.5l-.06 10.9zm18.6-70.1c-3.56 4.06-7.64 9.82-11.2 15.8-2.47 4.13-6.8 8.16-11.6 8.16h-71.6c-4.69 0-9.05-2.5-11.4-6.52-3.74-6.44-8.26-12.9-12.1-17.4-1.63-1.83-3.04-3.54-4.3-5.24-9.9-13.3-15.1-29.3-15.1-46.3 0-18.8 6.83-37 19.3-51.1 14.8-17.1 36.3-26.9 59-26.9h.379c21.5 .05 41.4 8.46 56.1 23.6 14 14.5 22 34.3 21.9 54.3 0 19-6.9 37.4-19.4 51.6z"/></svg>