<svg xmlns="http://www.w3.org/2000/svg" viewBox="0 0 491 512"><path d="M223 354c.996 10.6 2.49 20.5 4.58 30-11.1 1.89-22.3 2.89-33.9 2.89-38.8 0-75-11.5-105-31.3l-.398 .398c-11.1-7.27-21.5-15.7-31.2-25.4C21.6 295 2.79 249 .696 203-1.89 150 16.8 96.8 57.1 56.5 128-14 240-18.6 315 43.1c-.1 0-.1 .1-.199 .1 39 31.5 65.5 77.7 70.9 130h-.199c2.09 19.2 1.2 38.7-2.49 57.8-4.18-.797-8.47-1.2-12.8-1.2-6.18 0-12.2 .896-18 2.49 2.99-12.5 4.48-25.3 4.48-38.4 0-43.6-16.9-84.8-47.8-116-30.9-30.9-71.9-47.8-116-47.8s-84.8 16.9-116 47.8c-21.2 21.2-35.9 47.2-42.9 75.6-.1 .398-.199 .797-.299 1.1-.199 .797-.398 1.69-.598 2.49-2.59 11.7-3.98 23.7-3.98 36 0 30 8.07 58.8 23.1 83.9 .199 .299 .398 .598 .598 .896 .498 .797 .896 1.49 1.39 2.29 6.38 10.1 13.9 19.5 22.6 28.2 30.9 30.9 71.9 47.8 116 47.8 10.2-.1 20-.996 29.7-2.79zm148 157c-18.8 0-48.9-19.7-71.6-46.8-21.5-25.7-47.2-69.9-47.2-135v-.199c.199-14.2 8.77-27 22-32.4l83-34.7c8.77-3.59 18.7-3.59 27.5 0l83.1 34.7c13.1 5.48 21.8 18.1 22 32.4v.199c0 64.6-25.6 109-47.1 135-22.8 27.3-53 47-71.6 47.1zm-89.1-181c.1 55.4 21.6 93 39.7 115 21.2 25.6 43.5 36.5 49.2 36.7 5.58-.199 27.9-11.1 49.2-36.9 18.1-21.9 39.7-59.6 39.7-115 0-2.19-1.39-4.18-3.49-5.08h-.1l-83.2-34.7c-1.39-.598-3.09-.598-4.48 0l-83.2 34.7c-1.99 .896-3.39 2.89-3.49 5.18zm134 62.3l-66.5 53.3c-1.49 1.2-3.39 1.89-5.28 1.89-1.59 0-3.69-.498-4.68-1.49-3.09-1.99-4.18-5.88-2.69-9.26l21.5-44.3h-28c-3.49 .1-6.47-2.09-7.57-5.38-1.2-3.09-.299-6.47 2.19-8.57l66.5-52.9c2.89-2.39 6.97-2.49 10.1-.398 3.09 1.99 4.18 5.88 2.69 9.26l-21.6 44.2h28c3.29 0 6.38 1.99 7.57 5.08 1.2 3.09 .299 6.47-2.19 8.57h0zM195 95h0zm44.5 166l-.1 12.3c0 1.69-.299 23.6-3.79 28.8l-7.97 12c-3.98 5.88-12 10.3-19.1 10.3h-28.9c-7.07 0-15.1-4.28-19.1-10.2l-8.07-12.2-.1-.1c-2.99-4.98-3.59-26.9-3.69-28.2v-.299l-.1-12.2c0-7.87 6.28-14.1 14-14.1h62.8c7.77-.199 14.1 6.18 14.1 13.9zm-26.3 12.4l-.1-.199h-38.2c.1 1.79 .398 14.5 .697 16.2l5.68 8.47h25.4l5.78-8.67c.299-1.69 .598-14.4 .598-15.7v-.1h.1zm-59.3-38.6c2.99 0 5.78-.896 8.27-2.49l.398-.299c6.47-4.38 8.57-13.1 4.58-19.9-5.18-8.87-11.3-17.6-16.9-24.1l-.1-.199-.299-.299c-1.1-1.2-2.09-2.39-2.99-3.69-7.27-9.76-11.1-21.5-11.1-34.2 0-13.8 5.08-27.2 14.1-37.7l1.49-1.79c10.9-11.7 26.3-18.3 42.3-18.3h.299c15.9 .1 30.7 6.28 41.5 17.4 10.4 10.8 16.3 25.5 16.3 40.2s-5.08 27.7-14.3 38.2c-5.08 5.78-11 14.1-15.9 22.3-3.98 6.67-2.39 15.1 3.79 19.8l.1 .1c2.59 1.99 5.78 3.09 9.06 3.09 5.38 0 10.3-2.79 13-7.47 3.98-6.77 8.67-13.2 12.7-17.8 14.1-16 21.9-36.7 21.9-58.2 .1-22.6-8.96-44.9-24.7-61.3-16.5-17.1-39-26.6-63.3-26.7h-.398c-25.6 0-49.9 11.1-66.5 30.4-14 15.9-21.7 36.5-21.7 57.7 0 19.2 5.88 37.3 17 52.3 1.39 1.89 2.99 3.88 4.88 5.88 4.28 4.98 9.46 12.4 13.6 19.6 2.59 4.58 7.47 7.37 12.8 7.37h0z"/></svg>