<svg xmlns="http://www.w3.org/2000/svg" viewBox="0 0 496 512"><path d="M84.2 185c34-64 115-88.9 179-54.9 57.5 30.6 85.5 98.8 64.8 161l-.539 1.71c-5.22 15.4-21.9 23.8-37.3 18.5-15.5-5.2-23.8-21.9-18.6-37.3l.539-1.71c11.5-34.5-3.47-72.2-35.6-89.2-36.1-19.2-81.2-5.45-100 30.7l-68.6 129c-19.5 35.5-5.54 81.2 30.7 100 32 17.1 71.8 8.42 93.8-20.4l.875-2.2c10.2-12.2 28.7-14.6 41.5-4.7 13 9.91 15.4 28.4 5.53 41.4l-1.11 1.4c-40.4 52-111 67.1-168 36.6C5.88 461-18.8 380 15.8 315l68.5-130zm327 140c-34.6 65-115 89.7-180 55.1-57.5-30.6-84.5-98.3-63.8-160l.539-1.71c4.43-15.1 21.1-23.5 37.3-18.5 15.2 4.41 23.6 21.1 18.6 37.3l-.539 1.71c-11.8 33.7 3.47 72.2 35.6 89.2 36.1 19.2 81.2 5.45 100-30.7l68.6-129c19.3-36.2 5.29-82-30.7-100-32-17.1-71.8-8.43-93.8 20.4l-1.11 1.4c-9.91 13-28.7 14.6-41.3 5.48-12.9-9.89-15.4-28.4-5.51-41.3l1.11-1.41C296 .509 367-15 425 15.6c65 34.5 89.7 115 55.1 180l-68.7 129z"/></svg>