<svg xmlns="http://www.w3.org/2000/svg" viewBox="0 0 495 512"><path d="M127 511c-20.6 0-41.2-5.16-59.6-14.9-30-15.9-51.9-42.6-61.9-75.1-9.93-32.5-6.62-66.9 9.33-96.8l71.9-137c10.8-20.4 27.3-37.4 47.6-49.2 19.7-11.5 42.2-17.5 65-17.5 20.4 0 40.6 5.01 58.5 14.5 26.6 14.2 47.6 37.4 59 65.5 11.4 28.2 12.5 59.3 2.93 87.7l-.588 1.86c-2.55 7.35-9.43 12.3-17.2 12.3-1.93 0-3.86-.321-5.71-.951-4.69-1.58-8.45-4.85-10.6-9.24-2.13-4.3-2.46-9.15-.919-13.6l.62-1.96c14.1-42.3-4.21-88.1-43.5-109-13.1-6.95-27.7-10.6-42.5-10.6-33.7 0-64.5 18.4-80.4 48.2l-72 136c-11.4 20.8-13.9 45.1-7.01 68.3 7.05 23.7 22.9 43.1 44.5 54.6 13.1 6.97 27.8 10.7 42.6 10.7 28.1 0 55.1-13.3 72.1-35.6l1.08-1.41 .705-1.77c3.53-3.46 8.45-5.48 13.5-5.48 4.13 0 8.01 1.31 11.2 3.78 7.98 6.11 9.53 17.5 3.52 25.4l-1.18 1.48c-24.7 31.7-61.5 49.9-101 49.9zm168-121c-20.6 0-41.2-5.16-59.6-14.9-26.5-14.1-47.3-37.3-58.4-65.2-11.1-27.9-12-59-2.42-87.5l.716-2.27c2.06-7.03 8.86-11.8 16.9-11.8 2.06 0 4.14 .321 6.17 .941l.214 .064c4.07 1.18 7.47 3.97 9.58 7.87 2.46 4.54 2.92 9.94 1.29 15.2l-.481 1.53c-14.4 41.4 4.32 88.2 43.5 109 13.1 6.95 27.7 10.6 42.5 10.6 33.7 0 64.5-18.4 80.4-48.2l72.1-136c11.5-21.7 13.8-46.6 6.38-70.2-7.26-23.1-22.9-41.9-44-52.7-13.1-6.94-27.7-10.6-42.5-10.6-28.1 0-55 13.3-72 35.5l-1.24 1.57c-3.3 4.31-8.51 6.79-14.3 6.79-4.06 0-8.05-1.25-11.2-3.53-3.78-2.95-6.22-7.17-6.85-11.9-.631-4.78 .631-9.51 3.56-13.3l1.2-1.54C291 18.1 328 0 368 0c20.7 0 41.3 5.15 59.6 14.9 30 15.9 52 42.6 61.9 75.1 9.92 32.5 6.6 66.8-9.36 96.8l-72.2 136c-22.1 41.6-65.2 67.5-112 67.5z"/></svg>