<svg xmlns="http://www.w3.org/2000/svg" viewBox="0 0 384 512"><path d="M272 192c0 44.2-35.8 80-80 80s-80-35.8-80-80s35.8-80 80-80s80 35.8 80 80zm-80 48c26.5 0 48-21.5 48-48s-21.5-48-48-48s-48 21.5-48 48s21.5 48 48 48zm192-48c0 87.4-117 243-168.3 307.2c-12.3 15.3-35.1 15.3-47.4 0C116.1 435 0 279.4 0 192C0 86 86 0 192 0C298 0 384 86 384 192h0zM192 32C103.6 32 32 103.6 32 192c0 15.6 5.4 37 16.6 63.4c10.9 25.9 26.2 54 43.6 82.1c34.1 55.3 74.5 108.2 99.9 140.1c25.4-31.9 65.8-84.8 99.9-140.1c17.3-28.1 32.6-56.2 43.5-82.1C346.6 229 352 207.6 352 192c0-88.4-71.6-160-160-160z"/></svg>