<svg xmlns="http://www.w3.org/2000/svg" viewBox="0 0 586 512"><path d="M37 0c20.2 0 36.6 16.4 36.6 36.6V421c0 10.1 8.18 18.3 18.3 18.3H549c20.2 0 36.6 16.3 36.6 36.6s-16.3 36.6-36.6 36.6H91.9C41.4 512 .429 471 .429 421V36.6C.429 16.4 16.8 0 37 0zM183 219c20.2 0 36.6 16.3 36.6 36.6v73.1c0 20.2-16.3 36.6-36.6 36.6s-36.6-16.3-36.6-36.6v-73.1c0-20.2 16.3-36.6 36.6-36.6zm146 110c0 20.2-16.3 36.6-36.6 36.6s-36.6-16.3-36.6-36.6V146c0-20.2 16.3-36.6 36.6-36.6s36.6 16.3 36.6 36.6v183zm73.1-146c20.2 0 36.6 16.3 36.6 36.6v110c0 20.2-16.3 36.6-36.6 36.6s-36.6-16.3-36.6-36.6v-110c0-20.2 16.3-36.6 36.6-36.6zm146 146c0 20.2-16.3 36.6-36.6 36.6s-36.6-16.3-36.6-36.6V73.1c0-20.2 16.3-36.6 36.6-36.6s36.6 16.4 36.6 36.6v256z"/></svg>