<svg xmlns="http://www.w3.org/2000/svg" viewBox="0 0 586 512"><path d="M18.7 0c10.1 0 18.3 8.18 18.3 18.3V421c0 30.3 24.6 54.9 54.9 54.9H567c10.1 0 18.3 8.23 18.3 18.3s-8.23 18.3-18.3 18.3H91.9C41.4 512 .429 471 .429 421V18.3C.429 8.18 8.61 0 18.7 0zM165 256c10.1 0 18.3 8.23 18.3 18.3v110c0 10.1-8.23 18.3-18.3 18.3s-18.3-8.23-18.3-18.3v-110c0-10.1 8.23-18.3 18.3-18.3zm128 128c0 10.1-8.23 18.3-18.3 18.3s-18.3-8.23-18.3-18.3V128c0-10.1 8.23-18.3 18.3-18.3s18.3 8.23 18.3 18.3v256zm91.4-201c10.1 0 18.3 8.23 18.3 18.3v183c0 10.1-8.23 18.3-18.3 18.3s-18.3-8.23-18.3-18.3V201c0-10.1 8.23-18.3 18.3-18.3zm128 201c0 10.1-8.23 18.3-18.3 18.3s-18.3-8.23-18.3-18.3V91.4c0-10.1 8.23-18.3 18.3-18.3s18.3 8.23 18.3 18.3V384z"/></svg>