<svg xmlns="http://www.w3.org/2000/svg" viewBox="0 0 640 512"><path d="M435 416c-20.8 0-39.9-12.9-47.3-32.1-7.69-19.7-1.91-42.2 14.4-55.9l109-87.7C503 106 392 0 256 0S0 115 0 256s115 256 256 256c72.1 0 137-29.9 184-77.9l8.8-18.1h-13.8zM192 208c0 8.8-7.2 16-16 16h-32c-8.8 0-16-7.2-16-16v-64c0-8.8 7.2-16 16-16h32c8.8 0 16 7.2 16 16v64zm96 0c0 8.8-7.2 16-16 16h-32c-8.8 0-16-7.2-16-16v-64c0-8.8 7.2-16 16-16h32c8.8 0 16 7.2 16 16v64zm96 0c0 8.8-7.2 16-16 16h-32c-8.8 0-16-7.2-16-16v-64c0-8.8 7.2-16 16-16h32c8.8 0 16 7.2 16 16v64zm255 156c-2.7-7.1-9.7-11.7-17.5-11.7h-65l50.2-103c3.43-7.71 .84-16.7-6.2-21.6-7.11-4.98-16.7-4.54-23.3 1l-155 123c-5.87 4.94-7.91 12.9-5.18 19.9 2.78 7.96 9.78 12.6 17.6 12.6h65l-50.2 103c-3.43 7.72-.84 16.7 6.2 21.6 2.36 2.36 7.06 3.46 11 3.46 4.41 0 8.79-1.49 12.3-4.45l155-124c5.81-4.95 7.81-12.9 5.11-19.9z"/></svg>