<svg xmlns="http://www.w3.org/2000/svg" viewBox="0 0 640 512"><path d="M256 32c-124 0-224 100-224 224s100 224 224 224c55.6 0 107-20.3 146-53.8 8.7 7.8 20 12.9 32.4 13.7-46.1 44.6-109 72.1-178 72.1C115 512 0 397 0 256S115 0 256 0s249 107 256 242l-32.2 30.6c.4-5.6 .6-11.3 .6-17 0-124-100-224-224-224h0zm-80 176c0 8.8-7.2 16-16 16s-16-7.2-16-16v-64c0-8.8 7.2-16 16-16s16 7.2 16 16v64zm96 0c0 8.8-7.2 16-16 16s-16-7.2-16-16v-64c0-8.8 7.2-16 16-16s16 7.2 16 16v64zm96 0c0 8.8-7.2 16-16 16s-16-7.2-16-16v-64c0-8.8 7.2-16 16-16s16 7.2 16 16v64zm236 44.5l-34.9 75.5h49.4c11.9 0 21.6 9.7 21.6 21.6 0 5.9-2.4 11.6-6.7 15.7l-149 141c-3.7 3.5-8.7 5.5-13.8 5.5-14.7 0-24.4-15.2-18.3-28.5l34-75.5h-48.5c-11.9 0-21.6-9.7-21.6-21.6 0-5.9 2.4-11.6 6.7-15.7l149-141c3.7-4.4 8.7-5.5 13.8-5.5 14.7 0 23.5 15.2 18.3 28.5zm-91.9 124c5.5 0 10.5 2.8 13.5 7.4 2.9 3.7 3.3 10.4 1 15.3l-19.3 41.9 85.1-80.6h-48.3c-5.5 0-10.5-2.8-13.5-7.4-2.9-4.6-3.3-10.4-1-15.3l19.3-41.9-85.1 80.6h48.3z"/></svg>