<svg xmlns="http://www.w3.org/2000/svg" viewBox="0 0 659 512"><path d="M.357 73.1C.357 32.8 33 0 73.5 0h512c40.3 0 73.1 32.8 73.1 73.1v329c0 40.3-32.8 73.1-73.1 73.1c0 20.2-16.3 36.6-36.6 36.6s-36.6-16.3-36.6-36.6H147c0 20.2-16.3 36.6-36.6 36.6c-20.2 0-36.6-16.3-36.6-36.6c-40.3 0-73.1-32.8-73.1-73.1V73.1zM64.4 357c0 15.2 12.2 27.4 27.4 27.4h379c15.2 0 27.4-12.2 27.4-27.4V119c0-15.2-12.2-27.4-27.4-27.4H91.8c-15.2 0-27.4 12.2-27.4 27.4V357zM567 91.4c-10.1 0-18.3 8.23-18.3 18.3v256c0 10.1 8.23 18.3 18.3 18.3s18.3-8.23 18.3-18.3V110C586 99.7 577 91.4 567 91.4zM358 364l43.2-77.7c4.23-7.66-1.26-17-9.94-17H171c-8.69 0-14.2 9.37-9.94 17l43.2 77.7c2.06 3.66 5.83 5.83 9.94 5.83h134C352 370 356 368 358 364zM246 246c6.4-5.94 15.1-14.1 15.1-29.7s-8.69-23.8-15.1-29.7c-5.37-5.03-7.77-7.54-7.77-13c0-5.49 2.4-7.89 7.77-13c6.4-5.94 15.1-14.1 15.1-29.7h-22.9c0 5.49-2.4 7.89-7.77 13c-6.4 5.94-15.1 14.1-15.1 29.7c0 15.7 8.69 23.8 15.1 29.7c5.37 5.03 7.77 7.54 7.77 13s-2.4 7.89-7.77 13c-6.4 5.94-15.1 14.1-15.1 29.7h22.9C238 254 240 252 246 246zM333 246c6.4-5.94 15.1-14.1 15.1-29.7s-8.69-23.8-15.1-29.7c-5.37-5.03-7.77-7.54-7.77-13c0-5.49 2.4-7.89 7.77-13c6.4-5.94 15.1-14.1 15.1-29.7h-22.9c0 5.49-2.4 7.89-7.77 13c-6.4 5.94-15.1 14.1-15.1 29.7c0 15.7 8.69 23.8 15.1 29.7c5.37 5.03 7.77 7.54 7.77 13s-2.4 7.89-7.77 13c-6.4 5.94-15.1 14.1-15.1 29.7h22.9C325 254 327 252 333 246z"/></svg>