<svg xmlns="http://www.w3.org/2000/svg" viewBox="0 0 657 512"><path d="M463 103v269H98.2V103H463M470 68.4H91.3c-15.2 0-27.4 12.2-27.4 27.4v283c0 15.2 12.2 27.4 27.4 27.4h379c15.2 0 27.4-12.2 27.4-27.4V95.8C497 80.6 485 68.4 470 68.4L470 68.4zM566 68.4c-10 0-18.2 8.21-18.2 18.2v301c0 10 8.21 18.2 18.2 18.2s18.2-8.21 18.2-18.2V86.7C584 76.6 576 68.4 566 68.4zM352 292l-17.8 31.9h-107l-17.8-31.9H352M390 258H171c-8.67 0-14.1 9.35-9.92 17l43.1 77.5c2.05 3.65 5.82 5.82 9.92 5.82h133c4.11 0 7.98-2.28 9.92-5.82l43.1-77.5C405 267 399 258 390 258L390 258zM245 234c6.39-5.93 15.1-14 15.1-29.6s-8.67-23.7-15.1-29.6c-5.36-5.02-7.75-7.53-7.75-13c0-5.47 2.39-7.87 7.75-13c6.39-5.93 15.1-14 15.1-29.6h-22.8c0 5.47-2.39 7.87-7.75 13c-6.39 5.93-15.1 14-15.1 29.6c0 15.6 8.67 23.7 15.1 29.6c5.36 5.02 7.75 7.53 7.75 13s-2.39 7.87-7.75 13c-6.39 5.93-15.1 14-15.1 29.6h22.8C237 242 240 240 245 234zM332 234c6.39-5.93 15.1-14 15.1-29.6s-8.67-23.7-15.1-29.6c-5.36-5.02-7.75-7.53-7.75-13c0-5.47 2.39-7.87 7.75-13c6.39-5.93 15.1-14 15.1-29.6h-22.8c0 5.47-2.39 7.87-7.75 13c-6.39 5.93-15.1 14-15.1 29.6c0 15.6 8.67 23.7 15.1 29.6c5.36 5.02 7.75 7.53 7.75 13s-2.39 7.87-7.75 13c-6.39 5.93-15.1 14-15.1 29.6h22.8C324 242 326 240 332 234zM584 0H73.1C32.8 0 .09 32.6 .09 73v328c0 40.3 32.7 73 73 73c4.11 0 10.4 0 18.4 0v19.8c0 9.46 7.64 17.1 17.1 17.1s17.1-7.64 17.1-17.1V474c99.8 0 303 0 404 0v19.8c0 9.46 7.64 17.1 17.1 17.1s17.1-7.64 17.1-17.1V474c8.55 0 15.3 0 19.8 0c40.3 0 73-32.7 73-73V73C657 32.6 624 0 584 0zM623 401c0 21.3-17.4 38.8-38.8 38.8H73.1c-21.3 0-38.8-17.4-38.8-38.8V73c0-21.3 17.4-38.8 38.8-38.8h511c21.3 0 38.8 17.4 38.8 38.8V401z"/></svg>