<svg xmlns="http://www.w3.org/2000/svg" viewBox="0 0 500 512"><path d="M170 329l43.1-43.1c5.8-5.8 15.3-5.8 21.1 0c5.8 5.8 5.8 15.3 0 21.1L166 376c-2.8 2.8-6.6 4.4-10.6 4.4c-4 0-7.8-1.6-10.6-4.4l-68.6-68.6c-5.8-5.8-5.8-15.3 0-21.1c5.8-5.8 15.3-5.8 21.1 0l43.1 43.1V142c0-8.3 6.7-14.9 14.9-14.9c8.3 0 14.9 6.7 14.9 14.9V329zM492 426l-112 75.2c-2.5 1.7-5.4 2.5-8.3 2.5c-1 0-2.1-.1-3.1-.3c-3.9-.8-7.4-3.2-9.5-6.6l-39.9-63.2c-2.7-1.8-5.3-3.6-7.8-5.6v42.9c0 10.9-4.2 21.1-11.9 28.9c-7.7 7.8-18 12-29 12c0 0 0 0 0 0H40.8C18.3 512 0 494 0 471V40.8C0 18.3 18.3 0 40.8 0h229c10.8 0 21.2 4.2 28.9 11.9c7.7 7.7 12 18 12 28.9v41.7c59 39.1 94.8 70.9 116 103c20.5 31.1 25.5 59.5 31.3 92.5c6 34.4 12.9 73.5 39.1 130C500 414 498 422 492 426zM280 163c.2 .2 .5 .4 .7 .6V92.5H29.9v327h251v-34c-4-12.8-5.3-26.8-3.6-41.6c3-26.4-27.1-58.2-51.4-83.7c-8.9-9.4-17.4-18.3-23.8-26.5c-21.9-25.7-14.1-56.3 5-73.4C226 143 257 139 280 163zM29.9 40.8v21.8h251V40.8c0-2.9-1.1-5.7-3.2-7.8c-2.1-2.1-4.9-3.2-7.8-3.2H40.8C34.8 29.9 29.9 34.8 29.9 40.8zM281 471v-22H29.9v22c0 6 4.9 10.9 10.9 10.9h229c0 0 0 0 0 0c3 0 5.8-1.2 7.8-3.3C280 477 281 474 281 471zM465 408c-23.6-53.6-30.5-93.1-36.1-125c-10.1-58-16.5-94.3-118-165v76c4.8 5.1 10.3 11 16.7 17.8c22.1 23.7 44.2 47.6 44.4 47.8c5.6 6.1 5.2 15.5-.8 21.1c-6.1 5.6-15.5 5.2-21.1-.8c-30.8-33.3-81.4-87.8-88.8-94.4c-.8-.6-1.6-1.2-2.2-2c-11.2-12.2-24.2-8.5-31.9-1.6c-7.7 6.9-12.8 19.3-2 31.9c.2 .2 .3 .4 .5 .6c5.6 7.1 13.6 15.6 22.1 24.6c28.5 30 64 67.3 59.4 108c-4.2 36.8 17 55.2 30 62.9c2.2 1.3 3.9 3.1 5.2 5.1c1.9 3 21.8 34.6 33.4 52.9L465 408z"/></svg>