<svg xmlns="http://www.w3.org/2000/svg" viewBox="0 0 500 512"><path d="M0 92.5v328h304v-.7c-20.9-21.5-30.2-47.5-27-75.6c3-26.5-27.2-58.4-51.6-84c-9-9.4-17.4-18.4-23.9-26.6c-22-25.8-14.2-56.6 5-73.7c19.1-17 50.3-21.4 73.4 3c4 3.5 11.7 11.3 30 30.8v-101H0zM208 286c5.8-5.8 15.3-5.8 21.1 0c5.8 5.8 5.8 15.3 0 21.1L161 376c-2.8 2.8-6.6 4.4-10.6 4.4c-4 0-7.8-1.6-10.6-4.4l-68.6-68.6c-5.8-5.8-5.8-15.3 0-21.1c5.8-5.8 15.3-5.8 21.1 0l43.1 43.1V142c0-8.3 6.7-14.9 14.9-14.9c8.3 0 14.9 6.7 14.9 14.9v187L208 286zM310 62.5H0V40.8C0 18.3 18.3 0 40.8 0h229c10.8 0 21.2 4.2 28.9 11.9c7.7 7.7 12 18 12 28.9V59h-.5V62.5zM0 450h311v20.8c0 10.9-4.2 21.1-11.9 28.9c-7.7 7.8-18 12-29 12c0 0 0 0 0 0H40.8C18.3 512 0 494 0 471V450zM492 426l-112 75.2c-2.5 1.7-5.4 2.5-8.3 2.5c-1.8 0-3.5-.3-5.2-.9c-3.2-1.2-5.8-3.5-7.6-6.3l-23.8-37.8v-45.5c0-4.2-1.8-8.2-4.9-11l0 0c-17.2-15.8-24.7-34.3-22.4-54.9c4.6-40.4-31-77.9-59.6-108c-8.6-9-16.6-17.5-22.2-24.7l-.5-.6c-10.9-12.6-5.7-25.1 2-32c7.7-6.9 20.7-10.6 32 1.6l2.4 2.6l.8 .3c9 8.7 48.4 51 78 82.9c5.6 6.1 15.1 6.4 21.2 .8l0 0c6.1-5.6 6.5-15.1 .8-21.2c-5.8-6.2-13.5-14.5-21.8-23.5V103c41.8 30.1 69 56.3 86.4 82.5c20.5 31.1 25.5 59.5 31.3 92.5c6 34.4 12.9 73.5 39.1 130C500 414 498 422 492 426z"/></svg>