<svg xmlns="http://www.w3.org/2000/svg" viewBox="0 0 579 512"><path d="M421 512c-87.2 0-158-70.9-158-158s70.9-158 158-158 158 70.9 158 158-70.9 158-158 158zm0-286c-70.6 0-128 57.4-128 128s57.4 128 128 128 128-57.4 128-128-57.4-128-128-128zm58.3 147c-3.52-7.56-9.24-13.1-15.3-17.1-11-7.35-26-11.4-38.2-14.7l-1.2-.351c-13.8-3.73-24.5-6.83-31.5-11.4-3.16-2.11-4.74-4.02-5.55-5.76s-1.39-4.25-.552-8.84c.863-4.77 4.12-9.04 12-12 8.12-3.09 19.9-4.13 33.7-2.07 4.81 .693 17 2.32 21 3.73 7.36 1.86 14.8-2.6 16.7-9.96 1.69-7.32-2.68-14.7-9.92-16.7-5.58-1.42-19.2-3.6-23.7-4.28l-2.01-.291v-15.3c0-7.59-6.15-13.7-13.7-13.7s-13.7 6.15-13.7 13.7v14.9c-6.17 .683-12.2 2.13-18.1 4.3-14.1 5.39-26.2 16.1-29.2 32.7-1.66 9.15-.883 17.7 2.69 25.4 3.41 7 8.69 12.9 15.3 17.1 11 7.35 26 11.4 38.2 14.7l1.2 .351c13.8 3.73 24.5 6.83 31.5 11.4 3.13 2.11 4.73 4.02 5.54 5.76s1.38 4.25 .562 8.84c-.954 5.15-4.26 9.45-11.5 12.4-7.64 3.09-18.9 4.3-32.7 2.23-11.2-1.96-22.1-5.06-32.7-9.28-6.55-3.09-14.7 0-17.7 6.96-3.11 6.94 0 15.1 6.93 18.2h0c11.6 5.15 28.9 9.66 39.3 11.3h.09c.171-.341 .381 .08 .552 .08v15c0 7.59 6.15 13.7 13.7 13.7s13.7-6.15 13.7-13.7h0v-14.4c6.55-.683 13-2.28 19.1-4.73 13.6-5.67 25.2-16.6 28.2-33.3 1.66-8.72 .883-17.3-2.68-25zM402 62.2h-66.3V15.1c0-8.31-6.75-15.1-15.1-15.1s-15.1 6.75-15.1 15.1V62.2H145V15.1c0-8.31-6.75-15.1-15.1-15.1s-15.1 6.75-15.1 15.1V62.2H48.6C21.9 62.2 .371 83.8 .371 110V464c0 26.6 21.6 48.2 48.2 48.2H309c-12.3-8.71-23.6-18.8-33.6-30.1H48.6c-9.97 0-18.1-8.1-18.1-18.1V190H318c29.5-18.4 64.4-29.1 102-29.2v-.883H30.5v-49.2c0-9.97 8.1-18.1 18.1-18.1H402c9.97 0 18.1 8.1 18.1 18.1v49.2h30.1v-49.2c0-26.6-21.6-48.2-48.2-48.2z"/></svg>