<svg xmlns="http://www.w3.org/2000/svg" viewBox="0 0 575 512"><path d="M348.29 512H48c-26.51 0-48-21.5-48-48V192h400.438C320.589 207.071 260 277.337 260 361.5c0 64.554 35.65 120.929 88.29 150.5zM448 112c0-26.51-21.5-48-48-48h-48V32c0-17.67-14.3-32-32-32s-32 14.33-32 32v32H160V32c0-17.67-14.3-32-32-32S96 14.33 96 32v32H48C21.49 64 0 85.49 0 112v48h448v-48zm127 249.5c0 78.701-63.799 142.5-142.5 142.5S290 440.201 290 361.5 353.799 219 432.5 219 575 282.799 575 361.5zm-84.412 18.778c-3.507-7.528-9.196-12.96-15.227-16.981-11.036-7.314-25.921-11.378-38.068-14.671l-1.198-.342c-13.773-3.721-24.381-6.801-31.336-11.378-3.144-2.096-4.722-4.021-5.531-5.732-.753-1.625-1.382-4.235-.552-8.811.86-4.748 4.106-8.982 11.925-11.977 8.084-3.08 19.847-4.106 33.577-2.053 4.791.684 16.896 2.31 20.873 3.721 7.357 1.839 14.8-2.609 16.639-9.923 1.882-7.314-2.951-14.778-9.881-16.635-5.561-1.407-19.077-3.584-23.611-4.26-.684-.098-1.326-.197-2.01-.287v-15.262c0-7.558-6.117-13.688-13.688-13.688-7.571 0-13.688 6.129-13.688 13.688v14.855c-6.373.753-12.413 2.151-17.982 4.277-14.077 5.372-26.062 15.984-29.09 32.623-1.655 9.111-.881 17.665 2.682 25.279 3.512 7.528 9.166 12.96 15.202 16.981 11.044 7.314 25.938 11.378 38.086 14.671l1.198.342c13.773 3.721 24.381 6.801 31.353 11.378 3.122 2.096 4.705 4.021 5.518 5.732.77 1.625 1.369 4.235.556 8.811-.941 5.133-4.235 9.41-11.463 12.362-7.614 3.08-18.863 4.277-32.551 2.224-8.512-1.326-23.226-5.218-32.551-9.196-6.523-3.08-14.611.043-17.683 6.929-3.071 6.929.039 15.013 6.946 18.093 11.579 5.133 28.744 9.624 39.138 11.249h.086c.171-.342.385.086.556.086v14.928a13.674 13.674 0 0013.688 13.688 13.674 13.674 0 0013.688-13.688v-14.286c6.758-.77 13.174-2.31 18.991-4.705 13.559-5.646 25.108-16.511 28.102-33.149 1.626-8.725.856-17.28-2.694-24.893z"/></svg>