<svg xmlns="http://www.w3.org/2000/svg" viewBox="0 0 456 512"><path d="M142.78 28.556v28.557h114.223V28.556C257.003 12.788 269.764 0 285.56 0c15.794 0 28.556 12.788 28.556 28.556v28.557h42.834c23.648 0 42.833 19.177 42.833 42.833v42.834H0V99.945c0-23.657 19.177-42.833 42.834-42.833h42.833V28.556C85.668 12.788 98.43 0 114.223 0s28.557 12.788 28.557 28.556zm311.7 385.504V131.556c0-8.238-6.68-14.917-14.918-14.917-8.24 0-14.917 6.679-14.917 14.917V414.06c0 37.328-30.368 67.697-67.695 67.697H42.834c-8.239 0-14.918 6.679-14.918 14.917 0 8.24 6.68 14.917 14.918 14.917H356.95c53.777 0 97.53-43.751 97.53-97.53zM0 171.335V414.06c0 23.657 19.177 42.834 42.834 42.834h192.485V343.07c0-27.968 22.672-50.64 50.64-50.64h113.823V171.334H0zm114.223 214.17c0 7.852-6.424 14.278-14.278 14.278H71.39c-7.889 0-14.278-6.425-14.278-14.278v-28.556c0-7.853 6.39-14.279 14.278-14.279h28.555c7.854 0 14.278 6.425 14.278 14.279v28.556zm0-114.223c0 7.853-6.424 14.278-14.278 14.278H71.39c-7.889 0-14.278-6.425-14.278-14.278v-28.557c0-7.852 6.39-14.278 14.278-14.278h28.555c7.854 0 14.278 6.425 14.278 14.278v28.557zm114.224 114.223c0 7.852-6.425 14.278-14.278 14.278h-28.557c-7.853 0-14.278-6.425-14.278-14.278v-28.556c0-7.853 6.425-14.279 14.278-14.279h28.557c7.852 0 14.278 6.425 14.278 14.279v28.556zm0-114.223c0 7.853-6.425 14.278-14.278 14.278h-28.557c-7.853 0-14.278-6.425-14.278-14.278v-28.557c0-7.852 6.425-14.278 14.278-14.278h28.557c7.852 0 14.278 6.425 14.278 14.278v28.557zm114.223 0c0 7.853-6.424 14.278-14.278 14.278h-28.556c-7.853 0-14.278-6.425-14.278-14.278v-28.557c0-7.852 6.424-14.278 14.278-14.278h28.556c7.853 0 14.278 6.425 14.278 14.278v28.557zm-83.842 85.171v100.442L399.783 315.94H299.341c-22.375 0-40.513 18.138-40.513 40.513z"/></svg>