<svg xmlns="http://www.w3.org/2000/svg" viewBox="0 0 456 512"><path d="M266 456l134-135V88.9c0-23.7-19.2-42.9-42.9-42.9h-55.9V15.2c0-8.42-6.79-15.2-15.2-15.2s-15.2 6.79-15.2 15.2v30.8h-142V15.2c0-8.42-6.79-15.2-15.2-15.2s-15.2 6.79-15.2 15.2v30.8H43.3C19.6 46 .388 65.2 .388 88.9v325c0 23.7 19.2 42.9 42.9 42.9H266zM30.8 88.9c0-6.89 5.58-12.5 12.5-12.5h314c6.89 0 12.5 5.58 12.5 12.5V140H30.8V88.9zM266 414v-50.9c0-22.4 18.1-40.6 40.6-40.6h50.9L266 414zM30.8 413V171h339v121h-63.3c-39.1 0-71 31.8-71 71v63.3h-193C36.4 426 30.8 420 30.8 413zM455 131v283c-.101 53.9-43.7 97.5-97.6 97.6H43.3c0 0 0 0 0 0c-8.21 0-14.9-6.69-14.9-14.9s6.69-14.9 14.9-14.9h314c37.4 0 67.7-30.3 67.7-67.7V131c0-8.21 6.69-14.9 14.9-14.9C449 116 455 122 455 131zM60.8 363v-25.3c0-7 5.68-12.7 12.7-12.7h25.3c7 0 12.7 5.68 12.7 12.7v25.3c0 7-5.68 12.7-12.7 12.7h-25.3C66.5 376 60.8 370 60.8 363zM290 249v-25.3c0-7 5.68-12.7 12.7-12.7h25.3c7 0 12.7 5.68 12.7 12.7v25.3c0 7-5.68 12.7-12.7 12.7h-25.3C295 261 290 256 290 249zM175 246v-25.3c0-7 5.68-12.7 12.7-12.7h25.3c7 0 12.7 5.68 12.7 12.7v25.3c0 7-5.68 12.7-12.7 12.7h-25.3C180 259 175 253 175 246zM175 363v-25.3c0-7 5.68-12.7 12.7-12.7h25.3c7 0 12.7 5.68 12.7 12.7v25.3c0 7-5.68 12.7-12.7 12.7h-25.3C180 376 175 370 175 363zM60.8 249v-25.3c0-7 5.68-12.7 12.7-12.7h25.3c7 0 12.7 5.68 12.7 12.7v25.3c0 7-5.68 12.7-12.7 12.7h-25.3C66.5 261 60.8 256 60.8 249z"/></svg>