<svg xmlns="http://www.w3.org/2000/svg" viewBox="0 0 512 512"><path d="M475 338v42.8c0 69.2-54.1 125-122 130c-2.79 .599-5.79 .898-8.78 .898h-102c-41 0-80.1-19.6-105-52.4l-17.5-23.3c-5.69-7.59-8.78-16.8-8.78-26.1v-24.7c0-13.3 5.99-25.7 15.6-34l27.2-21.9v22.4c0 7.98 6.49 14.6 14.6 14.6c7.98 0 14.6-6.49 14.6-13.8l.599-204l.1-46.2l.1-19.9c0-20.1 16.3-36.3 36.3-36.3c18.2 0 33.1 13.3 35.9 30.6c.299 1.9 .499 3.79 .499 5.69v26v154c7.68-6.99 17.9-11.4 29-11.4c21.4 0 39 15.4 42.8 35.6c7.59-12.6 21.4-21.1 37.1-21.1c21.4 0 39 15.4 42.8 35.5c6.59-3.99 14.4-6.49 22.7-6.49C455 294 475 313 475 338zM454 102c-19.6 0-36.8 9.88-47 25.1L302 91.7l.1-.2c.399-3.09 .499-6.19 .499-9.38c0-45.4-36.7-82.1-82.1-82.1s-82.1 36.7-82.1 82.1c0 19.7 6.89 37.6 18.4 51.8l-75.3 87.8c-7.49-3.69-16-5.69-24.9-5.69C25.4 216 0 241 0 273s25.4 56.6 56.6 56.6s56.6-25.4 56.6-56.6c0-11.5-3.39-22.2-9.28-31l65-75.7v-83.8c0-28.3 23.2-51.5 51.6-51.5c28.2 0 51.3 22.9 51.6 51.1c0 .1 0 .2 0 .299c0 .1 0 .1 0 .2v63.9c8.68-6.99 15.9-15.8 21.2-25.7l105 35.1c-.1 .998-.1 2.1-.1 3.19c0 31.2 25.4 56.6 56.6 56.6s56.6-25.4 56.6-56.6C511 127 486 102 454 102z"/></svg>