<svg xmlns="http://www.w3.org/2000/svg" viewBox="0 0 511 512"><path d="M455 214c30.6 0 55.2-24.7 55.2-55.2c0-30.6-24.7-55.2-55.2-55.2c-18.9 0-35.7 9.52-45.6 24l-107-35.1c.401-3.21 .601-6.51 .601-9.82c0-45.8-37.1-82.9-82.9-82.9s-82.9 37.1-82.9 82.9c0 19.6 6.81 37.7 18.3 51.9l-76.9 88.4c-7.11-3.31-15.1-5.21-23.4-5.21C24.7 218 .001 243 .001 273c0 30.6 24.7 55.2 55.2 55.2c30.6 0 55.2-24.7 55.2-55.2c0-11.2-3.31-21.6-9.02-30.4l57.9-66.6l.301-86.1c0-31.7 24.6-57.7 55.8-59.9c1.6-.1 3.21-.2 4.81-.2c2.61 0 5.21 .2 7.82 .601c.1 0 .2 0 .301 0c.2 0 .501 .1 .701 .1c25.7 3.81 46.2 23.7 50.4 50.1c.501 3.11 .701 6.31 .701 9.42v49.8c5.31-5.61 9.92-11.9 13.5-18.7l106 34.8c0 .902-.1 1.8-.1 2.71C400 189 425 214 455 214zM441 138c4.01-2.71 8.92-4.31 14.1-4.31c13.9 0 25.1 11.3 25.1 25.1s-11.3 25.1-25.1 25.1c-11.3 0-20.8-7.41-24-17.7c-.701-2.4-1.1-4.91-1.1-7.51C430 150 434 142 441 138zM55.2 298c-13.9 0-25.1-11.3-25.1-25.1s11.3-25.1 25.1-25.1c.601 0 1.2 0 1.8 .1c11.2 .802 20.3 8.92 22.7 19.6c.401 1.8 .601 3.61 .601 5.51C80.5 287 69.1 298 55.2 298zM336 512h-95.7c-42.9 0-84-20.5-110-54.8l-16.4-21.8c-7.11-9.42-11-21.2-11-33.1V379c0-15.5 6.81-31 18.2-41.6l49.6-66l.501-177c0-26.6 21.6-48.2 48.2-48.2c23.8 0 43.9 17.1 47.6 40.7c.401 2.5 .601 5.01 .601 7.51v146c4.31-1.1 8.82-1.7 13.3-1.7c18.1 0 34.6 8.92 44.7 22.9c8.82-6.01 19.4-9.22 30.6-9.22c20.6 0 39.1 11.5 48.4 29c4.31-1.1 8.72-1.6 13.1-1.6c30.4 0 55 24.6 55 55v40.2c0 34.9-13.2 68.1-37.3 93.5c-23.5 24.9-55.4 40.1-89.6 42.6C343 511 340 512 336 512zM171 318l-27.8 37c-.601 .802-1.3 1.5-2 2.2c-6.11 5.31-9.82 13.3-9.82 21.4v23.1c0 5.81 1.9 11.5 5.41 16.2l16.4 21.8c20.4 27.4 53.1 43.6 87.2 43.6h95.7c1.9 0 3.71-.2 5.21-.501c.701-.2 1.4-.301 2.1-.301c57-3.91 102-51.4 102-108v-40.2c0-14.8-12.1-27-27-27c-4.81 0-9.62 1.4-13.9 4.01c-3.91 2.4-8.82 2.71-13 .802c-4.21-1.9-7.21-5.71-8.12-10.2c-2.4-12.7-13.5-22-26.5-22c-9.42 0-18 4.91-22.9 13c-3.01 5.01-8.82 7.61-14.5 6.51c-5.71-1-10.2-5.51-11.3-11.2c-2.4-12.7-13.5-22-26.5-22c-6.51 0-12.9 2.5-17.9 7.01c-4.11 3.71-10 4.71-15.1 2.4c-5.11-2.2-8.32-7.31-8.32-12.8V94.4c0-1.1-.1-2.1-.301-3.21c-1.5-9.82-9.92-16.9-19.9-16.9c-11.1 0-20.1 9.02-20.1 20.1l-.802 254c0 7.72-6.31 14-14 14c0 0 0 0 0 0c-7.72 0-14-6.31-14-14V318z"/></svg>