<svg xmlns="http://www.w3.org/2000/svg" viewBox="0 0 512 512"><path d="M364.2 267.2l-104.8-15.3-46.8-95.2c-3.9-7.9-11.9-12.8-20.7-12.8c-8.7-.1-16.8 4.9-20.5 12.8l-46.9 94.4L19.7 267.2C1 269.9-6.6 293.1 7 306.5l75.9 74L65.8 485.1c-1.3 6.8 .6 13.5 5 18.6c3.5 5.3 9.9 8.3 16.8 8.3c3.6 0 7.4-1 10.7-2.7l93.8-49.4 93.7 49.4c3.3 1.6 7 2.7 10.6 2.7c6.8 0 13.2-3 17.6-8.2c4.3-5.1 6.3-12 5.1-18.6L301.2 380.5l75.9-74c13.5-13.5 6-37.4-12.9-39.3zM266.7 369.3l17.6 103.1-92.5-48.8-92.5 48.8 17.6-103.1L42.2 296.1l103.4-15 46.4-93.9 46.1 93.9 103.5 15-74.9 73.2zM256 112h64v64c0 8.8 7.2 16 16 16s16-7.2 16-16v-64h64c8.8 0 16-7.2 16-16s-7.2-15.1-15.1-15.1L352 80V16c0-8.8-7.2-16-16-16s-16 7.2-16 16v64l-64 0c-8.8 0-16 7.2-16 16s7.2 16 16 16zm240 96h-32v-32c0-8.8-7.2-15.1-15.1-15.1S432 167.2 432 176v32h-32c-8.8 0-15.1 7.2-15.1 16s6.3 16 15.1 16h32v32c0 8.8 7.2 16 16 16s16-7.2 16-16v-32h32c8.8 0 16-7.2 16-16s-7.2-16-16-16z"/></svg>