<svg xmlns="http://www.w3.org/2000/svg" viewBox="0 0 732 512"><path d="M476 0c40.3 0 73.1 32.7 73.1 73.1v54.9h55.8c19.2 0 37.4 8.57 49.6 23.4l66.2 82.2c7.66 8.11 11.3 18.4 11.3 28.9v103c0 20.2-16.3 36.6-36.6 36.6h-1.83c1.14 5.94 1.83 12 1.83 18.3 0 50.5-40.9 91.4-91.4 91.4s-91.4-40.9-91.4-91.4c0-6.29 .686-12.3 1.83-18.3h-187c1.14 5.94 1.83 12 1.83 18.3 0 50.5-40.9 91.4-91.4 91.4-29.9 0-56.5-14.4-73.1-36.6-16.7 22.2-43.2 36.6-73.1 36.6C41.2 512 .286 471 .286 421V73.1C.286 32.7 33 0 73.4 0H476zm136 186c-1.71-2.06-4.34-3.31-7.09-3.31h-55.8v73.1h119l-56.1-69.8zm-8 271c20.2 0 36.6-16.3 36.6-36.6s-16.3-36.6-36.6-36.6-36.6 16.3-36.6 36.6 16.3 36.6 36.6 36.6zm-366-73.1c-20.2 0-36.6 16.3-36.6 36.6s16.3 36.6 36.6 36.6 36.6-16.3 36.6-36.6-16.3-36.6-36.6-36.6zm-146 73.1c20.2 0 36.6-16.3 36.6-36.6s-16.4-36.6-36.6-36.6-36.6 16.3-36.6 36.6 16.4 36.6 36.6 36.6z"/></svg>