<svg xmlns="http://www.w3.org/2000/svg" viewBox="0 0 732 512"><path d="M732 250v125c0 22.2-15.7 40.6-37.6 44.8l1.03 .914c0 50.5-40.9 91.4-91.4 91.4s-91.4-40.9-91.4-91.4h-183c0 50.5-40.9 91.4-91.4 91.4-29.9 0-56.5-14.4-73.1-36.6-16.7 22.2-43.2 36.6-73.1 36.6C41.2 512 .286 471 .286 421V82.3C.286 36.8 37.1 0 82.6 0H467c45.5 0 82.3 36.8 82.3 82.3v27.4h64c17.3 0 33.5 8.11 43.9 21.9l64 85.4c7.09 9.49 11 21 11 32.9zM36.9 82.3v264c15.3-11.4 34.3-17.3 54.9-17.3 29.9 0 56.5 14.4 73.1 35.5 16.7-21.1 43.2-35.5 73.1-35.5 37.5 0 68.7 22.5 83.8 54.9h191V82.3c0-25.2-20.5-45.7-45.7-45.7H82.6c-25.2 0-45.7 20.5-45.7 45.7zm567 247c37.5 0 69.6 22.5 83.8 54.7 4.34-.686 7.66-5.49 7.66-9.03v-119h-146v90.4c15.3-11.4 33.3-17.3 54.9-17.3zm-54.9-183v73.1h128l-49.4-65.8c-3.43-4.57-8.91-7.31-14.6-7.31h-64zm54.9 329c30.3 0 54.9-24.6 54.9-54.9s-24.6-54.9-54.9-54.9-54.9 24.6-54.9 54.9 24.6 54.9 54.9 54.9zm-366-110c-30.3 0-54.9 24.6-54.9 54.9s24.6 54.9 54.9 54.9 54.9-24.6 54.9-54.9-24.6-54.9-54.9-54.9zm-146 110c30.3 0 54.9-24.6 54.9-54.9s-24.6-54.9-54.9-54.9-54.9 24.6-54.9 54.9 24.6 54.9 54.9 54.9z"/></svg>