<svg xmlns="http://www.w3.org/2000/svg" viewBox="0 0 384 512"><path d="M256 0V128h128L256 0zm-32.1 128V0H48C21.5 0 0 21.5 0 48V464c0 26.5 21.5 48 48 48H336c26.5 0 48-21.5 48-48V160h-127c-18.6 0-32.9-14.3-33-31.9zm88.1 308H72c-8.88 0-16-7.15-16-16s7.26-16 16-16h240c8.88 0 16 7.15 16 16s-7.26 15.9-16 16zm0-62.7H72c-8.88 0-16-7.15-16-16s7.26-16 16-16h240c8.88 0 16 7.15 16 16s-7.26 15.9-16 16zm16-78.7c0 8.88-7.26 16-16 16H72c-8.88 0-16-7.15-16-16s7.26-16 16-16h240c8.76 0 16 7.15 16 16zm0-62.7c0 8.88-7.26 16-16 16H72c-8.88 0-16-7.15-16-16s7.26-16 16-16h240c8.76 0 16 7.15 16 16zM198 90c0 8.88-7.26 16-16 16H72c-8.88 0-16-7.15-16-16s7.26-16 16-16h110c8.76 0 16 7.15 16 16z"/></svg>