<svg xmlns="http://www.w3.org/2000/svg" viewBox="0 0 384 512"><path d="M369 158H241c-8.28 0-15-6.72-15-15V15c0-6.07 3.65-11.5 9.26-13.9 5.6-2.32 12.1-1.04 16.4 3.25l128 128c4.29 4.29 5.57 10.7 3.25 16.4-2.32 5.6-7.79 9.26-13.9 9.26zm-113-30h76.8L256 51.2V128zm98 76.9V464c0 9.93-8.05 18-18 18H48c-9.93 0-18-8.05-18-18V48c0-9.93 8.05-18 18-18H179c8.28 0 15-6.72 15-15h0c0-8.28-6.72-15-15-15H48C21.5 0 0 21.5 0 48V464c0 26.5 21.5 48 48 48H336c26.5 0 48-21.5 48-48V205c0-8.28-6.72-15-15-15h0c-8.28 0-15 6.72-15 15zm-42 231H72c-8.88 0-16-7.15-16-16s7.26-16 16-16h240c8.88 0 16 7.15 16 16s-7.26 15.9-16 16zm0-62.7H72c-8.88 0-16-7.15-16-16s7.26-16 16-16h240c8.88 0 16 7.15 16 16s-7.26 15.9-16 16zm16-78.7c0 8.88-7.26 16-16 16H72c-8.88 0-16-7.15-16-16s7.26-16 16-16h240c8.76 0 16 7.15 16 16zm0-62.7c0 8.88-7.26 16-16 16H72c-8.88 0-16-7.15-16-16s7.26-16 16-16h240c8.76 0 16 7.15 16 16zM198 90c0 8.88-7.26 16-16 16H72c-8.88 0-16-7.15-16-16s7.26-16 16-16h110c8.76 0 16 7.15 16 16z"/></svg>