<svg xmlns="http://www.w3.org/2000/svg" viewBox="0 0 384 512"><path d="M192 35.3c45.1 44.2 85.8 95.7 115 146 29.6 50.7 46.6 98.2 46.6 131 0 52.8-15.6 96.4-45 126-28.4 28.7-68.8 43.9-117 43.9s-88.7-15.2-117-43.9c-29.4-29.8-45-73.4-45-126 0-32.3 16.9-79.8 46.5-130 29.6-50.6 70.3-102 116-146m.02 427c73 0 126-51.2 126-122 0-16.3-5.03-35.3-14.9-56.2-14.9-31.4-40.7-67.4-76.7-107-8.68-9.57-21.2-15.1-34.3-15.1s-25.7 5.48-34.3 15c-36 39.7-61.9 75.7-76.7 107-9.92 20.9-14.9 39.8-14.9 56.1 0 70.5 53 122 126 122m-.02-462c-4.01 0-8.03 1.45-11.1 4.36C74.5 105 0 234 0 312c0 126 79 200 192 200s192-74.1 192-200c0-78.1-75-208-181-308-3.09-2.91-7.1-4.36-11.1-4.36h0zm.02 432c-56.5 0-96-37.8-96-91.7 0-12.5 4.21-55.3 83.9-143 3.16-3.48 7.64-5.21 12.1-5.21s8.97 1.74 12.1 5.21c79.7 87.6 83.9 131 83.9 143 0 53.9-39.5 91.7-96 91.7h0z"/></svg>