<svg xmlns="http://www.w3.org/2000/svg" viewBox="0 0 494 512"><path d="M130 37.2c27.3 27.8 51.8 59.3 70 90.4 19.2 32.8 30.3 63.3 30.3 83.5 0 33.1-9.62 60.4-27.7 78.7-17.4 17.6-42.5 26.9-72.5 26.9s-55.2-9.33-72.5-26.9c-18.1-18.3-27.7-45.4-27.7-78.7 0-20.2 11-50.6 30.2-83.4 18.2-31.1 42.7-62.6 70.1-90.5m0-37.2c-2.68 0-5.36 .992-7.54 2.98C50.8 70.7 .426 158 .426 211c0 85.2 53.5 135 130 135s130-50.1 130-135c0-52.8-50.8-141-122-208-2.18-1.98-4.86-2.98-7.54-2.98h0zm0 169c34.7 42 35.2 60 35.2 60.9 0 19.9-13.5 32.3-35.2 32.3-10.9 0-20-3.18-26.3-9.13-5.85-5.56-8.93-13.6-8.93-23.2 0-.893 .496-19 35.2-60.9m0-39.5c-2.98 0-5.95 1.19-8.24 3.57-53.9 59.3-56.8 88.3-56.8 96.8 0 36.5 26.7 62.1 65 62.1s65-25.6 65-62.1c0-8.43-2.88-37.5-56.8-96.8l-.397-.397c-2.28-2.18-5.06-3.18-7.84-3.18h0zm339 179h-68.4l44.2-124c2.31-6.47 1.37-13.4-2.58-19-3.95-5.61-10.1-8.82-17-8.82-5.09 0-10 1.87-13.9 5.26l-180 160c-4.57 4.07-7.19 9.91-7.19 16 0 11.8 9.61 21.4 21.4 21.4h69.8l-44.2 124c-2.27 6.37-1.31 13.5 2.59 19 3.96 5.62 10.2 8.83 17 8.83 5.12 0 10-1.85 13.8-5.19l180-159c4.77-4.2 7.51-10.3 7.51-16.7 0-12.5-10-22.2-22.9-22.2zm-119 41.4c1.59-4.58 .883-9.62-1.85-13.5-2.75-3.95-7.28-6.3-12.1-6.3h-69.4l139-123-39.8 111c-1.52 4.38-.972 8.69 1.69 13.2l.079 .129 .089 .129c2.75 3.95 7.28 6.3 12.1 6.3h70.6l-140 123 39.8-112z"/></svg>