<svg xmlns="http://www.w3.org/2000/svg" viewBox="0 0 492 512"><path d="M139 2.98c-4.28-3.97-10.9-3.97-15.2 0C50.8 71.3 0 160 0 213c0 85.9 53.9 136 131 136s131-50.5 131-136c0-53.3-51.2-142-123-210zm-7.55 292c-38.5 0-65.5-25.8-65.5-62.6 0-8.51 2.87-37.7 57.2-97.6 4.34-4.57 11.6-4.76 16.1-.42 .14 .14 .28 .28 .42 .42 54.3 59.8 57.2 89.1 57.2 97.6-.02 36.8-27 62.6-65.5 62.6zm263 20.8h76.1c9.07 0 17.3 5.66 19.9 14.1 3.75 8.53 1.36 18.1-5.46 24.1l-175 153c-7.71 6.69-19 7.23-27.2 1.23-8.25-6-11.3-16.9-7.23-26.3l52.5-122h-76.7c-8.46 0-16.6-5.66-19.9-14.1-3.21-8.53-.75-18.1 6.07-24.1l175-153c7.71-6.69 19-7.23 27.2-1.23s11.3 16.9 7.23 26.3l-52.5 122z"/></svg>