<svg xmlns="http://www.w3.org/2000/svg" viewBox="0 0 517 512"><path d="M152 80.6c0-8.87 7.26-16.1 16.1-16.1h96.8c8.87 0 16.1 7.26 16.1 16.1v120c0 8.87-7.26 16.1-16.1 16.1h-96.8c-8.87 0-16.1-7.26-16.1-16.1V80.6zM426 438H168c-8.87 0-16.1-7.26-16.1-16.1s7.26-16.1 16.1-16.1h258c8.87 0 16.1 7.26 16.1 16.1S435 438 426 438zM426 327H168c-8.87 0-16.1-7.26-16.1-16.1s7.26-16.1 16.1-16.1h258c8.87 0 16.1 7.26 16.1 16.1S435 327 426 327zM426 217h-96.8c-8.87 0-16.1-7.26-16.1-16.1s7.26-16.1 16.1-16.1h96.8c8.87 0 16.1 7.26 16.1 16.1S435 217 426 217zM426 96.8h-96.8c-8.87 0-16.1-7.26-16.1-16.1s7.26-16.1 16.1-16.1h96.8c8.87 0 16.1 7.26 16.1 16.1S435 96.8 426 96.8zM476 0H117C95.1 0 77.1 18 77.1 40.3l-.101 54.4H40.8c-22.3 0-40.3 18-40.3 40.3v312c0 35.6 28.9 64.5 64.5 64.5h387c35.6 0 64.5-28.9 64.5-64.5V40.3C517 18 498 0 476 0zM486 447c0 18.8-15.4 34.3-34.3 34.3H65c-18.8 0-34.3-15.4-34.3-34.3V135c0-5.54 4.54-10.1 10.1-10.1h36.2v334c0 8.37 6.75 15.1 15.1 15.1s15.1-6.75 15.1-15.1L107 40.3c0-5.54 4.54-10.1 10.1-10.1h359c5.54 0 10.1 4.54 10.1 10.1V447z"/></svg>