<svg xmlns="http://www.w3.org/2000/svg" viewBox="0 0 517 512"><path d="M484 0H129c-17.8 0-32.3 14.4-32.3 32.3v399c0 8.87-7.26 16.1-16.1 16.1c-8.87 0-16.1-7.26-16.1-16.1V94.7H32.7c-17.8 0-32.3 14.4-32.3 32.3v321c0 35.6 28.9 64.5 64.5 64.5h387c35.7 0 64.5-28.9 64.5-64.5V32.3C517 14.4 502 0 484 0zM162 70.6c0-8.87 7.26-16.1 16.1-16.1h96.8c8.87 0 16.1 7.26 16.1 16.1v120c0 8.87-7.26 16.1-16.1 16.1h-96.8c-8.87 0-16.1-7.26-16.1-16.1V70.6zM436 448H178c-8.87 0-16.1-7.26-16.1-16.1s7.26-16.1 16.1-16.1h258c8.87 0 16.1 7.26 16.1 16.1S445 448 436 448zM436 327H178c-8.87 0-16.1-7.26-16.1-16.1s7.26-16.1 16.1-16.1h258c8.87 0 16.1 7.26 16.1 16.1S445 327 436 327zM436 207l-96.8 0c-8.87 0-16.1-7.26-16.1-16.1s7.26-16.1 16.1-16.1h96.8c8.87 0 16.1 7.26 16.1 16.1S445 207 436 207zM436 86.7h-96.8c-8.87 0-16.1-7.26-16.1-16.1s7.26-16.1 16.1-16.1h96.8c8.87 0 16.1 7.26 16.1 16.1S445 86.7 436 86.7z"/></svg>