<svg xmlns="http://www.w3.org/2000/svg" viewBox="0 0 512 512"><path d="M155 328h5.81l-5.81 5.81v-5.81zm17.4-144c2.37-2.37 3.44-5.59 3.44-9.79s-1.08-7.64-3.33-10c-2.15-2.47-5.59-3.66-10.1-3.66h-13.6v27h13.7c4.3 0 7.53-1.18 9.9-3.55zm-35.9 168l-72.5 72.5C24.1 380 0 321 0 256 0 115 115 0 256 0c64.9 0 124 24.2 169 63.9l-90.6 90.6c-2.26-2.37-4.73-4.52-7.42-6.24-6.13-3.87-13.2-5.81-21.1-5.81h-27.4v68l-13.9 13.9h-38.3v-26.2h35.3v-15.8h-35.3v-23.3h41.3v-16.3h-59.6v98.1h40.4l-39 39v-7.64h-18.5v26.1l-13.9 13.9h-22.3v-40.1h-18.5v80.8h-.108zm-8.28-112h18.4v-35.9h14.5l16.7 35.9h19.7v-.968l-19.1-40c5.38-2.69 9.36-6.24 11.9-10.6 2.58-4.52 3.98-10 3.98-16.8 0-9.47-2.9-16.7-8.61-21.8s-13.9-7.74-24.4-7.74h-33.1v98h.108zm-84.8-46.1c0 14.7 3.23 26.4 9.79 34.9s15.5 12.7 27 12.7c10.4 0 18.8-3.01 25.3-9.14 6.35-6.02 9.9-14.4 10.6-25h-18.4c-.43 6.02-2.04 10.4-4.84 13.2-2.8 2.9-6.99 4.3-12.7 4.3-6.24 0-10.9-2.47-13.8-7.31-2.9-4.84-4.41-12.6-4.41-23.2v-7.42c.108-10.1 1.61-17.6 4.73-22.5 3.01-4.84 7.64-7.21 13.8-7.21 5.59 0 9.79 1.4 12.6 4.3s4.41 7.42 4.84 13.8h18.4c-.968-11-4.63-19.5-10.9-25.5-6.24-6.02-14.5-9.14-24.8-9.14-7.42 0-14 1.94-19.6 5.81-5.59 3.87-9.9 9.36-12.9 16.6s-4.52 15.5-4.52 25v5.92h-.215zm26.4 130v-7.42c.108-10.2 1.61-17.7 4.73-22.7 3.01-4.84 7.64-7.31 13.9-7.31 5.7 0 9.9 1.4 12.7 4.3 2.8 2.9 4.41 7.53 4.84 13.9h18.5c-.968-11.1-4.63-19.6-11-25.7-6.35-6.13-14.7-9.14-25.1-9.14-7.53 0-14.1 1.94-19.7 5.81-5.7 3.87-10 9.47-13 16.7s-4.52 15.6-4.52 25.2v6.02c0 14.8 3.33 26.6 9.9 35.2 6.56 8.5 15.7 12.8 27.2 12.8 10.5 0 19-3.01 25.5-9.14s10-14.5 10.8-25.2h-18.5c-.43 6.02-2.04 10.4-4.84 13.3-2.8 2.9-7.1 4.3-12.8 4.3-6.35 0-11-2.47-13.9-7.42-3.33-4.95-4.73-12.8-4.73-23.4zm253-108c1.72-2.26 3.01-4.95 3.87-8.17l-15.4 15.4c4.73-.861 8.61-3.33 11.5-7.21zm-16.3-57.7h-9.04v33.2l25.5-25.5c-3.76-5.27-9.25-7.74-16.5-7.74zm206 97.1c0 141-115 256-256 256-64.9 0-124-24.2-169-63.9l104-104v27.1h18.5v-45.6l16.1-16.1v61.7h60.2v-16.3h-41.7v-26.5h35.6v-15.9h-35.6v-21.5l2.04-2.04h39.6v-16.5h-23l31.4-31.4h12c7.74 0 14.8-2.04 21-5.92 6.24-3.87 11-9.36 14.4-16.5 3.44-7.1 5.16-15.2 5.16-24.3v-5.81l14.5-14.5v67.1h18.4v-85.5l9.79-9.79v13.6h26.9v81.6h18.4v-81.6h27.3v-16.3h-69.8l55.7-55.7c39.7 44.9 63.9 104 63.9 169zm-199 68.6v-7.42c.108-10.2 1.61-17.7 4.73-22.7 3.12-4.84 7.64-7.31 13.9-7.31 5.7 0 9.9 1.4 12.7 4.3 2.8 2.9 4.41 7.53 4.84 13.9h18.5c-.968-11.1-4.63-19.6-11-25.7-6.35-6.13-14.7-9.14-25.1-9.14-7.53 0-14.1 1.94-19.7 5.81-5.7 3.87-10 9.47-13 16.7-3.01 7.21-4.52 15.6-4.52 25.2v6.02c0 14.8 3.33 26.6 9.9 35.2 6.56 8.5 15.7 12.8 27.2 12.8 10.5 0 19-3.01 25.5-9.14s10-14.5 10.8-25.2h-18.5c-.43 6.02-2.04 10.4-4.84 13.3-2.8 2.9-7.1 4.3-12.8 4.3-6.35 0-11-2.47-13.9-7.42-3.23-4.95-4.73-12.8-4.73-23.4zm140 46.1l-32.8-55 31.9-43.9h-22.8l-22.9 32.5-8.17 12.3v-44.9h-18.5v98.9h18.5v-28.3l9.68-11.4 23.1 39.7h21.9v.108z"/></svg>