<svg xmlns="http://www.w3.org/2000/svg" viewBox="0 0 512 512"><path d="M147 205h14.6l16.7 35.9h19.7v-.947l-19.3-40.1c5.35-2.65 9.34-6.21 12-10.7 2.64-4.46 3.95-10 3.95-16.7 0-9.43-2.86-16.7-8.57-21.9-5.71-5.16-13.8-7.74-24.4-7.74h-33.1v98.1h18.4v-35.9zm2.39-43.4h13.6c4.54 0 7.9 1.22 10.1 3.65 2.19 2.43 3.29 5.78 3.29 10s-1.16 7.43-3.49 9.8c-2.32 2.38-5.6 3.56-9.84 3.56h-13.6v-27zM60.9 359c-6.6-8.53-9.91-20.2-9.91-35.1v-6.05c0-9.51 1.53-17.9 4.57-25.1 3.04-7.24 7.4-12.8 13.1-16.7 5.66-3.87 12.2-5.81 19.7-5.81 10.4 0 18.7 3.05 25.1 9.16 6.34 6.11 10 14.7 11 25.7h-18.5c-.452-6.38-2.07-11-4.85-13.9-2.78-2.87-7-4.31-12.7-4.31-6.17 0-10.8 2.43-13.9 7.3-3.07 4.87-4.64 12.4-4.72 22.7v7.46c0 10.7 1.47 18.5 4.41 23.4 2.95 4.94 7.58 7.4 13.9 7.4 5.72 0 9.99-1.44 12.8-4.31 2.82-2.87 4.43-7.33 4.85-13.3h18.5c-.699 10.6-4.27 19-10.7 25.1-6.44 6.11-14.9 9.16-25.5 9.16-11.5 0-20.6-4.27-27.2-12.8zm252-42.1v7.46c0 10.7 1.47 18.5 4.41 23.4 2.94 4.94 7.58 7.4 13.9 7.4 5.72 0 9.99-1.44 12.8-4.31 2.82-2.87 4.43-7.33 4.85-13.3h18.5c-.699 10.6-4.27 19-10.7 25.1-6.44 6.11-14.9 9.16-25.5 9.16-11.5 0-20.6-4.27-27.2-12.8-6.6-8.53-9.91-20.2-9.91-35.1v-6.05c0-9.51 1.53-17.9 4.57-25.1 3.04-7.24 7.4-12.8 13.1-16.7 5.66-3.87 12.2-5.81 19.7-5.81 10.4 0 18.7 3.05 25.1 9.16 6.34 6.11 10 14.7 11 25.7h-18.5c-.452-6.38-2.07-11-4.85-13.9-2.78-2.87-7-4.31-12.7-4.31-6.17 0-10.8 2.43-13.9 7.3-3.07 4.87-4.64 12.4-4.72 22.7zM256 0C115 0 0 115 0 256s115 256 256 256 256-115 256-256S397 0 256 0zm193 143h-56.5s32.9-32.9 32.9-32.9c8.91 10.3 16.8 21.3 23.7 32.9zM49.8 343c-11.7-27.6-17.6-56.9-17.6-87.1 0-24.1 3.78-47.6 11.2-70.2-.022 .839-.054 1.69-.054 2.55v5.99c0 14.8 3.28 26.4 9.83 34.9 6.55 8.47 15.5 12.7 27 12.7 10.4 0 18.9-3.03 25.3-9.09 6.39-6.07 9.93-14.4 10.6-24.9h-18.4c-.409 5.97-2.01 10.4-4.81 13.2-2.8 2.85-7.03 4.28-12.7 4.28-6.28 0-10.9-2.44-13.8-7.34-2.91-4.89-4.38-12.6-4.38-23.2v-7.41c.086-10.1 1.65-17.6 4.68-22.5 3.04-4.83 7.63-7.24 13.7-7.24 5.64 0 9.83 1.43 12.6 4.28 2.75 2.85 4.36 7.44 4.81 13.8h18.4c-.979-10.9-4.61-19.5-10.9-25.5-6.28-6.07-14.6-9.09-24.9-9.09-7.43 0-14 1.91-19.6 5.75-.183 .129-.355 .269-.527 .398 10.1-18.1 22.6-34.7 37.4-49.5 20.6-20.6 44.5-36.7 71.1-48 27.6-11.7 56.9-17.6 87.1-17.6s59.5 5.92 87.1 17.6c21.7 9.18 41.6 21.6 59.3 37l-67.7 67.7c-1.66-1.75-3.46-3.35-5.42-4.75-.452-.323-.914-.635-1.38-.936-.183-.118-.355-.247-.538-.366 0 0-.022 0-.022-.011-.043-.032-.086-.054-.129-.086-5.35-3.36-11.3-5.26-17.9-5.71-.022 0-.043 0-.065 0-.613-.043-1.25-.054-1.87-.065-.333 0-.667-.032-1.01-.032h-27.6v67.9l-13.9 13.9h-38.3v-26.3h35.3v-15.8h-35.3v-23.4h41.3v-16.4h-59.6v98.1h40.4l-39 39v-7.65h-18.5v26.2l-13.9 13.9h-22.2v-40.1h-18.5v80.8l-49.7 49.7c-15.4-17.7-27.8-37.6-37-59.3zm247-151v-32.9h13.1c2.69 .419 5.11 1.26 7.21 2.56 1.9 1.2 3.57 2.78 4.99 4.72 .032 .043 .065 .097 .097 .151l-25.4 25.4zm29.3 16.4c-.947 3.13-2.24 5.86-3.92 8.13-2.86 3.89-6.7 6.32-11.5 7.27l15.4-15.4zm-166 120l-5.79 5.79v-5.79h5.79zm290 38.3l-30.4-50.9 31.9-43.9h-22.8l-22.9 32.5-8.15 12.3v-44.8h-18.5v98.9h18.5v-28.2l9.63-11.4 23.1 39.7h17.2c-9.41 15.7-20.7 30.3-33.9 43.4-20.6 20.6-44.5 36.7-71.1 48-27.6 11.7-56.9 17.6-87.1 17.6s-59.5-5.92-87.1-17.6c-21.7-9.18-41.6-21.6-59.3-37l81.5-81.5v27.1h18.5v-45.6l16.2-16.2v61.8h60.3v-16.4h-41.7v-26.5h35.6v-16h-35.6v-21.5l2.09-2.09h39.5v-16.5h-23s31.4-31.4 31.4-31.4h12.1c7.8-.043 14.8-2.02 21-5.93 6.21-3.9 11-9.4 14.4-16.5 3.41-7.09 5.11-15.2 5.11-24.3v-4.58c0-.43-.022-.85-.032-1.28l14.5-14.5v67.1h18.4v-85.5l9.73-9.73v13.6h26.9v81.7h18.4v-81.7h22.8c1.59 3.3 3.11 6.66 4.55 10 11.7 27.6 17.6 56.9 17.6 87.1s-5.92 59.5-17.6 87.1c-3.44 8.14-7.35 16-11.7 23.7z"/></svg>