<svg xmlns="http://www.w3.org/2000/svg" viewBox="0 0 512 512"><path d="M448 86.3c-6.63-7.48-13.7-14.6-21.1-21.2C376 19.9 307-5.55 233 1.03 110 11.9 11.9 110 1.03 233c-6.58 74.5 18.8 143 64 194 6.66 7.45 13.7 14.5 21.2 21.1 57.9 51.3 139 76.8 226 58.4 97-20.6 173-96.8 194-194 18.4-86.7-7.07-168-58.4-226zM86.3 405c-16.1-18.3-29.1-38.8-38.6-61.3-11.8-27.8-17.8-57.4-17.8-88s5.97-60.1 17.8-88c11.4-26.9 27.7-51.1 48.5-71.9 20.8-20.8 45-37.1 71.9-48.5 27.8-11.8 57.4-17.8 88-17.8s60.1 5.97 88 17.8c22.5 9.51 43 22.5 61.3 38.6l-50.3 50.3c-14.1-11.6-27.7-21-39.1-28.3l16.8-32.8c2.95-5.74 2.71-13-.619-18.5-2.41-3.94-6.09-6.21-10.1-6.21H190c-4.01 0-7.69 2.27-10.1 6.21-3.33 5.47-3.58 12.7-.629 18.4l16.8 32.8c-24.9 16.1-60.6 41.7-88.1 80.1-30.9 43-46.5 94.8-46.4 154 0 17.3 10.7 38.2 28.5 56 .509 .509 1.03 1.01 1.54 1.51l-5.35 5.35zm101-43.5c1.76 3.74 11.5 7.86 11.5 7.86 .319 .12 .739 .279 1.09 .399l.379 .14c7.44 2.76 22.9 7.8 33.9 10.3l8.35 1.91v13.8h-96.6c-2.01 0-4.46-.449-7.24-1.35l103-103c2.89 .818 6.5 1.81 8.14 2.3l2.63 .808c16.8 5.13 29.3 9.24 37.9 15.5 4.32 3.17 6.94 6.29 8.2 9.79 .968 2.51 2.05 6.57 .918 13.3l-.04 .24c-1.62 8.51-6.99 14.7-15.9 18.4-6.57 2.82-15 4.31-24.3 4.31-4.98 0-10.2-.419-15.7-1.27-7.73-1.26-19.6-5.22-31.1-9.05l-1.81-.599-.23-.09c-1.41-.539-3.02-1.05-4.59-1.55-.878-.279-1.75-.549-2.51-.808-1.37-.449-2.76-.679-4.17-.679-5.63 0-10.6 3.55-12.3 8.83-1.13 3.44-.629 7.05 .838 10.2zm43.4-101c-3.5-1.75-7.22-3.66-8.59-4.61-4.21-2.89-6.8-5.67-8.06-8.68-1.51-3.35-1.81-7.42-.898-12.1 .759-4.23 3.81-11.9 15.6-17.3 6.96-3.57 17.5-5.54 29.9-5.54 3.16 0 6.42 .13 9.66 .399l1.48 .12 1.39 .519c.818 .299 3.69 .499 5.88 .838l-46.3 46.3zm38.2 123l8.76-1.65c2.73-.509 5.74-1.56 8.92-2.65 2.51-.868 5.08-1.76 7.72-2.46 10.1-4.45 26.6-15.1 30.5-37.6 1.87-11.6 .918-21.3-2.89-29.7l-.07-.15c-3.38-7.75-8.91-14.4-16.4-19.7l-.13-.09c-10.5-7.65-29.2-14-42.8-18.3l92.6-92.6c8.22 8.29 16.3 17.5 23.7 27.8 12.6 17.6 22.4 36.9 29.1 57.5 7.73 23.9 11.6 50.3 11.6 78.7 0 7.39-6.03 20.8-19.5 34.3-13.5 13.5-27.1 19.5-34.6 19.5h-96.5v-12.9zm26-302l-11.8 23.1-1.92 3.74h-51l-1.92-3.74-11.8-23.1h78.5zM104 264c6.69-20.6 16.5-40 29.1-57.5 24.2-33.7 55.5-56.3 77.1-70.4h92.2c9.08 5.93 19.9 13.4 31.1 22.5l-35.2 35.2c.14 .03 .06 .09-.17 .17l.17-.17c-5.18-1.2-12.4-2.98-16.8-3.86l-11.1-2.22v-16.2c0-7.44-6.11-13-14.2-13-6.43 0-12.1 6.1-12.1 13v16l-8.58 1.77c-6.54 1.35-12.7 3.28-16.1 5.06l-.269 .14-.279 .12c-9.88 4.45-27 15.1-30.7 36.7-1.82 10.2-.729 19.7 3.19 28 3.55 7.39 8.92 13.4 16.9 19 .399 .269 1.61 1.31 2.98 2.5l-97.7 97.7c-.529-.509-1.06-1.01-1.6-1.54-13.5-13.4-19.5-26.9-19.5-34.3-.03-28.3 3.87-54.8 11.6-78.7zm361 80.2c-11.4 26.9-27.7 51.1-48.5 71.9-20.8 20.8-45 37.1-71.9 48.5-27.8 11.8-57.4 17.8-88 17.8s-60.1-5.97-88-17.8c-22.2-9.37-42.5-22.1-60.5-37.9l8.41-8.41c10.5 5.71 21 8.84 30.4 8.84h219c17.3 0 38.3-10.6 56.2-28.4 17.9-17.8 28.5-38.7 28.5-56 .07-59.2-15.5-111-46.4-154-8.39-11.7-17.5-22.2-26.9-31.6l49.3-49.3c15.8 18.1 28.5 38.4 37.9 60.5 11.8 27.8 17.8 57.4 17.8 88s-5.97 60.1-17.8 88z"/></svg>