<svg xmlns="http://www.w3.org/2000/svg" viewBox="0 0 512 512"><path d="M512 256c0 68.4-26.6 133-75 181s-113 75-181 75c-63 0-123-22.7-169-64l21.1-21.1c7.59 2.59 16.2 4.19 26 4.59 39.2 .1 244 0 244 0 116-5.39 69-172 21.9-216h0c-12.2-14.9-26.4-28-41-39.6l88.9-88.9c41.4 46.9 64 106 64 169zM80.1 409l-16.3 16.3C22.6 378 0 319 0 256 0 188 26.6 123 75 74.9 123 26.5 188 0 256 0c63 0 122 22.6 169 63.9l-92.5 92.5c-9.88-6.79-19.4-12.9-27.8-18.2h-97.9c-27.6 17.7-67.3 42.9-95.1 77h0c-37 35.1-74 146-31.6 194zM171 59.4l36.1 54.3h97.8l36.3-54.3c5.39-7.98-.399-19-10.2-19H181c-9.78 0-15.6 10.9-10.2 19zm71.6 233L108 427h-.1c-11.4-3.89-20.5-10.1-27.3-17.9 0-.1-.1-.1-.1-.2l130-130c-1.1-.599-2.1-1.3-3.09-2-7.98-5.59-13.4-11.7-16.9-19.1-3.89-8.28-4.99-17.8-3.19-27.9 3.69-21.7 20.9-32.3 30.7-36.7l.299-.1 .299-.1c3.39-1.8 9.58-3.69 16.2-5.09l8.58-1.8v-16c0-6.99 5.69-13.1 12.1-13.1 8.08 0 14.2 5.59 14.2 13.1v16.3l11.1 2.2c5.19 .998 11.8 2.4 16.8 3.39l35.7-35.7c.1 0 .1 .1 .2 .1 8.48 5.79 17.4 12.2 26 19.1l.1 .1-95.4 95.4c13.5 4.19 29.9 9.38 42 18.2l.1 .1c7.49 5.29 13.1 12 16.5 19.7l.1 .2c3.79 8.38 4.79 18.1 2.89 29.6-3.89 22.6-20.5 33.1-30.5 37.6-2.59 .699-5.19 1.6-7.68 2.5-3.19 1.1-6.19 2.1-8.88 2.69l-8.78 1.6v15.4c0 7.29-6.29 13.1-14.2 13.1-6.39 0-12.1-6.09-12.1-13.1v-16.2l-8.38-1.9c-11.1-2.5-26.5-7.59-33.9-10.3l-.399-.1c-.299-.1-.798-.299-1.1-.399l-1.7-1.9-3.29-.798c-3.59-.898-5.59-3.29-6.59-5.09-1.7-2.99-2-6.69-.798-10.2 1.7-5.29 6.69-8.78 12.3-8.78 1.4 0 2.79 .2 4.19 .699 .798 .299 1.6 .499 2.5 .798 1.6 .499 3.19 .998 4.59 1.6l.2 .1 1.8 .599c11.5 3.79 23.4 7.78 31.1 9.08 5.49 .798 10.8 1.3 15.8 1.3 9.38 0 17.8-1.5 24.4-4.29 8.98-3.69 14.3-9.88 16-18.5v-.2c1.1-6.79 .1-10.8-.898-13.3-1.3-3.49-3.89-6.59-8.18-9.78-8.58-6.19-21.2-10.3-37.9-15.5l-2.59-.798c-2.69-.998-5.19-1.7-7.78-2.5zm-12.9-32.7l45.7-45.7c-2.1-.499-3.89-.998-4.89-1.4l-1.4-.499-1.5-.1c-3.19-.299-6.49-.399-9.68-.399-12.3 0-22.9 2-29.8 5.49-11.8 5.39-14.9 13.1-15.7 17.3-.898 4.69-.599 8.78 .898 12.1 1.3 2.99 3.89 5.79 8.08 8.68 2.59 1.7 5.29 3.19 8.28 4.59z"/></svg>