<svg xmlns="http://www.w3.org/2000/svg" viewBox="0 0 512 512"><path d="M472 119C435 60.9 378 21 311 6.16c-66.7-14.8-135-2.68-193 33.9C60.8 76.8 21 134 6.18 200c-14.8 66.7-2.79 135 33.9 193 36.7 57.6 93.6 97.6 160 112 66.7 14.8 135 2.68 193-33.9 57.6-36.7 97.6-93.6 112-160s2.68-135-34-193zM59.2 362c-19.8-36.5-28.2-76.3-26.6-115v8.69c.107 11.9 1.82 22.3 5.15 31.3 3.33 9.02 7.94 15.9 14 20.8 6.01 4.83 13 7.3 20.9 7.3 11.4 0 20.4-3.86 27.3-11.6 6.87-7.73 10.7-18.5 11.7-32.2h-17.2c-.859 9.23-3.11 15.8-6.44 19.8-3.43 3.97-8.48 5.9-15.3 5.9-7.41 0-13.1-3.65-17-11.1-3.86-7.3-5.8-18-5.8-32v-11.5c.107-13.7 2.15-24.3 6.23-31.3 4.08-7.08 9.77-10.7 17.3-10.7 6.44 0 11.4 2.04 14.7 6.12s5.47 10.8 6.23 20.1h17.2c-1.07-14.2-4.94-25-11.7-32.7s-15.3-11.4-26.3-11.4c-8.16 0-15.3 2.47-21.6 7.51s-10.9 12.1-14.3 21.5c-.644 1.72-1.07 3.43-1.61 5.15 10.7-59.3 45.1-114 99.8-149C235 4.01 366 29.3 435 123l-93.8 59.8c-10.9 1.07-19.5 6.44-26 16.2-.107 .215-.215 .322-.322 .537l-24.5 15.6c-1.07-8.69-4.08-15.7-8.91-20.8-6.23-6.65-15.1-9.98-26.6-9.98h-35v75.7l-22.6 14.4-26.3-90.1h-15.5l-37.6 129h17.9l8.05-30.1h38.5l.107 .429-124 78.7zm178-117v-43.3h18.2c6.01 .107 10.5 2.04 13.5 5.9 3.01 3.76 4.51 9.12 4.51 16.1v1.5l-31.1 19.9-5.15-.107h0zm-59.6 19.6h-28.9l14.4-53.6 14.5 53.6zm198 180c-99.4 63.2-230 37.9-299-55.3l120-76.1h12.9l-2.04-6.98 13.3-8.48v15.5h17.3v-26.4l22.8-14.5 16.4 40.9h18.6v-1.18l-20.4-49.1 29.8-19v10.5c.107 12.1 1.93 22.9 5.47 32 3.43 9.12 8.48 16.2 14.8 21 6.44 4.94 13.8 7.41 22.1 7.41s15.3-1.61 21.7-4.72c6.33-3.11 11.4-7.73 14.9-13.8v-49.5h-37.7v17.1h20.5v25.3c-3.76 5.15-9.98 7.84-18.9 7.84-8.05 0-14.4-3.86-18.9-11.6-4.51-7.73-6.76-18.6-6.76-32.5v-9.88c0-3.76 .215-7.19 .537-10.5l38.9-24.8c2.68 3.86 4.51 9.12 5.37 15.9h17c-.966-10.2-3.54-18.7-7.62-25.2l76.4-48.7c9.12 17 15.9 34.7 20.3 52.8-2.9-5.15-6.33-9.45-10.4-12.7-6.23-5.04-13.4-7.62-21.6-7.62s-15.2 2.58-21.6 7.62c-6.23 5.15-11.2 12.5-14.6 22.1s-5.15 20.7-5.15 33.4v7.3c0 12.3 1.82 23.3 5.26 32.7 3.43 9.45 8.26 16.7 14.6 21.9s13.5 7.62 21.6 7.62 15.3-2.58 21.6-7.62c6.23-5.15 11.1-12.5 14.5-22 .107-.322 .215-.644 .322-.859-7.94 63.4-43.3 123-101 160zm89-199v6.76c0 14.6-2.04 25.7-6.23 33.2-4.08 7.62-9.98 11.4-17.7 11.4s-13.5-3.86-17.7-11.6c-4.29-7.73-6.44-18.7-6.44-33v-7.51c.107-13.8 2.25-24.7 6.44-32.2 4.19-7.62 10.1-11.4 17.5-11.4s13.5 3.86 17.7 11.5c4.4 7.51 6.44 18.5 6.44 32.8z"/></svg>