<svg xmlns="http://www.w3.org/2000/svg" viewBox="0 0 511 512"><path d="M310 6.18c-66.7-14.8-135-2.79-193 33.9C59.5 76.8 19.7 134 4.87 200c-13.5 60.6 2.68 136 32 191l153-101v-132h109v20.2h-84.8v52h64.4l65.8-42.7v-29.3h44.9l72-48.3C427 59.9 371 19.7 310 6.18zM172 178H89.7v51.8h71.8v24.2H89.7v90.8h-24.5V158h107v20.2zM478 131l-13.2 8.69-26 18.1h15.3v20.2h-47l-37.6 24.6v27.4h73.2v19.6h-73.2v75.2h85.7v19.9h-110v-126l-130 85.9v20.2h85.5v19.9h-110v-23.7L51.9 412c36.5 47.7 88 80.6 147 93.7 66.7 14.8 135 2.68 193-33.9 57.6-36.7 97.6-93.6 112-160 13.7-62 4.19-126-26.7-181zM215 251L215 274L247 251L215 251z"/></svg>