<svg xmlns="http://www.w3.org/2000/svg" viewBox="0 0 512 512"><path d="M65.9 157h107v20.2H90.5v52h72v24.2H90.5v91h-24.5V157zm446 98.5c0 141-114 256-256 256-81.7 0-154-38.3-201-98-6.67-8.5-12.7-17.3-18.3-26.6C13.1 349 0 304 0 256 0 114 114 0 256 0c85.5 0 161 41.9 208 106 6.24 8.71 12 17.9 17.2 27.3 19.7 36.2 31 77.9 31 122zM63 369l128-84v-128h110v20.2h-85v52.1h60l70.5-46.3v-25.9h39.5l50.7-33.2c-6.78-9.25-14.3-18.1-22.6-26.4-20.5-20.5-44.4-36.7-71-47.9-27.5-11.7-56.8-17.6-87-17.6s-59.5 5.92-87 17.5c-26.6 11.3-50.6 27.3-71 47.9-20.5 20.5-36.7 44.4-47.9 71-11.6 27.5-17.5 56.8-17.5 87s5.92 59.5 17.5 87c3.87 9.14 8.28 18 13.2 26.5zm153-118v17.5l26.8-17.5h-26.8zm264 4.41c0-30.2-5.92-59.5-17.5-87-2.47-5.92-5.27-11.7-8.17-17.3l-8.82 5.81h10.9v20.2h-41.7l-43.2 28.4v23.7h73.4v19.7h-73.4v75.4h85.8v19.9h-110v-123l-130 85.6v17.1h85.7v19.9h-110v-20.8l-110 71.9c5.06 6.24 10.4 12.3 16.2 18.1 20.5 20.5 44.4 36.7 71 47.9 27.5 11.6 56.8 17.5 87 17.5s59.5-5.92 87-17.5c26.6-11.3 50.6-27.3 71-47.9 20.5-20.5 36.7-44.4 47.9-71 11.7-27.5 17.6-56.8 17.6-86.9z"/></svg>