<svg xmlns="http://www.w3.org/2000/svg" viewBox="0 0 605 512"><path d="M361 511H30.5c-16.6 0-30.1-13.4-30.1-30.1s13.4-30.1 30.1-30.1h277C320 475 339 495 361 511zM286 361H30.5c-16.6 0-30.1 13.4-30.1 30.1s13.4 30.1 30.1 30.1h264c-5.41-16.7-8.32-34.6-8.32-53.1C286 365 286 363 286 361zM30.5 271c-16.6 0-30.1 13.4-30.1 30.1s13.4 30.1 30.1 30.1h260c4.71-21.8 13.6-42.2 25.7-60.1H30.5zM549 217c.501-2.3 .802-4.61 .802-7.01c0-16.6-13.4-30.1-30.1-30.1H30.5c-16.6 0-30.1 13.4-30.1 30.1s13.4 30.1 30.1 30.1h311c31.2-29.2 73-47.1 119-47.1C493 193 523 202 549 217zM30.5 150h489c16.6 0 30.1-13.4 30.1-30.1s-13.4-30.1-30.1-30.1H30.5c-16.6 0-30.1 13.4-30.1 30.1S13.8 150 30.5 150zM30.5 60.1h489c16.6 0 30.1-13.4 30.1-30.1S536 0 519 0H30.5C13.8 0 .41 13.4 .41 30.1S13.8 60.1 30.5 60.1zM605 368c0 79.7-64.6 144-144 144s-144-64.6-144-144s64.6-144 144-144S605 288 605 368zM528 324c-6.21-6.31-16.4-6.31-22.6 0L444 385l-28.8-28.8c-6.21-6.31-16.4-6.31-22.6 0c-6.31 6.21-6.31 16.4 0 22.6l40.1 40.1c6.21 6.31 16.4 6.31 22.6 0l72.1-72.1C534 341 534 331 528 324z"/></svg>