<svg xmlns="http://www.w3.org/2000/svg" viewBox="0 0 448 512"><path d="M352 0H96C43 0 0 43 0 96v352c0 35.4 28.6 64 64 64h320c35.4 0 64-28.6 64-64V96C448 43 405 0 352 0zM416 448c0 17.6-14.4 32-32 32H64c-17.6 0-32-14.4-32-32V192h384V448zM416 160H32V96c0-35.3 28.7-64 64-64h256c35.3 0 64 28.7 64 64V160zM96 448h256c17.7 0 32-14.3 32-32V256c0-17.7-14.3-32-32-32H96c-17.7 0-32 14.3-32 32v160C64 434 78.3 448 96 448zM96 256h256v160H96V256zM304 288H144c-8.8 0-16 7.2-16 16s7.2 16 16 16h160c8.8 0 16-7.2 16-16C320 295 313 288 304 288zM80 96c-8.8 0-16 7.2-16 16s7.2 16 16 16s16-7.2 16-16S88.8 96 80 96zM176 96c-8.8 0-16 7.2-16 16s7.2 16 16 16s16-7.2 16-16S185 96 176 96zM272 96c-8.8 0-16 7.2-16 16s7.2 16 16 16s16-7.2 16-16S281 96 272 96zM368 96c-8.8 0-16 7.2-16 16s7.2 16 16 16s16-7.2 16-16S377 96 368 96z"/></svg>