<svg xmlns="http://www.w3.org/2000/svg" viewBox="0 0 448 512"><path d="M0 480c0 17.6 14.4 32 32 32h384c17.6 0 32-14.4 32-32V192H0V480zM64 256h320v192H64V256zM384 0H64C28.6 0 0 28.6 0 64v96h448V64C448 28.6 419 0 384 0zM80 104c-13.3 0-24-10.8-24-24s10.8-24 24-24s24 10.8 24 24S93.3 104 80 104zM176 104c-13.3 0-24-10.8-24-24s10.8-24 24-24s24 10.8 24 24S189 104 176 104zM272 104c-13.3 0-24-10.8-24-24s10.8-24 24-24s24 10.8 24 24S285 104 272 104zM368 104c-13.3 0-24-10.8-24-24s10.8-24 24-24s24 10.8 24 24S381 104 368 104zM336 288H112c-8.8 0-16 7.2-16 16s7.2 16 16 16h224c8.8 0 16-7.2 16-16S345 288 336 288z"/></svg>