<svg xmlns="http://www.w3.org/2000/svg" viewBox="0 0 395 512"><path d="M265 512c-1.99 0-4.01-.382-5.93-1.18-5.79-2.39-9.56-8.04-9.56-14.3v-115c0-8.55 6.94-15.5 15.5-15.5h115c6.27 0 11.9 3.77 14.3 9.56 2.39 5.79 1.07 12.4-3.35 16.9l-115 115c-2.96 2.96-6.93 4.53-11 4.53zm15.5-115v61.7l61.7-61.7h-61.7zM352 53.7H93.9c-23.7 0-42.9 19.2-42.9 42.9V469c0 23.7 19.2 42.9 42.9 42.9h112c8.55 0 15.5-6.94 15.5-15.5h0c0-8.55-6.94-15.5-15.5-15.5H93.9c-6.62 0-12-5.36-12-12V96.6c0-6.62 5.36-12 12-12h258c6.62 0 12 5.36 12 12v226c0 8.55 6.94 15.5 15.5 15.5h0c8.55 0 15.5-6.94 15.5-15.5V96.6c0-23.7-19.2-42.9-42.9-42.9zm-42.9 100c0 7.95-6.4 14.3-14.3 14.3H151c-7.85 0-14.3-6.4-14.3-14.3s6.4-14.3 14.3-14.3h143c7.85 .103 14.3 6.5 14.3 14.3zm0 57.3c0 7.95-6.4 14.3-14.3 14.3H151c-7.85 0-14.3-6.4-14.3-14.3s6.4-14.3 14.3-14.3h143c7.85 .103 14.3 6.5 14.3 14.3zm-14.3 71.6H151c-7.85 0-14.3-6.4-14.3-14.3s6.4-14.3 14.3-14.3h143c7.85 0 14.3 6.4 14.3 14.3s-6.5 14.3-14.3 14.3zM15.8 462c-8.57 0-15.5-6.92-15.5-15.5V77.4C.339 34.7 35 0 77.8 0h261c8.57 0 15.5 6.92 15.5 15.5s-6.92 15.5-15.5 15.5H77.8c-25.6 0-46.5 20.9-46.5 46.5V446c0 8.57-6.92 15.5-15.5 15.5z"/></svg>