<svg xmlns="http://www.w3.org/2000/svg" viewBox="0 0 395 512"><path d="M394.323 397.42H279.742V512l114.58-114.58zm-113.776-28.646h113.776V96.645c0-23.73-19.238-42.968-42.968-42.968H93.548c-23.73 0-42.967 19.247-42.967 42.968v372.387c0 23.73 19.237 42.968 42.967 42.968h157.549V397.42c0-15.845 12.8-28.646 29.45-28.646zm27.84-214.839c0 7.912-6.413 14.323-14.322 14.323H150.839c-7.877 0-14.323-6.445-14.323-14.323s6.446-14.322 14.323-14.322h143.226c7.877 0 14.322 6.445 14.322 14.322zm0 57.29c0 7.912-6.413 14.323-14.322 14.323H150.839c-7.877 0-14.323-6.445-14.323-14.322s6.446-14.323 14.323-14.323h143.226c7.877 0 14.322 6.446 14.322 14.323zm-14.322 71.614H150.839c-7.877 0-14.323-6.446-14.323-14.323 0-7.877 6.446-14.322 14.323-14.322h143.226c7.877 0 14.322 6.445 14.322 14.322 0 7.877-6.445 14.323-14.322 14.323zM15.484 461.806C6.933 461.806 0 454.874 0 446.323V77.419C0 34.73 34.73 0 77.42 0h260.515c8.552 0 15.484 6.933 15.484 15.484s-6.932 15.484-15.484 15.484H77.42c-25.613 0-46.451 20.838-46.451 46.451v368.904c0 8.55-6.933 15.483-15.484 15.483z"/></svg>