<svg xmlns="http://www.w3.org/2000/svg" viewBox="0 0 578 512"><path d="M328 216v-.287c0-23.8 19.3-43 43-43 .829 0 1.66 .031 2.49 .082V85.9c-.829 .082-1.66 .082-2.49 .082-23.8 0-43-19.3-43-43v-.276H86.2v.276c0 23.8-19.3 43-43 43-.84 0-1.67-.082-2.5-.082v86.7c.829-.082 1.66-.082 2.5-.082 23.7 .031 43 19.3 43 43v.287h242zm14.8-105v36.3c-17.2 7.18-31.2 20.7-38.9 37.7h-89.4c.215-.707 .328-1.45 .328-2.23v-7.99c3.65-.379 7.21-1.27 10.6-2.63 7.59-3.17 14-9.23 15.7-18.5 .973-4.68 .451-9.55-1.51-13.9-1.9-3.89-4.85-7.18-8.52-9.49-6.16-4.1-14.5-6.35-21.3-8.19l-.676-.195c-7.7-2.08-13.6-3.8-17.5-6.36-1.3-.768-2.36-1.87-3.07-3.21-.614-1.57-.727-3.3-.307-4.93 .522-2.6 2.3-5.02 6.67-6.7 4.53-1.72 11.1-2.29 18.8-1.15 2.67 .348 9.44 1.26 11.7 2.05 0 0 0 0 0 0 4.11 1.03 8.26-1.45 9.3-5.55 .952-4.08-1.5-8.18-5.53-9.3-3.1-.788-10.7-2.01-13.2-2.39l-1.12-.154v-8.53c0-.778-.123-1.54-.338-2.24h89.4c7.72 17 21.7 30.5 38.9 37.7zM71.4 147v-36.3c17.2-7.18 31.2-20.7 38.9-37.7h89.4c-.215 .707-.338 1.46-.338 2.24v8.33c-3.44 .379-6.82 1.18-10.1 2.39-7.87 3.01-14.6 8.94-16.3 18.2-1 4.75-.481 9.71 1.5 14.1 1.9 3.89 4.84 7.18 8.5 9.49 6.17 4.1 14.5 6.35 21.3 8.19l.666 .195c7.7 2.08 13.6 3.8 17.5 6.36 1.3 .768 2.36 1.87 3.07 3.21h0c.645 1.57 .768 3.31 .348 4.96-.532 2.82-2.38 5.26-6.41 6.91-4.26 1.72-10.5 2.39-18.2 1.24-6.23-1.08-12.3-2.79-18.2-5.12-.02 0-.041-.02-.061-.02-3.79-1.64-8.19 .113-9.82 3.9 0 0 0 0 0 .01-1.71 3.86 .02 8.38 3.88 10.1 7.03 2.92 14.4 5.03 21.9 6.3 .102-.236 .215 0 .317 0v8.35c0 .778 .113 1.53 .328 2.23H110c-7.71-16.9-21.6-30.5-38.9-37.7zM203 470c0 22.9 18.6 41.5 41.5 41.5h291c22.9-.02 41.5-18.6 41.5-41.5v-125H203v125zm30.7-93.8h312v93.8c0 5.96-4.86 10.8-10.8 10.8H245c-5.95 0-10.8-4.84-10.8-10.8v-93.8zm114 63c-.184-5.73 4.32-10.5 10.1-10.7 .215 0 .43 0 .655 0h83c5.73-.184 10.5 4.32 10.7 10.1 .184 5.73-4.32 10.5-10.1 10.7-.215 0-.43 0-.655 0h-83c-5.73 .184-10.5-4.32-10.7-10.1zm-82.4-.655c.174-5.48 4.58-9.88 10.1-10.1h41.5c5.73-.184 10.5 4.32 10.7 10.1s-4.32 10.5-10.1 10.7c-.215 0-.43 0-.655 0h-41.5c-5.73-.184-10.2-4.98-10.1-10.7zm269-218h-122c.102-1.19 .164-2.39 .164-3.6V44c-.031-24.3-19.7-44-44-44H44.2C19.9 .031 .263 19.7 .232 44V214c.031 24.3 19.7 44 44 44H204c-.102 1.19-.164 2.39-.164 3.6v52h374v-51.5c-.01-22.9-18.6-41.5-41.5-41.5zm-491 6.64c-7.33 0-13.3-5.97-13.3-13.3V44c0-7.32 5.97-13.3 13.3-13.3H370c7.32 0 13.3 5.97 13.3 13.3V217c0 1.27-.246 2.48-.666 3.6-1.46 3.87-5.19 6.64-9.57 6.64H44.3zm502 55.6H234v-21.3c0-1.27 .246-2.48 .666-3.6 1.46-3.87 5.19-6.64 9.57-6.64h291c5.96 0 10.8 4.85 10.8 10.8v20.7z"/></svg>