<svg xmlns="http://www.w3.org/2000/svg" viewBox="0 0 534 512"><path d="M0 443.145h448.377v41.377c0 14.697-11.915 26.612-26.611 26.612H26.61C11.914 511.134 0 499.219 0 484.522v-41.377zm363.591-137.051c-24.154 4.348-36.28 6.531-58.033 23.85-29.175 23.226-73.078 38.833-109.247 38.837h-.01c-36.561 0-55.015-15.136-64.06-27.834-10.34-14.516-13.247-32.997-8.187-52.04 5.51-20.735 19.154-38.617 29.63-49.967a171.215 171.215 0 0111.289-11.149H26.61C11.914 227.791 0 239.705 0 254.402v130.791h448.377V274.51c-13.96 10.625-30.896 19.55-51.32 24.657-12.926 3.231-23.838 5.195-33.466 6.928zM516.73 63.943C505.585 35.339 473.637 3.763 462.492.419c-11.144-3.343-40.12 14.117-54.235 23.775-14.117 9.659-66.867 23.774-152.679 44.578-85.811 20.802-86.518 41.175-103.977 70.15-17.46 28.976-30.498 63.212-30.498 63.212h86.555l20.803-34.177 49.406-4.83 17.46 19.317c-5.202 9.66-12.632 18.203-22.29 23.775-11.954 7.55-24.153 14.733-36.514 21.573a781.981 781.981 0 01-28.866 15.204c-24.146 11.144-68.724 58.693-49.406 85.811 19.316 27.118 89.155 13.002 127.417-17.459 38.263-30.461 59.066-25.632 103.644-36.777 23-5.75 41.342-18.331 55.454-33.546 13.239-14.272 22.758-30.86 28.871-46.322 12.631-31.948 46.064-38.263 55.722-54.236 9.659-15.973-1.486-47.92-12.63-76.524z"/></svg>