<svg xmlns="http://www.w3.org/2000/svg" viewBox="0 0 534 512"><path d="M.378 485c0 14.7 11.9 26.6 26.6 26.6H421c14.7 0 26.6-11.9 26.6-26.6v-62.6H.378v62.6zm31.9-30.7H416v25.4H32.2v-25.4zM531 143c-5.1-7.12-15.1-8.82-22.2-3.72-2.34 1.7-4.99 3.4-7.86 5.2-13.8 8.92-32.7 21.1-42.3 45.4-5.95 15.3-14.7 29.1-25.7 41.2-13.7 14.7-29.6 24.4-47.6 28.9-11.4 2.87-20.9 4.57-30.3 6.27-25.8 4.67-48 8.71-79.2 33.5-23.7 18.8-63.4 31.3-88.6 27.7-7.65-1.06-13.3-3.61-15.7-7.12-.744-1.06-2.97-4.14-.956-11.9 5.2-19.7 29.8-43.6 43.9-50 .106-.106 .319-.106 .425-.212 9.77-4.89 19.8-10.1 29.4-15.5 12.5-6.9 25-14.2 37-21.9 11.5-6.69 21.1-17 28-29.8 3.19-5.95 2.34-13.3-2.23-18.3l-17.4-19.2c-3.4-3.72-8.39-5.63-13.4-5.2l-49.3 4.78c-4.99 .531-9.45 3.29-12.1 7.54l-16.1 26.4h-53.4c5.2-11.5 12.2-25.8 20.1-38.9 2.34-3.82 4.36-7.44 6.27-10.9 11.8-21.2 19.5-35.3 87.6-51.8 103-25 143-36.8 158-46.7 4.46-2.97 9.45-6.16 14.1-9.03 7.54-4.46 10.1-14.2 5.63-21.8-4.46-7.54-14.2-10.1-21.8-5.63-6.8 4.04-12.4 7.75-15.9 10.1-14.9 10.1-104 31.8-147 42.2-37.1 8.92-61.1 18.3-77.8 30.3-16.4 11.8-23.5 24.6-30.4 37.1-1.81 3.19-3.61 6.59-5.63 9.88-12.3 20.3-22.3 42.8-27.6 55.4H26.9c-14.7 0-26.6 11.9-26.6 26.6v172H448v-76.2c0-8.82-7.12-15.9-15.9-15.9s-15.9 7.12-15.9 15.9v44.5H236c21.7-6.05 43.2-16.4 59.6-29.3 25-19.8 40-22.5 65-27 9.35-1.7 20-3.61 32.3-6.69 24-6.05 45.3-18.8 63.1-38.1l.106-.106c13.7-15 24.4-32.2 31.9-51.1 5.84-14.7 18.1-22.6 30-30.3 3.19-2.02 6.16-4.04 9.14-6.05 7.22-5.2 8.92-15.1 3.82-22.3zM32.2 354v-135H213v-.956c3.4-1.17 6.48-3.51 8.39-6.8l16.6-27.3 33.4-3.29 3.72 4.14c-2.97 3.51-6.37 6.37-9.99 8.5-.212 .106-.319 .212-.531 .319-11.6 7.33-23.6 14.4-35.7 21-9.24 5.1-18.7 10.1-28 14.8-19.9 9.24-52.9 39.6-61.1 70.6-4.89 18.4 .425 31.1 5.74 38.6 4.67 6.48 11.2 11.6 19.1 15.2H32.2z"/></svg>