<svg xmlns="http://www.w3.org/2000/svg" viewBox="0 0 510 512"><path d="M208 159c-.1-13.5-2.91-33.2 16.3-33.9c19.5 .703 16.4 20.9 16.4 34.4c6.93 1 22.4 3.51 30.5 5.42c20.4 5.62 12.6 36.6-8.03 31.6c-24-5.12-70-14.3-79 12.3c-3.92 21.5 24.2 24 44.5 30.8c23.3 6.53 53.4 13.8 64.9 38c16.6 37.3-16.5 73.1-52.8 74.6c.201 13.5 2.61 32.6-16.3 33.2c-19.2-.703-16.4-20.6-16.3-34c-.201 0-.502-.502-.703-.1c-12.4-1.91-32.8-7.23-46.7-13.4c-19.3-8.53-6.22-38.3 12.7-29.8c24.8 9.84 80.9 24.8 91.1-6.43c4.02-21.9-25.7-24.4-46-31.2c-22.8-6.22-52.3-13.9-63.3-37.6C139 196 171 161 208 159zM497 388c-19.6 62.6-59.8 103-116 117c-1.2 .301-2.41 .402-3.61 .402c-1.41 0-2.81-.201-4.12-.602c-6.73 4.42-14.7 7.03-23.3 7.03H102c-23.4 0-42.5-19.1-42.5-42.5l0-39.9h303V218l-16.4-21.4c-.402-.502-.703-1-1-1.51c-16.9-28.5-27.5-64.7-23.6-96.9L59.5 98.4V42.5C59.5 19.1 78.6 0 102 0h248c19.3 0 35.6 13 40.8 30.6c4.22 .803 7.63 2.41 10.2 4.02c19.3 12.1 23 43.8 26.2 71.7c.502 4.22 .904 8.13 1.41 11.6c0 0 0 .1 0 .1c1.31 5.62 15.1 23.2 24.2 34.8c11.2 14.4 24 30.7 33 46.2c11.3 14 19.8 42.4 22.7 76.4C512 314 508 354 497 388zM331 68.4c2.51-5.02 5.62-9.74 9.34-14.2c2.21-3.01 8.43-10.6 20.7-17c-2.01-4.22-6.22-7.13-11.1-7.13H102c-6.83 0-12.3 5.52-12.3 12.3v25.9H331zM362 469v-9.74H89.7v9.74c0 6.83 5.52 12.3 12.3 12.3h248C357 482 362 476 362 469zM478 278c-2.71-31.8-10.4-53.6-16.4-60.3c-.703-.803-1.31-1.61-1.81-2.51c-7.93-14-20.4-29.8-31.3-43.8c-18.3-23.4-28.7-37.2-30.3-49.5c-.502-3.81-1-7.83-1.51-12.1c-1.31-11.3-2.81-24.2-5.52-34.6c-3.11-11.8-7.63-15-8.63-14.7c-.1 0-.201 .1-.301 .1c-11.9 3.81-16.9 9.54-17.7 10.7c-.402 .703-.602 .803-1.2 1.61c-22.2 26.4-11.8 73.5 7.33 106l17.2 22.4c3.01 2.71 4.82 6.73 4.82 11v256c44.2-18.7 65.2-58.3 75.2-90.3C478 349 481 313 478 278zM71.9 413c-30.7 0-54.4-37.5-22.2-59.8c-42.6-3.61-62.4-51.3-21.4-73C-14.1 262-7.02 208 36.7 198c-42.7-24.5-17.2-76.5 25.4-76.5c4.02 0 8.23 .502 12.5 1.51c45.2 9.14 49.2 65.8 4.52 79.2c32.9 15.5 34.5 58.6 2.01 75.6c35.6 13.3 37 55.8 1.71 70.5c29.5 7.33 35.9 46 7.53 59.9C84.2 411 77.9 413 71.9 413zM43.7 162c0 7.13 8.83 13 19.8 13c10.9 0 19.8-5.82 19.8-13c0-7.13-8.83-13-19.8-13C52.6 149 43.7 155 43.7 162zM52.5 257c14 0 25.2-7.43 25.2-16.6c0-9.14-11.2-16.6-25.2-16.6s-25.2 7.43-25.2 16.6C27.3 250 38.6 257 52.5 257zM58.4 326c12 0 21.8-5.82 21.8-13c0-7.13-9.74-13-21.8-13s-21.8 5.82-21.8 13C36.6 321 46.5 326 58.4 326zM71.6 392c9.54 0 17.3-5.82 17.3-13c0-7.13-7.73-13-17.3-13c-9.54 0-17.3 5.82-17.3 13C54.3 386 62 392 71.6 392z"/></svg>