<svg xmlns="http://www.w3.org/2000/svg" viewBox="0 0 496 512"><path d="M241 160c6.94 1.01 22.4 3.52 30.6 5.43c20.4 5.63 12.7 36.7-8.05 31.7c-24-5.13-70.1-14.3-79.2 12.4c-3.92 21.5 24.2 24 44.6 30.9c23.3 6.54 53.5 13.8 65 38.1c16.6 37.4-16.5 73.2-52.9 74.7c.201 13.5 2.62 32.7-16.3 33.3c-19.2-.704-16.4-20.6-16.3-34.1c-.201 0-.503-.503-.704-.101c-12.5-1.91-32.9-7.24-46.8-13.4c-19.3-8.55-6.24-38.4 12.8-29.9c24.8 9.86 81.1 24.8 91.2-6.44c4.02-21.9-25.8-24.4-46.1-31.3c-22.8-6.24-52.4-13.9-63.5-37.7c-16.7-37.6 15.9-72.2 52.9-74.1c-.101-13.5-2.92-33.3 16.3-34C244 126 241 146 241 160zM378 491c-3.02 11.9-13.9 20.6-26.7 20.6c-.101 0-249 0-249 0C61.4 511 78.1 452 74.9 426c5.53-.302 11-1.41 15.9-3.22v27.5h269V188c-20.1-34.1-29-88.8 0-123v-3.32H90.7v53c-4.93-2.21-10.3-3.92-15.9-4.83V27.5C74.8 12.3 87.2 0 102 0h249c27.3 1.41 28.9 24.7 27.6 46.5c36.1-15.5 31.6 44.6 35.6 73.8c1.91 15.9 40.9 54.7 59.9 87.9C506 244 521 456 378 491zM252 471h-59.5c-8.55-.503-8.55 13.1 0 12.6H252C259 483 259 471 252 471zM90.7 409c28.5-14 22-52.7-7.54-60.1c35.4-14.7 34-57.3-1.71-70.6c32.6-17 31-60.3-2.01-75.7c44.8-13.5 40.7-70.2-4.53-79.4c-49.7-11.7-84.9 48.3-38 75.1C-6.99 209-14 263 28.4 280c-41.1 21.7-21.2 69.5 21.4 73.1C11.1 380 52.8 429 90.7 409z"/></svg>