<svg xmlns="http://www.w3.org/2000/svg" viewBox="0 0 352 512"><path d="M96.1 454c0 6.3 1.8 12.4 5.3 17.7l17.1 25.7c5.3 7.9 17.2 14.3 26.6 14.3h61.7c9.4 0 21.4-6.4 26.6-14.3l17.1-25.7c2.9-4.4 5.3-12.4 5.3-17.7l.1-39.2H96L96.1 454zM191 213l48.8 40.9c-13.8 12.1-30.6 20-48.8 22.8V213zM161 85.1V174l-68.1 57.1C83.8 216 79 199 79 181C79 133 115 92.4 161 85.1zM112 254l48.8-40.9v63.7C143 274 126 266 112 254zM273 181c0 18-4.8 35.1-13.9 50.1L191 174V85.1C237 92.4 273 133 273 181zM175 0C73.4 .3 0 83 0 175c0 44.4 16.4 84.8 43.6 116c16.5 18.8 42.3 58.2 52.2 91.5c0 .3 .1 .5 .1 .8h160c0-.3 .1-.5 .1-.8c9.9-33.2 35.7-72.6 52.2-91.5c27.2-30.1 43.5-70.5 43.5-116C352 78.6 273-.3 175 0zM276 259c-24.3 31-60.8 48.8-100 48.8c-39.3 0-75.7-17.8-100-48.8C58.3 237 49 210 49 181c0-70 57-127 127-127c70 0 127 57 127 127C303 210 294 237 276 259z"/></svg>