<svg xmlns="http://www.w3.org/2000/svg" viewBox="0 0 576 512"><path d="M446.8 310.1c1.6-3.9 1.6-8.3 0-12.2c-.8-2-2-3.7-3.5-5.2l-64-64c-6.3-6.3-16.4-6.3-22.6 0s-6.3 16.4 0 22.6L393.4 288H182.6l36.7-36.7c6.3-6.3 6.3-16.4 0-22.6s-16.4-6.3-22.6 0l-64 64c-1.5 1.4-2.7 3.2-3.5 5.2c-1.6 3.9-1.6 8.3 0 12.2c.8 2 2 3.8 3.5 5.2l64 64c3.1 3.1 7.2 4.7 11.3 4.7s8.2-1.6 11.3-4.7c6.3-6.3 6.3-16.4 0-22.6L182.6 320h210.8l-36.7 36.7c-6.3 6.3-6.3 16.4 0 22.6c3.1 3.1 7.2 4.7 11.3 4.7s8.2-1.6 11.3-4.7l64-64c1.5-1.4 1.8-3.2 3.5-5.2zM96 128c35.4 0 64-28.6 64-64S131.4 0 96 0 32 28.6 32 64s28.6 64 64 64zm0-96c17.6 0 32 14.4 32 32S113.6 96 96 96 64 81.6 64 64 78.4 32 96 32zm48 352c-8.8 0-16 7.2-16 16v96c0 8.8 7.2 16 16 16s16-7.2 16-16v-96c0-8.8-7.2-16-16-16zm-6.2-167.7c4.5 7.4 14.1 9.9 21.6 5.5c7.7-4.4 10.3-14.2 5.8-21.9C151 175.3 124.5 160 96 160H80c-44.2 0-80 35.8-80 80v80c0 17.7 14.3 32 31.1 32L32 496c0 8.8 7.2 16 16 16s16-7.2 16-16V336c0-8.8-7.2-16-16-16H32V240c0-26.5 21.5-47.1 48-47.1l19.3 0c16.4-.9 29.9 9.3 38.5 23.4zM480 128c35.4 0 64-28.6 64-64S515.4 0 480 0s-64 28.6-64 64 28.6 64 64 64zm0-96c17.6 0 32 14.4 32 32s-14.4 32-32 32-32-14.4-32-32 14.4-32 32-32zM432 384c-8.8 0-16 7.2-16 16v96c0 8.8 7.2 16 16 16s16-7.2 16-16v-96c0-8.8-7.2-16-16-16zm64-224H480c-28.5 0-55 15.3-69.3 40c-4.4 7.7-1.8 17.4 5.8 21.9c7.5 4.4 17.2 1.9 21.7-5.5c8.5-14.1 22-24.3 38.4-24.3l19.3 0c26.5 0 48 21.5 48 48v80h-16c-8.8 0-16 7.2-16 16v160c0 8.8 7.2 16 16 16s16-7.2 16-16V352c17.7 0 32-14.3 32-32V240c0-44.2-35.8-80-80-80z"/></svg>