<svg xmlns="http://www.w3.org/2000/svg" viewBox="0 0 512 512"><path d="M484.6 330.6s0 0 0 0l-101.8-43.7c-18.5-7.7-40.2-2.4-52.8 13.1l-33.1 40.5c-52.7-28.7-96.6-72.6-125.3-125.3l40.5-33.2c15.7-12.9 20.8-34.2 12.8-52.8L181.4 27.4C172.7 7.3 150.8-3.7 129.6 1.2L35.2 23.1C14.5 27.8 0 45.9 0 67.1C0 312.4 199.6 512 444.9 512c21.2 0 39.4-14.4 44.2-35.1l21.8-94.5c4.8-21.3-6.2-43.1-26.3-51.8zM457.9 469.7c-1.4 6-6.8 10.3-13 10.3C217.2 480 32 294.8 32 67.1c0-6.2 4.2-11.5 10.3-12.9l94.4-21.9c1-.2 2-.3 3-.3c5.2 0 10.1 3.1 12.3 8l43.6 101.7c2.3 5.5 .8 11.8-3.8 15.6l-50.5 41.4c-5.7 4.7-7.5 12.7-4.2 19.4C170.5 285.9 226.2 341.6 294 375c6.6 3.3 14.7 1.5 19.4-4.2l41.4-50.5c3.7-4.6 10.2-6.1 15.5-3.8L471.9 360c5.9 2.6 9.2 9 7.7 15.2l-21.7 94.5z"/></svg>