<svg xmlns="http://www.w3.org/2000/svg" viewBox="0 0 352 512"><path d="M247 363c-3.59 0-7.29-.2-10.9-.399-2.5-.1-4.99-.299-7.39-.299-1.7 0-2.5 .1-2.69 .1h0c-1.6 .599-5.69 3.29-8.38 4.99-10.1 5.79-23.8 15.7-42 15.7s-31.9-8.98-42-15.7c-2.69-1.8-6.79-4.49-7.98-4.99-.1 0-.898-.2-3.09-.2-2.4 0-4.89 .2-7.39 .299-3.69 .2-7.29 .399-10.9 .399-5.79 0-13.8-.499-22.2-3.29l-27.5 132c-2.69 13.1 10.9 23.5 22.8 17.6l98.2-49.1 98.2 49.1c12 5.99 25.5-4.49 22.8-17.6l-27.4-132c-8.28 2.79-16.2 3.29-22.1 3.29zm104-188c0-15.1-15.8-27.9-19.6-41.8-3.89-14.4 3.29-33.3-3.99-46-7.39-12.8-27.4-16.1-37.8-26.4s-13.6-30.4-26.4-37.9c-12.6-7.29-31.6-.1-46-3.99-14.8-3.69-26.7-19.5-41.8-19.5s-27.9 15.8-41.8 19.6c-14.5 3.89-33.4-3.29-46.9 3.99-11.9 7.39-15.2 27.4-25.6 37.8s-30.4 13.6-37.8 26.4c-7.29 12.6-.1 31.5-3.99 45.9-3.79 14-19.6 26.8-19.6 41.9s15.8 27.9 19.6 41.8c3.89 14.5-3.29 33.4 3.99 46 7.39 12.8 27.4 16.1 37.8 26.4s13.7 30.4 26.4 37.9c12.6 7.29 31.6 .1 46 3.99 13.9 3.69 26.7 19.5 41.8 19.5s27.9-15.8 41.8-19.6c14.4-3.89 33.4 3.29 46-3.99 12.8-7.39 16.1-27.4 26.4-37.8s30.4-13.6 37.9-26.4c7.29-12.6 .1-31.6 3.99-46 3.69-14.8 19.5-26.7 19.5-41.8zm-176 79.8c-44.1 0-79.8-35.7-79.8-79.8s35.7-79.8 79.8-79.8 79.8 35.6 79.8 79.8-35.7 79.8-79.8 79.8z"/></svg>