<svg xmlns="http://www.w3.org/2000/svg" viewBox="0 0 352 512"><path d="M226 363h0zm70.9 130l-24.8-119c-1.6-7.5-8.5-12.6-16.2-11.8h0c-8.8 .9-15 9.2-13.2 17.9l18.8 90.6-72.6-36.3-13.4-6.7-13.4 6.7-72.5 36.2 18.5-90.8c1.8-8.6-4.3-16.8-13-17.7h0c-7.6-.8-14.5 4.3-16 11.7l-24.8 119c-2.2 10.5 6.1 19.3 15.6 19.3 2.4 0 4.8-.5 7.2-1.7l98.4-49.2 98.4 49.2c2.4 1.2 4.8 1.7 7.2 1.7 9.6 0 17.9-8.8 15.8-19.2zM176 30.6c-2.2 1.2-5.5 3.3-7.9 4.9-6.9 4.6-15.6 10.2-26.1 13.1h0c-5.7 1.5-11.7 2.2-19 2.2-3.9 0-7.6-.2-10.9-.4-2.8-.2-5.4-.3-7.7-.3h-1.2c-1.2 2-2.5 4.9-3.6 6.9-3.8 7.8-8.6 17.5-16.7 25.6s-17.3 12.7-24.8 16.5c-2.4 1.2-5.7 2.9-7.8 4.2-.1 2.4 .1 6.1 .3 8.7 .5 8.4 1.1 19-1.9 29.8-2.9 10.6-8.6 19.2-13.2 26.2-1.6 2.4-3.8 5.8-4.9 8 1.1 2.2 3.4 5.6 4.9 8 4.6 6.9 10.3 15.6 13.1 26.2 2.9 10.9 2.3 21.4 1.8 29.9-.1 2.6-.3 6.2-.3 8.7 2.1 1.3 5.4 3 7.8 4.2 7.5 3.8 16.9 8.5 24.8 16.4s12.6 17.3 16.4 24.8c1.2 2.4 2.9 5.7 4.2 7.8h1.2c2.2 0 4.7-.1 7.5-.3 3.3-.2 7-.4 10.9-.4 7.2 0 13.2 .7 19 2.2h0c10.6 2.9 19.2 8.5 26.1 13.1 2.4 1.6 5.8 3.8 8 5 2.2-1.1 5.6-3.4 8-4.9 6.9-4.6 15.6-10.3 26.2-13.1 5.7-1.5 11.7-2.2 18.9-2.2 3.9 0 7.6 .2 10.9 .4 2.7 .2 5.3 .3 7.5 .3h1.2c1.3-2.1 3-5.4 4.2-7.8 3.8-7.5 8.5-16.9 16.4-24.8s17.3-12.6 24.8-16.4c2.4-1.2 5.7-2.9 7.8-4.2 .1-2.4-.1-6.1-.3-8.7-.5-8.4-1-18.8 1.8-29.6 2.9-11.4 8.8-20.3 13.6-27.4 1.4-2.1 3.4-5.1 4.5-7.1-1.2-2.2-3.3-5.5-4.9-7.9-4.6-6.9-10.3-15.6-13.1-26.2-2.9-10.9-2.3-21.4-1.8-29.8 .1-2.6 .4-6.3 .3-8.7-2.1-1.3-5.4-3-7.8-4.2-7.5-3.8-16.9-8.5-24.8-16.4s-12.6-17.3-16.4-24.8c-1.2-2.4-2.9-5.7-4.2-7.8h-1.2c-2.2 0-4.7 .1-7.5 .3-3.3 .2-7 .4-10.9 .4-7.1 0-13.1-.7-18.7-2.2-11.4-2.9-20.3-8.8-27.5-13.6-2.1-1.6-5-3.5-7-4.6m.1-30.6c15.1 0 27.1 15.8 42 19.6 3.5 .9 7.3 1.2 11.2 1.2 6 0 12.4-.7 18.4-.7s11.7 .7 16.5 3.5c12.8 7.4 16.1 27.5 26.5 37.9 10.3 10.4 30.4 13.7 37.8 26.5 7.3 12.6 .1 31.7 4 46.1 3.7 14 19.6 26.8 19.6 41.9s-15.8 27.1-19.6 41.9c-3.9 14.4 3.3 33.5-4 46.1-7.4 12.8-27.5 16.1-38 26.5-10.4 10.4-13.6 30.5-26.5 37.9-4.8 2.8-10.5 3.5-16.5 3.5s-12.3-.7-18.4-.7c-3.9 0-7.7 .3-11.2 1.2-13.8 3.8-26.7 19.6-41.8 19.6s-28-15.8-41.9-19.6c-3.5-.9-7.3-1.2-11.2-1.2-6 0-12.4 .7-18.4 .7s-11.7-.7-16.5-3.5c-12.8-7.4-16.1-27.5-26.5-37.9-10.4-10.4-30.5-13.7-38-26.5-7.3-12.6-.1-31.6-4-46.1-3.7-13.9-19.5-26.8-19.5-41.9s15.8-28 19.6-42c3.9-14.4-3.3-33.4 4-46 7.4-12.9 27.5-16.1 37.9-26.5s13.7-30.5 25.6-38c5.1-2.8 11-3.5 17.1-3.5s12.5 .7 18.6 .7c3.9 0 7.7-.3 11.2-1.2 14-3.7 26.9-19.5 42-19.5h0zm0 126c-13.4 0-25.9 5.2-35.4 14.6-9.4 9.4-14.6 22-14.6 35.4 0 27.6 22.4 50 50 50s50-22.4 50-50c0-13.4-5.2-26-14.6-35.4-9.5-9.4-22-14.6-35.4-14.6m0-30c44.2 0 80 35.7 80 80s-35.8 80-80 80-80-35.8-80-80 35.8-80 80-80h0z"/></svg>