<svg xmlns="http://www.w3.org/2000/svg" viewBox="0 0 488 512"><path d="M457 0V24.3h-39.8c-65.7 0-119 53.2-119 119v101h-24.3v29.9h24.3v75.1c0 24-19.3 43.5-43.2 43.9-.25 0-.499 0-.739 0-24.2 0-44-20.4-44-44.7v-85.9c0-65.7-53.2-119-119-119H30.4v-23.6H.476v167H30.4v-24.9h41.7c11 0 20 8.98 20 20v66c0 89.5 72 163 162 164 .15 0 .309 0 .459 0 89.3 0 162-72.7 162-162v-75.1h24.3v-29.9h-24.3v-81.9c0-11 8.93-20 20-20h20.7v24.3h29.9V0h-29.9zm-70.6 349c0 72.8-59.2 132-132 132h-.379c-72.6-.2-132-60.1-132-134v-66c0-27.5-22.4-49.9-49.9-49.9H30.4v-58.2h60.8c49.1 0 89 39.9 89 89v85.9c0 41.2 33.2 74.7 73.9 74.7 .419 0 .838 0 1.26-.01 40-.689 72.6-33.8 72.6-73.9v-75.1h58.2v75.1zm70.6-237h-20.7c-27.5 0-49.9 22.4-49.9 49.9v81.9h-58.2v-101c0-49.1 39.9-89 89-89h39.8v58.2z"/></svg>