<svg xmlns="http://www.w3.org/2000/svg" viewBox="0 0 448 512"><path d="M288 304c8.8 0 16-7.2 16-16v-48h48c8.8 0 16-7.2 16-16s-7.2-16-16-16h-48v-48c0-8.8-7.2-16-16-16s-16 7.2-16 16v48h-48c-8.8 0-16 7.2-16 16s7.2 16 16 16h48v48C272 297 279 304 288 304zM70 364c7-5.4 8.2-15.5 2.8-22.5c-26.6-34-40.7-74.9-40.7-118c0-106 86.3-192 192-192c106 0 192 86.3 192 192c0 43.4-14.1 84.3-40.7 118c-5.5 7-4.2 17 2.8 22.5c2.9 2.3 6.4 3.4 9 3.4c4.8 0 9.5-2.1 12.6-6.2c31.1-39.8 47.5-87.5 47.5-138C448 99.8 347 0 224 0C99.8 0 0 99.7 0 224c0 50.6 16.4 98.4 47.5 138C53 369 63.1 370 70 364zM144 192c8.8 0 16-7.2 16-16v-16h16c8.8 0 16-7.2 16-16s-7.2-16-16-16h-16v-16c0-8.8-7.2-16-16-16s-16 7.2-16 16v16h-16c-8.8 0-16 7.2-16 16s7.2 16 16 16h16v16C128 185 135 192 144 192zM374 391c-3-4.4-8-7.1-13.3-7.1H88.2c-5.4 0-10.4 2.7-13.3 7.1l-64.1 96.2c-3.3 4.9-3.6 11.2-.8 16.5c2.8 5.2 8.2 8.4 14.1 8.4h401c5.9 0 11.3-3.3 14.1-8.5c2.8-5.2 2.5-11.5-.8-16.5L374 391zM54 480l42.7-64.1h255l42.7 64.1H54z"/></svg>