<svg xmlns="http://www.w3.org/2000/svg" viewBox="0 0 449 512"><path d="M377 415H71.5L38.5 459c-4.41 6.21-6.41 13-6.41 19.7c0 16.9 13.1 32.6 32.2 32.6h321c19 0 32.1-15.6 32.1-32.3c0-6.51-2-13.2-6.41-19.1L377 415zM381 383c41.8-40.7 68-97.3 68-159C449 99.5 348 0 225 0S.062 98.6 .062 223c0 63 26.2 120 68 159L381 383zM228 201l49.5-20.6l.401-.401l20.6-49.4c1-2.1 3.61-3.71 5.91-3.71c2.3 0 5.01 1.6 6.01 3.71l20.7 49.7l49.7 20.7c2 1 3.71 3.71 3.71 5.01c0 3.11-1.7 5.81-3.71 6.01l-49.7 20.8L311 283c-1.9 2-3.71 3.71-6.01 3.71c-2.3-.1-4.91-.802-5.91-2.81l-20.7-49.8L228 213c-2-1-3.71-3.71-3.71-5.91C225 205 226 202 228 201zM115 124l29.9-12.4l12.4-29.9c.601-1.2 1.3-2.2 3.61-2.2c2.3 0 2.1 1 2.71 2.2l12.4 29.9l29.9 12.4c1.2 .701 2.2 2.3 2.2 3.71c0 1.3-1 2.91-2.2 3.61l-29 11.5L165 172c-1.5 2.1-3.11 3.11-3.61 3.11s-3.01-1-3.61-2.3L145 143l-29.9-12.4c-1.2-.601-2.2-2.1-2.2-3.51S114 124 115 124z"/></svg>