<svg xmlns="http://www.w3.org/2000/svg" viewBox="0 0 480 512"><path d="M240 30c2.54 .18 5.03 .71 7.42 1.58l192 79.8c6.48 2.69 11 9.14 11 15.7 0 130-51 218-93.9 269-28.4 33.9-55.5 54.7-73.3 66.2-24.4 15.7-39.5 19.3-42.9 19.3s-18.3-3.51-42.7-19.1c-17.8-11.4-45-32.1-73.3-65.8C81.1 346 30 258 30 127c0-6.54 4.55-13 11.1-15.7l.04-.02 .04-.02L233 31.6c2.4-.87 4.9-1.4 7.45-1.58m0-30c-6.31 .21-12.6 1.46-18.5 3.7L29.6 83.7C11.7 91.1 0 109 0 127c0 258 189 385 240 385s240-128 240-385c0-18.5-11.7-36-29.5-43.4L259 3.71c-5.9-2.24-12.1-3.5-18.4-3.71h0zm.3 422c4.37-.09 8.45-1.89 11.5-5.05 3.03-3.16 4.64-7.31 4.55-11.7v-26.9s4.48-.47 4.48-.47c9.72-1.02 19.3-3.38 28.3-7 13-5.39 35.6-18.8 40.9-48.1 2.39-12.8 1.04-25.2-3.89-35.8-4.44-9.55-11.6-17.5-22-24.5-16.7-11.1-39.6-17.3-58.1-22.3l-1.78-.51c-21.4-5.75-38.7-10.8-50.4-18.5-5.12-3.46-8.51-7.06-10.4-11-2.08-4.46-2.49-9.94-1.25-16.8 1.82-10.1 9.14-17.6 21.8-22.5 8.94-3.4 20.3-5.2 32.7-5.2 7.11 0 14.6 .58 22.2 1.71l2.27 .32c12 1.7 25.3 3.67 31 5.64 1.27 .3 2.56 .46 3.85 .46 7.5 0 14-5.09 15.9-12.4 2.18-8.49-3.26-17.6-11.8-19.9-8.22-2.08-28.4-5.37-36.4-6.56-1.02-.15-1.98-.3-3.01-.43l-4.35-.57v-28.3c0-.23 0-.47 0-.71-.19-8.84-7.53-16-16.4-16h-.36c-4.37 .1-8.45 1.89-11.5 5.05-3.03 3.16-4.64 7.31-4.55 11.7v27.8s-4.45 .49-4.45 .49c-9.18 1.02-18.2 3.17-26.9 6.38-13.5 5.16-37 18.1-42.3 47.2-2.46 13.5-1.19 25.8 3.79 36.5 4.48 9.59 11.7 17.6 22 24.5 16.7 11.1 39.6 17.3 58.1 22.3l1.8 .51c21.4 5.74 38.7 10.7 50.5 18.5 5.03 3.38 8.51 7.07 10.4 11 2.08 4.4 2.5 9.89 1.27 16.8-1.9 10.4-8.95 18.1-20.9 23-8.75 3.55-19.9 5.43-32.3 5.43-6.76 0-13.9-.56-21.2-1.66-13.3-2.07-37-8.28-52-14.7l-.17-.08c-1.93-.91-4.01-1.38-6.18-1.38-6.32 0-12.1 3.81-14.7 9.71-3.67 8.26 .06 18 8.29 21.7 17.4 7.67 42.8 14.4 58.6 17 .28-.05 .56-.07 .85-.07 .64 0 1.25 .11 1.85 .34h3.78v28.4c0 .24 0 .48 0 .71 .19 8.84 7.53 16 16.4 16h.36z"/></svg>