<svg xmlns="http://www.w3.org/2000/svg" viewBox="0 0 480 512"><path d="M450.5 83.703l-192-80C253.625 1.672 245.34 0 240.06 0c-5.312 0-13.55 1.672-18.46 3.703l-191.99 80C11.7 91.093 0 108.593 0 127.093c0 258.1 189.2 384.9 239.9 384.9 51.2 0 240.1-128.2 240.1-384.9 0-18.5-11.7-36-29.5-43.39zM334.923 324.198c-4.676 25.984-22.711 42.951-43.887 51.769-9.085 3.741-19.104 6.145-29.658 7.348v22.311c0 11.823-9.552 21.375-21.375 21.375s-21.375-9.552-21.375-21.375v-23.313c-.267 0-.601-.668-.868-.134h-.134c-16.232-2.538-43.038-9.552-61.12-17.568-10.788-4.81-15.644-17.434-10.848-28.256 4.796-10.755 17.428-15.631 27.614-10.821 14.562 6.212 37.541 12.291 50.833 14.362 21.375 3.206 38.943 1.336 50.833-3.474 11.289-4.609 16.432-11.289 17.902-19.305 1.269-7.147.334-11.222-.868-13.76-1.269-2.672-3.741-5.678-8.617-8.951-10.888-7.147-27.454-11.957-48.963-17.768l-1.87-.534c-18.971-5.144-42.23-11.489-59.477-22.912-9.425-6.279-18.256-14.762-23.74-26.519-5.564-11.89-6.773-25.25-4.188-39.478 4.729-25.984 23.446-42.557 45.43-50.947 8.697-3.32 18.129-5.504 28.082-6.68v-23.199c0-11.803 9.552-21.375 21.375-21.375s21.375 9.572 21.375 21.375v23.834c1.069.14 2.071.294 3.139.448 7.081 1.055 28.189 4.455 36.873 6.653 10.821 2.899 18.37 14.555 15.43 25.978-2.872 11.423-14.495 18.37-25.984 15.497-6.212-2.204-25.116-4.743-32.598-5.811-21.442-3.206-39.812-1.603-52.437 3.206-12.211 4.676-17.281 11.289-18.623 18.704-1.296 7.147-.314 11.222.862 13.76 1.262 2.672 3.727 5.678 8.637 8.951 10.861 7.147 27.427 11.957 48.936 17.768l1.87.534c18.971 5.144 42.216 11.489 59.45 22.912 9.419 6.279 18.303 14.762 23.78 26.519 5.545 11.889 6.747 25.249 4.209 38.876z"/></svg>