<svg xmlns="http://www.w3.org/2000/svg" viewBox="0 0 820 512"><path d="M12.1 299c-2.72 0-4.64-.64-5.92-1.76c-1.28-1.12-1.92-3.2-1.92-6.08V81.6c0-2.88 .64-4.96 1.92-6.08c1.28-1.12 3.2-1.76 5.92-1.76h22.6c4.8 0 7.68 2.24 8.8 6.88l2.24 8.16c6.24-6.08 13.9-10.9 22.7-14.4c8.96-3.52 17.9-5.28 27.2-5.28c20.3 0 36.3 7.36 48.2 22.2c11.8 14.9 17.8 34.9 17.8 60.3c0 17.4-2.88 32.5-8.8 45.4c-5.92 13-13.8 23-23.8 29.9c-10.1 7.04-21.6 10.6-34.6 10.6c-8.64 0-16.8-1.44-24.5-4.16c-7.68-2.72-14.4-6.56-19.8-11.4v68.8c0 2.88-.64 4.96-1.76 6.08c-1.12 1.12-3.2 1.76-6.08 1.76H12.1zM80.9 203c11.7 0 20.3-4 25.9-12c5.6-8 8.32-20.5 8.32-37.6c0-17.4-2.72-30.1-8.16-37.9c-5.44-8-14.1-12-26.1-12c-10.9 0-21.1 2.88-30.7 8.48v82.6C59.3 200 69.5 203 80.9 203zM200 234c-2.72 0-4.64-.64-5.92-1.92c-1.28-1.28-1.92-3.2-1.92-5.92V81.6c0-2.88 .64-4.96 1.92-6.08c1.28-1.12 3.2-1.76 5.92-1.76h22.6c4.8 0 7.68 2.24 8.8 6.88L236 97.6c8.32-9.28 16.3-15.7 23.7-19.7c7.36-3.84 15.4-5.76 23.7-5.76h4.32c2.88 0 4.96 .64 6.24 1.76c1.28 1.12 1.92 3.2 1.92 6.08v26.4c0 2.72-.64 4.64-1.76 5.92c-1.12 1.28-3.2 1.92-6.08 1.92c-1.44 0-3.36-.16-5.6-.32c-2.24-.16-5.28-.32-8.8-.32c-4.8 0-10.7 .64-17.6 2.08c-6.88 1.28-12.8 3.04-17.6 5.12v105c0 2.72-.64 4.64-1.76 5.92c-1.12 1.28-3.2 1.92-6.08 1.92H200zM341 49c-8 0-14.4-2.24-19.2-6.56c-4.8-4.32-7.2-10.4-7.2-17.9c0-7.52 2.4-13.4 7.2-17.9c4.8-4.32 11.2-6.56 19.2-6.56c8 0 14.4 2.24 19.2 6.56c4.8 4.32 7.2 10.4 7.2 17.9c0 7.52-2.4 13.4-7.2 17.9C355 46.7 349 49 341 49zM326 234c-2.72 0-4.64-.64-5.92-1.92c-1.28-1.28-1.92-3.2-1.92-5.92V81.6c0-2.88 .64-4.96 1.92-6.08c1.28-1.12 3.2-1.76 5.92-1.76h30.1c2.88 0 4.96 .64 6.08 1.76c1.12 1.12 1.76 3.2 1.76 6.08v145c0 2.72-.64 4.64-1.76 5.92c-1.12 1.28-3.2 1.92-6.08 1.92H326zM410 234c-2.72 0-4.64-.64-5.92-1.92c-1.28-1.28-1.92-3.2-1.92-5.92V81.6c0-2.88 .64-4.96 1.92-6.08c1.28-1.12 3.2-1.76 5.92-1.76h22.6c4.8 0 7.68 2.24 8.8 6.88l2.56 8.48c11-7.36 21.1-12.5 29.9-15.5c8.96-3.04 18.1-4.48 27.5-4.48c18.9 0 32.2 6.72 39.8 20.2c10.7-7.04 20.6-12.2 30.1-15.4c9.44-3.2 19.2-4.64 29.1-4.64c14.7 0 26.1 4.16 34.1 12.3c8 8.16 12.2 19.5 12.2 34.2v111c0 2.72-.64 4.64-1.76 5.92c-1.12 1.28-3.2 1.92-6.08 1.92h-30.1c-2.72 0-4.64-.64-5.92-1.92c-1.28-1.28-1.92-3.2-1.92-5.92v-101c0-14.2-6.4-21.3-19.2-21.3c-11.4 0-22.7 2.72-34.2 8.16v114c0 2.72-.64 4.64-1.76 5.92c-1.12 1.28-3.2 1.92-6.08 1.92h-30.1c-2.72 0-4.64-.64-5.92-1.92c-1.28-1.28-1.92-3.2-1.92-5.92v-101c0-14.2-6.4-21.3-19.2-21.3c-11.7 0-23.2 2.88-34.6 8.48v114c0 2.72-.64 4.64-1.76 5.92c-1.12 1.28-3.2 1.92-6.08 1.92H410zM756 239c-25.9 0-45.9-7.04-59.8-21.3c-13.9-14.2-20.8-34.6-20.8-61.3c0-27.2 7.04-48.5 21.3-64c14.2-15.5 34.1-23.2 59.4-23.2c19.5 0 34.7 4.64 45.6 14.1c11 9.44 16.5 21.9 16.5 37.6c0 15.7-5.92 27.5-17.8 35.7c-11.8 8-29.3 12.2-52.3 12.2c-12 0-22.2-1.12-31-3.52c1.28 14.1 5.44 24 12.6 30.1c7.2 6.08 18.1 9.12 32.8 9.12c5.92 0 11.5-.32 17.1-1.12c5.6-.8 13.3-2.4 23-4.8c.64-.16 1.28-.32 1.92-.48c.64-.16 1.12-.16 1.6-.16c3.52 0 5.28 2.4 5.28 7.2v14.4c0 3.36-.48 5.76-1.44 7.04c-.96 1.44-2.72 2.56-5.44 3.68C789 236 773 239 756 239zM746 140c10.7 0 18.4-1.6 23.2-4.8c4.8-3.2 7.2-8.16 7.2-14.9c0-13.1-7.84-19.8-23.5-19.8c-20.2 0-31.7 12.3-34.9 37.1C726 140 735 140 746 140zM726 390C626 432 517 453 418 453C271 453 128 412 13.2 345c-10.1-5.92-17.6 4.48-9.12 12C111 454 252 512 408 512c112 0 241-35.2 331-101C754 400 742 383 726 390zM753 470c-3.2 8.16 3.68 11.5 11.2 5.28c48-40.2 60.5-124 50.6-136c-9.76-12-93.8-22.4-145 13.6c-7.84 5.6-6.56 13.1 2.24 12.2c28.8-3.52 93.1-11.2 104 3.52C788 383 764 443 753 470z"/></svg>