<svg xmlns="http://www.w3.org/2000/svg" viewBox="0 0 622 512"><path d="M365 398c-9.18 0-16.7-7.47-16.7-16.7v-21.8l-4.07-.905c-14-3.12-28-7.66-41.5-12.1l-1.4-.458c-4.19-1.39-7.62-4.35-9.62-8.34s-2.32-8.49-.926-12.7c2.27-6.84 8.62-11.4 15.8-11.4 1.78 0 3.54 .291 5.24 .853 1.31 .416 2.56 .843 3.82 1.27 1.28 .437 2.55 .864 3.83 1.28l1.39 .468c11.1 3.75 22.6 7.63 34.3 9.44 5.82 .853 11.4 1.29 16.5 1.29 10.5 0 19.4-1.74 26.3-5.16 8.34-2.92 14.4-9.81 15.5-17.7 .968-6.96-2.12-13.5-8.48-17.9-9.7-7.44-21-10.4-31.9-13.2-1.58-.416-3.16-.822-4.73-1.25l-.239-.062c-1.87-.416-3.04-.78-4.27-1.17-.77-.239-1.52-.468-2.38-.708l-.593-.167c-14.8-4.21-33.2-9.45-46.7-18.1-18.4-11.8-27.1-31.1-23.3-51.8 4.35-23.7 24.7-35.7 36.4-40.7l.323-.135 .302-.187c4.11-2.47 8.78-3.51 13.7-4.6 .812-.177 1.63-.364 2.46-.552l4.04-.926v-20.5c0-9.18 7.47-16.7 16.7-16.7s16.7 7.47 16.7 16.7v19l4.56 .562c9.67 1.2 19.7 4.03 28.6 6.52 .354 .104 .718 .198 1.09 .302 1.5 .406 3.05 .822 4.41 1.43l.177 .073 .177 .062c9.27 3.31 13.9 11.5 11.4 20.3-2 7.18-8.59 12.2-16 12.2-1.5 0-3.01-.208-4.47-.614l-.791-.208c-1.23-.323-2.49-.656-3.63-1.04l-.135-.042-2.86-.78c-6.17-1.69-12.6-3.43-19-4.7-4.8-.916-9.78-1.37-14.8-1.37-10.6 0-20.8 1.99-29.6 5.74-7.38 3.23-16.2 10.2-16.9 19.2-.26 3.3 .51 9.58 8.48 14.7 8.54 5.43 15.7 7.46 25.7 10.3 2.58 .728 5.49 1.55 8.67 2.5 2.35 .656 3.44 1.09 4.4 1.47 .957 .385 1.94 .77 3.43 1.11l.947 .271c15.3 4.42 34.4 9.92 48.4 19.5 18 12.3 26.4 32.3 22.5 53.7-3.53 18.8-16.2 33.4-35.8 41.3-7.72 3.07-15.8 5.06-24.1 5.9l-4.67 .479v20.1c0 9.18-7.47 16.7-16.7 16.7zM366 0C256-.281 162 69.1 126 167c0 0-98.9 0-98.9 0-21 .749-21.4 30.2-.437 31.2 46.6 0 141 0 188 0 20.7-.812 20.8-30.4 0-31.2 0 0-55 0-55 0C207 54.4 341 .572 453 48.9c146 61.8 184 254 71.5 366-73.4 75.7-199 87.5-285 27-22.7-15.5-48.6-42.7-57.7-56.9-9.15-14.2-15.5-31.2-15.5-31.2h-37c109 255 488 184 493-97.4C622 116 507 .354 366 0zM61.8 229c-8.87 0-16 7.4-15.6 16.4 .395 8.4 7.63 14.9 16 14.9H251c8.62 0 15.6-6.99 15.6-15.6h0c0-8.62-6.99-15.6-15.6-15.6H61.8zm50.3 62.4H15.9c-6.71 0-12.8 4.24-14.8 10.6-3.32 10.7 4.62 20.6 14.9 20.6H218c8.62 0 15.6-6.99 15.6-15.6h0c0-8.62-6.99-15.6-15.6-15.6H112z"/></svg>