<svg xmlns="http://www.w3.org/2000/svg" viewBox="0 0 622 512"><path d="M366 0C256 0 162 69.3 126 167H26.4c-8.62 0-15.6 6.99-15.6 15.6s6.99 15.6 15.6 15.6H233c8.62 0 15.6 6.99 15.6 15.6s-6.99 15.6-15.6 15.6H61.8c-8.62 0-15.6 6.99-15.6 15.6s6.99 15.6 15.6 15.6H265c8.62 0 15.6 6.99 15.6 15.6s-6.99 15.6-15.6 15.6H16c-8.62 0-15.6 6.99-15.6 15.6s6.99 15.6 15.6 15.6H233c8.62 0 15.6 6.99 15.6 15.6s-6.99 15.6-15.6 15.6H129c38.4 92.8 130 158 237 158 141 0 256-115 256-256S507 0 366 0zm85.6 314c-4.26 22.7-19.9 37.6-39 45.2-8.17 3.25-16.8 5.35-25.5 6.24v15.4c0 12.1-9.78 21.9-21.9 21.9s-21.9-9.78-21.9-21.9v-17.6c-14.7-3.28-29.1-8-43.4-12.6-11.5-3.8-17.7-16.2-13.9-27.6 3.8-11.5 16.2-17.7 27.6-13.9 2.54 .812 5.07 1.72 7.6 2.53 11.4 3.85 23.2 7.9 34.9 9.72 17.2 2.53 31 1.04 40-3.54 12.1-4.05 17.8-18.4 5.97-26.5-10.2-7.9-22.9-10.4-34.9-13.7-3.25-.718-4.66-1.32-6.89-1.93-15.3-4.36-34.3-9.72-48.7-18.9-19.8-12.7-29.9-33.7-25.6-57.1 4.05-22.1 21.3-36.8 39.5-44.6 5.57-3.34 11.5-4.35 17.7-5.77v-16.3c0-12.1 9.78-21.9 21.9-21.9s21.9 9.78 21.9 21.9v14.4c9.81 1.22 19.6 3.94 29.4 6.68 1.82 .51 4.09 1.04 6.2 1.98 11.6 4.16 17.9 14.9 14.7 26.6-3.24 11.6-15.3 18.4-26.9 15.2 0 0-.01 0-.021 0-1.52-.406-3.12-.812-4.65-1.32-7.09-1.93-14.2-3.94-21.4-5.36-13.4-2.54-28.9-1.32-41.4 4.05-11.1 4.86-20.3 16.7-7.69 24.7 10 6.38 17.9 7.64 33.1 12.2 4.79 1.33 5.13 1.99 7.63 2.52 15.8 4.56 35.9 10.2 51 20.6 19.7 13.5 28.9 35.4 24.7 58.9z"/></svg>