<svg xmlns="http://www.w3.org/2000/svg" viewBox="0 0 642 512"><path d="M321 326c42.8 0 77.5 34.7 77.5 77.5S364 481 321 481s-77.5-34.7-77.5-77.5S278 326 321 326M321 296c-59.6 0-108 48.3-108 108S261 512 321 512c59.6 0 108-48.3 108-108S381 296 321 296L321 296zM217 313c-15.5-4.48-26.3-18.7-26.3-34.6c0-12.3 6.31-23.7 16.8-30.4c33.2-21.2 53.7-62.7 53.7-108c0-64-40.9-109-99.4-109S62.6 75.2 62.6 139c0 45.7 20.6 87.2 53.7 108c10.5 6.72 16.8 18.1 16.8 30.4c0 16-10.8 30.2-26.3 34.6c-35.1 10.1-62.5 29.4-74.9 53c-2.04 3.87-.509 7.23 .305 8.55c.814 1.32 3.16 4.38 7.74 4.38h150c-1.63 8.14-2.44 16.6-2.44 25.2c0 1.73 0 3.46 .102 5.29H40c-13.9 0-26.7-7.13-33.9-19.1c-7.13-11.9-7.53-26.4-1.12-38.6c16.3-30.8 50.4-55.7 93.4-68.1c2.44-.713 4.17-2.85 4.17-5.29c0-1.83-1.02-3.66-2.65-4.68c-41.8-26.7-67.9-78.1-67.9-134c0-40.4 13.1-75.3 37.9-101C93.7 13.5 126 0 162 0s68.3 13.5 92.1 38.3c24.7 25.7 37.9 60.7 37.9 101c0 56-26 107-67.9 134c-1.73 1.12-2.65 2.85-2.65 4.68c0 2.44 1.63 4.58 4.17 5.29c8.24 2.34 16.1 5.19 23.6 8.45c-9.87 6.31-18.8 13.9-26.7 22.6C221 314 219 313 217 313zM637 351c-16.3-30.8-50.4-55.7-93.4-68.1c-2.44-.713-4.17-2.85-4.17-5.29c0-1.83 1.02-3.66 2.65-4.68c41.8-26.7 67.9-78.1 67.9-134c0-40.4-13.1-75.3-37.9-101C548 13.5 516 0 480 0s-68.3 13.5-92.1 38.3c-24.7 25.7-37.9 60.7-37.9 101c0 56 26 107 67.9 134c1.73 1.12 2.65 2.85 2.65 4.68c0 2.44-1.63 4.58-4.17 5.29c-8.24 2.34-16.1 5.19-23.6 8.45c9.87 6.31 18.8 13.9 26.7 22.6c1.73-.611 3.56-1.12 5.39-1.63c15.5-4.48 26.3-18.7 26.3-34.6c0-12.3-6.31-23.7-16.8-30.4c-33.2-21.2-53.7-62.7-53.7-108c0-64 40.9-109 99.4-109s99.4 44.7 99.4 109c0 45.7-20.6 87.2-53.7 108c-10.5 6.72-16.8 18.1-16.8 30.4c0 16 10.8 30.2 26.3 34.6c35.1 10.1 62.5 29.4 74.9 53c2.04 3.87 .509 7.23-.305 8.55c-.814 1.32-3.16 4.38-7.74 4.38H452c1.63 8.14 2.44 16.6 2.44 25.2c0 1.73 0 3.46-.102 5.29h148c13.9 0 26.7-7.13 33.9-19.1C643 378 644 364 637 351zM371 371c-4.68-4.68-12.3-4.68-17 0l-3.66 3.66l-21.7 21.7l-20.2 20.2l-10.5-10.5l-11-11c-4.68-4.68-12.3-4.68-17 0c-3.77 3.66-4.48 9.26-2.34 13.7c.611 1.12 1.32 2.24 2.34 3.26l30 30c4.68 4.68 12.3 4.68 17 0l33.8-33.8l20.3-20.3c2.65-2.65 3.87-6.31 3.46-9.77C375 376 374 373 371 371z"/></svg>