<svg xmlns="http://www.w3.org/2000/svg" viewBox="0 0 642 512"><path d="M190 379c-1.63 8.14-2.44 16.6-2.44 25.2c0 1.73 0 3.46 .102 5.29H40c-13.9 0-26.7-7.13-33.9-19.1c-7.13-11.9-7.53-26.4-1.12-38.6c16.3-30.8 50.4-55.7 93.4-68.1c2.44-.713 4.17-2.85 4.17-5.29c0-1.83-1.02-3.66-2.65-4.68c-41.8-26.7-67.9-78.1-67.9-134c0-40.4 13.1-75.3 37.9-101C93.7 13.5 126 0 162 0s68.3 13.5 92.1 38.3c24.7 25.7 37.9 60.7 37.9 101c0 56-26 107-67.9 134c-1.73 1.12-2.65 2.85-2.65 4.68c0 2.44 1.63 4.58 4.17 5.29c8.24 2.34 16.1 5.19 23.6 8.45c-9.87 6.31-18.8 13.9-26.7 22.6C206 332 195 354 190 379zM637 351c-16.3-30.8-50.4-55.7-93.4-68.1c-2.44-.713-4.17-2.85-4.17-5.29c0-1.83 1.02-3.66 2.65-4.68c41.8-26.7 67.9-78.1 67.9-134c0-40.4-13.1-75.3-37.9-101C548 13.5 516 0 480 0s-68.3 13.5-92.1 38.3c-24.7 25.7-37.9 60.7-37.9 101c0 56 26 107 67.9 134c1.73 1.12 2.65 2.85 2.65 4.68c0 2.44-1.63 4.58-4.17 5.29c-8.24 2.34-16.1 5.19-23.6 8.45c9.87 6.31 18.8 13.9 26.7 22.6c16.1 17.7 27.6 39.8 32.3 64.2c1.63 8.14 2.44 16.6 2.44 25.2c0 1.73 0 3.46-.102 5.29h148c13.9 0 26.7-7.13 33.9-19.1C643 378 644 364 637 351zM426 379c1.93 8.14 2.95 16.6 2.95 25.2c0 1.73 0 3.46-.102 5.29c-2.75 57.2-50 103-108 103s-105-45.6-108-103c-.102-1.73-.102-3.46-.102-5.29c0-8.75 1.02-17.2 2.95-25.2c5.09-21 16.3-39.7 31.6-53.8c8.24-7.63 17.7-14 28.1-18.8c13.8-6.41 29.2-9.98 45.4-9.98s31.6 3.56 45.4 9.98c10.4 4.78 19.8 11.2 28.1 18.8C410 339 421 358 426 379zM375 379c-.305-2.65-1.43-5.19-3.46-7.23c-4.68-4.68-12.3-4.68-17 0l-3.66 3.66L329 397l-20.2 20.2l-10.5-10.5l-11-11c-4.68-4.68-12.3-4.68-17 0c-3.77 3.66-4.48 9.26-2.34 13.7c.611 1.12 1.32 2.24 2.34 3.26l30 30c4.68 4.68 12.3 4.68 17 0l33.8-33.8l20.3-20.3C374 386 375 382 375 379z"/></svg>