<svg xmlns="http://www.w3.org/2000/svg" viewBox="0 0 264 512"><path d="M131 512c-9.03 0-16.4-7.35-16.4-16.4v-62.4h-13.2c-1.56-.399-2.97-.522-4.13-.522-.338 0-.676 0-1.01 .031-23.9-4.06-61.2-14-86.6-25.2-8.23-3.67-12-13.4-8.29-21.7 2.58-5.78 8.45-9.69 14.6-9.69 2.03 0 3.96 .43 5.75 1.27l.276 .133 .287 .123c24 10.2 60.5 19.8 81.8 23.1 11.7 1.75 23.1 2.64 33.8 2.64 20 0 38.3-3.1 52.8-8.96 21.4-8.71 33.9-22.8 37.4-41.8 2.22-12.5 1.35-22.6-2.64-31.1-3.58-7.55-9.76-14.2-18.9-20.3l-.143-.092c-18.7-12.3-44.8-19.9-79.7-29.3l-2.97-.85c-27.6-7.5-62-16.8-86.4-33-14.4-9.59-24.4-20.7-30.6-33.9C.426 189-1.3 172 2.15 153c7.33-40.3 40.3-58.5 59.4-65.7 11.7-4.47 24.9-7.59 39.1-9.28l14.5-1.71V16.4c0-9.03 7.35-16.4 16.4-16.4s16.4 7.35 16.4 16.4v61.2l14.3 1.87c1.06 .143 2.09 .287 3.13 .44l1.48 .215c12 1.79 42.5 6.76 54.7 9.83 7.55 2.08 14.3 10.7 11.9 19.9-1.85 7.36-8.4 12.5-15.9 12.5h0c-1.17 0-2.34-.123-3.51-.379-9.81-3.23-29.4-6.14-48.8-8.88l-3.37-.481c-12.1-1.81-24-2.73-35.3-2.73-20.2 0-38.6 2.96-53.2 8.55-22.4 8.58-35.5 22.4-38.8 41.1-2.22 12.2-1.38 22.4 2.58 30.9l.051 .113c3.58 7.58 9.78 14.2 19 20.4 18.8 12.4 44.9 20 79.7 29.4l2.97 .85c27.6 7.49 62 16.8 86.4 33 14.5 9.66 24.5 20.8 30.7 33.9 6.85 14.7 8.6 31.4 5.19 49.7-7.33 40.7-39.1 59.6-57.5 67.2-12.1 4.98-25.9 8.39-41 10.1l-14.5 1.66v59.1c0 9.03-7.35 16.4-16.4 16.4z"/></svg>