<svg xmlns="http://www.w3.org/2000/svg" viewBox="0 0 512 512"><path d="M231 35.1c10.4 0 20.6 4.23 28 11.6l.023 .023 .023 .023 206 206c15.5 15.5 15.5 40.8 0 56.3l-156 156c-7.53 7.52-17.5 11.7-28.2 11.7s-20.6-4.14-28.2-11.6L46.7 259c-7.39-7.38-11.6-17.6-11.6-28.1V56.1c0-11.6 9.43-21 21-21H231m0-35.1H56.1C25.1 0 0 25.1 0 56.1V231c-.023 19.8 7.84 38.9 21.9 52.9l206 206c14.6 14.6 33.8 21.9 53 21.9s38.3-7.31 53-21.9l156-156c29.2-29.3 29.2-76.6 0-106L284 21.9C270 7.89 251 0 231 0h0zM103 131c0-15.5 12.6-28.1 28.1-28.1s28.1 12.6 28.1 28.1-12.6 28.1-28.1 28.1-28.1-12.6-28.1-28.1zm258 123c12 17.3 11.4 37 4.43 53.9-3.2 7.49-7.42 14.5-12.6 20.8l12.6 12.6c6.22 7.05 5.54 17.8-1.52 24-6.43 5.67-16.1 5.67-22.5 0l-13.1-13.1c-.152 .152-.713 0-.561 .421l-.082 .07c-10.5 7.72-29.6 18.9-44.3 24.5-8.79 3.38-18.6-1.02-22-9.8 0 0 0 0 0 0-3.35-8.76 1.01-18.6 9.46-21.6 11.7-4.68 28.1-14.2 36.7-20.5 13.9-10.2 22.7-21.2 26.7-30.6 3.76-8.95 2.9-15.6-.795-21-3.31-4.73-6.13-6.5-8.18-7.26s-5.31-1.09-9.9-.187c-10.1 2.1-22.2 8.73-37.6 17.5l-1.36 .748c-13.6 7.8-30.3 17.3-46.4 20.6-8.85 1.77-18.6 1.96-28.3-1.57s-18-10.4-24.5-19.9c-12-17.3-10.8-37.2-3.11-54.3 3.17-6.98 7.18-13.5 11.9-19.6l-13.1-13.1c-6.58-6.71-6.48-17.5 .234-24.1 6.62-6.49 17.2-6.49 23.8 0l13.4 13.4 2.02-1.52c4.58-3.39 18.4-13.4 24.5-17 7.73-4.45 18.5-2.14 23.4 5.94 4.82 8.09 2.17 18.6-5.9 23.4-4.75 2.26-16.8 11.5-21.6 15.1-13.9 10.3-23.4 21.5-27.7 31.3-4.24 9.5-3.38 16.1 0 21 3.28 4.75 6.14 6.49 8.18 7.26s5.3 1.1 9.9 .175c10.1-2.09 22.2-8.71 37.6-17.5l1.34-.76c13.6-7.79 30.3-17.3 46.4-20.6 8.84-1.77 18.6-1.99 28.3 1.54s18 10.4 24.3 19.5v-.035z"/></svg>