<svg xmlns="http://www.w3.org/2000/svg" viewBox="0 0 640 512"><path d="M474.6 410.9c-27.8 0-50.6 22.7-50.6 50.6s22.7 50.6 50.6 50.6 50.6-22.7 50.6-50.6-22.7-50.6-50.6-50.6zm0 71c-11.2 0-20.5-9.3-20.5-20.5s9.3-20.5 20.5-20.5 20.5 9.3 20.5 20.5-9.3 20.5-20.5 20.5zm113.9-379.2l-41.6 166.7c-6.4 25.6-29.4 43.8-56 43.8H212.5l6.7 33.3c2.6 12.8 14.1 22.1 27.2 22.1h270.7c8.3 0 15 6.7 15 15s-6.7 15-15 15H246.4c-27.2 0-50.9-19.5-56.6-46.1l-52.5-256c-1.3-6.4-6.7-10.6-13.1-10.6H90.6c-8.3 0-15-6.7-15-15s6.7-15 15-15h33.6c20.5 0 38.4 14.7 42.6 34.9l39.4 192.6H490.9c12.8 0 23.7-8.6 26.9-20.8L559.4 96c1-3.8 3.5-7 6.7-9.3c3.5-1.9 7.4-2.6 11.5-1.6c3.8 1 7.4 3.5 9.3 7s2.6 7.4 1.6 11.2zM247 410.9c-27.8 0-50.6 22.7-50.6 50.6s22.7 50.6 50.6 50.6 50.6-22.7 50.6-50.6-22.7-50.6-50.6-50.6zm0 71c-11.2 0-20.5-9.3-20.5-20.5s9.3-20.5 20.5-20.5 20.5 9.3 20.5 20.5-9.3 20.5-20.5 20.5zM129.9 156.8s1.3 1.9 0 2.2c-27.2 3.5-34.6 10.9-37.4 39c0 1.3-1.9 1.3-2.2 0c-3.5-28.2-10.9-35.2-38.1-38.4c-1.3 0-1.3-1.9 0-2.2c27.2-3.5 34.6-10.9 37.4-39c0-1.3 1.9-1.3 2.2 0c3.5 28.2 10.9 35.2 38.1 38.4zm41-103.7c-1.6 0-1.6-2.6 0-2.9c34.6-4.2 44.2-13.1 48.3-49.3c0-1.6 2.6-1.6 2.9 0c4.2 36.2 13.4 45.1 48.3 49.3c1.6 0 1.6 2.6 0 2.9c-34.6 4.2-44.2 13.4-48.3 49.3c0 1.6-2.6 1.6-2.9 0c-4.2-36.2-13.4-45.1-48.3-49.3zm71.4 67.2v110.1c0 31 51.5 45.4 99.5 45.4s99.5-14.1 99.5-45.4V120.3c0-31-51.5-45.4-99.5-45.4s-99.5 14.1-99.5 45.4zm171.2 109.8c-1.6 4.5-25.6 17.9-72 17.9s-70.7-13.8-72-17.9v-24.3c17.9 8 44.2 12.8 72 12.8s53.8-4.8 72-12.8v24zm0-57c-1.6 4.5-25.6 17.9-72 17.9s-70.7-13.8-72-17.9v-18.6c17.9 8 44.2 12.8 72 12.8s53.8-4.8 72-12.8v18.6zm0-53.1v1.6c-1.6 4.5-25.6 17.9-72 17.9s-70.7-13.8-72-17.9V120c1.3-4.5 25.3-17.9 72-17.9s70.7 13.8 72 17.9zm-91.8-57.9l-6.4 .6V48c0-31 51.5-45.4 99.5-45.4s99.5 14.1 99.5 45.4v110.1c0 18.6-18.6 33-52.2 40.6l-6.7 1.6v-28.2l4.2-1c18.9-4.8 26.6-10.9 27.2-13.1v-24c-7 3.2-15.4 5.8-24.6 8l-6.7 1.6v-28.2l4.2-1c18.9-4.8 26.6-10.9 27.2-13.1V82.9c-9.3 4.2-20.8 7.4-33.6 9.6l-3.2 .6-1.9-2.6c-3.8-4.8-9.3-9.3-15.7-12.8l-15.4-9 17.9-1.6c34.2-3.2 51.5-13.4 52.5-17.3v-1.6c-1.3-4.2-25.3-17.9-72-17.9s-70.7 13.8-72 18.2v1.6h0s0 .3 1 1.3l8.3 9h-12.2c-6.1 .6-12.5 1.3-18.6 1.9z"/></svg>