<svg xmlns="http://www.w3.org/2000/svg" viewBox="0 0 640 512"><path d="M527.7 461.4c0 27.8-22.7 50.6-50.6 50.6s-50.6-22.7-50.6-50.6 22.7-50.6 50.6-50.6 50.6 22.7 50.6 50.6zm-278.1-50.6c-27.8 0-50.6 22.7-50.6 50.6s22.7 50.6 50.6 50.6 50.6-22.7 50.6-50.6-22.7-50.6-50.6-50.6zm-119-257c-26.2-2.9-32-9-35.5-35.5c0-2.2-1.9-3.8-4.2-3.8h0c-2.2 0-4.2 1.6-4.2 3.8c-2.9 26.6-8.6 32.6-34.6 36.2c-2.2 0-3.8 1.9-3.8 4.2s1.6 3.8 3.8 4.2c26.2 2.9 32 9 35.5 35.5c0 2.2 1.9 3.8 4.2 3.8h0c2.2 0 3.8-1.6 4.2-3.8c2.9-26.6 8.6-33 34.6-36.2c2.2 0 3.8-2.2 3.8-4.5s-1.6-3.8-3.8-4.2zm458.9-62.4c-1.9-3.5-5.4-5.8-9.3-7c-1.6-.3-3.2-.3-4.8 0c-.3 0-.6 0-1 0h-44.5v93.8c0 23-28.2 36.8-62.4 42.6v13.1c0 31-51.5 45.4-99.5 45.4s-99.5-14.1-99.5-45.4V123.5c0-19.5 20.2-32.3 47-39.4h-71.7c-2.6 5.1-3.8 12.5-5.1 23.4c-1 8-7.7 14.1-15.7 14.1s-14.7-6.1-15.7-14.1c-1.3-10.6-2.6-17.9-5.1-23h-34.9c-6.1-17-21.8-28.8-40.3-28.8H93.4c-8.3 0-15 6.7-15 15s6.7 15 15 15H127c6.4 0 11.8 4.5 13.1 10.6l52.5 256c5.4 26.9 29.1 46.1 56.6 46.1H520c8.3 0 15-6.7 15-15s-6.7-15-15-15H249c-13.1 0-24.6-9.3-27.2-22.1L215 313H493.4c26.6 0 49.6-17.9 56-43.8L591 102.4c1-3.8 .3-8-1.6-11.2zM173.1 59.8h0c33.3 4.2 41.3 12.2 45.4 46.4c0 2.2 2.2 4.2 4.5 4.2h0c2.2 0 4.2-1.6 4.5-4.2c3.8-34.2 12.2-42.6 45.4-46.4c2.2 0 4.2-2.2 4.2-4.5s-1.6-4.2-4.2-4.5c-33.3-4.2-41.3-12.2-45.4-46.4c0-2.2-2.2-4.2-4.5-4.2h0c-2.2 0-4.2 1.6-4.5 4.2c-3.8 34.2-12.2 42.6-45.4 46.4c-2.2 0-4.2 2.2-4.2 4.5s1.6 4.2 4.2 4.5zM506.2 96c-11.8 5.4-27.5 9-44.5 11.2c1.3 1.6 2.9 3.2 3.5 5.1c1.6 3.5 2.6 7 2.6 11.2v17c26.6-4.8 42.2-13.4 44.5-19.2V93.1s-5.8 2.9-5.8 2.9zM368 78.1s0 0 .3 0c1.6 0 3.2 0 4.8 0c16.3 0 32.6 2.2 47 5.8c3.8 1 7.4 2.2 10.9 3.5c0 0 .3 0 .6 0c15 0 27.8-1.6 38.7-3.5c25-4.8 39.7-13.1 41.6-18.6v-.6s0-3.8 0-3.8c-2.6-8-32-22.4-81.9-22.4s-79.4 14.4-81.9 22.7v.6s0 3.5 0 3.5c1.3 3.5 8 8.3 19.2 12.8zm99.8 84.5v40c26.6-4.8 42.2-13.4 44.5-19.2v-34.2s-5.8 2.9-5.8 2.9c-10.6 4.8-24 8.3-38.4 10.6zm-24-10.9c-12.5 5.4-28.5 9.3-46.1 11.5c-1 0-1.9 0-2.9 .3c-8.6 1-17.6 1.6-26.6 1.6c-3.2 0-6.1 0-9-.3c-3.5 0-7 0-10.6-.3c-5.8-.3-11.5-1.3-17.3-1.9c-15-2.2-28.5-5.8-39.4-10.6l-6.1-2.9v28.2c2.2 6.4 21.4 16.6 53.8 20.5c8.6 1 17.9 1.9 28.2 1.9c3.5 0 6.4 0 9.6-.3c13.4-.6 25-1.9 34.9-4.2c22.1-4.8 35.2-12.5 37.1-17.9v-11.5s0-1 0-1v-15.7s-6.1 2.9-6.1 2.9zm-157.8-34.9v.6s0 3.5 0 3.5c1.9 5.8 17.9 14.7 45.1 19.2c10.6 1.9 22.7 2.9 36.8 2.9c2.9 0 5.1-.3 7.7-.6c4.8 0 9.6-.3 13.8-1c2.6 0 5.8 0 8.3-.6c6.4-1 12.2-1.9 17.6-3.2c20.5-4.8 32.6-12.2 34.2-17.3v-.6s0-3.8 0-3.8c0-.6-1-1.6-1.6-2.2c-1.3-1.6-3.5-3.5-6.7-5.4c-12.2-7-37.4-14.7-73.3-14.7c-5.4 0-10.9 0-15.7 .6c-1.3 0-2.6 0-3.8 0c-6.1 .6-11.8 1.3-17.3 2.2c-27.5 4.8-43.5 13.8-45.1 19.5zm105.9 103c-7.7 .6-16 1.3-24 1.3c-29.1 0-57-4.8-75.8-13.4l-6.1-2.9V239c2.6 7.7 33 22.4 81.9 22.4s78.7-14.4 81.6-22.4v-16.6s0-17.6 0-17.6l-6.1 2.9c-13.8 6.1-32 10.2-51.8 12.2z"/></svg>