<svg xmlns="http://www.w3.org/2000/svg" viewBox="0 0 392 512"><path d="M196 42.6c40.9 0 79.4 15.9 108 44.9 29 29 44.9 67.5 44.9 108 0 15.2-5.47 36.2-15.8 60.7-9.62 22.8-23.6 49-41.4 78-32 51.9-69.7 102-95.8 134-.132 .161-.237 .246-.293 .246s-.161-.085-.303-.256l-.047-.057-.047-.057c-16.8-20.6-59.6-74.9-96-134-17.7-28.9-31.6-55.1-41.2-77.9-10.3-24.5-15.7-45.5-15.7-60.8 0-41 15.9-79.4 44.9-108 29-29 67.5-44.9 108-44.9m0 242c49.1 0 89-39.9 89-89s-39.9-89-89-89-89 39.9-89 89 39.9 89 89 89m0-271C95.6 14.2 14.3 95.5 14.3 196c0 82.7 110 230 159 291 5.82 7.24 14.1 10.9 22.4 10.9s16.6-3.62 22.4-10.9c48.6-60.8 159-208 159-291 0-100-81.4-182-182-182h0zm0 242c-33.4 0-60.6-27.2-60.6-60.6s27.2-60.6 60.6-60.6 60.6 27.2 60.6 60.6-27.2 60.6-60.6 60.6h0z"/></svg>