<svg xmlns="http://www.w3.org/2000/svg" viewBox="0 0 512 512"><path d="M256 0C397.4 0 512 114.6 512 256s-114.6 256-256 256c-83.8 0-158.1-40.2-204.8-102.4c-5.3-7.1-3.9-17.1 3.2-22.4c7.1-5.3 17.1-3.9 22.4 3.2C117.7 444.8 182.7 480 256 480c123.7 0 224-100.3 224-224S379.7 32 256 32C166.7 32 89.5 84.3 53.6 160H144c8.8 0 16 7.2 16 16s-7.2 16-16 16H16c-8.8 0-16-7.2-16-16V48c0-8.8 7.2-16 16-16s16 7.2 16 16v83.1C75.7 53.3 159.6 0 256 0zm0 128c8.8 0 16 7.2 16 16V249.4l75.3 75.3c6.3 6.2 6.3 16.4 0 22.6c-6.2 6.3-16.4 6.3-22.6 0l-80-80c-3-3-5.6-7.1-5.6-11.3V144c0-8.8 8.1-16 16-16h.9z"/></svg>