<svg xmlns="http://www.w3.org/2000/svg" viewBox="0 0 452 512"><path d="M217 386l-73.3 119c-2.79 4.5-7.7 7.17-12.9 7.17-.838 0-1.69-.071-2.53-.212-6.07-1.03-10.9-5.62-12.3-11.6l-17.7-79.3-78.7 20.1c-5.98 1.52-12.3-.727-15.9-5.7s-3.94-11.7-.707-16.9l64.7-105c36.4 42.7 89.6 70.5 149 73.2zm232 32.2l-64.7-105c-37 43.4-91.4 71.5-152 73.3l76.2 119c2.79 4.5 7.7 7.17 12.9 7.17 .838 0 1.69-.071 2.53-.212 6.07-1.03 10.9-5.62 12.3-11.6l17.7-79.3 78.7 20.1c5.98 1.52 12.3-.727 15.9-5.7 3.66-4.97 3.94-11.7 .717-16.9zm-223-62.2c-98.3 0-178-79.7-178-178S127 0 226 0s178 79.7 178 178-79.7 178-178 178zm104-216c-3.56-11-13-19-24.5-20.6l-36.2-5.26-16.2-32.8c-5.1-10.3-15.6-16.9-27.2-16.9s-22.1 6.54-27.2 16.9l-16.2 32.8-36.2 5.26c-11.4 1.66-20.9 9.65-24.5 20.6-3.56 11-.596 23 7.66 31.1l26.2 25.5-6.18 36c-1.95 11.4 2.73 22.9 12 29.6 5.28 3.84 11.5 5.79 17.8 5.79 4.82 0 9.66-1.15 14.1-3.48l32.4-17 32.4 17c4.43 2.33 9.27 3.48 14.1 3.48 6.28 0 12.5-1.95 17.8-5.79 9.33-6.78 14-18.3 12-29.6l-6.18-36 26.2-25.5c8.26-8.05 11.2-20.1 7.66-31.1zm-104-45.3l-23.2 47.1-51.9 7.54 37.6 36.6-8.88 51.7 46.5-24.4 46.5 24.4-8.88-51.7 37.6-36.6-51.9-7.54-23.2-47.1z"/></svg>