<svg xmlns="http://www.w3.org/2000/svg" viewBox="0 0 452 512"><path d="M330 140c-3.53-11-13-19-24.4-20.6l-36.2-5.25-16.2-32.8c-5.15-10.3-15.7-16.9-27.2-16.9s-22 6.56-27.2 16.9l-16.2 32.8-36.2 5.25c-11.4 1.62-20.9 9.69-24.4 20.6-3.53 11-.606 23 7.67 31.1l26.2 25.5-6.16 36.1c-1.92 11.4 2.73 22.8 12 29.6 5.25 3.84 11.5 5.76 17.8 5.76 4.85 0 9.69-1.11 14.1-3.43l32.3-17 32.3 17c4.44 2.32 9.29 3.43 14.1 3.43 6.26 0 12.5-1.92 17.8-5.76 9.29-6.77 14-18.3 12-29.6l-6.16-36.1 26.2-25.5c8.28-8.18 11.2-20.2 7.67-31.1zm-66.3 45.9l7.47 43.6c.606 3.33-2.93 5.86-5.86 4.24l-39.2-20.6-39.2 20.6c-2.93 1.51-6.46-.909-5.86-4.24l7.47-43.6-31.8-30.9c-2.42-2.32-1.11-6.36 2.22-6.87l43.8-6.36 19.6-39.7c1.51-3.03 5.76-3.03 7.27 0l19.6 39.7 43.8 6.36c3.33 .505 4.65 4.54 2.22 6.87l-31.6 30.9zm186 233l-81.5-133c22.7-29.9 36.2-67.2 36.2-108C404 79.7 324 0 226 0S47.8 79.7 47.8 178c0 40.4 13.5 77.7 36.2 108L2.53 418c-3.23 5.25-2.93 11.9 .707 16.9 3.64 4.95 10 7.17 16 5.66l78.8-20.1 17.7 79.3c1.31 6.06 6.16 10.6 12.2 11.6 .808 .101 1.72 .202 2.52 .202 5.15 0 10.1-2.63 12.8-7.17l60.9-98.2c4.44-7.07 2.22-16.5-4.85-20.9-7.07-4.44-16.5-2.22-20.9 4.85l-41.3 66.7-13-58.3c-.909-4.04-3.33-7.47-6.87-9.59s-7.67-2.83-11.7-1.82l-57.6 14.9 57.3-93.3c31.7 29.2 74 47.1 121 47.1s88.9-17.9 121-47.1l57.3 93.3-57.7-14.7c-3.94-1.01-8.18-.404-11.7 1.82-3.53 2.12-5.96 5.66-6.87 9.59l-13 58.3-41.3-66.7c-4.44-7.07-13.7-9.29-20.9-4.85-7.07 4.44-9.29 13.7-4.85 20.9l60.9 98.2c2.83 4.54 7.67 7.17 12.8 7.17 .808 0 1.72-.101 2.52-.202 6.06-1.01 10.9-5.66 12.2-11.6l17.7-79.3 78.8 20.1c5.96 1.51 12.3-.707 16-5.66 3.84-5.05 4.14-11.8 .909-17.1zm-223-92.5c-39.5 0-76.5-15.3-104-43.2-27.9-27.9-43.2-64.9-43.2-104s15.3-76.5 43.2-104S186 30.3 226 30.3s76.5 15.3 104 43.2c27.9 27.9 43.2 64.9 43.2 104s-15.3 76.5-43.2 104-64.9 43.2-104 43.2z"/></svg>