<svg xmlns="http://www.w3.org/2000/svg" viewBox="0 0 576 512"><path d="M304 304C304 313 297 320 288 320C279 320 272 313 272 304V208C272 199 279 192 288 192C297 192 304 199 304 208V304zM390 32C417 32 441 48.8 451 74L568 394C583 436 552 480 507 480H68.6C24.2 480-6.73 436 8.53 394L126 74C135 48.8 159 32 186 32H390zM38.6 405C31 426 46.4 448 68.6 448H271V400C271 391 279 384 287 384C297 384 304 391 304 400V448H507C530 448 545 426 537 405L421 85C416 72.4 404 64 390 64H304V112C304 121 297 128 287 128C279 128 271 121 271 112V64H186C172 64 160 72.4 156 85L38.6 405z"/></svg>