<svg xmlns="http://www.w3.org/2000/svg" viewBox="0 0 486 512"><path d="M485 59.9V453c-.041 32.5-26.4 58.9-59 59H63.1c-5.79 0-10.5-4.68-10.5-10.5 0 0 0 0 0-.01v-67.6c3.26 .31 6.74 .495 10.5 .495 5.78 0 10.5 4.68 10.5 10.5 0 0 0 .01 0 .021v46.1H421c22.8 0 41.3-18.5 41.3-41.3V62.2c0-22.8-18.5-41.3-41.3-41.3H73.5v27.7c4.7 .382 9.36 1.04 14 1.97 21.3 4.36 38.2 14.7 38.2 30.4 .186 5.79-4.37 10.6-10.2 10.8-5.79 .186-10.6-4.37-10.8-10.2 0-.217 0-.444 0-.661-.568-1.99-6.41-6.19-17.3-9-4.58-1.17-9.26-1.96-14-2.38-3.25-.299-6.73-.485-10.5-.485s-7.23 .186-10.5 .485c-4.71 .423-9.38 1.22-14 2.38-10.7 2.78-16.5 6.89-17.2 9 .774 2.13 6.6 6.19 17.2 9.01v21.4C17.3 107 .419 96.8 .419 81s16.9-26.1 38.2-30.4c4.61-.929 9.28-1.59 14-1.97V10.4C52.6 4.67 57.3 0 63.1 0H425c33.1 .031 59.9 26.8 59.9 59.9zM302 217c0 20.9-16.9 37.8-37.8 37.8s-37.8-16.9-37.8-37.8 16.9-37.8 37.8-37.8h0c20.8 .031 37.7 16.9 37.7 37.8zm49.7 125c-.041-34.1-19.9-65.1-50.8-79.4 25.3-20.2 29.5-57.2 9.24-82.5-20.2-25.3-57.2-29.5-82.5-9.24s-29.5 57.2-9.24 82.5c2.73 3.42 5.83 6.51 9.24 9.24-30.9 14.3-50.8 45.3-50.8 79.4 0 5.79 4.69 10.5 10.5 10.5s10.5-4.69 10.5-10.5c.454-36.7 30.6-66.1 67.3-65.7 36.1 .454 65.2 29.6 65.7 65.7-.186 5.79 4.37 10.6 10.2 10.8 5.79 .186 10.6-4.37 10.8-10.2 0-.217 0-.444 0-.661h-.031zM38.6 421c4.58-1.17 9.26-1.96 14-2.37 3.26-.31 6.74-.495 10.5-.495s7.23 .186 10.5 .495c4.72 .413 9.39 1.21 14 2.37 10.9 2.83 16.7 7.01 17.3 9-.186 5.79 4.37 10.6 10.2 10.8 5.79 .186 10.6-4.37 10.8-10.2 0-.217 0-.444 0-.661 0-15.8-16.9-26.1-38.2-30.4-4.61-.929-9.28-1.59-14-1.97v-40.9c0-5.79-4.68-10.5-10.5-10.5-.021 0-.041 0-.062 0-3.75 0-7.23-.186-10.5-.495v51.9c-4.69 .382-9.35 1.04-14 1.97-21.3 4.37-38.2 14.6-38.2 30.4s16.9 26.1 38.2 30.4v-21.4c-10.7-2.79-16.5-6.89-17.2-9.01 .774-2.12 6.6-6.21 17.2-9.01zM38.6 334c4.58-1.17 9.26-1.96 14-2.37 3.26-.31 6.74-.495 10.5-.495s7.23 .186 10.5 .495c4.72 .413 9.39 1.21 14 2.37 10.9 2.83 16.7 7.01 17.3 9.01 .186 5.79 5.03 10.3 10.8 10.2 5.53-.175 9.98-4.62 10.2-10.2 0-15.8-16.9-26.1-38.2-30.4-4.61-.939-9.28-1.6-14-1.98v-41c-.021-5.79-4.72-10.5-10.5-10.4 0 0-.01 0-.021 0-3.75 0-7.23-.186-10.5-.485v51.9c-4.69 .382-9.35 1.04-14 1.98-21.3 4.37-38.2 14.6-38.2 30.4s16.9 26.1 38.2 30.4v-21.4c-10.7-2.78-16.5-6.87-17.2-9 .723-2.13 6.54-6.22 17.2-9.01h0zM87.5 225c-4.61-.939-9.28-1.6-14-1.97v-40.9c0-5.78-4.68-10.5-10.5-10.5h-.021c-3.75 0-7.23-.196-10.5-.495v51.9c-4.69 .361-9.35 1.01-14 1.95C17.3 230 .419 240 .419 256s16.9 26.1 38.2 30.5v-21.5c-10.7-2.78-16.5-6.87-17.2-9 .774-2.13 6.6-6.19 17.2-9 4.58-1.17 9.26-1.96 14-2.38 3.26-.299 6.74-.495 10.5-.495s7.23 .186 10.5 .495c4.72 .413 9.39 1.21 14 2.37 10.9 2.83 16.7 7.01 17.3 9.01 .186 5.79 5.03 10.3 10.8 10.2 5.53-.175 9.98-4.62 10.2-10.2 0-15.8-16.9-26.1-38.2-30.5zM63.1 84.5c-3.75 0-7.23-.196-10.5-.495v51.9c-4.69 .382-9.35 1.04-14 1.97C17.3 142 .419 153 .419 168s16.9 26.1 38.2 30.4v-21.4c-10.7-2.79-16.5-6.89-17.2-9.01 .774-2.13 6.6-6.19 17.2-9 4.58-1.17 9.26-1.96 14-2.38 3.26-.299 6.74-.485 10.5-.485s7.23 .186 10.5 .485c4.72 .423 9.38 1.22 14 2.37 10.9 2.84 16.7 7.02 17.3 9.01-.186 5.79 4.37 10.6 10.2 10.8 5.79 .186 10.6-4.37 10.8-10.2 0-.217 0-.444 0-.661 0-15.8-16.9-26.1-38.2-30.4-4.61-.929-9.28-1.59-14-1.97v-41c0-5.78-4.68-10.5-10.5-10.5-.041 0-.083 0-.124 0z"/></svg>