<svg xmlns="http://www.w3.org/2000/svg" viewBox="0 0 486 512"><path d="M357.08 217.24c0 20.818-16.937 37.755-37.755 37.755-20.819 0-37.755-16.937-37.755-37.754 0-20.82 16.936-37.756 37.755-37.756 20.818-.001 37.756 16.935 37.756 37.756zM484.419 59.929v392.578c0 32.513-26.453 58.966-58.967 58.966H62.697c-5.789 0-10.48-4.691-10.48-10.48V433.43c3.256.305 6.731.493 10.48.493 5.79 0 10.482 4.692 10.482 10.48v46.107h76.86V20.961h-76.86v27.67c4.775.394 9.47 1.052 13.975 1.974 21.305 4.368 38.24 14.638 38.24 30.433 0 5.79-4.692 10.481-10.481 10.481s-10.482-4.692-10.482-10.48c-.563-1.996-6.404-6.178-17.277-9.008-3.98-1.037-8.656-1.878-13.975-2.377a111.653 111.653 0 00-20.962 0c-5.317.5-9.996 1.34-13.975 2.381-10.649 2.781-16.469 6.881-17.25 9.005.78 2.126 6.601 6.222 17.25 9.004v21.429C16.936 107.105 0 96.834 0 81.039c0-15.795 16.936-26.066 38.242-30.433 4.504-.922 9.199-1.58 13.975-1.973V10.48C52.217 4.69 56.908 0 62.697 0h361.794c33.043 0 59.927 26.882 59.927 59.928zm-77.62 282.541c0-35.152-20.853-65.509-50.83-79.4 13.442-10.77 22.074-27.306 22.074-45.828 0-32.38-26.34-58.718-58.718-58.718-32.377 0-58.717 26.339-58.717 58.718 0 18.522 8.63 35.06 22.073 45.829-29.976 13.89-50.83 44.247-50.83 79.4 0 5.788 4.692 10.48 10.48 10.48 5.789 0 10.48-4.692 10.48-10.48 0-36.676 29.839-66.514 66.512-66.514 36.676 0 66.511 29.838 66.511 66.513 0 5.789 4.692 10.48 10.482 10.48 5.79 0 10.483-4.691 10.483-10.48zM38.242 421.426c3.98-1.04 8.659-1.881 13.975-2.38a111.664 111.664 0 0120.962 0c5.32.499 9.995 1.339 13.975 2.376 10.873 2.832 16.715 7.013 17.277 9.008 0 5.79 4.692 10.481 10.482 10.481 5.789 0 10.48-4.691 10.48-10.481 0-15.795-16.934-26.067-38.24-30.433-4.503-.922-9.199-1.58-13.974-1.973v-40.966c0-5.79-4.692-10.48-10.482-10.48-3.75 0-7.224-.188-10.48-.495v51.941c-4.776.394-9.471 1.051-13.975 1.973C16.936 404.363 0 414.635 0 430.43c0 15.796 16.936 26.065 38.242 30.433v-21.429c-10.649-2.782-16.469-6.879-17.25-9.004.78-2.123 6.601-6.223 17.25-9.004zm0-87.347c3.98-1.04 8.658-1.88 13.975-2.38a111.664 111.664 0 0120.962 0c5.32.5 9.995 1.34 13.975 2.377 10.873 2.83 16.715 7.012 17.277 9.006 0 5.79 4.692 10.48 10.482 10.48 5.789 0 10.48-4.69 10.48-10.48 0-15.794-16.934-26.065-38.24-30.433-4.503-.923-9.199-1.58-13.974-1.972V269.71c0-5.788-4.692-10.481-10.482-10.481-3.75 0-7.224-.188-10.48-.494v51.942c-4.776.392-9.471 1.05-13.975 1.972C16.936 317.017 0 327.288 0 343.083c0 15.796 16.936 26.067 38.242 30.433v-21.428c-10.649-2.781-16.469-6.878-17.25-9.005.78-2.123 6.601-6.223 17.25-9.004zm48.912-108.776a117.53 117.53 0 00-13.975-1.974v-40.966c0-5.79-4.692-10.482-10.482-10.482-3.75 0-7.224-.189-10.48-.493v51.941a117.5 117.5 0 00-13.975 1.974C16.936 229.67 0 239.938 0 255.737c0 15.794 16.936 26.066 38.242 30.43V264.74c-10.649-2.782-16.469-6.88-17.25-9.004.78-2.127 6.601-6.224 17.25-9.005 3.98-1.04 8.658-1.88 13.975-2.38a111.65 111.65 0 0120.962-.003c5.32.5 9.995 1.343 13.975 2.377 10.873 2.83 16.715 7.012 17.277 9.01 0 5.789 4.692 10.48 10.482 10.48 5.789 0 10.48-4.691 10.48-10.48 0-15.798-16.934-26.066-38.24-30.433zM62.697 84.533c-3.75 0-7.224-.188-10.48-.494v51.944a117.5 117.5 0 00-13.975 1.974C16.936 142.324 0 152.591 0 168.39c0 15.795 16.936 26.066 38.242 30.43v-21.425c-10.649-2.781-16.469-6.881-17.25-9.005.78-2.126 6.601-6.223 17.25-9.004 3.98-1.04 8.658-1.881 13.975-2.38A111.65 111.65 0 0173.179 157c5.32.5 9.995 1.343 13.975 2.378 10.873 2.83 16.715 7.012 17.277 9.01 0 5.788 4.692 10.48 10.482 10.48 5.789 0 10.48-4.692 10.48-10.48 0-15.799-16.934-26.067-38.24-30.434a117.53 117.53 0 00-13.974-1.974V95.014c0-5.789-4.692-10.481-10.482-10.481z"/></svg>