<svg xmlns="http://www.w3.org/2000/svg" viewBox="0 0 439 512"><path d="M437 112c-2.6 4.5-8.3 6-12.8 3.4h0l-7.4-4.3 1.6 5.9c1 3.8-1.2 7.6-5 8.6s-7.6-1.2-8.6-5l-5.2-19.6-17.5-10.2v20.7l14.2 14.3c.9 .9 1.5 2 1.8 3.1-8.4-4.4-17.8-6.7-27.3-6.7h-18.1l10.7-10.8-.3-20.7-17.5 10.2-5.2 19.6c-.2 .6-.4 1.1-.7 1.6h-12.2c-.9-1.6-1.1-3.5-.7-5.2l1.6-5.9-7.3 4.3c-1.3 .9-2.9 1.3-4.5 1.3-5.2 0-9.4-4.2-9.4-9.3 0-3.4 1.8-6.5 4.7-8.1l7.6-4.4-6-1.6c-3.7-1-6-4.9-4.9-8.6 1-3.7 4.9-6 8.6-4.9l19.3 5.2 17.6-10.4-17.7-10.3-19.3 5.2c-.6 .2-1.2 .3-1.8 .3-3.9 .1-7.1-2.9-7.2-6.8-.1-3.3 2.1-6.3 5.4-7.1l6-1.6-7.6-4.4c-4.5-2.6-6-8.4-3.4-12.8 2.6-4.5 8.4-6 12.8-3.4l7.3 4.3-1.6-6c-.9-3.7 1.2-7.4 4.8-8.5 3.8-1 7.8 1.2 8.9 5l5.2 19.6 17.2 10.2v-20.7l-14-14.3c-2.7-2.8-2.7-7.2 .1-9.9 2.8-2.7 7.2-2.7 9.9 .1l4.2 4.2-.3-8.6c.2-5.2 4.5-9.2 9.7-9.1 4.9 .2 8.9 4.1 9.1 9.1v8.5l4.2-4.2c2.7-2.8 7.2-2.8 9.9-.1 2.8 2.7 2.8 7.2 .1 9.9l-14.2 14.4 .3 20.7 17.5-10.2 5.2-19.6c1-3.8 4.9-6 8.6-5 3.8 1 6 4.9 5 8.6l-1.6 5.9 7.3-4.3c4.5-2.6 10.2-1.1 12.9 3.3 2.6 4.5 1.1 10.2-3.3 12.9l-7.6 4.4 6 1.6c3.7 1 6 4.9 4.9 8.6-1 3.7-4.9 6-8.6 4.9l-19.6-5.3-17.5 10.5 17.7 10.3 19.3-5.2c3.7-1 7.6 1.2 8.6 4.9s-1.2 7.6-4.9 8.6l-6 1.6 7.7 4.4c4.4 2.8 5.9 8.5 3.3 12.9zM111 223h0c10.2 0 18.4-8.2 18.4-18.4h0c0-10.2-8.2-18.4-18.4-18.4s-18.4 8.2-18.4 18.4 8.2 18.4 18.4 18.4zm230 0c10.2 0 18.4-8.2 18.4-18.4h0c0-10.2-8.2-18.4-18.4-18.4s-18.4 8.2-18.4 18.4 8.2 18.4 18.4 18.4zm69.4-41.4V472c0 21.8-17.7 39.6-39.6 39.6H80.8c-21.8 0-39.5-17.7-39.5-39.6V182c0-21.8 17.7-39.6 39.6-39.6h36.6l-39.2-23.6-39.2 23.7 .9-45.7L0 74.6l40.1-22.1-1-45.7 39.2 23.7L118 6.8l-.9 45.7 40 22.1-40.1 22.1 .9 45.7h253c22 0 39.7 17.7 39.7 39.5zM116 93.3c2.8-5.7 4.3-12 4.3-18.5s-1.6-13-4.4-18.7c-.7-1.5-1.6-2.9-2.5-4.3-7-10.7-18.7-18-32.2-18.8-.8 0-1.6-.1-2.5-.1-.8 0-1.6 0-2.4 .1-10.1 .6-19.6 4.8-26.8 12.1-2 2-3.8 4.3-5.4 6.6-.9 1.4-1.7 2.8-2.4 4.2-2.9 5.7-4.4 12-4.4 18.5s1.6 13.1 4.4 18.7c.7 1.5 1.6 2.9 2.5 4.3 7 10.7 18.7 18 32.2 18.8 .8 0 1.6 .1 2.4 .1h.4c.7 0 1.3 0 2-.1 10.3-.6 19.8-4.9 27.1-12.2 2-2 3.7-4.2 5.2-6.5 1-1.4 1.8-2.8 2.5-4.2zm-44.2 88.6v52.9H381v-52.9c0-5.3-4.3-9.6-9.6-9.6H80.8c-5.2 .1-9.5 4.4-9.5 9.6zM381 472v-207H71.3v207c0 5.3 4.3 9.6 9.6 9.6H371c5.2 0 9.5-4.3 9.5-9.6zm-116-101c-10-6.6-23.4-10.3-34.4-13.3l-1.1-.3c-12.5-3.4-22-6.2-28.3-10.3-2.1-1.2-3.8-3-5-5.2-.7-1.5-1.3-3.9-.5-8 .8-4.3 3.7-8.1 10.8-10.8 7.4-2.8 17.9-3.7 30.4-1.9 4.3 .6 15.3 2.1 18.9 3.4 6.6 1.6 13.3-2.4 15-9 1.5-6.6-2.4-13.2-8.9-15-5-1.3-17.3-3.2-21.3-3.9l-1.8-.3v-14.5c-.2-6.8-5.9-12.2-12.7-12s-12.2 5.9-12 12.7v13.4c-5.6 .6-11 1.9-16.3 3.9-12.7 4.9-23.6 14.5-26.3 29.5-1.5 8.2-.8 16 2.4 22.9 3.1 6.3 7.8 11.6 13.7 15.4 10 6.6 23.4 10.3 34.4 13.3l1.1 .3c12.5 3.4 22 6.1 28.3 10.3 2.1 1.2 3.8 3 5 5.2 .7 1.5 1.2 3.8 .5 8-.8 4.6-3.8 8.5-10.4 11.2-6.9 2.8-17 3.9-29.4 2-10.1-1.8-19.9-4.5-29.4-8.3h-.1c-6.1-2.7-13.3 .2-15.9 6.3h0c-2.8 6.3 0 13.6 6.3 16.4 10.5 4.6 26 8.7 35.4 10.2h.1c.2-.3 .3 .1 .5 .1v13.5c.2 6.6 5.5 11.8 12 12 6.8 .2 12.5-5.2 12.7-12v-13.1c5.9-.6 11.7-2 17.2-4.3 12.3-5.1 22.7-15 25.4-30 1.6-7.6 .7-15.4-2.4-22.5-3.3-6.2-8-11.6-13.9-15.3zM101 57.9c-4.4-6.1-11.3-10.4-19.1-11.3-1-.1-2-.2-3.1-.2h0c-1 0-2 .1-3 .2-8 .9-15 5.1-19.5 11.3-1.2 1.7-2.3 3.6-3.1 5.5-1.4 3.3-2.2 7-2.2 10.9s.8 7.7 2.3 11.2c.9 2 2 4 3.3 5.8 4.5 6.1 11.3 10.4 19.3 11.3 1 .1 2 .2 3.1 .2h.4c.9 0 1.8-.1 2.7-.1 8.1-.8 15.1-5.1 19.6-11.3 1.2-1.7 2.3-3.5 3.1-5.4 1.4-3.4 2.2-7.1 2.2-10.9s-.8-7.7-2.3-11.1c-1.2-2.4-2.3-4.3-3.7-6.1z"/></svg>