<svg xmlns="http://www.w3.org/2000/svg" viewBox="0 0 438 512"><path d="M112.907 122.787l1.472-8.147 31.932-5.771c3.214-.565 4.737-4.285 2.891-6.951l-18.515-26.923 18.5-26.662c1.855-2.673.323-6.369-2.879-6.949l-31.932-5.771-5.77-31.933c-.579-3.202-4.274-4.734-6.949-2.878l-26.66 18.762L48.074 1.063c-2.673-1.855-6.369-.324-6.949 2.878l-5.502 31.944L3.68 41.656c-3.201.557-4.733 4.277-2.878 6.679l18.501 26.923-18.5 26.662c-1.855 2.673-.324 6.369 2.878 6.949l31.932 5.771 4.22 23.351c10.544-9.446 24.457-15.204 39.695-15.204h33.379zM37.762 75.258c0-20.709 16.789-37.235 37.235-37.235 20.445 0 37.235 16.786 37.235 37.235 0 20.712-16.523 37.235-37.235 37.235-20.709 0-37.235-16.789-37.235-37.235zm65.095 0c0 15.269-12.07 27.86-27.86 27.86s-27.86-13.119-27.86-28.388 12.328-27.86 27.86-27.86c15.527.001 27.86 13.12 27.86 28.388zm333.059 37.271c-1.729 2.988-4.893 4.658-8.115 4.658a9.347 9.347 0 01-4.726-1.282l-7.351-4.289 1.576 5.944a7.03 7.03 0 01-5.004 8.596 6.84 6.84 0 01-1.806.238c-3.114 0-5.965-2.078-6.8-5.227l-5.197-19.605-17.539-10.244v20.654l14.174 14.32a6.983 6.983 0 011.795 3.147 59.171 59.171 0 00-27.301-6.653h-18.128l10.693-10.803-.247-20.665-17.54 10.233-5.197 19.605a6.963 6.963 0 01-.686 1.63h-12.253a6.999 6.999 0 01-.67-5.237l1.576-5.944-7.351 4.289c-1.235.883-2.861 1.293-4.469 1.293a9.38 9.38 0 01-8.112-4.652c-2.617-4.468-1.109-10.207 3.369-12.817l7.605-4.438-5.956-1.614c-3.753-1-5.965-4.867-4.948-8.617s4.866-5.947 8.634-4.951l19.31 5.244L352.977 75l-17.725-10.342-19.31 5.244a7.159 7.159 0 01-1.847.247c-3.097 0-5.938-2.06-6.785-5.191a7.02 7.02 0 014.947-8.62l5.956-1.614-7.605-4.451c-4.477-2.609-5.985-8.35-3.369-12.817 2.603-4.477 8.35-5.988 12.835-3.369l7.351 4.289-1.576-5.944c-.993-3.747 1.26-7.603 4.746-8.59 4.043-1.017 7.617 1.245 8.877 4.989l5.197 19.605 17.273 10.245V38.027l-13.916-14.332c-2.725-2.766-2.725-7.216.059-9.943 2.754-2.739 7.207-2.701 9.961.056l4.166 4.21-.27-8.643c0-5.183 4.201-9.375 9.384-9.375s9.384 4.192 9.384 9.375v8.643l4.166-4.21a7.04 7.04 0 019.952-.055 7.024 7.024 0 01.055 9.943l-14.174 14.32.247 20.665 17.54-10.233 5.197-19.605c.995-3.744 4.852-6.006 8.607-4.989a7.032 7.032 0 015.004 8.596l-1.576 5.944 7.351-4.289c4.477-2.609 10.228-1.099 12.835 3.369 2.617 4.468 1.109 10.207-3.369 12.817l-7.605 4.438 5.956 1.614c3.753 1.016 5.968 4.881 4.948 8.625-.848 3.132-3.688 5.191-6.785 5.191a7.165 7.165 0 01-1.847-.247l-19.566-5.254L390.184 75l17.713 10.336 19.321-5.235c3.776-.999 7.614 1.198 8.64 4.948a7.03 7.03 0 01-4.948 8.625l-5.956 1.614 7.605 4.438c4.471 2.608 5.965 8.35 3.357 12.803zm-66.292 30.258H79.528c-21.848 0-39.558 17.711-39.558 39.559v39.558h369.213v-39.558c-.001-21.848-17.72-39.559-39.559-39.559zm-260.261 57.942c-10.153 0-18.383-8.23-18.383-18.383s8.23-18.383 18.383-18.383 18.383 8.23 18.383 18.383-8.23 18.383-18.383 18.383zm230.426 0c-10.153 0-18.383-8.23-18.383-18.383s8.23-18.383 18.383-18.383c10.153 0 18.383 8.23 18.383 18.383s-8.231 18.383-18.383 18.383zM39.97 472.441c0 21.84 17.71 39.559 39.558 39.559h290.096c21.84 0 39.559-17.719 39.559-39.559V248.277H39.97v224.164zm214.694-56.773c-.735-1.547-2.166-3.287-4.989-5.182-6.304-4.138-15.894-6.922-28.346-10.287l-1.083-.309c-10.983-2.978-24.448-6.652-34.433-13.264-5.457-3.635-10.569-8.547-13.744-15.353-3.221-6.884-3.921-14.618-2.425-22.855 2.738-15.043 13.574-24.638 26.301-29.495 5.035-1.922 10.496-3.187 16.258-3.867v-13.431c0-6.833 5.53-12.375 12.375-12.375s12.375 5.542 12.375 12.375v13.798c.619.081 1.199.17 1.818.259 4.099.611 16.32 2.579 21.347 3.852 6.265 1.678 10.635 8.427 8.933 15.039-1.663 6.613-8.392 10.635-15.043 8.972-3.596-1.276-14.541-2.746-18.872-3.364-12.414-1.856-23.048-.928-30.357 1.856-7.069 2.707-10.004 6.536-10.782 10.828-.75 4.138-.182 6.497.499 7.966.731 1.547 2.158 3.287 5 5.182 6.288 4.138 15.879 6.922 28.331 10.287l1.083.309c10.983 2.978 24.441 6.652 34.418 13.264 5.453 3.635 10.596 8.547 13.767 15.353 3.21 6.884 3.906 14.618 2.436 22.507-2.707 15.043-13.148 24.866-25.407 29.971-5.259 2.166-11.06 3.558-17.17 4.254v12.916c0 6.845-5.53 12.375-12.375 12.375a12.362 12.362 0 01-12.375-12.375v-13.496c-.155 0-.348-.387-.503-.077h-.077c-9.397-1.469-24.916-5.53-35.385-10.171-6.245-2.784-9.057-10.093-6.28-16.358 2.777-6.226 10.089-9.049 15.987-6.265 8.43 3.596 21.734 7.116 29.429 8.314 12.375 1.856 22.546.773 29.429-2.011 6.536-2.668 9.513-6.536 10.364-11.176.734-4.137.192-6.496-.504-7.966z"/></svg>