<svg xmlns="http://www.w3.org/2000/svg" viewBox="0 0 732 512"><path d="M330 324c0-68.7 61.5-175 149-257c6.74-6.29 15.8-9.83 25-9.83c2.63 0 5.03 .914 7.54 1.49C504 24.6 475 0 440 0h-367C33.1 0 .286 32.7 .286 73.1v366c0 40.5 32.8 73.1 73.3 73.1h357C368 470 330 399 330 324zM110 274c0 10.2-8.11 18.3-18.2 18.3c-10.2 0-18.4-8.11-18.4-18.3V91.4c0-10.2 8.34-18.3 18.4-18.3c10.2 0 18.3 8.11 18.3 18.3L110 274zM184 274c0 10.2-8.34 18.3-18.4 18.3c-10.2 0-18.3-8.11-18.3-18.3V91.4c0-10.2 8.11-18.3 18.3-18.3c10.1 0 18.4 8.11 18.4 18.3V274zM257 274c0 10.2-8.11 18.3-18.3 18.3c-10.1 0-18.4-8.11-18.4-18.3V91.4c0-10.2 8.34-18.3 18.4-18.3c10.2 0 18.3 8.11 18.3 18.3L257 274L257 274zM630 136c-16.3 15.2-31.7 31.5-45.8 49c-25-32.9-51.3-63.3-81.1-91c-80.2 74.5-137 171-137 230c0 104 81.8 188 183 188s183-84.1 183-188C732 280 689 191 630 136zM617 418c-19.3 13.6-42.4 20.7-66.2 20.7c-61.8 0-112-40.9-112-107c0-33.1 20.8-62.3 62.4-112c5.83 6.86 84.7 107 84.7 107l50.3-57.3c3.54 5.83 6.74 11.5 9.6 17.1C670 331 660 389 617 418z"/></svg>