<svg xmlns="http://www.w3.org/2000/svg" viewBox="0 0 683 512"><path d="M34.3 68.3v341c0 18.9 15.3 34.1 34.1 34.1h267c7.04 12.2 15.4 23.7 24.7 34.1H68.4c-37.7 0-68.3-30.6-68.3-68.3V68.3C.167 30.6 30.7 0 68.4 0h341c37.7 0 68.3 30.6 68.3 68.3v34.3c-11.8-1.07-24.1 2.03-34.1 8.43V68.3c0-18.9-15.3-34.1-34.1-34.1H68.4C49.6 34.1 34.3 49.4 34.3 68.3L34.3 68.3zM137 256c0 9.39-7.68 17.1-17.1 17.1s-17.1-7.68-17.1-17.1V119c0-9.39 7.68-17.1 17.1-17.1s17.1 7.68 17.1 17.1V256zM205 256c0 9.39-7.68 17.1-17.1 17.1s-17.1-7.68-17.1-17.1V119c0-9.39 7.68-17.1 17.1-17.1s17.1 7.68 17.1 17.1V256zM475 239c5.12 0 10 2.35 13.2 6.4c2.24 2.67 18.8 23.9 34.8 44.3l18.7 23.7l24.9-29c3.31-3.84 8.32-6.08 13.4-5.87c5.23 .107 10 2.67 13.1 6.83c4.16 5.44 6.83 10.9 8.85 15l.107 .107c22.7 41.9 13.1 96.4-26.7 123l-.32 1.17c-18.8 12.5-39 18.8-62.7 18.8c-26.7 0-52.6-8.85-71.8-26.5c-19.3-17.7-30.7-43.2-30.7-73.8c0-16.6 5.33-31.7 14.3-47c8.75-15 21.7-31.5 37.5-51.1C465 241 470 239 475 239L475 239zM576 325l-22.1 25.8c-3.31 3.84-8.21 5.12-13.3 5.87c-5.01-.107-9.81-2.45-13-6.51l-52.8-67.3c-9.17 11.7-16.1 21.4-21.1 30.1c-7.04 12.1-9.71 21.1-9.71 30c0 21.7 7.79 37.8 19.6 48.5c12.1 11 29.3 17.6 49.7 17.6c15.7 0 29.4-4.27 41.7-13.1C577 381 586 352 576 325L576 325zM520 175c7.89 9.39 15.6 17.1 22.9 26.9c6.93-8.53 14.5-17.8 22.7-26c.853-1.92 3.63-3.73 5.55-5.44c5.97-5.44 15.4-5.44 21.3 .107c26.3 24.2 48.6 56.1 64.3 86.5c15.6 30 25.8 60.6 25.8 82c0 93.8-76.1 173-171 173c-95.7 0-172-79.1-172-173c0-28.2 14.5-62.5 35.5-96.5c21.3-34.6 51.3-70.5 86.8-102c5.97-5.33 14.2-5.33 21 0C496 152 509 164 520 175L520 175zM544 236c-10.2 .107-20.1-4.37-26.7-12.3c-13.7-16.5-29.1-32-43.5-46.6c-27.7 26.7-51.2 55.7-68.3 83.3C385 293 376 320 376 339c0 75.6 60.5 139 137 139c75.1 0 137-63.1 137-139c0-13.2-7.25-37.9-22-66.3c-11.6-22.5-27-45.4-44.6-64.4c-4.05 4.59-9.07 9.71-12.3 14.9C563 231 554 236 544 236L544 236zM541 340l-13.4 10.5L541 340z"/></svg>