<svg xmlns="http://www.w3.org/2000/svg" viewBox="0 0 620 512"><path d="M528 258c-47.1-34.4-119 2.89-118 62h0c-.998 51.7 53.8 88.8 101 70.6C568 371 579 291 528 258zM444 320c1.6-55.1 82-54.8 83.3 0C526 375 446 375 444 320zM619 495c.299-58.8-52.6-90.1-107-83.4c0 0-29.9 0-29.9 0c-31.1-.1-76.1-4.19-99.8 19.7c-1.3-21.1 4.59-61-8.68-78.8c-10.9-18.5-31.7-30.4-53.2-30.2c-25.5 1.9-79.9-6.89-101 11.8c-30.2 20.5-25.8 56.1-25.6 87.9c0 0 0 50 0 50c0 5.49-4.49 9.98-9.98 9.98c0 0-79.8 0-79.8 0c-5.49 0-9.98-4.49-9.98-9.98c-.2-20.4 .299-199 .1-214c-15.4 0-46.5 0-61.9 0c-.998 .1-2-.499-2.1-1.6C57.6 226 252 62.8 286 30.6c.699-.1 2.4-.1 3.29 0c52.1 45.4 231 202 280 244c.299-.499 .699-.898 .998-1.4c0 0 0 0 0 0c8.28-12.6 6.29-30.8-4.59-41.2C556 228 298-13.5 288 .599C277-13.8 17 230 6.79 235c-16 19.9-1.6 52.9 25 52.3c-.1 .1 32.2-.1 32.3 0L64 472c0 22.1 17.9 39.9 39.9 39.9h79.8c20.6 0 37.5-15.6 39.7-35.6c0 0 0 0 0 .1c.2-1.5 .2-2.89 .2-4.39v-87.8c0-17.7 14.3-31.9 31.9-31.9h64.6c17.7 0 31.9 14.3 31.9 31.9c0 0 0 103 0 103c.2-.2 .399-.499 .699-.699c-4.29 29.4 19.1 24.9 39.2 25c0 0 79.8 0 79.8 0h131C612 512 619 504 619 495zM511 478c-21.2 0-100 0-123 0c13.4-40.5 59.6-33 93.1-33.2c37.4 2 84.4-11.6 101 33.2H511z"/></svg>