<svg xmlns="http://www.w3.org/2000/svg" viewBox="0 0 408 512"><path d="M131 30.1c1.45 0 2.92 .03 4.38 .09l4.07 17.1 3.7 15.6 15 5.62c7.9 2.96 15.2 7.18 21.7 12.6l12.8 10.6 15.8-5.18 15.6-5.14c.731 1.11 1.54 2.28 2.43 3.51l1.58 2.76c.391 .701 .772 1.41 1.16 2.14l-12.4 11.1-12.3 11 2.64 16.3c.671 4.14 1.04 8.39 1.04 12 0 4.8-.331 9.08-1.04 13.5l-2.64 16.3 12.3 11 12.4 11.1c-.401 .832-.792 1.59-1.14 2.21l-1.56 2.73c-.892 1.21-1.69 2.37-2.42 3.48l-15.7-5.14-15.8-5.2-12.8 10.6c-6.42 5.34-13.7 9.57-21.7 12.6l-15 5.62-3.7 15.6-4.07 17.1c-1.45 .05-2.92 .08-4.38 .08-1.71 0-3.44-.04-5.14-.11l-4.06-17.1-3.6-15.1-14.4-5.81c-7.84-3.16-15.3-7.6-21.7-12.9l-12.8-10.6-15.8 5.2-15.8 5.22c-.491-.772-.982-1.54-1.46-2.33l-2.23-3.93c-.411-.731-.802-1.47-1.2-2.22l12.4-11.1 12.3-11-2.69-16.3c-.17-1.01-.341-2.03-.521-3.06-.671-3.92-1.26-7.29-1.26-10.3 0-1.58 .641-5.28 1.16-8.25 .21-1.21 .421-2.41 .621-3.62l2.69-16.3-12.3-11-12.5-11.1c.18-.331 .371-.671 .571-1.03l.621-1.12 2.28-3.94c.471-.792 .962-1.57 1.46-2.35l15.8 5.22 15.7 5.18 12.8-10.5c6.44-5.29 13.9-9.74 21.7-12.9l14.4-5.8 3.6-15.1 4.06-17.1c1.71-.08 3.43-.12 5.14-.12m0 160c27.7 0 50.2-22.5 50.2-50.2s-22.5-50.2-50.2-50.2-50.2 22.5-50.2 50.2 22.5 50.2 50.2 50.2m84.6 92.7l11.1 12.5 11 12.3 16.3-2.64c4.26-.691 8.54-1.04 12.7-1.04s8.45 .351 12.7 1.04l16.3 2.64 11-12.3 11.1-12.4c.772 .401 1.51 .802 2.24 1.21l4.37 2.47 1.31 .741 .621 .271-5.3 16.1-5.2 15.8 10.6 12.8c5.23 6.28 9.66 13.7 12.8 21.6l5.81 14.4 15.1 3.6 17.1 4.06c.07 1.7 .11 3.42 .11 5.14 0 1.46-.03 2.93-.08 4.38l-17.1 4.07-15.6 3.7-5.62 15c-3 7.96-7.21 15.2-12.6 21.7l-10.6 12.8 5.2 15.8 5.14 15.7c-1.1 .731-2.26 1.53-3.48 2.42l-2.73 1.56c-.631 .351-1.39 .731-2.21 1.14l-11.1-12.4-11-12.3-16.3 2.64c-4.26 .691-8.54 1.04-12.7 1.04s-8.45-.351-12.7-1.04l-16.3-2.64-11 12.3-11.1 12.4c-.741-.391-1.46-.782-2.16-1.17l-2.75-1.57c-1.21-.892-2.37-1.69-3.48-2.42l5.14-15.7 5.2-15.8-10.6-12.8c-5.34-6.42-9.57-13.7-12.6-21.7l-5.62-15-15.6-3.7-17.1-4.07c-.05-1.45-.08-2.92-.08-4.38 0-1.71 .04-3.44 .11-5.14l17.1-4.06 15.1-3.6 5.81-14.4c3.16-7.84 7.59-15.3 12.8-21.6l10.6-12.8-5.2-15.8-5.3-16.1 .621-.271 1.31-.741 4.38-2.48 .812-.451c.491-.281 .952-.531 1.39-.772m51.1 148c27.7 0 50.2-22.5 50.2-50.2s-22.5-50.2-50.2-50.2-50.2 22.5-50.2 50.2 22.5 50.2 50.2 50.2M131 0c-5.78 0-11.5 .351-17.1 1.03-7.88 .952-14.7 7.17-15.6 14.9l-5.78 24.3c-10.4 4.17-20.6 10.1-29.6 17.5l-23.6-7.79c-2.06-.681-4.18-1.01-6.28-1.01-5.57 0-11 2.36-14.4 6.96-2.97 3.93-5.73 8.02-8.27 12.2l-2.54 4.4c-2.32 4.21-4.46 7.83-6.35 13-3.11 7.28-.721 14.9 5.19 20.9l18.6 16.6c-.942 5.69-2.17 11.6-2.17 16.8 0 6.7 1.24 12.6 2.17 18.3l-18.6 16.6c-5.91 5.28-8.3 12.9-5.19 20.9 1.9 4.44 4.03 8.8 6.36 13l2.52 4.44c2.54 4.19 5.31 8.3 8.28 12.2 3.46 4.61 8.82 6.98 14.4 6.98 2.11 0 4.25-.341 6.32-1.03l23.6-7.79c9.01 7.45 19.2 13.4 29.6 17.6l5.78 24.3c.922 7.79 7.71 14 15.6 15 5.61 .671 11.3 1 17.1 1s11.5-.331 17.1-1c7.88-1 13.9-7.2 14.8-15l5.78-24.3c11.1-4.19 21.4-10.1 30.3-17.6l23.7 7.79c2.07 .691 4.22 1.03 6.33 1.03 5.55 0 10.9-2.37 14.4-6.98 2.94-3.94 4.94-7.96 8.21-12.1l2.6-4.52c2.34-4.19 4.44-9.3 6.36-13 3.1-8.04 .671-15.7-5.19-20.9l-18.6-16.6c.922-5.69 1.42-11.6 1.42-18.3 0-5.19-.501-11.1-1.42-16.8l18.6-16.6c5.86-6.03 8.3-13.7 5.19-20.9-1.92-4.44-4.02-8.76-6.36-13l-2.6-4.52c-3.27-4.21-5.28-8.28-8.21-12.2-3.47-4.59-8.84-6.96-14.4-6.96-2.09 0-4.22 .331-6.28 1.01l-23.7 7.79c-8.96-7.4-19.2-13.4-30.3-17.5l-5.78-24.3c-.922-7.78-6.95-14-14.8-14.9-5.61-.681-11.3-1.03-17.1-1.03h0zm0 160c-11.1 0-20.1-8.63-20.1-20.1 0-10.7 9.01-20.1 20.1-20.1s20.1 9.38 20.1 20.1c0 11.5-9.01 20.1-20.1 20.1h0zm184 90.1c-5.36 0-10.2 2.42-13.9 6.54l-16.6 18.6c-5.69-.922-11.6-1.42-17.5-1.42s-11.8 .501-17.5 1.42l-16.6-18.6c-4.24-4.12-9.27-6.54-14.4-6.54-2.17 0-4.37 .431-6.53 1.35-5.19 1.92-8.8 4.02-13 6.36l-4.44 2.51c-4.19 1.84-8.3 5.36-12.2 8.3-6.36 4.77-8.46 13.1-5.94 20.7l7.79 23.7c-7.45 8.96-13.4 19.2-17.6 29.6l-24.3 5.78c-7.79 .922-14 7.71-15 15.6-.671 5.61-1 11.3-1 17.1s.331 11.5 1 17.1c1 7.88 7.2 13.9 15 14.8l24.3 5.78c4.19 11.1 10.1 21.4 17.6 30.3l-7.79 23.7c-2.51 7.53-.421 15.9 5.94 20.7 3.94 2.94 7.96 4.94 12.1 8.21l4.52 2.6c4.19 2.34 8.55 4.44 13 6.36 2.16 .922 4.36 1.35 6.53 1.35 5.14 0 10.2-2.42 14.4-6.54l16.6-18.6c5.69 .922 11.6 1.42 17.5 1.42s11.8-.501 17.5-1.42l16.6 18.6c3.71 4.12 8.58 6.54 13.9 6.54 2.26 0 4.62-.431 7-1.35 3.69-1.92 8.8-4.02 13-6.36l4.52-2.6c4.19-3.27 8.21-5.28 12.1-8.21 6.36-4.77 8.46-13.1 5.94-20.7l-7.79-23.7c7.45-8.96 13.4-19.2 17.6-30.3l24.3-5.78c7.79-.922 14-6.95 15-14.8 .671-5.61 1-11.3 1-17.1s-.331-11.5-1-17.1c-1-7.88-7.2-14.7-15-15.6l-24.3-5.78c-4.19-10.4-10.1-20.6-17.6-29.6l7.79-23.7c2.51-7.53 .421-15.9-5.94-20.7-3.94-2.94-8.04-6.45-12.2-8.3l-4.44-2.51c-4.19-2.34-8.55-4.44-13-6.36-2.38-.922-4.74-1.35-7-1.35h0zm-48 151c-11.1 0-20.1-9.01-20.1-20.1s9.01-20.1 20.1-20.1 20.1 9.01 20.1 20.1-9.01 20.1-20.1 20.1h0z"/></svg>