<svg xmlns="http://www.w3.org/2000/svg" viewBox="0 0 408 512"><path d="M237 123c.922 5.69 1.42 11.6 1.42 16.8 0 6.7-.501 12.6-1.42 18.3l18.6 16.6c5.86 5.28 8.3 12.9 5.19 20.9-1.92 3.69-4.02 8.8-6.36 13l-2.6 4.52c-3.27 4.19-5.28 8.21-8.21 12.1-4.77 6.36-13.1 8.46-20.7 5.94l-23.7-7.79c-8.96 7.45-19.2 13.4-30.3 17.6l-5.78 24.3c-.922 7.79-6.95 14-14.8 15-5.61 .671-11.3 1-17.1 1s-11.5-.331-17.1-1c-7.88-1-14.7-7.2-15.6-15l-5.78-24.3c-10.4-4.19-20.6-10.1-29.6-17.6l-23.6 7.79c-7.52 2.51-15.9 .421-20.7-5.94-2.97-3.94-5.73-8.04-8.28-12.2l-2.52-4.44c-2.33-4.19-4.46-8.55-6.36-13-3.11-8.04-.721-15.7 5.19-20.9l18.6-16.6c-.942-5.69-2.17-11.6-2.17-18.3 0-5.19 1.24-11.1 2.17-16.8L6.65 107c-5.91-6.03-8.3-13.7-5.19-20.9 1.9-5.19 4.03-8.81 6.35-13l2.54-4.4c2.53-4.23 5.3-8.32 8.27-12.2 4.77-6.32 13.2-8.43 20.7-5.94l23.6 7.79c9.01-7.4 19.2-13.4 29.6-17.5l5.78-24.3c.922-7.78 7.71-14 15.6-14.9 5.61-.681 11.3-1.03 17.1-1.03s11.5 .351 17.1 1.03c7.88 .952 13.9 7.17 14.8 14.9l5.78 24.3c11.1 4.17 21.4 10.1 30.3 17.5l23.7-7.79c7.53-2.47 15.9-.381 20.7 5.94 2.94 3.91 4.94 7.99 8.21 12.2l2.6 4.52c2.34 4.2 4.44 8.52 6.36 13 3.1 7.28 .671 14.9-5.19 20.9l-18.6 16.6zm-106-23.5c-22.2 0-40.2 18.8-40.2 40.2 0 22.9 18 40.2 40.2 40.2s40.2-17.3 40.2-40.2c0-21.4-18-40.2-40.2-40.2zm153 387c-5.69 .922-11.6 1.42-17.5 1.42s-11.8-.501-17.5-1.42l-16.6 18.6c-6.03 5.86-13.7 8.3-20.9 5.19-4.44-1.92-8.8-4.02-13-6.36l-4.52-2.6c-4.19-3.27-8.21-5.28-12.1-8.21-6.36-4.77-8.46-13.1-5.94-20.7l7.79-23.7c-7.45-8.96-13.4-19.2-17.6-30.3l-24.3-5.78c-7.79-.922-14-6.95-15-14.8-.671-5.61-1-11.3-1-17.1s.331-11.5 1-17.1c1-7.88 7.2-14.7 15-15.6l24.3-5.78c4.19-10.4 10.1-20.6 17.6-29.6l-7.79-23.7c-2.51-7.53-.421-15.9 5.94-20.7 3.94-2.94 8.04-6.45 12.2-8.3l4.44-2.51c4.19-2.34 7.79-4.44 13-6.36 7.28-3.1 14.9-.671 20.9 5.19l16.6 18.6c5.69-.922 11.6-1.42 17.5-1.42s11.8 .501 17.5 1.42l16.6-18.6c5.28-5.86 12.9-8.3 20.9-5.19 4.44 1.92 8.8 4.02 13 6.36l4.44 2.51c4.19 1.84 8.3 5.36 12.2 8.3 6.36 4.77 8.46 13.1 5.94 20.7l-7.79 23.7c7.45 8.96 13.4 19.2 17.6 29.6l24.3 5.78c7.79 .922 14 7.71 15 15.6 .671 5.61 1 11.3 1 17.1s-.331 11.5-1 17.1c-1 7.88-7.2 13.9-15 14.8l-24.3 5.78c-4.19 11.1-10.1 21.4-17.6 30.3l7.79 23.7c2.51 7.53 .421 15.9-5.94 20.7-3.94 2.94-7.96 4.94-12.1 8.21l-4.52 2.6c-4.19 2.34-9.3 4.44-13 6.36-8.04 3.1-15.7 .671-20.9-5.19l-16.6-18.6zm22.7-106c0-22.2-18-40.2-40.2-40.2s-40.2 18-40.2 40.2 18 40.2 40.2 40.2 40.2-18 40.2-40.2z"/></svg>