<svg xmlns="http://www.w3.org/2000/svg" viewBox="0 0 483 512"><path d="M481 167c3.3 8.6 .5 18.3-6.3 24.6l-43.3 39.4c1.1 8.3 1.7 16.8 1.7 25.4s-.6 17.1-1.7 25.4l43.3 39.4c6.8 6.3 9.6 16 6.3 24.6-4.4 11.9-9.7 23.4-15.7 34.3l-4.7 8.1c-6.6 11-14 21.4-22.1 31.3-6 7.1-15.7 9.6-24.5 6.8l-55.7-17.8c-13.4 10.3-29.1 18.9-44 25.5l-12.5 57.1c-2 9-9 15.4-18.2 17.8-13.8 2.3-28 3.5-43.4 3.5-13.6 0-27.8-1.2-41.6-3.5-9.2-2.4-16.2-8.8-18.2-17.8l-12.5-57.1c-15.8-6.6-30.6-15.2-44-25.5l-55.7 17.8c-8.84 2.8-18.6 .3-24.5-6.8-8.11-9.9-15.5-20.3-22.1-31.3l-4.68-8.1c-6.07-10.9-11.4-22.4-15.8-34.3-3.24-8.6-.51-18.3 6.35-24.6l43.3-39.4c-1.1-8.3-1.67-16.8-1.67-25.4s.57-17.1 1.67-25.4L7.71 191c-6.86-6.3-9.59-15.9-6.35-24.6 4.43-11.9 9.72-23.4 15.8-34.3l4.67-8.1c6.61-11 14-21.4 22.1-31.3 5.92-7.15 15.7-9.63 24.5-6.81l55.7 17.8c13.4-10.3 28.2-18.9 44-25.5l12.5-57.1c2-9.08 9-16.3 18.2-17.8 13.8-2.31 28-3.51 42.5-3.51s28.7 1.2 42.5 3.51c9.2 1.53 16.2 8.74 18.2 17.8l12.5 57.1c14.9 6.53 30.6 15.1 44 25.5l55.7-17.8c8.8-2.82 18.5-.34 24.5 6.81 8.1 9.85 15.5 20.3 22.1 31.3l4.7 8.1c6 10.9 11.3 22.4 15.7 34.3h0zm-240 169c44.2 0 80-35.8 80-80.9s-35.8-80-80-80-80 36.7-80 80 35.8 80.9 80 80.9z"/></svg>