<svg xmlns="http://www.w3.org/2000/svg" viewBox="0 0 483 512"><path d="M241 30c10.9 0 21.7 .77 32.4 2.3l11.5 52.5 3.27 14.9 14 6.13c14.4 6.33 27.5 13.9 37.7 21.7l12.4 9.61 15-4.78 51.2-16.3c5.93 7.54 11.3 15.4 16.1 23.3l4.41 7.59c4.48 8.16 8.45 16.6 11.8 25.1l-39.8 36.2-11.6 10.6 2.06 15.6c.96 7.21 1.44 14.4 1.44 21.5s-.48 14.3-1.44 21.5l-2.06 15.6 11.6 10.6 39.8 36.2c-3.39 8.54-7.36 17-11.8 25.1l-4.41 7.59c-4.75 7.9-10.2 15.7-16.1 23.4l-51.2-16.4-15-4.78-12.4 9.57c-10.2 7.85-23.3 15.4-37.9 21.9l-13.9 6.16-3.25 14.9-11.5 52.5c-10.8 1.54-21.7 2.29-33.3 2.29-10.2 0-21-.79-31.5-2.29l-11.5-52.5-3.34-15.3-14.4-6.02c-13.3-5.57-25.9-12.8-37.3-21.6l-12.5-9.57-15 4.79-51.2 16.4c-5.95-7.59-11.4-15.4-16.1-23.3l-4.43-7.66c-4.42-7.96-8.4-16.4-11.9-25.1l39.8-36.3 11.6-10.6-2.06-15.6c-.94-7.06-1.41-14.3-1.41-21.5s.47-14.4 1.41-21.5l2.06-15.6-11.6-10.6-39.8-36.3c3.46-8.67 7.45-17.1 11.9-25.1l4.41-7.65c4.8-7.96 10.2-15.8 16.1-23.3l51.2 16.3 15 4.78 12.5-9.61c11.4-8.79 23.9-16 37.1-21.5l14.5-5.99 3.35-15.3 11.5-52.5c10.6-1.53 21.5-2.3 32.4-2.3m0 336c60.7 0 110-49.8 110-111s-49.3-110-110-110-110 49.3-110 110 49.3 111 110 111M241 0c-14.5 0-28.7 1.2-42.5 3.51-9.2 1.53-16.2 8.74-18.2 17.8l-12.5 57.1c-15.8 6.53-30.6 15.1-44 25.5l-55.7-17.8c-2.39-.76-4.85-1.14-7.28-1.14-6.56 0-12.9 2.73-17.2 7.95-8.11 9.85-15.5 20.3-22.1 31.3l-4.67 8.1c-6.06 10.9-11.4 22.4-15.8 34.3-3.24 8.7-.51 18.3 6.35 24.6l43.3 39.4c-1.1 8.3-1.67 16.8-1.67 25.4s.57 17.1 1.67 25.4L7.71 321c-6.86 6.3-9.59 16-6.35 24.6 4.43 11.9 9.71 23.4 15.8 34.3l4.68 8.1c6.6 11 14 21.4 22.1 31.3 4.33 5.19 10.7 7.92 17.3 7.92 2.42 0 4.86-.37 7.24-1.12l55.7-17.8c13.4 10.3 28.2 18.9 44 25.5l12.5 57.1c2 9 9 15.4 18.2 17.8 13.8 2.3 28 3.5 41.6 3.5 15.4 0 29.6-1.2 43.4-3.5 9.2-2.4 16.2-8.8 18.2-17.8l12.5-57.1c14.9-6.6 30.6-15.2 44-25.5l55.7 17.8c2.37 .75 4.8 1.12 7.21 1.12 6.54 0 12.9-2.73 17.3-7.92 8.1-9.9 15.5-20.3 22.1-31.3l4.7-8.1c6-10.9 11.3-22.4 15.7-34.3 3.3-8.6 .5-18.3-6.3-24.6l-43.3-39.4c1.1-8.3 1.7-16.8 1.7-25.4s-.6-17.1-1.7-25.4l43.3-39.4c6.8-6.3 9.6-16 6.3-24.6-4.4-11.9-9.7-23.4-15.7-34.3l-4.7-8.1c-6.6-11-14-21.4-22.1-31.3-4.38-5.22-10.7-7.95-17.3-7.95-2.42 0-4.87 .38-7.24 1.14l-55.7 17.8c-13.4-10.3-29.1-18.9-44-25.5l-12.5-57.1c-2-9.08-9-16.3-18.2-17.8-13.8-2.31-28-3.51-42.5-3.51h0zm0 336c-44.2 0-80-35.8-80-80.9s35.8-80 80-80 80 36.7 80 80-35.8 80.9-80 80.9h0z"/></svg>