<svg xmlns="http://www.w3.org/2000/svg" viewBox="0 0 640 512"><path d="M96 64v32h144c8.8 0 16 7.2 16 16s-7.2 16-16 16H16c-8.8 0-16-7.2-16-16s7.2-16 16-16h48V64c0-35.3 28.7-64 64-64h224c35.3 0 64 28.6 64 64v32h65.3c14 0 27.3 6.1 36.4 16.8l78.7 91.8c7.5 8.7 11.6 19.8 11.6 31.2V384h16c8.8 0 16 7.2 16 16s-7.2 16-16 16h-48c0 53-43 96-96 96c-53.9 0-96-43-96-96H255c0 53-42.1 96-96 96c-53 0-96-43-96-96V288h32v56.4c17-15.2 40.3-24.4 64-24.4c42.7 0 78.3 26.7 91.4 64H384V64c0-17.7-14.3-32-32-32H127c-16.8 0-32 14.3-32 32H96zM493 134c-3-3.6-8.3-5.6-12.1-5.6H416v96h155L493 134zM416 256v88.4c16.1-15.2 39.4-24.4 64-24.4c41.8 0 77.4 26.7 90.5 64h5.5V256H416zM160 352c-35.3 0-64 28.7-64 64s28.7 64 64 64s64-28.7 64-64S195 352 160 352zM480 480c35.3 0 64-28.7 64-64s-28.7-64-64-64s-64 28.7-64 64S445 480 480 480zM272 160c8.8 0 16 7.2 16 16s-7.2 16-16 16H48c-8.8 0-16-7.2-16-16s7.2-16 16-16H272zM240 224c8.8 0 16 7.2 16 16s-7.2 16-16 16H16c-8.8 0-16-7.2-16-16s7.2-16 16-16H240z"/></svg>