<svg xmlns="http://www.w3.org/2000/svg" viewBox="0 0 486 512"><path d="M82.1 67.1h226.7c8.6 0 15.5 6.9 15.5 15.5h0c0 8.6-6.9 15.5-15.5 15.5H82.1c-8.6 0-15.5-6.9-15.5-15.5h0c-.1-8.6 6.9-15.5 15.5-15.5zm0 74.1h226.7c8.6 0 15.5 6.9 15.5 15.5h0c0 8.6-6.9 15.5-15.5 15.5H82.1c-8.6 0-15.5-6.9-15.5-15.5h0c-.1-8.6 6.9-15.5 15.5-15.5zm0 74h154c8.6 0 15.5 6.9 15.5 15.5h0c0 8.6-6.9 15.5-15.5 15.5H82.1c-8.6 0-15.5-6.9-15.5-15.5h0c-.1-8.5 6.9-15.5 15.5-15.5zM66.7 480.3H41.2c-5.6 0-10.2-4.6-10.2-10.2l.6-429.2c0-5.6 4.6-10.2 10.2-10.2l307.7 .3c5.6 0 10.2 4.6 10.2 10.2v67.1c0 8.5 6.8 15.3 15.3 15.3h0c8.5 0 15.3-6.8 15.3-15.3V20.7c0-11.2-9.1-20.4-20.4-20.4L21.3 0C10.1 0 .9 9.1 .9 20.4l-.6 470c0 11.2 9.1 20.4 20.4 20.4h46c8.5 0 15.3-6.8 15.3-15.3h0c0-8.4-6.8-15.2-15.3-15.2zm323.6-99.1c0-8.5-6.8-15.3-15.3-15.3h0c-8.5 0-15.3 6.8-15.3 15.3v89.1c0 5.6-4.6 10.2-10.2 10.2l-90.5-.1c-8.5 0-15.3 6.8-15.3 15.3h0c0 8.5 6.8 15.3 15.3 15.3l111 .1c11.3 0 20.4-9.1 20.4-20.4V381.2zm-259.6 131c-7.2 0-13.7-3.9-17.1-10.1c-3.2-5.8-3.2-12.9 0-18.7l37.7-69.7c-2.9-4.2-4.4-9.2-4.4-14.3c0-6.8 2.7-13.3 7.6-18.2l224.8-224.8c11.8-11.8 27.4-18.2 43.9-18.2s32.2 6.4 43.9 18.2 18.2 27.4 18.2 43.9-6.4 32.2-18.2 43.9L242.4 468.9c-4.8 4.8-11.3 7.6-18.2 7.6c-5.1 0-10.1-1.5-14.3-4.4l-69.8 37.8c-2.9 1.5-6.1 2.4-9.4 2.4zm9.9-14.2h0c0 .1 0 0 0 0zm-15.1-15.1q-.1 .1 0 0h0zm54.3-83.5l9.3 9.3-30.6 56.4 56.4-30.6 9.3 9.3 221.4-221.2c5.9-5.9 9.2-13.9 9.2-22.3s-3.3-16.4-9.2-22.3-13.9-9.2-22.3-9.2-16.4 3.3-22.3 9.2L179.7 399.4zm47.8 47.8h0c.1 0 0 0 0 0z"/></svg>