<svg xmlns="http://www.w3.org/2000/svg" viewBox="0 0 487 512"><path d="M391.1 326.6v165c0 11.3-9.2 20.5-20.5 20.5l-349.8-.2c-11.3 0-20.5-9.2-20.5-20.5L.9 20.5C.9 9.1 10.1 0 21.4 0L370.6 .2c11.3 0 20.5 9.2 20.5 20.5V168.6c0 2.4-.9 4.6-2.6 6.3L205.1 358.3c-4.1 4.1-4.1 10.6 0 14.7h0c2.8 2.8 3.4 7.1 1.5 10.6l-39.9 73.7c-.7 1.2-.7 2.8 0 4c1.1 2 3.6 2.8 5.6 1.6l73.7-39.9c3.5-1.9 7.8-1.2 10.6 1.6c1.9 1.9 4.6 3 7.3 3s5.3-1.1 7.3-3.1l104.6-104.2c5.6-5.6 15.2-1.6 15.2 6.3zM66.6 82.9h0c0 8.6 7 15.6 15.6 15.6h227.1c8.6 0 15.6-7 15.6-15.6h0c0-8.6-7-15.6-15.6-15.6H82.2c-8.6 0-15.6 7-15.6 15.6zm0 74.2h0c0 8.6 7 15.6 15.6 15.6h227.1c8.6 0 15.6-7 15.6-15.6h0c0-8.6-7-15.6-15.6-15.6H82.2c-8.6 0-15.6 7-15.6 15.6zm0 74.1h0c0 8.6 7 15.6 15.6 15.6H236.5c8.6 0 15.6-7 15.6-15.6h0c0-8.6-7-15.6-15.6-15.6H82.2c-8.6 0-15.6 7-15.6 15.6zm412.2-43.5c10.1-10.1 10.1-26.6 0-36.8c-10.2-10.1-26.7-10.1-36.9 0L227.2 365.7 264 402.5 478.8 187.8h0z"/></svg>