<svg xmlns="http://www.w3.org/2000/svg" viewBox="0 0 384 512"><path d="M384 128H256V0L384 128zM256 160h128v304c0 26.5-21.5 48-48 48H48c-26.5 0-48-21.5-48-48V48C0 21.5 21.5 0 48 0h176v128C224 146 238 160 256 160zM48.6 72c0 0 0 16 0 16c0 4.4 3.6 8 8 8h80c4.4 0 8-3.6 8-8V72c0-4.4-3.6-8-8-8h-80C52.2 64 48.6 67.6 48.6 72zM56.6 160h80c4.4 0 8-3.6 8-8v-16c0-4.4-3.6-8-8-8h-80c-4.4 0-8 3.6-8 8v16C48.6 156 52.2 160 56.6 160zM198 317l-6.4-1.6c-22.8-7-22.3-11.1-21.5-14.7c1.4-7.8 16.6-9.7 30.3-7.6c5.6 .8 11.7 2.8 17.6 4.8c10.4 3.6 21.8-1.9 25.5-12.3c3.6-10.4-1.9-21.9-12.3-25.5c-7.2-2.5-13.1-4.1-18.6-5.3V248c0-11-9-20-20-20c-11.1 0-20 9-20 20v6c-22.4 4.8-38.2 18.8-41.8 39.7c-7.4 42.8 33.2 54.7 50.5 59.8l5.8 1.7c29.3 8.4 28.8 11.2 27.9 16.3c-1.4 7.8-16.6 9.8-30.3 7.6c-6.9-1-15.8-4.2-23.7-7l-4.5-1.6c-10.4-3.6-21.8 1.8-25.5 12.2c-3.7 10.4 1.8 21.9 12.2 25.5l4.3 1.5c7.8 2.8 16.4 5.6 25.1 7.5v6.8c0 11 9 20 20 20c11.1 0 20-9 20-20v-6.2c22.4-4.8 38.2-18.5 41.8-39.4C261 335 220 323 198 317z"/></svg>