<svg xmlns="http://www.w3.org/2000/svg" viewBox="0 0 532 512"><path d="M525 184L439 119V0h-31.5v94.7L302 14.7c-5.67-4.3-13.3-4.3-19 0L59 184c-6.92 5.25-8.29 15.1-3.04 22c3.04 4.09 7.76 6.3 12.6 6.3c3.36 0 6.61-1.05 9.44-3.15l24.7-18.7v129c7.24 7.76 12.7 17.3 15.7 27.8c1.78 6.09 2.73 12.6 2.73 19.2c0 6.71-.944 13.1-2.73 19.2c-3.04 10.5-8.5 19.9-15.7 27.7v62.1c0 19.3 15.4 35 34.4 35H248h88.9h111c19 0 34.4-15.7 34.4-35v-285l24.7 18.7c6.92 5.25 16.8 3.88 22-3.04C533 199 532 189 525 184zM321 490H263V374h57.4V490zM103 378c-4.09 18-17.5 32.5-34.9 38.1v17.8v77.3h-15.7h-15.7v-77.3v-17.8C15.4 409 .033 390 .033 367c0-28.6 23.3-52 52-52c24.8 0 45.4 17.3 50.7 40.5c.839 3.67 1.26 7.55 1.26 11.4C104 370 103 374 103 378zM238 298h-47.9c-5.56 0-10.1-4.51-10.1-10.1v-45.5c0-5.56 4.51-10.1 10.1-10.1h47.9c5.56 0 10.1 4.51 10.1 10.1v45.5C248 293 244 298 238 298zM395 298h-47.9c-5.56 0-10.1-4.51-10.1-10.1v-45.5c0-5.56 4.51-10.1 10.1-10.1H395c5.56 0 10.1 4.51 10.1 10.1v45.5C405 293 400 298 395 298z"/></svg>