<svg xmlns="http://www.w3.org/2000/svg" viewBox="0 0 536 512"><path d="M339 287v-45.8c0-5.6 4.54-10.1 10.1-10.1h48.2c5.6 0 10.1 4.54 10.1 10.1v45.8c0 5.6-4.54 10.1-10.1 10.1h-48.2C343 297 339 293 339 287zM532 205c-3.06 4.12-7.81 6.23-12.7 6.23c-3.38 0-6.65-1.06-9.5-3.17l-24.8-18.8v287c0 19.4-15.5 35.3-34.6 35.3H339h-3.06h-83.4h-3.06H138c-19.1 0-34.6-15.8-34.6-35.3v-98c-4.33 17.8-17.7 32.1-35 37.6v95.6h-31.7v-95.6C15.8 409 .388 390 .388 366c0-28.8 23.4-52.4 52.4-52.4c24.6 0 45.3 17.1 50.9 40.1v-165l-24.8 18.8c-6.97 5.28-16.9 3.91-22.2-3.06s-3.91-16.9 3.06-22.2L285 12.7c5.7-4.33 13.4-4.33 19.1 0l107 80.5V0h31.7v117l86.8 65.7C536 188 537 198 532 205zM73.4 366c0-11.4-9.29-20.7-20.7-20.7c-11.4 0-20.7 9.29-20.7 20.7s9.29 20.7 20.7 20.7C64.2 387 73.4 378 73.4 366zM323 374H265v106h57.7V374zM454 166L294 45.1L134 166c.739 1.79 1.16 3.91 1.16 6.02v304c0 1.9 1.37 3.59 2.96 3.59H234v-121c0-8.76 7.07-15.8 15.8-15.8h89.4c8.76 0 15.8 7.07 15.8 15.8v121h95.4c1.58 0 2.96-1.69 2.96-3.59V172C453 170 453 168 454 166zM240 231h-48.2c-5.6 0-10.1 4.54-10.1 10.1v45.8c0 5.6 4.54 10.1 10.1 10.1h48.1c5.6 0 10.1-4.54 10.1-10.1v-45.8C250 236 245 231 240 231z"/></svg>