<svg xmlns="http://www.w3.org/2000/svg" viewBox="0 0 512 512"><path d="M238 400h193v-124H238v124zm30.1-93.7h133v63.7h-133v-63.7zM67.5 439h91.6v-163H67.5v163zm32.8-130h26v97.3h-26v-97.3zM439 0H72.4L0 188c3.4 15.8 11.9 29.1 23.5 38.8V512H488V227c11.7-9.68 20.1-23.2 23.5-38.8L439 0zm-20.6 26.1l55.8 136h-79.3l-29.3-136h52.8zm-148 0h65.6l22.3 136h-87.9V26.1zm86.4 160c-4.83 14.6-17.2 25.2-32.7 27.7-20 3.13-39.1-8.84-45.3-27.7h78zM175 26.1h65.6V160h-87.9L175 26.1zm-82.3 0h51.8l-28.3 136H39.2L92.9 26.1zM28.9 186H107c-4.83 14.6-17.2 25.2-32.7 27.7-20 3.13-39.1-8.84-45.3-27.7zM180 482H53.6V241c4.64 .982 9.41 1.5 14.3 1.5 3.55 0 7.14-.271 10.8-.832 23.2-3.68 42.4-18.4 52.1-39 9.47 20.1 28.1 34.3 49.6 38.5v241zm-25.8-296h78c-4.83 14.6-17.2 25.2-32.7 27.7-20 3.13-39.1-8.84-45.3-27.7zM458 482H210V240c20.2-5.04 36.7-18.6 45.6-37 11.5 23.7 35.7 39.1 62.4 39.1 3.55 0 7.14-.271 10.8-.832 23.2-3.68 42.4-18.4 52.1-39 11.4 24.1 35.8 39.8 62.8 39.8 3.55 0 7.14-.271 10.8-.832 1.2-.19 2.39-.421 3.58-.671v241zm-7.98-268c-20 3.13-39.1-8.84-45.3-27.7h78c-4.83 14.6-17.2 25.2-32.7 27.7z"/></svg>