<svg xmlns="http://www.w3.org/2000/svg" viewBox="0 0 516 512"><path d="M134 188L164 0h85V188h-115zm248 0h-115V0h85l30.1 188zm-267 0H.494L73.8 0h74.4l-32.8 188zm285 0L367 0h74.4l73.3 188h-115zM66.9 252c-30.8 4.8-59.9-15.2-66.4-45.7H115c-5.17 23.7-24.4 41.9-48.4 45.7zm133 0c-30.8 4.8-59.9-15.2-66.4-45.7h115c-5.17 23.7-24.4 41.9-48.4 45.7zm133 0c-30.8 4.8-59.9-15.2-66.4-45.7h115c-5.17 23.7-24.4 41.9-48.4 45.7zm133 0c-30.8 4.8-59.9-15.2-66.4-45.7h115c-5.17 23.7-24.4 41.9-48.4 45.7zm-28.1 176H245v-124h194v124zm-296 39.2H65.2v-163h77.1v163zm315-195c-17.9 0-35.5-6.18-49.5-17.4-6.78-5.42-12.6-11.9-17.2-19.2-3.47 5.42-7.6 10.4-12.4 14.9-11.7 11-26.2 18.2-42.1 20.7-4.1 .643-8.22 .964-12.3 .964-17.9 0-35.5-6.18-49.5-17.4-6.6-5.28-12.3-11.6-16.8-18.6-3.39 5.2-7.41 10-12 14.4-11.7 11-26.2 18.2-42.1 20.7-2.21 .341-4.43 .592-6.65 .743v239H496v-248c-7.98 4.39-16.7 7.38-25.8 8.82-4.1 .643-8.22 .964-12.3 .964zM125 237c-3.47 5.42-7.6 10.4-12.4 14.9-11.7 11-26.2 18.2-42.1 20.7-4.1 .643-8.22 .964-12.3 .964-13.3 0-26.4-3.41-38-9.77v248H178v-239c-13.3-2.23-25.9-7.83-36.5-16.3-6.78-5.42-12.6-11.9-17.2-19.2z"/></svg>