<svg xmlns="http://www.w3.org/2000/svg" viewBox="0 0 576 512"><path d="M288 30c1 0 1.83 .21 2.23 .35l254 224 .03 .02 .03 .02c.3 .26 .55 .5 .76 .7v.55c0 1.19-1.04 2.22-2.27 2.27h-61.8l.03 30 .2 184c0 5.51-4.49 10-10 10H104c-5.51 0-10-4.49-10-9.98l.1-184 .02-30H31.9s-.17 0-.17 0c-.92 0-1.68-.7-1.73-1.58v-1.19c-.02-.46 .22-1.03 .62-1.51L286 30.6l.66-.57c.38-.02 .91-.04 1.63-.04m0-30c-7 0-15 1-22 8L10 232C3.51 238-.19 247 0 256v.8c.2 17.4 14.4 31.3 31.7 31.3 .12 0 .25 0 .37 0h32l-.1 184c0 22.1 17.9 40 40 40H472c22.1 0 40-17.9 40-40l-.2-184h32c17.6-.2 31.9-14.5 32-32.1 1.1-9-3-17-11-24L310 7c-6.1-5-14.1-7-21.1-7h0zm12.1 393c-3.3 3.3-7.8 5.2-12.5 5.2s-9.2-1.8-12.5-5.2c-3.3-3.3-5.2-7.8-5.2-12.5s1.8-9.2 5.2-12.5c6.9-6.9 18.2-6.9 25.1 0s6.8 18.1-.1 25zm27.9-52.8c-4.84 4.84-12.3 5.77-18.2 2.31-6.63-3.88-14.2-5.96-22.1-5.96s-15.5 2.08-22.1 5.98c-5.9 3.45-13.4 2.51-18.2-2.33h0c-6.87-6.87-5.57-18.5 2.79-23.4 11.3-6.67 24.1-10.2 37.6-10.2s26.3 3.56 37.6 10.2c8.35 4.96 9.65 16.5 2.78 23.4h0zm80.1-80.2c-5.52 5.52-14.3 5.79-20.3 .77-28-23.6-63-36.4-100-36.4s-72.1 12.8-100 36.4c-5.98 5.02-14.8 4.75-20.3-.77l-.08-.08c-6.2-6.2-5.74-16.4 .96-22 33.4-28.1 75.3-43.5 120-43.5s86.1 15.3 120 43.5c6.69 5.65 7.14 15.8 .95 22l-.1 .1zm-120-8.52c-27.7 0-55.5 8.86-78.5 26.6-7.15 5.49-7.76 16.1-1.39 22.4h0c5.29 5.29 13.7 5.92 19.6 1.37 17.7-13.6 39-20.4 60.3-20.4s42.6 6.8 60.3 20.4c5.93 4.56 14.3 3.92 19.6-1.37h0c6.37-6.37 5.76-16.9-1.39-22.4-23.1-17.7-50.8-26.6-78.5-26.6z"/></svg>