<svg xmlns="http://www.w3.org/2000/svg" viewBox="0 0 576 512"><path d="M564.8 231.5L309.5 7c-6.1-5-14.1-7-21.1-7s-15 1-22 8L10 231.5c-6.5 6.3-10.2 15-10 24v.8c.2 17.5 14.6 31.5 32.1 31.3h32L64 472c0 22.1 17.9 40 40 40h368c22.1 0 40-17.9 40-40l-.2-184.4h32c17.6-.2 31.9-14.5 32-32.1 1.1-9-3-17-11-24zM300.5 392.7c-3.3 3.3-7.8 5.2-12.5 5.2s-9.2-1.8-12.5-5.2c-3.3-3.3-5.2-7.8-5.2-12.5s1.8-9.2 5.2-12.5c6.9-6.9 18.2-6.9 25.1 0 6.8 6.8 6.8 18.1-.1 25zm18.6-43.6c-8.3-8.3-19.3-12.9-31.1-12.9-11.7 0-22.8 4.6-31.1 12.9l-21.2-21.2c14-14 32.5-21.7 52.3-21.7s38.3 7.7 52.3 21.7l-21.2 21.2zm38.9-39c-38.6-38.6-101.4-38.6-140 0l-21.2-21.2c50.3-50.3 132.1-50.3 182.4 0L358 310.1zm40.3-40.3c-29.5-29.5-68.6-45.7-110.3-45.7s-80.8 16.2-110.3 45.7l-21.2-21.2c35.1-35.1 81.8-54.5 131.5-54.5s96.4 19.3 131.5 54.5l-21.2 21.2z"/></svg>