<svg xmlns="http://www.w3.org/2000/svg" viewBox="0 0 502 512"><path d="M355 317l-21.2-21.2c13.3-13.3 20.5-30.9 20.5-49.6s-7.29-36.3-20.5-49.6l21.2-21.2c18.9 18.9 29.3 44.1 29.3 70.8s-10.4 51.9-29.3 70.8zm40.4 40.4l-21.2-21.2c24-24 37.3-56 37.3-90s-13.2-66-37.3-90l21.2-21.2c29.7 29.7 46.1 69.2 46.1 111s-16.4 81.5-46.1 111zm42 42l-21.2-21.2c35.3-35.3 54.7-82.1 54.7-132s-19.4-96.7-54.7-132l21.2-21.2c40.9 40.9 63.5 95.3 63.5 153s-22.5 112-63.5 153zM299 11.9c-7.7-7.7-18.1-11.9-28.9-11.9H40.8C18.3 0 0 18.3 0 40.8V471c0 22.5 18.3 40.8 40.8 40.8h229c11 0 21.3-4.2 29-12 7.7-7.8 11.9-18 11.9-28.9V40.8c0-10.9-4.3-21.2-12-28.9zM40.8 30h229c2.95 0 5.68 1.11 7.69 3.11 2.1 2.1 3.21 4.76 3.21 7.69v21.6H30v-21.6c0-5.96 4.84-10.8 10.8-10.8zm-10.8 62.5h251V420H30V92.4zm251 379c0 3.01-1.09 5.64-3.25 7.82-2.01 2.04-4.59 3.08-7.65 3.08H40.8c-5.96 0-10.8-4.84-10.8-10.8v-21h251v20.9z"/></svg>