<svg xmlns="http://www.w3.org/2000/svg" viewBox="0 0 502 512"><path d="M310 92.4H0V420H310m.5-379l-.5 18.2v3.5H0v-21.7C0 18.3 18.3 0 40.8 0h229c10.8 0 21.2 4.2 28.9 11.9 7.7 7.7 12 18 12 28.9zM0 450H311v20.8c0 10.9-4.2 21.1-11.9 28.9-7.7 7.8-18 12-29 12H40.8C18.3 512 0 494 0 471c0 0 0-20.9 0-20.9zm355-133l-21.2-21.2c13.2-13.2 20.5-30.9 20.5-49.6s-7.3-36.3-20.5-49.6l21.2-21.2c18.9 18.9 29.3 44.1 29.3 70.8s-10.4 51.9-29.3 70.8zm40.4 40.4l-21.2-21.2c24-24 37.3-56 37.3-90s-13.2-66-37.3-90l21.2-21.2c29.7 29.7 46.1 69.2 46.1 111 0 42-16.3 81.5-46.1 111zm42 42l-21.2-21.2c35.3-35.3 54.7-82.1 54.7-132s-19.4-96.7-54.7-132l21.2-21.2c40.9 40.9 63.5 95.3 63.5 153s-22.6 112-63.5 153z"/></svg>