<svg xmlns="http://www.w3.org/2000/svg" viewBox="0 0 641 512"><path d="M432 480h-96.2v-48c0-8.84-7.16-16-16-16s-16 7.16-16 16v48h-95.8c-8.84 0-16 7.16-16 16s7.19 16 16 16l223-.17c8.84 0 16-7.16 16-16s-6.29-15.8-15.1-15.8zm207-171l-44.3-256c-5.34-30.9-33-53.5-65.5-53.5H111C78.2 0 50.5 22.6 45.2 53.5L.92 309c-6.74 39 24.5 74.5 65.5 74.5h507c41 0 72.2-35.5 65.5-74.5zM255 32h130l13.2 144H242l13.4-144zm-61.7 320H66.4c-10.6 0-20.5-4.48-27.1-12.3-3.46-4.11-8.95-12.8-6.88-24.8l18.3-105H207l-13.2 142zm16.2-176H56.3l20.4-118c2.69-14.8 17-26.1 34-26.1h112l-13.4 144zm16 176l13.2-143h163l13 143H226zM418 32h112c17 0 31.3 11.3 34 26.9l20.4 118h-152l-14.1-145zm183 308c-6.6 7.8-16.5 12.3-27.1 12.3h-127l-13-143h156l18.3 105c2.08 12.8-3.42 21.5-6.82 25.6z"/></svg>