<svg xmlns="http://www.w3.org/2000/svg" viewBox="0 0 640 512"><path d="M575 25.7c-3-14.9-16.2-25.7-32.3-25.7H95.1c-15.3 0-28.4 10.8-31.4 25.7L.63 346c-1.89 9.41 .55 19.2 6.62 26.6 6.08 7.4 14.3 11.7 23.9 11.7h255v64.3h-47.3c-26.3 0-47.8 21.5-47.8 47.8 0 8.84 7.17 16 16 16l223-.17c8.83 0 16-7.17 16-16-.05-26.3-20.5-47.8-47-47.8h-48.3v-64h256c9.59 0 18.7-4.31 24.8-11.7s8.52-17.2 6.62-26.6L575 25.7zm-57.6 38.3l19.2 96h-98l-9.82-96h88.6zm-138 0l9.62 96H249l9.87-96h120zm-169 0l-9.8 96H102l19.2-96h88.5zM70.3 320l22.3-112h103l-11.5 112H70.3zm163 0l11.4-112h150l11.3 112H233zm222 0l-11.5-112h103l22.3 112h-113z"/></svg>