<svg xmlns="http://www.w3.org/2000/svg" viewBox="0 0 576 512"><path d="M64 0C28.7 0 0 28.7 0 64C0 192 0 320 0 448c0 35.3 28.7 64 64 64c85.4 0 170.7 0 256 0c3.3 0 6.6-.3 9.8-.7C285.1 479.3 256 427 256 368c0-80.6 54.1-148.5 128-169.4c0-12.9 0-25.8 0-38.6c-42.7 0-85.3 0-128 0c-17.7 0-32-14.3-32-32c0-42.7 0-85.3 0-128C170.7 0 117.3 0 64 0zM256 0l0 128c42.7 0 85.3 0 128 0C341.3 85.3 298.7 42.7 256 0zM64 80c0-8.8 7.2-16 16-16c21.3 0 42.7 0 64 0c8.8 0 16 7.2 16 16s-7.2 16-16 16c-21.3 0-42.7 0-64 0c-8.8 0-16-7.2-16-16zm0 64c0-8.8 7.2-16 16-16c21.3 0 42.7 0 64 0c8.8 0 16 7.2 16 16s-7.2 16-16 16c-21.3 0-42.7 0-64 0c-8.8 0-16-7.2-16-16zm128 72c8.8 0 16 7.2 16 16c0 5.8 0 11.5 0 17.3c8.5 1.2 16.7 3.1 24.1 5.1c8.5 2.3 13.6 11 11.3 19.6s-11 13.6-19.6 11.3c-11.1-3-22-5.2-32.1-5.3c-8.4-.1-17.4 1.8-23.6 5.5c-5.7 3.4-8.1 7.3-8.1 12.8c0 3.7 1.3 6.5 7.3 10.1c6.9 4.1 16.6 7.1 29.2 10.9c.2 0 .3 .1 .5 .1c11.3 3.4 25.3 7.6 36.3 14.6c12.1 7.6 22.4 19.7 22.7 38.2c.3 19.3-9.6 33.3-22.9 41.6c-7.7 4.8-16.4 7.6-25.1 9.1c0 5.7 0 11.4 0 17.1c0 8.8-7.2 16-16 16s-16-7.2-16-16c0-5.9 0-11.9 0-17.8c-11.2-2.1-21.7-5.7-30.9-8.9c-2.1-.7-4.2-1.4-6.2-2.1c-8.4-2.8-12.9-11.9-10.1-20.2s11.9-12.9 20.2-10.1c2.5 .8 4.8 1.6 7.1 2.4c13.6 4.6 24.6 8.4 36.3 8.7c9.1 .3 17.9-1.7 23.7-5.3c5.1-3.2 7.9-7.3 7.8-14c-.1-4.6-1.8-7.8-7.7-11.6c-6.8-4.3-16.5-7.4-29-11.2c-.5-.2-1.1-.3-1.6-.5c-11-3.3-24.3-7.3-34.8-13.7c-12-7.2-22.6-18.9-22.7-37.3c-.1-19.4 10.8-32.8 23.8-40.5c7.5-4.4 15.8-7.2 24.1-8.7c0-5.7 0-11.5 0-17.2c0-8.8 7.2-16 16-16zM576 368c0 79.5-64.5 144-144 144s-144-64.5-144-144s64.5-144 144-144s144 64.5 144 144zM416 304l0 48c-16 0-32 0-48 0c-8.8 0-16 7.2-16 16s7.2 16 16 16c16 0 32 0 48 0l0 48c0 8.8 7.2 16 16 16s16-7.2 16-16c0-16 0-32 0-48c16 0 32 0 48 0c8.8 0 16-7.2 16-16s-7.2-16-16-16c-16 0-32 0-48 0c0-16 0-32 0-48c0-8.8-7.2-16-16-16s-16 7.2-16 16z"/></svg>