<svg xmlns="http://www.w3.org/2000/svg" viewBox="0 0 512 512"><path d="M240 41.9V15.3c0-8.47 6.85-15.3 15.3-15.3s15.3 6.85 15.3 15.3v26.6c0 8.47-6.85 15.3-15.3 15.3s-15.3-6.85-15.3-15.3zm15.3 412c-8.47 0-15.3 6.85-15.3 15.3v26.6c0 8.47 6.85 15.3 15.3 15.3s15.3-6.85 15.3-15.3v-26.6c0-8.47-6.85-15.3-15.3-15.3zM41.9 240H15.3c-8.47 0-15.3 6.85-15.3 15.3s6.85 15.3 15.3 15.3h26.6c8.47 0 15.3-6.85 15.3-15.3s-6.85-15.3-15.3-15.3zm454 0h-26.6c-8.47 0-15.3 6.85-15.3 15.3s6.85 15.3 15.3 15.3h26.6c8.47 0 15.3-6.85 15.3-15.3s-6.85-15.3-15.3-15.3zm-81.1-165l-18.8 18.8c-5.95 5.95-5.95 15.7 0 21.7s15.7 5.95 21.7 0l18.8-18.8c5.95-5.95 5.95-15.7 0-21.7-6.05-6.05-15.7-6.05-21.7 0zM93.7 396l-18.8 18.8c-5.95 5.95-5.95 15.7 0 21.7s15.7 5.95 21.7 0l18.8-18.8c5.95-5.95 5.95-15.7 0-21.7-6.05-6.05-15.7-6.05-21.7 0zm0-280c5.95 5.95 15.7 5.95 21.7 0s5.95-15.7 0-21.7l-18.8-18.8c-5.95-5.95-15.7-5.95-21.7 0s-5.95 15.7 0 21.7l18.8 18.8zM436 415l-18.8-18.8c-5.95-5.95-15.7-5.95-21.7 0s-5.95 15.7 0 21.7l18.8 18.8c5.95 5.95 15.7 5.95 21.7 0 5.95-6.05 5.95-15.7 0-21.7h0zm-52.5-248h-12c4.16-7.66 6.35-16.2 6.35-25 0-28.9-23.5-52.4-52.4-52.4h-1.75c-18.8 0-36 9.51-45.9 25.5l-20 32.1-20-32c-9.94-15.9-27.1-25.5-45.9-25.5h-1.75c-28.9 0-52.4 23.5-52.4 52.4 0 8.79 2.18 17.4 6.33 25h-12c-18.2 0-33.1 14.8-33.1 33.1v38.7c0 13.1 7.55 24.7 19.4 30.1v95.7c0 23.6 19.2 42.7 42.7 42.7h194c23.6 0 42.7-19.2 42.7-42.7v-95.7c11.8-5.38 19.4-17.1 19.4-30.1v-38.7c0-18.2-14.8-33.1-33.1-33.1zm-194-50h1.75c9.3 0 17.8 4.7 22.7 12.6l23.4 37.4h-47.8c-13.8 0-25-11.2-25-25s11.2-25 25-25zm-63.7 122v-38.7c0-3.11 2.53-5.64 5.64-5.64h112v50h-112c-3.11 0-5.64-2.53-5.64-5.64zm19.4 33.1h98.4v108h-83c-8.45 0-15.3-6.87-15.3-15.3v-92.7zm238-27.4h-112v-50h112c3.11 0 5.64 2.53 5.64 5.64v38.7c0 3.11-2.53 5.64-5.64 5.64zm-59.8-127h1.75c13.8 0 25 11.2 25 25s-11.2 25-25 25h-47.8l23.4-37.4c4.92-7.87 13.4-12.6 22.7-12.6zm30.8 263h-83v-108h98.4v92.7c0 8.45-6.87 15.3-15.3 15.3z"/></svg>