<svg xmlns="http://www.w3.org/2000/svg" viewBox="0 0 512 512"><path d="M256 57.2c8.47 0 15.3-6.85 15.3-15.3V15.3c0-8.47-6.85-15.3-15.3-15.3s-15.3 6.85-15.3 15.3v26.6c0 8.47 6.85 15.3 15.3 15.3zm0 397c-8.47 0-15.3 6.85-15.3 15.3v26.6c0 8.47 6.85 15.3 15.3 15.3s15.3-6.85 15.3-15.3h0v-26.6c0-8.47-6.85-15.3-15.3-15.3zM57.2 256c0-8.47-6.85-15.3-15.3-15.3H15.3c-8.47 0-15.3 6.85-15.3 15.3s6.85 15.3 15.3 15.3h26.6c8.47 0 15.3-6.85 15.3-15.3zm439-15.3h-26.6c-8.47 0-15.3 6.85-15.3 15.3s6.85 15.3 15.3 15.3h26.6c8.47 0 15.3-6.85 15.3-15.3s-6.85-15.3-15.3-15.3h0zm-100-125c5.95 5.95 15.7 5.95 21.7 0l18.8-18.8c5.95-5.95 5.95-15.7 0-21.7s-15.6-5.95-21.7 0l-18.8 18.8c-6.05 5.95-6.05 15.6 0 21.7zM115 396c-5.95-5.95-15.7-5.95-21.7 0l-18.8 18.8c-5.95 5.95-5.95 15.7 0 21.7s15.7 5.95 21.7 0h0l18.8-18.8c5.95-6.05 5.95-15.7 0-21.7zm0-280c5.95-5.95 5.95-15.7 0-21.7l-18.8-18.8c-5.95-5.95-15.7-5.95-21.7 0s-5.95 15.7 0 21.7l18.8 18.8c5.95 5.95 15.6 5.95 21.7 0zM436 415l-18.8-18.8c-5.95-5.95-15.7-5.95-21.7 0s-5.95 15.7 0 21.7l18.8 18.8c5.95 5.95 15.7 5.95 21.7 0 5.95-6.05 5.95-15.7 0-21.7h0zM195 83h1.33c19.3 0 37.2 10.2 47 26.9l14.6 24.8 14.6-24.8c9.8-16.7 27.7-26.9 47-26.9h1.33c29.4 0 53.2 23.8 53.2 53.2 0 8.71-2.12 16.4-5.81 24.2h25.2c10.7 0 19.4 8.65 19.4 19.4v38.7c0 10.7-8.65 19.4-19.4 19.4H123c-10.7 0-19.4-8.65-19.4-19.4v-38.7c0-10.7 8.67-19.4 19.4-19.4h25.2c-3.71-7.8-5.81-15.5-5.81-24.2 0-29.4 23.8-53.2 53.2-53.2zm23.3 41.6c-4.6-7.78-12.9-12.6-22-12.6h-1.33c-13.4 0-24.2 10.8-24.2 24.2s10.8 24.2 24.2 24.2h44.3l-21-35.8zm103-12.6h-1.33c-9.01 0-17.4 4.79-22 12.6l-21 35.8h44.3c13.4 0 24.2-10.8 24.2-24.2s-10.8-24.2-24.2-24.2h0zM123 257h116v135h-87.1c-16 0-29-13-29-29v-106zm155 135V257h116v106c0 16-13 29-29 29h-87.1z"/></svg>