<svg xmlns="http://www.w3.org/2000/svg" viewBox="0 0 576 512"><path d="M144 87.5c0 4.37-3.58 7.95-7.95 7.95h-79.5c-4.37 0-7.95-3.58-7.95-7.95V71.6c0-4.37 3.58-7.95 7.95-7.95h79.5c4.37 0 7.95 3.58 7.95 7.95V87.5zM313 509H47.9c-26.3 0-47.7-21.4-47.7-47.7V47.7C.186 21.4 21.6 0 47.9 0h154c7.16 0 14.2 1.59 20.6 4.47c5.37 2.39 10.2 5.77 14.5 10l130 117c4.18 4.18 7.56 9.15 10 14.5c2.88 6.36 4.47 13.4 4.47 20.6v9.25H255c-34 0-61.6-27.6-61.6-61.6V29.8H47.9c-9.84 0-17.9 8.05-17.9 17.9v414c0 9.84 8.05 17.9 17.9 17.9h231C289 491 300 501 313 509zM223 114c0 17.6 14.2 31.8 31.8 31.8h85.1L223 42.2V114zM518 362c-1.49 1.59-3.18 2.88-4.87 4.08c0 .099 .099 .199 .099 .298c3.48 8.45 2.09 18.1-3.48 25.4c-1.89 2.39-4.08 4.37-6.66 5.97c2.49 7.26 1.29 15.7-3.18 22.1c-2.68 3.88-6.36 6.66-10.6 8.25c-.597 8.65-5.47 15.6-14 19.6c-6.16 2.88-13.7 3.98-21.3 3.98c-13.2 0-26.5-3.18-33.4-5.07c-5.77-1.59-21.3-6.46-33.2-14.3c-3.48 5.07-9.25 8.35-15.8 8.35h-28.8c-10.6 0-19.2-8.65-19.2-19.2v-89.5c0-10.6 8.65-19.2 19.2-19.2h28.8c4.87 0 9.35 1.89 12.7 4.87c13.2-10.1 23.5-27.2 27-39.5c.298-.895 .597-1.69 1.09-2.49c7.46-12.2 17.8-18.9 28.3-18.4c8.75 .398 16.4 5.87 20.7 14.5c5.77 11.9 4.57 27.7-3.18 44.1c1.29 0 2.68 0 4.08 0c15.1 0 32.3-.099 38.9 .099c.497 0 1.09 .099 1.59 .199c11.2 2.09 19.4 8.65 22.4 18C528 343 526 354 518 362zM371 332h-27.4v88.1h27.4V332zM507 340c-.795-2.49-3.78-3.78-6.36-4.37c-6.96-.099-23.9-.099-37.6-.099c-9.44 0-17.6 0-21.6 0c-3.68 0-7.06-2.09-8.75-5.37c-1.69-3.28-1.39-7.26 .696-10.2c13.1-18.5 14-32.9 10.7-39.7c-.597-1.19-1.89-3.28-3.78-3.28c-2.19-.099-5.87 1.89-9.84 7.85c-4.87 15.4-17.8 37.2-35.7 49.9c-1.09 .795-2.29 1.29-3.48 1.59v72c.398 .398 .696 .795 .994 1.29c3.18 4.87 15.9 12.5 34.3 17.6c17.1 4.77 33.5 5.77 40.9 2.29c1.99-.994 5.67 .298 3.98-5.17c-.994-3.18-.298-6.66 1.89-9.25s5.47-3.88 8.75-3.48c2.98 .398 3.88-2.88 4.18-3.28c.895-1.29 2.09-3.28 1.39-4.67c-.199-.298-.497-1.09-2.09-1.49c-.895-.099-1.69-.199-2.58-.298c-5.27-.795-8.95-5.47-8.45-10.7c.497-5.27 5.07-9.25 10.3-8.95c1.19 0 2.29 .199 3.38 .298c4.37 .298 4.77-.795 6.46-2.98c1.19-1.59 2.49-3.68 1.79-5.47c-.696-1.69-.199-2.68-1.69-3.28c-1.29-.199-2.58-.497-3.88-.895c-4.97-1.39-8.05-6.46-7.06-11.5c.994-5.07 5.87-8.55 11-7.85c1.49 .199 2.88 .497 4.18 .795c4.08 .298 3.68-1.39 5.37-3.08C506 345 507 342 507 340zM136 127h-79.5c-4.37 0-7.95 3.58-7.95 7.95v15.9c0 4.37 3.58 7.95 7.95 7.95h79.5c4.37 0 7.95-3.58 7.95-7.95v-15.9C144 131 140 127 136 127zM575 356c0 85.8-69.8 156-156 156S264 442 264 356S334 200 420 200S575 270 575 356zM550 356c0-72.1-58.7-131-131-131s-131 58.7-131 131s58.7 131 131 131S550 428 550 356zM48.5 392c0 24.6 19.9 44.5 44.5 44.5h133c9.84 0 17.8-7.95 17.8-17.8c0-9.84-7.95-17.8-17.8-17.8H93c-4.97 0-8.95-3.98-8.95-8.95V205c0-9.84-7.95-17.8-17.8-17.8s-17.8 7.95-17.8 17.8V392zM248 305l-43.4-43.3c-8.35-8.35-22.8-2.39-23.2 9.15l.398 25.8h-62.7c-9.84 0-17.8 7.95-17.8 17.8c0 9.84 7.95 17.8 17.8 17.8h62.7l-.398 25.8c.398 11.5 14.8 17.5 23.2 9.15l43.4-43.3C253 319 253 310 248 305z"/></svg>