<svg xmlns="http://www.w3.org/2000/svg" viewBox="0 0 384 512"><path d="M384 128H256V0L384 128zM256 160c-17.7 0-32-14.3-32-32V0H48C21.5 0 0 21.5 0 48v416c0 26.5 21.5 48 48 48h288c26.5 0 48-21.5 48-48V160H256zM48.6 72c0-4.4 3.6-8 8-8h80c4.4 0 8 3.6 8 8v16c0 4.4-3.6 8-8 8h-80c-4.4 0-8-3.6-8-8C48.6 88 48.6 72 48.6 72zM145 136v16c0 4.4-3.6 8-8 8h-80c-4.4 0-8-3.6-8-8v-16c0-4.4 3.6-8 8-8h80C141 128 145 132 145 136zM318 439H93.4c-24.8 0-44.8-20.1-44.8-44.8V206c0-9.9 8-17.9 17.9-17.9s17.9 8 17.9 17.9v188c0 5 4 9 9 9h224c9.9 0 17.9 8 17.9 17.9S327 439 318 439zM332 326l-43.7 43.6c-8.4 8.4-22.9 2.4-23.3-9.2l.4-26H130c-9.9 0-17.9-8-17.9-17.9s8-17.9 17.9-17.9h135l-.4-26c.4-11.6 14.9-17.6 23.3-9.2l43.7 43.6C337 312 337 320 332 326z"/></svg>