<svg xmlns="http://www.w3.org/2000/svg" viewBox="0 0 384 512"><path d="M318 439H93.4c-24.8 0-44.8-20.1-44.8-44.8V206c0-9.9 8-17.9 17.9-17.9s17.9 8 17.9 17.9v188c0 5 4 9 9 9h224c9.9 0 17.9 8 17.9 17.9S327 439 318 439zM332 326l-43.7 43.6c-8.4 8.4-22.9 2.4-23.3-9.2l.4-26H130c-9.9 0-17.9-8-17.9-17.9s8-17.9 17.9-17.9h135l-.4-26c.4-11.6 14.9-17.6 23.3-9.2l43.7 43.6C337 312 337 320 332 326zM380 160c-2.5-5.4-5.9-10.4-10.1-14.6L239 14.6c-4.3-4.3-9.2-7.7-14.6-10.1C218 1.6 211 0 203 0H48C21.5 0 0 21.5 0 48v416c0 26.5 21.5 48 48 48h288c26.5 0 48-21.5 48-48V181C384 174 382 166 380 160zM342 160H256c-17.7 0-32-14.3-32-32V42.4L342 160zM354 464c0 9.9-8.1 18-18 18H48c-9.9 0-18-8.1-18-18V48c0-9.9 8.1-18 18-18h146v98c0 34.2 27.8 62 62 62h98V464zM48.6 72v16c0 4.4 3.6 8 8 8h80c4.4 0 8-3.6 8-8V72c0-4.4-3.6-8-8-8h-80C52.2 64 48.6 67.6 48.6 72zM56.6 160h80c4.4 0 8-3.6 8-8v-16c0-4.4-3.6-8-8-8h-80c-4.4 0-8 3.6-8 8v16C48.6 156 52.2 160 56.6 160z"/></svg>