<svg xmlns="http://www.w3.org/2000/svg" viewBox="0 0 576 512"><path d="M384 128H256V0L384 128zM258 368c0-79.3 53.3-146 126-167V160H256c-17.7 0-32-14.3-32-32V0H48C21.5 0 0 21.5 0 48v416c0 26.5 21.5 48 48 48h286C288 481 258 428 258 368zM576 368c0 79.5-64.5 144-144 144s-144-64.5-144-144s64.5-144 144-144S576 289 576 368zM369 342h-31.1c-5.5 0-10 4.5-10 10v96.4c0 5.5 4.5 10 10 10h31.1c5.5 0 10-4.5 10-10v-96.4C379 347 374 342 369 342zM518 374c23.4 0 24.8-35.2 1.7-37.2v-.1c-11.6 0-54 0-64.9 0c9.2-15.9 14.4-32.8 15.8-37.8c6.6-24.7-30-35.3-37.5-10.8c-4.7 16.2-11.4 34.6-28.1 46.5c-7.8 2.4-12.6 9.2-12.6 16.1c2.2 11.1-5.9 78.7 6.6 84.8c31.8 28.1 40.4 24.8 80.6 25.4c12.4 .2 23.2-12.3 15.5-23.2c21.2 2.5 24.1-28.7 2.8-29.6c31.3 4.7 34.6-31.1 9.7-34.2l0 0h10.4V374zM228 439H93.4c-24.8 0-44.8-20.1-44.8-44.8V206c0-9.9 8-17.9 17.9-17.9s17.9 8 17.9 17.9v188c0 5 4 9 9 9h134c9.9 0 17.9 8 17.9 17.9S237 439 228 439zM250 326l-43.7 43.6c-8.4 8.4-22.9 2.4-23.3-9.2l.4-26h-63.1c-9.9 0-17.9-8-17.9-17.9s8-17.9 17.9-17.9h63.1l-.4-26c.4-11.6 14.9-17.6 23.3-9.2l43.7 43.6C255 312 255 320 250 326zM48.6 72c0-4.4 3.6-8 8-8h80c4.4 0 8 3.6 8 8v16c0 4.4-3.6 8-8 8h-80c-4.4 0-8-3.6-8-8C48.6 88 48.6 72 48.6 72zM145 136v16c0 4.4-3.6 8-8 8h-80c-4.4 0-8-3.6-8-8v-16c0-4.4 3.6-8 8-8h80C141 128 145 132 145 136z"/></svg>