<svg xmlns="http://www.w3.org/2000/svg" viewBox="0 0 512 512"><path d="M256 160c-52.9 0-94.9 42.9-94.9 94.9s41.1 96.7 94.9 96.7 94.9-42.9 94.9-94.9-42-96.7-94.9-96.7zm253 188l-63.1-91.7 63-90.8c6.29-9.08 1.1-21.7-9.78-23.7l-109-19.7-19.7-109c-2-10.9-14.6-16.2-23.7-9.78l-90.8 63.9L164 3.56c-9.08-6.29-21.7-1.1-23.7 9.78l-18.8 109L13.1 142c-10.9 1.9-16.2 14.6-9.78 22.8l63 91.8L3.21 347c-6.29 9.08-1.1 21.7 9.78 23.7l109 19.7 19.7 109c2 10.9 14.6 16.2 23.7 9.78l90.8-63.1 90.8 63c9.08 6.29 21.8 1.1 23.7-9.78l19.7-109 109-19.7c11.1-1.8 16.3-14.5 9.98-23.6zm-253 36c-70.6 0-127-57.2-127-127s57.2-127 127-127 127 57.2 127 127-56.3 127-127 127z"/></svg>