<svg xmlns="http://www.w3.org/2000/svg" viewBox="0 0 512 512"><path d="M345 40.5l15.6 86.1 3.69 20.4 20.4 3.69 86.3 15.6-50 72-11.8 17 11.7 17 50.2 73-86.4 15.6-20.4 3.69-3.69 20.4-15.6 86.3-72-50-17.1-11.8-17.1 11.8-72 50-15.6-86.3-3.69-20.4-20.4-3.69-86.3-15.6 50-72 11.8-17-11.7-17-49.6-72.2 85.9-15.5 20.6-3.72 3.55-20.7 14.8-86.1 72.8 50.1 17.2 11.8 17-12 71.9-50.6M355 0c-2.94 0-5.95 .858-8.64 2.73l-90.8 63.9L164 3.62c-2.69-1.88-5.7-2.73-8.64-2.73-7 0-13.6 4.86-15 12.5l-18.7 109L12.5 142c-10.9 1.9-16.1 14.6-9.8 22.8l63 91.7L2.73 347c-6.32 9.1-1.1 21.7 9.8 23.7l109 19.7 19.7 109c1.39 7.68 8.03 12.5 15 12.5 2.94 0 5.95-.858 8.64-2.73l90.8-63 90.8 63c2.69 1.88 5.7 2.73 8.64 2.73 7 0 13.6-4.86 15-12.5l19.7-109 109-19.7c10.9-1.93 16.1-14.6 9.85-23.7l-63.1-91.7 63-90.8c6.32-9.1 1.1-21.7-9.81-23.7l-109-19.7-19.7-109c-1.39-7.68-8.03-12.5-15-12.5h0zm-99.5 160c-52.9 0-94.9 42.9-94.9 94.9s41.1 96.7 94.9 96.7 94.9-42.9 94.9-94.9-42-96.7-94.9-96.7zm0 224c-70.6 0-127-57.2-127-127s57.2-127 127-127 127 57.2 127 127-56.3 127-127 127z"/></svg>