<svg xmlns="http://www.w3.org/2000/svg" viewBox="0 0 639 512"><path d="M575 224c-12 0-23.1 3.49-32.7 9.23-3.44-40.1-37.3-73.1-79.1-73.1-38.7 0-71 27.6-78.2 64.1-.499 0-.998-.25-1.62-.25-35.2 0-63.9 28.7-63.9 63.9s28.7 63.9 63.9 63.9h192c35.2 0 63.9-28.7 63.9-63.9s-28.6-63.9-63.9-63.9zm-250 140c-20 12.9-43.6 20.6-69.2 20.6-70.6 0-128-57.2-128-128s57.2-128 128-128c46 0 85.9 24.5 108 60 15.3-29.7 43.2-51.2 76.1-58.2l-50.3-9.09-19.7-109c-1.98-10.9-14.6-16.1-23.7-9.8l-90.8 63.9L164 3.61c-9.1-6.32-21.7-1.11-23.7 9.8l-18.7 109L12.7 142c-10.9 1.9-16.1 14.6-9.8 22.8l63 91.7L2.86 347c-6.32 9.1-1.11 21.7 9.8 23.7l109 19.7 19.7 109c1.98 10.9 14.6 16.1 23.7 9.8l90.8-63 90.8 63c9.11 6.32 21.7 1.11 23.7-9.8l21.4-115-8.18-.828c-22.2 0-42.3-6.99-58.6-19.7zm11.6-158c-17.1-26.7-46.7-44.6-80.7-44.6-52.9 0-95.8 42.9-95.8 95.8s42.9 95.8 95.8 95.8c17.2 0 33.1-4.89 47-12.8-9.38-14.8-15.1-32.3-15.1-52 0-34.8 19.8-65.8 48.8-82.2z"/></svg>