<svg xmlns="http://www.w3.org/2000/svg" viewBox="0 0 640 512"><path d="M558 186c-16.2-34.1-50.9-57.6-90.3-57.6-41.8 0-77.6 25.3-92.5 62.5-32.5 11.4-55.5 42.1-55.5 78.3 0 46 37.2 83.2 83.2 83.2h154c46.1 0 83.3-37.2 83.3-83.2s-36.6-82.4-81.7-83.2zm-1.5 134h-154c-28.4 0-51.3-22.9-51.3-51.2s21.8-49.8 49-51c4.9-32.7 32.9-57.8 67-57.8s64.8 27.8 67.5 62.9c6.5-3.12 13.6-5.25 21.3-5.25 28.4-.03 51.3 22.9 51.3 51.2s-22.9 51.2-51.2 51.2zm-152 82.7l.52 2.66-84.8-16.8c-7.57-1.41-12.9 1.39-16.5 6.79l-48.2 71.8-48.1-72c-3.62-5.25-9.88-8-16.4-6.75l-84.8 16.8 16.8-84.8c1.25-6.25-1.38-12.8-6.75-16.4l-72-48.1 72-48.1c5.38-3.62 8-10.1 6.75-16.4l-16.7-84.7 84.8 16.8c5.55 1.25 12.6-1.55 16.4-6.75l48.1-72.1 48.1 72c3.62 5.25 9.88 8 16.4 6.75l108-21.5c8.75-1.75 14.4-10.1 12.6-18.8-1.62-8.75-10.1-14.5-18.8-12.6l-97.9 19.4L269 7.12c-3-4.38-8-7.12-13.2-7.12s-10.2 2.75-13.2 7.12l-55.6 82.9-97.8-19.4c-5.26-1.12-10.6 .63-14.4 4.38s-5.38 9.25-4.38 14.4l19.4 97.9L7.12 243c-4.38 3-7.12 7.8-7.12 13.2s2.75 10.3 7.12 13.3l82.9 55.5-19.4 97.8c-1 5.12 .62 10.6 4.38 14.4s9.12 5.38 14.4 4.38l97.8-19.4 55.5 82.9c3.1 4.32 8.1 7.12 13.3 7.12s10.3-2.75 13.3-7.12l55.5-82.9 97.8 19.4c5.38 1.12 10.8-.62 14.4-4.38 3.88-3.75 5.38-9.25 4.38-14.4l-5.04-26c-.1-.52-2.5-12.6-15.8-12.8-10-.12-17.6 8.98-15.6 18.8zM247 180c19.2-2.13 37.2 2.88 51.5 12.7 6.04 4.12 14.6 3.64 20.7-2.83 6.54-6.91 4.78-18.4-3.09-23.8-23.5-15.8-53.4-22.9-85-15.8-42.8 9.6-74.7 43.3-82.1 86.6-11.7 68 39.7 127 107 127 15.9 0 31-3.48 44.7-9.7 6.09-2.78 13.3-12.6 6.49-23-4.38-6.67-12.7-9.35-20-6.06-9.5 4.42-20.1 6.72-31.2 6.72-45 0-80.8-38.9-75.8-84.9 3.78-34.8 32.2-63.2 67.1-67.1z"/></svg>