<svg xmlns="http://www.w3.org/2000/svg" viewBox="0 0 487 512"><path d="M249 377c5.72 9.84 11.6 18.5 17.5 26c-15.2 6.63-31.5 10.9-48.6 12.5v96.7h-30.1v-96.7c-81-7.63-144-75.8-144-159v-67h-28.1c-8.53 0-15.4-6.93-15.4-15.4s6.93-15.4 15.4-15.4h28.1h297L267 189H74.2v67c0 34.4 13.4 66.8 37.7 91.1c24.3 24.3 56.7 37.7 91.1 37.7C219 385 235 382 249 377zM439 390c21.7-25.9 47.5-70.5 47.5-136l0-.201c-.201-14.4-8.93-27.1-22.2-32.6l-83.7-34.9c-8.83-3.61-18.9-3.61-27.7 0l-83.7 34.9c-13.4 5.42-22 18.3-22.2 32.6l0 .201c0 65.5 25.9 110 47.6 136c22.9 27.3 53.2 47.2 72.2 47.2C386 437 416 417 439 390zM281 249l83.8-34.9c1.41-.602 3.11-.602 4.52 0l83.8 34.9l.1 0c2.11 .904 3.51 2.91 3.51 5.12c0 55.6-21.8 93.6-40.1 116c-21.5 26-44 36.9-49.6 37.1c-5.72-.201-28.2-11.1-49.6-36.9c-18.3-22-40-59.9-40.1-116C278 252 279 250 281 249zM413 317c2.51-2.11 3.41-5.52 2.21-8.63c-1.2-3.11-4.32-5.12-7.63-5.12h-28.2l21.8-44.6c1.51-3.41 .402-7.33-2.71-9.34c-3.11-2.11-7.23-2.01-10.1 .402l-67.1 53.3c-2.51 2.11-3.41 5.52-2.21 8.63c1.1 3.31 4.12 5.52 7.63 5.42h28.2l-21.8 44.6c-1.51 3.41-.402 7.33 2.71 9.34c1 1 3.11 1.51 4.72 1.51c1.91 0 3.81-.703 5.32-1.91L413 317L413 317zM107 0c-8.33 0-15.1 6.73-15.1 15.1v115h30.1V15.1C122 6.73 115 0 107 0zM314 15.1c0-8.33-6.73-15.1-15.1-15.1s-15.1 6.73-15.1 15.1v115h30.1V15.1z"/></svg>