<svg xmlns="http://www.w3.org/2000/svg" viewBox="0 0 460 512"><path d="M96 0c17.7 0 32 14.3 32 32v96H64V32C64 14.3 78.3 0 96 0zM288 0c17.7 0 32 14.3 32 32v96h-64V32C256 14.3 270 0 288 0zM221 245l0-.4c.3-20.3 12.6-38.4 31.4-46.1l83.3-34.7c3.9-1.6 7.9-2.7 12.1-3.4H32c-17.7 0-32 14.3-32 32s14.3 32 32 32v32c0 77.4 55 141 128 157V512h64v-99.2c18.2-3.9 35.2-10.8 50.6-20.1c-.9-1-1.7-2-2.6-3C249 362 221 314 221 245zM447 226l-83.5-34.8c-5.1-2.1-10.9-2.1-16 0l-83.4 34.8c-7.7 3.1-12.8 10.6-12.9 18.9c0 112 82.2 167 104 167c22.2 0 104-55.7 104-167C460 236 455 229 447 226zM401 307L334 361c-1.5 1.2-3.4 1.9-5.3 1.9c-1.7 0-3.7-.5-4.7-1.5c-3-2.1-4.2-6-2.7-9.3l21.7-44.4h-28.1c-3.4 0-6.5-2.2-7.6-5.4c-1.2-3-.3-6.5 2.2-8.6l66.8-53.1c2.9-2.4 7-2.6 10.1-.4c3 2.1 4.2 6 2.7 9.3l-21.7 44.4h28.1c3.3-.1 6.4 2 7.6 5.1C405 302 404 305 401 307L401 307z"/></svg>