<svg xmlns="http://www.w3.org/2000/svg" viewBox="0 0 512 512"><path d="M72 416c0-13.3 10.8-24 24-24s24 10.7 24 24-10.7 24-24 24-24-10.7-24-24zM0 56C0 25.1 25.1 0 56 0h80c30.9 0 56 25.1 56 56V188l91.2-91.2c21.9-21.9 57.4-21.9 79.2 0l56.6 56.5c21.9 21.9 21.9 57.4 0 79.2l-87.3 87.3h124c30.9 0 56 25.1 56 56v80c0 30.9-25.1 56-56 56H96c-53 0-96-43-96-96V56zM480 456v-80c0-13.3-10.7-24-24-24h-156l-128 128H456c13.3 0 24-10.7 24-24zm-83.6-280l-56.6-56.6c-9.4-9.4-24.6-9.4-33.9 0l-114 114v181l204-204c9.4-9.4 9.4-24.6 0-33.9h0zM96 480c35.3 0 64-28.7 64-64v-128H32v128c0 35.3 28.6 64 64 64zM32 256H160v-96H32v96zm0-128H160V56c0-13.3-10.7-24-24-24H56c-13.3 0-24 10.8-24 24v72z"/></svg>