<svg xmlns="http://www.w3.org/2000/svg" viewBox="0 0 514 512"><path d="M287 200c-4.52-7.63-14.3-10.1-21.9-5.67l-55.9 33.1v-93.5l43.3-43.4c6.25-6.26 6.25-16.4 0-22.7s-16.4-6.26-22.6 0l-20.7 20.8V47.2c0-8.86-7.16-16-16-16s-16 7.17-16 16v41.5l-20.7-20.7c-6.25-6.26-16.4-6.26-22.6 0-6.25 6.26-6.25 16.4 0 22.7l43.3 43.4v93.5l-81.6-48.2-15.4-57.6c-2.29-8.52-11-13.4-19.6-11.3-8.51 2.31-13.6 11-11.3 19.6l6.95 26-31-18.3c-7.62-4.45-17.4-1.97-21.9 5.67-4.48 7.63-1.96 17.5 5.65 22l34.1 20.2-30.5 8.17c-8.54 2.3-13.6 11.1-11.3 19.6 1.9 7.17 8.38 11.9 15.4 11.9 1.37 0 2.77-.19 4.16-.531l60.8-16.3 80 47.3-80.1 47.4-60.8-17.2c-8.54-1.2-17.3 3.71-19.6 12.2-2.28 8.55 2.79 17.3 11.3 19.6l30.5 8.18-34.1 20.2c-7.61 4.51-10.1 14.3-5.64 22 3.01 5.1 8.34 7.91 13.8 7.91 2.77 0 5.56-.721 8.13-2.22l31-18.3-6.95 26c-2.29 8.58 2.79 17.3 11.3 19.7 1.39 .341 2.79 .531 4.16 .531 7.06 0 13.5-4.73 15.4-11.9l15.4-57.6 81.6-48.3v93.5l-43.3 43.4c-6.25 6.26-6.25 16.4 0 22.7 6.25 6.26 16.4 6.26 22.6 0l20.7-20.7v41.5c0 8.86 7.16 16 16 16s16-7.17 16-16v-41.5l20.7 20.7c3.14 3.1 6.34 4.7 11.4 4.7s8.2-1.56 11.3-4.7c6.25-6.26 6.25-16.4 0-22.7l-43.3-43.4v-93.5l55.9 33.1c2.57 1.5 5.36 2.22 8.13 2.22 5.47 0 10.8-2.82 13.8-7.9 4.5-7.66 1.89-17.5-5.72-22l-56.7-33.6 56.7-33.6c7.6-4.51 10.2-14.3 5.7-21.9zm130 155v-18.9c0-8.77-7.26-16-16-16s-16 7.31-16 16v18.9c-18.6 6.63-32.1 24.3-32.1 45.2 0 26.6 21.5 48.1 48.1 48.1s48.1-21.5 48.1-48.1c0-20.9-13.4-38.6-32.1-45.2zm64.1-33.1V79.3C481 35 445 0 402 0s-81.1 35-81.1 79.3v242c-20.2 20.9-32.1 49-32.1 78.3 0 61.9 50.3 112 112 112s112-50.3 112-112c0-29.3-11.7-57.5-32.1-78.3zm-80.2 158c-44.2 0-80.2-36-80.2-80.2 0-25.5 12.3-49 32.1-63.9V79.3c0-26.6 21.5-48.1 48.1-48.1s48.1 21.5 48.1 48.1V336c19.8 14.7 32.1 38.3 32.1 63.8 0 44.2-36 80.2-80.2 80.2z"/></svg>