<svg xmlns="http://www.w3.org/2000/svg" viewBox="0 0 496 512"><path d="M144 338V143c0-8.9-7.1-16-16-16s-16 7.1-16 16v195c-18.6 6.62-32 24.4-32 45.3 0 26.5 21.5 48 47.1 48 27.4-.05 48.9-21.5 48.9-48 0-20.9-13.4-38.6-32-45.2zM224 95.1C224 42.1 181 .01 128 .01 75-.89 32 42.1 32 95.1v203C12.3 321 .12 350 0 383c-.37 70.2 56.8 128 127 129h.9c70.8 0 128-57.3 128-128 0-32.5-12.1-62.1-32-84.6V95.1zm-96 384h-.6c-52.8-.38-95.6-43.8-95.4-96.5 .25-39.5 22.5-61.4 32-72V95.1c0-35.3 28.8-64 63.1-64s64 28.8 64 64v216c9.12 10.4 32 32.6 32 72.5 .87 52.9-42.2 96-95.1 96zM320 63.1h160c8.8 0 16-7.2 16-16s-7.2-16-16-16h-160c-8.8 0-16 7.2-16 16s7.2 16 16 16zm160 96h-160c-8.8 0-16 7.2-16 16s7.2 16 16 16h160c8.8 0 16-7.2 16-16s-7.2-16-16-16zm0 128h-128c-8.8 0-16 7.2-16 16s7.2 16 16 16h128c8.8 0 16-7.2 16-16s-7.2-16-16-16z"/></svg>