<svg xmlns="http://www.w3.org/2000/svg" viewBox="0 0 640 512"><path d="M238 7.5c-2.9-4.6-8.1-7.5-13.6-7.5s-10.7 2.9-13.6 7.5l-45.7 73.4-84.2-19.6c-5.4-1.3-11 .4-14.9 4.3-3.9 3.9-5.5 9.6-4.3 14.9l19.6 84.2L7.5 210c-4.6 2.9-7.5 8.1-7.5 13.6s2.9 10.7 7.5 13.6l73.4 45.7-19.6 84.2c-1.3 5.4 .4 11 4.3 14.9 3.9 3.9 9.6 5.5 14.9 4.3l84.2-19.6 45.7 73.4c2.9 4.7 8.1 7.5 13.6 7.5s10.7-2.9 13.6-7.5l45.7-73.4 36.9 8.6c-.1-2.5-.2-5.1-.2-7.7 0-37.7 11.8-72.6 32-101V64.9l-68.7 16L238 7.5zm-13.6 281c35.3 0 64-28.7 64-64s-28.7-64-64-64-64 28.7-64 64 28.7 64 64 64zm0 32c-53 0-96-43-96-96s43-96 96-96 96 43 96 96-43 96-96 96zM448 112c0-26.5 21.5-48 48-48s48 21.5 48 48v165c0 17.3 7.1 31.9 15.3 42.5 10.5 13.6 16.7 30.5 16.7 49 0 44.2-35.8 80-80 80s-80-35.8-80-80c0-18.5 6.2-35.4 16.7-48.9 8.2-10.6 15.3-25.2 15.3-42.5V112zM496 0c-61.9 0-112 50.2-112 112v165c0 .1-.1 .3-.2 .6-.2 .6-.8 1.6-1.7 2.8-18.9 24.4-30.1 55-30.1 88.1 0 79.5 64.5 144 144 144s144-64.5 144-144c0-33.2-11.3-63.8-30.1-88.1-.9-1.2-1.5-2.2-1.7-2.8-.1-.3-.2-.5-.2-.6V112c0-61.8-50.1-112-112-112zm0 416c26.5 0 48-21.5 48-48 0-20.9-13.4-38.7-32-45.3V112c0-8.8-7.2-16-16-16s-16 7.2-16 16v211c-18.6 6.6-32 24.4-32 45.3 0 26.5 21.5 48 48 48z"/></svg>