<svg xmlns="http://www.w3.org/2000/svg" viewBox="0 0 512 512"><path d="M160 323V160c0-8.75-7.25-16-16-16s-16 7.3-16 16v163c-18.6 6.6-32 24.2-32 45.1 0 26.5 21.5 48 48 48s48-21.5 48-48c0-20.9-13.4-38.5-32-45.1zm96-211C256 50.1 206 0 144 0S32 50.1 32 112v167C12.3 303 0 334 0 368c0 79.5 64.5 143 144 143s144-64.5 144-143c0-34-12.3-64.9-32-89.5V112zm-112 336c-44.1 0-80-35.9-80-79.1 0-25.5 12.3-48.9 32-63.8V113c0-26.5 21.5-48 48-48s48 21.5 48 48v192c19.8 14.8 32 38.3 32 63.8 0 43.2-35.9 79.1-80 79.1zM352 96h128c17.7 0 32-14.3 32-32s-14.3-32-32-32h-128c-17.7 0-32 14.3-32 32s14.3 32 32 32zm128 64h-128c-17.7 0-32 14.3-32 32s14.3 32 32 32h128c17.7 0 32-14.3 32-32s-14.3-32-32-32zm0 128h-96c-17.7 0-32 14.3-32 32s14.3 32 32 32h96c17.7 0 32-14.3 32-32s-14.3-32-32-32z"/></svg>