<svg xmlns="http://www.w3.org/2000/svg" viewBox="0 0 570 512"><path d="M378 112c0-26.5 21.5-48 48-48s48 21.5 48 48v165c0 17.3 7.1 31.9 15.3 42.5 10.5 13.6 16.7 30.5 16.7 49 0 44.2-35.8 80-80 80s-80-35.8-80-80c0-18.5 6.2-35.4 16.7-48.9 8.2-10.6 15.3-25.2 15.3-42.5V112zM426 0c-61.9 0-112 50.1-112 112v164c0 .1-.1 .3-.2 .6-.2 .6-.8 1.6-1.7 2.8-18.9 24.4-30.1 55-30.1 88.1 0 79.5 64.5 144 144 144s144-64.5 144-144c0-33.2-11.3-63.8-30.1-88.1-.9-1.2-1.5-2.2-1.7-2.8-.1-.3-.2-.5-.2-.6V112c0-61.9-50.1-112-112-112zm0 416c26.5 0 48-21.5 48-48 0-20.9-13.4-38.7-32-45.3v-50.7c0-8.8-7.2-16-16-16s-16 7.2-16 16v50.7c-18.6 6.6-32 24.4-32 45.3 0 26.5 21.5 48 48 48zM282 132l-88 50.8v-55.8l35.3-35.3c6.2-6.2 6.2-16.4 0-22.6s-16.4-6.2-22.6 0l-12.7 12.7v-25.4c0-13.3-10.7-24-24-24s-24 10.7-24 24v25.4l-12.7-12.7c-6.2-6.2-16.4-6.2-22.6 0-6.2 6.2-6.2 16.4 0 22.6l35.3 35.3v55.8l-48.3-27.9-13-48.2c-2.2-8.6-11-13.6-19.5-11.3s-13.6 11.1-11.3 19.6l4.6 17.3-22-12.7c-11.5-6.6-26.2-2.7-32.8 8.8s-2.7 26.2 8.8 32.8l22 12.7-17.3 4.6c-8.5 2.3-13.6 11.1-11.3 19.6s11.1 13.6 19.6 11.3l48.2-12.9 48.3 27.9-48.3 27.9-48.3-12.9c-8.5-2.3-17.3 2.8-19.6 11.3-2.3 8.5 2.8 17.3 11.3 19.6l17.3 4.6-22 12.7c-11.4 6.6-15.3 21.3-8.7 32.8 6.6 11.5 21.3 15.4 32.8 8.8l22-12.7-4.6 17.3c-2.3 8.5 2.8 17.3 11.3 19.6 8.5 2.3 17.3-2.8 19.6-11.3l12.9-48.2 48.3-27.9v55.8l-35.3 35.3c-6.2 6.2-6.2 16.4 0 22.6s16.4 6.2 22.6 0l12.7-12.7v25.4c0 13.3 10.7 24 24 24s24-10.7 24-24v-25.4l12.7 12.7c6.2 6.2 16.4 6.2 22.6 0s6.2-16.4 0-22.6l-35.3-35.3v-55.8l67.7 39.1c5.2-13.5 12-26.2 20.3-37.9v-5.8l-64-37 64-37v-55.4z"/></svg>