<svg xmlns="http://www.w3.org/2000/svg" viewBox="0 0 576 512"><path d="M128 240c0 52.9 43.1 96 96 96s96-43.1 96-96-43.1-96-96-96-96 43.1-96 96zm160 0c0 35.3-28.8 64-64 64s-64-28.8-64-64 28.8-64 64-64 64 28.8 64 64zm64-140c0-9.99-9.13-17.8-18.9-15.9l-48.5 9.62L237 23.1c-6-8.88-20.5-8.88-26.5 0l-47.4 70.6-83.3-16.5c-5.38-1.12-10.8 .5-14.4 4.38-3.89 3.75-5.52 9.12-4.52 14.4l16.5 83.4L7.13 227c-4.38 3-7.13 8-7.13 13.2s2.75 10.3 7.12 13.3l70.6 47.4-16.5 83.4c-1 5.25 .62 10.8 4.5 14.4 3.75 3.88 9 5.5 14.4 4.38l83.3-16.5 47.4 70.7c3 4.5 8 7.12 13.3 7.12s10.3-2.75 13.3-7.12l47.4-70.8 19.1 3.79c8.79 1.74 17.1-4.17 18.6-13 1.42-8.42-4.04-16.7-12.4-18.4l-29.7-5.88c-6.5-1.38-12.8 1.5-16.4 6.88l-39.9 59.7-39.9-59.8c-3.62-5.38-10-8.25-16.4-6.75l-70.5 14 14-70.5c1.25-6.3-1.41-12.7-6.75-16.3l-59.7-40 59.7-39.8c5.39-3.59 8.08-10.1 6.83-16.4l-13.9-70.5 70.4 14c6.5 1.38 12.9-1.38 16.5-6.75l39.8-59.8 39.9 59.8c3.6 5.4 9.9 8.1 16.4 6.8l59-11.7c7.41-1.48 12.7-7.98 12.7-15.6zm128 255V80c0-8.75-7.3-16-16.9-16s-15.1 7.25-15.1 16V355c-18.6 6.6-32 24.2-32 45.1 0 26.5 21.5 48 47.1 48s48.9-21.5 48.9-48c0-20.9-13.4-38.5-32-45.1zm64-33V80c0-44.1-35.9-80-80.9-80s-79.1 35.9-79.1 80v242c-20.2 20.9-32 48.9-32 78.1 0 61.8 50.3 112 111 112s113-50.2 113-112c0-29.2-11.7-57.4-32-78.1zm-80 158c-44.1 0-80-35.9-80-80 0-25.5 12.3-48.9 32-63.8V80c0-26.5 21.5-48 48-48s48 21.5 48 48V336c19.8 14.7 32 38.2 32 63.7 0 44.1-35.9 80-80 80z"/></svg>