<svg xmlns="http://www.w3.org/2000/svg" viewBox="0 0 576 512"><path d="M96 32c0-17.7 14.3-32 32-32s32 14.3 32 32v32h128V32c0-17.7 14.3-32 32-32s32 14.3 32 32v32h48c26.5 0 48 21.5 48 48v48H0v-48c0-26.5 21.5-48 48-48h48V32zM448 193c-5.3-.5-10.6-.7-16-.7c-97.2 0-176 78.8-176 176c0 59.5 29.6 112 74.8 144H48c-26.5 0-48-21.5-48-48V192h432h16V193zM576 368c0 79.5-64.5 144-144 144s-144-64.5-144-144s64.5-144 144-144S576 289 576 368zM415 304v64c0 8.8 8.1 16 16 16H480c8.8 0 16-7.2 16-16s-7.2-16-16-16h-32.9v-48c0-8.8-6.3-16-16-16C423 288 415 295 415 304L415 304z"/></svg>