<svg xmlns="http://www.w3.org/2000/svg" viewBox="0 0 675 512"><path d="M648.368 49.699c16.451 63.479 25.534 133.074 25.534 206.064s-9.083 142.586-25.534 206.065c-7.58 29.246-33.916 49.699-64.128 49.699H89.662c-30.212 0-56.549-20.454-64.128-49.699C9.083 398.349 0 328.754 0 255.763S9.083 113.178 25.534 49.7C33.114 20.454 59.45 0 89.662 0h494.58c30.21 0 56.547 20.454 64.126 49.699zm-209.58 324.209V137.62c0-9.136-7.406-16.542-16.543-16.542H125.887c-9.136 0-16.542 7.406-16.542 16.542v236.288c0 9.137 7.406 16.542 16.542 16.542h296.358c9.136 0 16.543-7.405 16.543-16.542zM233.241 188.494h-94.992v21.53h66.9l-52.116 113.01h28.183l52.024-119.632v-14.908zm107.652 54.148c-.186-18.049-4.158-31.894-11.92-41.535-7.762-9.64-18.974-14.46-33.635-14.46-14.661 0-25.889 4.865-33.682 14.599s-11.688 23.994-11.688 42.783v24.764c.185 18.05 4.157 31.91 11.92 41.582 7.761 9.672 18.973 14.508 33.634 14.508 14.847 0 26.12-4.927 33.82-14.784 7.7-9.857 11.55-24.087 11.55-42.691v-24.766zm-26.705 29.54c-.124 10.548-1.633 18.372-4.527 23.5-2.896 5.113-7.608 7.67-14.139 7.67-6.591 0-11.38-2.666-14.368-7.994-2.987-5.344-4.482-13.49-4.482-24.471v-32.742c.186-10.304 1.771-17.865 4.759-22.717 2.987-4.836 7.623-7.254 13.907-7.254 6.468 0 11.228 2.542 14.277 7.624 3.049 5.097 4.574 13.214 4.574 24.38v32.003zm45.173-54.406c0 7.922 2.309 14.265 6.926 19.027 4.617 4.763 10.765 7.146 18.444 7.146 7.63 0 13.73-2.37 18.299-7.108s6.854-10.972 6.854-18.7v-5.248c0-8.069-2.333-14.46-7-19.174-4.665-4.714-10.765-7.071-18.298-7.071s-13.621 2.369-18.263 7.107c-4.641 4.738-6.962 10.997-6.962 18.773v5.248zm12.758-4.957c0-4.958 1.13-8.76 3.39-11.41 2.261-2.648 5.286-3.973 9.077-3.973 3.84 0 6.89 1.337 9.149 4.01 2.26 2.673 3.39 6.367 3.39 11.081v5.832c-.048 4.714-1.178 8.384-3.39 11.009-2.212 2.624-5.213 3.937-9.004 3.937-3.888 0-6.962-1.337-9.223-4.01-2.26-2.673-3.39-6.39-3.39-11.153v-5.323zm182.82-86.777l-64.563 64.56h38.01l26.552-26.551 26.552 26.551h38.008l-64.56-64.56zm-.004 259.444l64.562-64.56h-38.01l-26.552 26.551-26.551-26.551h-38.009l64.56 64.56z"/></svg>