<svg xmlns="http://www.w3.org/2000/svg" viewBox="0 0 675 512"><path d="M584 40.3h0c11.8 0 22.2 8.01 25.1 19.5 16.1 62.1 24.2 128 24.2 196s-8.16 134-24.3 196c-2.96 11.5-13.3 19.5-25.1 19.5H89.9c-11.8 0-22.2-8.01-25.1-19.5-16.1-62.1-24.2-128-24.2-196s8.16-134 24.3-196c2.96-11.4 13.3-19.5 25.1-19.5H584m0-40.3H89.9C59.6 .013 33.3 20.5 25.7 49.7 9.28 113 .198 183 .198 256s9.08 143 25.5 206c7.54 29.3 33.9 49.7 64.1 49.7H584c30.2-.013 56.6-20.5 64.1-49.7 16.4-63.5 25.5-133 25.5-206s-9.08-143-25.5-206C641 20.4 615 0 584 0h0zm-162 411H126c-20.2 0-36.7-16.5-36.7-36.7V138c0-20.2 16.5-36.7 36.7-36.7h296c20.2 0 36.7 16.5 36.7 36.7v216h.054v20.2c0 20.2-16.5 36.7-36.7 36.7zm-293-40.3h289V141H130v229zm121-182H156v21.5h66.9l-52.1 113h28.2l52-120-.148-14.9zm98.2 54.2c-.188-18.1-4.17-31.9-11.9-41.5-7.75-9.64-19-14.4-33.6-14.5-14.7 0-25.9 4.86-33.7 14.6-7.79 9.73-11.7 24-11.7 42.8v24.8c.188 18 4.17 31.9 11.9 41.6 7.75 9.66 19 14.5 33.6 14.5s26.1-4.93 33.8-14.8c7.7-9.85 11.5-24.1 11.5-42.7v-24.8zm-26.7 29.6c-.121 10.5-1.63 18.4-4.53 23.5s-7.62 7.67-14.1 7.66c-6.58 0-11.4-2.69-14.4-8.06-3-5.38-4.49-13.5-4.49-24.5v-32.7c.188-10.3 1.77-17.9 4.76-22.7s7.63-7.26 13.9-7.26 11.2 2.54 14.3 7.62 4.57 13.2 4.57 24.4v32zm34.4-54.4c0 7.93 2.31 14.3 6.92 19 4.61 4.76 10.8 7.14 18.4 7.15 7.63 0 13.7-2.37 18.3-7.11s6.85-11 6.85-18.7v-5.24c0-8.06-2.34-14.5-7-19.2s-10.8-7.08-18.3-7.07c-7.54 0-13.6 2.37-18.3 7.11s-6.95 11-6.96 18.8v5.2zm12.8-4.96c0-4.96 1.13-8.76 3.39-11.4 4.65-5.03 12.5-5.35 17.5-.699 .242 .228 .47 .457 .699 .699 2.27 2.69 3.4 6.38 3.4 11.1v5.83c-.054 4.7-1.18 8.37-3.4 11-2.23 2.63-5.55 4.09-9 3.94-3.53 .148-6.93-1.33-9.22-4.03-2.26-2.69-3.39-6.38-3.39-11.2v-5.27zm176-77.3l-32.1 32.1c-8.47 8.47-2.47 22.9 9.5 22.9h0c3.56 0 6.97-1.41 9.5-3.94l22.6-22.6 22.8 22.7c2.51 2.5 5.93 3.91 9.47 3.91h0c12 0 17.9-14.5 9.47-22.9l-32.3-32.2c-5.25-5.23-13.7-5.23-19 .013zm19 240l32.2-32.2c8.41-8.41 2.46-22.8-9.43-22.8h0c-3.53 0-6.93 1.41-9.43 3.91l-22.6 22.6-22.6-22.6c-2.5-2.5-5.9-3.91-9.43-3.91h-.336c-11.9 0-17.8 14.4-9.45 22.8l32.2 32.2c5.24 5.25 13.8 5.25 19 0z"/></svg>