<svg xmlns="http://www.w3.org/2000/svg" viewBox="0 0 586 512"><path d="M101 183H46.1c-25.2 0-45.7 20.5-45.7 45.7v238c0 25.3 20.5 45.7 45.7 45.7h54.9c25.3 0 45.7-20.5 45.7-45.7V229c0-25.3-20.5-45.7-45.7-45.7zm9.14 283c0 5.03-4.1 9.14-9.14 9.14H46.1c-5.04 0-9.14-4.11-9.14-9.14V229c0-5.03 4.1-9.14 9.14-9.14h54.9c5.04 0 9.14 4.11 9.14 9.14v238zm475-250c0-38.7-31.5-70.3-70.3-70.3h-117c13.7-30.9 21.5-61.1 21.5-76.9 .08-34.1-26.5-69.3-70.8-69.3-47.1 0-57.9 33.3-67.6 62.6-31.6 96.3-98 112-98 139 0 10.4 8.57 18.3 18.3 18.3 4.69 0 9.37-1.83 12.9-5.37 60.2-60.6 76.6-64.1 101-140 10.5-31.8 13.8-37.5 32.9-37.5 23.6 0 34.2 19.2 34.2 32.8 0 11.5-10.2 50.2-30.4 86.3-1.57 2.78-2.34 5.86-2.34 8.95 .034 10.9 8.95 18.3 18.3 18.3h147c18.6 0 33.7 15.1 33.7 33.7 0 17.5-13.8 32.2-31.4 33.4-9.67 .663-17 8.74-17 18.2 0 13.9 13.8 14.7 13.8 35 0 16.2-11.6 30.1-27.5 33-6.61 1.23-14.9 7.34-14.9 18s7.74 12.3 7.74 26.9c0 35.5-36 25.3-36 49.2 0 4.03 1.35 5.86 1.35 11.4-.023 18.6-15.1 33.7-33.7 33.7h-63.5c-93.7 0-124-73.2-146-73.2-10.1 0-18.3 8.22-18.3 18.2-1.03 18.7 73.8 91.5 164 91.5h63.6c38.8 0 70.3-31.5 70.3-70.3 21.2-12.4 34.7-35.4 34.7-60.6 0-5.49-.674-11-1.98-16.3 22.1-12 36.6-35.4 36.6-61.6 0-8.25-1.46-16.4-4.29-24 23.2-11.5 38.9-35.4 38.9-62.6z"/></svg>