<svg xmlns="http://www.w3.org/2000/svg" viewBox="0 0 586 512"><path d="M359 1.07c29.7 5.94 49 34.9 43.1 64.6l-2.63 13c-6.06 30.5-17.3 59.5-32.9 85.9h165c30.3 0 54.9 24.6 54.9 54.9s-22.3 52.6-50.6 54.7c8.8 9.71 14.1 22.6 14.1 36.7 0 26.7-19.2 49-44.5 53.8 5.03 8.23 7.89 18.1 7.89 28.5 0 24.3-15.9 45-37.8 52.1 .8 3.77 1.26 7.77 1.26 11.9 0 30.3-24.6 54.9-54.9 54.9h-84c-21.7 0-42.9-6.4-60.9-18.4l-44-29.4c-30.5-20.3-48.8-54.6-48.8-91.3v-127c0-33.4 15.2-64.8 41.1-85.7l8.46-6.74c30.3-24.2 51-58.3 58.5-96.2l2.63-13c5.94-29.7 34.9-49 64.6-43.1h0zM37 183H110c20.2 0 36.6 16.3 36.6 36.6v256c0 20.2-16.3 36.6-36.6 36.6H37c-20.2 0-36.6-16.3-36.6-36.6V219c0-20.2 16.3-36.6 36.6-36.6z"/></svg>