<svg xmlns="http://www.w3.org/2000/svg" viewBox="0 0 448 512"><path d="M432 48c8.8 0 16-7.3 16-16V16c0-8.8-7.2-16-16-16H16C7.3 0 0 7.3 0 16v16c0 8.8 7.3 16 16 16h16v159C11.8 221 0 237 0 256c0 61 33.3 115 84.1 150l-19.6 64.4C59.2 491 74.5 512 96 512h256c21.5 0 36.9-20.8 30.6-41.3L363 406c51.7-35.2 85-90.3 85-150c0-18-11.8-34.9-32-49.3V48H432zM96 72c0-4.4 3.6-8 8-8h48c4.4 0 8 3.6 8 8v16c0 4.4-3.6 8-8 8h-48c-4.4 0-8-3.6-8-8V72zM224 288c-88.4 0-160-14.3-160-32c0-17.7 71.6-32 160-32s160 14.3 160 32C384 274 312 288 224 288z"/></svg>