<svg xmlns="http://www.w3.org/2000/svg" viewBox="0 0 448 512"><path d="M96 80c0-8.8 7.2-16 16-16h32c8.8 0 16 7.2 16 16c0 8.8-7.2 16-16 16h-32C103 96 96 88.8 96 80zM448 256c0 52.2-24.5 99.5-64 134V464c0 26.5-21.5 48-48 48H112c-26.5 0-48-21.5-48-48v-73.9C24.5 356 0 308 0 256c0-17.1 12.1-31.5 32-43.9V32H16C7.2 32 0 24.8 0 16C0 7.2 7.2 0 16 0h416c8.8 0 16 7.2 16 16c0 8.8-7.2 16-16 16h-16v180C436 225 448 239 448 256zM64 32v166c85.2-28.9 235-28.9 320 0V32H64zM352 413c-36.3 21.8-80.4 34.7-128 34.7c-47.6 0-91.7-12.9-128-34.7V464c0 8.8 7.2 16 16 16h224c8.8 0 16-7.2 16-16V413zM407 304c-42.7 21.1-113 32-183 32S83.6 325 40.9 305C65.4 369 138 416 224 416C310 416 383 369 407 304zM416 256c0-16.9-72.9-48-192-48S32 239 32 256c0 16.9 72.9 48 192 48S416 273 416 256z"/></svg>