<svg xmlns="http://www.w3.org/2000/svg" viewBox="0 0 577 512"><path d="M317.841 140.7c0 .6 0 1.2-.1 1.8-.1 1.2-.3 2.4-.7 3.499-.4 1.4-1 2.7-1.699 3.9-.7 1.199-1.6 2.299-2.6 3.298-.8.8-1.7 1.5-2.599 2.1-3 2-6.399 3-9.998 3h-17.597v101.58a21.932 21.932 0 01-21.995 21.995H216.36c-12.197 0-21.995-9.798-21.995-21.895v-48.59c0-9.699-7.899-17.597-17.597-17.597h-35.793c-9.698 0-17.597 7.898-17.597 17.596v48.49a21.932 21.932 0 01-21.995 21.996H57.292a21.932 21.932 0 01-21.995-21.995v-101.48H17.7c-3.5 0-6.999-1-9.998-3-.9-.6-1.8-1.3-2.6-2.1-1-1-1.899-2.1-2.599-3.299-.7-1.2-1.3-2.5-1.7-3.9-.3-1.099-.6-2.299-.7-3.498-.1-.7-.1-1.3-.1-1.9-.1-5 1.9-9.798 5.5-13.198l5.898-5.099L146.775 4.426c.7-.7 1.4-1.3 2.2-1.8 2.999-1.899 6.398-2.799 9.898-2.599 3.499-.2 6.998.7 9.898 2.6.8.5 1.5 1.2 2.2 1.9l135.373 117.976 5.899 5.1c3.699 3.299 5.698 8.098 5.598 13.097zm253.351 216.558l-5.899-5.1L429.92 234.183c-.7-.7-1.4-1.3-2.2-1.9-3-1.9-6.399-2.8-9.898-2.6-3.5-.2-6.999.7-9.898 2.6-.8.5-1.5 1.2-2.2 1.9L270.351 352.159l-5.9 5.099c-3.598 3.399-5.598 8.198-5.498 13.197 0 .6 0 1.2.1 1.8.1 1.2.3 2.4.7 3.499.4 1.4 1 2.7 1.7 3.9.7 1.199 1.6 2.299 2.599 3.299.8.8 1.7 1.5 2.6 2.1 2.999 1.999 6.398 2.999 9.998 2.999h17.696l-.2 101.78c0 12.197 9.798 21.995 21.896 21.995h44.191c12.198.1 21.996-9.698 22.096-21.895V441.242c0-9.699 7.898-17.597 17.596-17.597h35.594c9.698 0 17.596 7.898 17.596 17.596v48.59a21.932 21.932 0 0021.996 21.996h44.191c12.198 0 21.996-9.898 21.996-21.995v-101.68h17.696c3.6 0 6.999-1 9.998-3 .9-.6 1.8-1.3 2.6-2.1 1-1 1.9-2.099 2.6-3.299.7-1.2 1.3-2.5 1.7-3.899.299-1.1.599-2.3.699-3.5.1-.6.1-1.2.1-1.799.2-5.099-1.9-9.798-5.499-13.297zM531.1 179.192C522.7 84.211 446.516 8.426 351.435.627c-8.298-.7-15.497 5.4-16.297 13.598 0 .4-.1.9-.1 1.3a14.974 14.974 0 0013.897 14.996c79.685 6.6 143.672 69.487 151.97 148.671H478.01c-5.499.1-9.998 4.6-9.898 10.098 0 2.2.8 4.4 2.2 6.1l38.792 47.79c3.5 4.299 9.798 4.899 14.097 1.5.5-.4 1-.9 1.5-1.5l38.793-47.79c3.499-4.3 2.799-10.599-1.4-14.098-1.8-1.5-4-2.2-6.299-2.2H531.1z"/></svg>