<svg xmlns="http://www.w3.org/2000/svg" viewBox="0 0 577 512"><path d="M161 34.1l110 95.8h-15.5v125h-28.5v-40.9c.576-25.8-22.2-48.7-48.1-48.2-38.3-2.02-81.5-1.18-84.1 48.1h0v40.9h-28.5v-125h-15.3L161 34.1M162 .03c-4.71-.242-9.68 1.02-13.1 4.44 0 0-143 124-143 124-8.15 7.37-7.21 22.2 2.22 28.1 5.8 4.98 21 2.43 28 3.03v103c0 12.3 9.9 22.2 22.2 22.2 76.1 2.14 66.7-.061 66.9-71.2h0c0-9.8 7.98-17.8 17.8-17.8h36.2c9.8 0 17.8 7.98 17.8 17.8v49c.687 32.7 46.7 19.8 67 22.2 12.3 0 22.2-9.9 22.2-22.2l-.101-103c7-.636 22 1.92 27.9-3.03 9.46-5.96 10.3-20.7 2.22-28.2C306 124 174-1.87 162 .03h0zm254 260l110 95.7h-15.3v125h-28.5v-40.9h0c-2.64-49.2-45.8-50.1-84.1-48.1h0c-26-.788-48.8 23.3-48 48.1 0 .798 0 40.9 0 40.9h-28.5c.02-22.2 .121-104 .101-125h-15.6l110-95.7m-.909-34c-11.9-2.11-145 124-154 129-8.15 7.37-7.2 22.2 2.22 28.1 5.84 4.94 21 2.46 28 3.03l-.202 103c0 12.3 9.9 22.2 22.2 22.3 20.4-2.39 66.1 10.4 66.9-22.3 0 0 0-49 0-49 0-9.8 7.98-17.8 17.8-17.8h36c9.8 0 17.8 7.98 17.8 17.8h0c.293 71.6-9.48 73.1 66.9 71.2 12.3 0 22.2-10 22.2-22.2 0 0 0-103 0-103 6.96-.687 22.1 1.96 28-3.03 9.47-5.92 10.3-20.7 2.12-28.1-11.9-6.28-141-132-156-129h0zm115-44.9C522 85.2 445 8.61 349 .737c-8.9-.798-16.4 6.29-16.5 15.1h0c0 7.98 6.06 14.5 14 15.1 80.5 6.67 145 70.2 153 150-8.72 1.19-33.6-5.01-33.1 10.2-3.47 2.34 40.2 51.8 41.4 54.4 3.98 4.97 11.8 4.95 15.8 0 0 0 39.2-48.3 39.2-48.3 5.38-6.26 .485-16.8-7.78-16.5 0 0-25 0-25 0z"/></svg>