<svg xmlns="http://www.w3.org/2000/svg" viewBox="0 0 509 512"><path d="M508 290c0 90.3-73.1 163-163 163c-30.8 0-59.6-8.53-84.3-23.4V246l49.7-28.6c7.23-4.12 9.74-13.4 5.52-20.6l0 0c-4.12-7.23-13.4-9.74-20.6-5.52l-34.6 20v-41.5c0-8.33-6.73-15.1-15.1-15.1h0c-8.33 0-15.1 6.73-15.1 15.1v105l-37.8-20.2c-7.33-3.92-16.5-1.1-20.4 6.22v0c-3.92 7.33-1.1 16.5 6.22 20.4l52 27.8c0 0 0 89.7 0 97.8c-22 10-35.3 13.4-67.4 13.5C78.2 423 .006 347 .006 257c0-75.7 51.4-139 121-158C138 41.9 191 0 253 0c74.4 0 135 59.2 137 133C458 153 508 216 508 290zM231 512h30.1v-81.6c-10.9-6.63-21.1-14.5-30.1-23.4V512z"/></svg>