<svg xmlns="http://www.w3.org/2000/svg" viewBox="0 0 509 512"><path d="M390 133C388 59.2 327 0 253 0c-62.5 0-115 41.9-132 99C51.4 118 .006 181 .006 257c0 88.6 75.6 163 159 163c1.41 0 2.91 0 4.32-.1c32.1-.201 45.4-3.41 67.4-13.5v0c-1.31 .602-1.1 5.52 0 13v92.1h0v0v0H253c0 .201 .1 .301 .1 .301s0-.1 0-.301h7.83v-81.6c24.6 14.9 53.4 23.4 84.3 23.4c90.3 0 163-73.1 163-163C508 216 458 153 390 133zM439 384c-25.2 25.2-58.6 39.1-94.2 39.1c-24.3 0-48.1-6.63-68.7-19.1l-15.6-9.44V246l49.7-28.6c7.23-4.12 9.74-13.4 5.52-20.6l0 0c-2.81-4.82-7.83-7.53-13.1-7.53c-2.51 0-5.12 .602-7.53 2.01l-34.6 20v-41.5c0-8.33-6.73-15.1-15.1-15.1c-8.33 0-15.1 6.73-15.1 15.1v105l-37.8-20.2c-2.31-1.2-4.72-1.81-7.13-1.81c-5.42 0-10.5 2.91-13.3 7.93c-3.92 7.33-1.1 16.5 6.22 20.4l52 27.8c0 0 0 36.2 0 64.7l-12.5 5.72c-17.9 8.23-27.3 10.6-55 10.7l-.402 0l-.402 0c-1.1 0-2.31 .1-3.41 .1c-32 0-64.7-14.4-89.3-39.5c-12.3-12.5-22.1-26.9-28.9-42.8c-7.03-16.5-10.6-33.6-10.6-51c0-60.3 40.7-113 98.9-129l16.5-4.42l4.72-16.4c6.32-21.8 19.8-41.5 37.9-55.4C207 37.6 229 30.1 253 30.1c28 0 54.5 10.7 74.6 30.3c20.1 19.5 31.5 45.7 32.3 73.6l.602 22l21.2 6.02c27.3 7.83 51.8 24.6 69.2 47.2c17.9 23.4 27.4 51.4 27.4 80.9C478 326 465 359 439 384z"/></svg>