<svg xmlns="http://www.w3.org/2000/svg" viewBox="0 0 587 512"><path d="M293 375c-15.1 0-26.4 12.3-26.4 27.4s12.3 27.4 26.4 27.4c15.1 0 26.4-12.3 26.4-27.4 1.03-15.2-11.2-27.4-26.4-27.4zm0-45.7c10.1 0 17.3-8.18 17.3-18.3V146c0-10.1-8.17-18.3-17.3-18.3s-18.3 8.23-18.3 18.3v165c0 10.1 8.23 18.3 18.3 18.3zm284 88.3L348 31.3C337 11.7 316 .034 293 0c-23.1 0-43.8 11.7-55.4 31.3L9.1 418c-11.5 19.4-11.7 42.7-.48 62.3 11.6 20.2 32.4 32.2 55.9 32.2H522c23.4 0 44.3-12 55.8-32.2 11.2-19.6 11-42.9-.583-62.3zm-32.2 43.2c-3.89 9.6-12.9 14.7-24 14.7H64.5c-10.2 0-19.2-5.12-24.1-13.7-4.66-8.18-4.58-17.5 .183-25.6L269 49.9c4.91-8.34 13.8-13.3 23.9-13.3 0 0-.023 0 0 0 10 .023 18.9 4.98 23.8 13.3l228 386c3.82 8.07 4.96 17.3-.754 24.5z"/></svg>