<svg xmlns="http://www.w3.org/2000/svg" viewBox="0 0 448 512"><path d="M447.214 286.397v161.715c0 35.238-28.65 63.888-63.888 63.888H63.888C28.65 512 0 483.35 0 448.112V286.397c0-35.238 28.65-63.888 63.888-63.888H85.15v-79.061C85.15 64.387 149.537 0 228.598 0s143.448 64.387 143.448 143.448c0 17.669-14.275 31.944-31.944 31.944s-31.944-14.275-31.944-31.944c0-43.923-35.637-79.56-79.56-79.56s-79.56 35.637-79.56 79.56v79.06h234.288c35.238 0 63.888 28.65 63.888 63.889zM255.55 335.31c0-17.67-14.275-31.944-31.944-31.944s-31.944 14.275-31.944 31.944v63.887c0 17.67 14.275 31.944 31.944 31.944s31.944-14.275 31.944-31.944v-63.887z"/></svg>