<svg xmlns="http://www.w3.org/2000/svg" viewBox="0 0 461 512"><path d="M395 214H132v-81.1c0-56.1 45.6-102 102-102s102 45.6 102 102c0 8.53 6.89 15.4 15.4 15.4s15.4-6.89 15.4-15.4C366 59.5 307 0 234 0S101 59.5 101 133v81.1h-35C29.7 214 .203 243 .203 280v167c0 36.3 29.5 65.8 65.8 65.8H395c36.3 0 65.8-29.5 65.8-65.8v-167c0-36.3-29.5-65.8-65.8-65.8zm35 232c0 19.2-15.7 35-35 35H66c-19.2 0-35-15.7-35-35v-167c0-19.2 15.7-35 35-35H395c19.2 0 35 15.7 35 35v167zm-182-116v65.8c0 9.66-7.81 17.5-17.5 17.5s-17.5-7.81-17.5-17.5v-65.8c0-9.66 7.81-17.5 17.5-17.5s17.5 7.81 17.5 17.5z"/></svg>