<svg xmlns="http://www.w3.org/2000/svg" viewBox="0 0 510 512"><path d="M494 82.3h-116c-14.4 0-26.1-11.7-26.1-26.1v-.1c0-30.9-25.2-56.1-56.1-56.1s-56.1 25.2-56.1 56.1v19.4c-33.9 .2-61.4 27.8-61.4 61.8v31.8h-2.69c-8.28 0-15 6.69-15 15s6.69 15 15 15h159c8.28 0 15-6.69 15-15s-6.69-15-15-15h-2.69v-31.8c0-34-27.7-61.8-61.8-61.8h-.1v-19.4c0-14.4 11.7-26.1 26.1-26.1s26.1 11.7 26.1 26.1v.1c0 30.9 25.2 56.1 56.1 56.1h116c8.28 0 15-6.69 15-15s-6.79-15-15.1-15zm-26.8 175c0 8.28-6.69 15-15 15h-50.5c-8.28 0-15-6.69-15-15s6.69-15 15-15h50.5c8.28 0 15 6.79 15 15zm-30.9 98.2c-2.69 5.19-7.88 8.18-13.4 8.18-2.3 0-4.59-.499-6.79-1.6l-40.2-20.6c-7.39-3.79-10.3-12.8-6.49-20.2 3.79-7.39 12.8-10.3 20.2-6.49l40.2 20.6c7.39 3.69 10.3 12.7 6.49 20.1zm-66.3-161c-4.29-7.09-2.2-16.3 4.89-20.6l38.6-23.9c7.09-4.29 16.3-2.2 20.6 4.89 4.29 7.09 2.2 16.3-4.89 20.6l-38.6 23.9c-2.5 1.5-5.19 2.2-7.88 2.2-4.89 0-9.78-2.5-12.7-7.09zm-86.9 74.3c-8.28 0-15-6.69-15-15v-43.8h29.9v43.8c0 8.28-6.69 15-15 15zm-56.7 0c-8.28 0-15-6.69-15-15v-43.8h29.9v43.8c0 8.28-6.69 15-15 15zm-184-14.6c0-8.28 6.69-15 15-15h50.5c8.28 0 15 6.69 15 15s-6.69 15-15 15H57.3c-8.28 0-15-6.79-15-15zm30.9-98.2c2.69-5.19 7.88-8.18 13.4-8.18 2.3 0 4.59 .499 6.79 1.6l40.2 20.6c7.39 3.79 10.3 12.8 6.49 20.2s-12.8 10.3-20.2 6.49l-40.2-20.5c-7.39-3.79-10.3-12.8-6.49-20.2zm66.3 161c4.29 7.09 2.2 16.3-4.89 20.6l-38.6 23.9c-7.09 4.29-16.3 2.2-20.6-4.89-4.29-7.09-2.2-16.3 4.89-20.6l38.6-23.9c2.5-1.5 5.19-2.2 7.88-2.2 4.89 0 9.88 2.5 12.7 7.09zm195-4.69H175c-8.28 0-15 6.69-15 15s6.69 15 15 15h2.69v31.8c0 34 27.7 61.8 61.8 61.8h.1v19.4c0 14.4-11.7 26.1-26.1 26.1s-26.1-11.7-26.1-26.1v-.1c0-30.9-25.2-56.1-56.1-56.1H15.5c-8.28 0-15 6.69-15 15s6.69 15 15 15h116c14.4 0 26.1 11.7 26.1 26.1v.1c0 30.9 25.2 56.1 56.1 56.1s56.1-25.2 56.1-56.1v-19.4c33.9-.2 61.4-27.8 61.4-61.8v-31.8h2.69c8.28 0 15-6.69 15-15s-6.69-15-15-15z"/></svg>