<svg xmlns="http://www.w3.org/2000/svg" viewBox="0 0 498 512"><path d="M15.3 103c-6.32 0-12.1-3.98-14.3-9.9-2.93-7.76 1.2-16.6 9.21-19.8L134 24c.841-.328 1.7-.59 2.59-.764L250 .306c.993-.197 2.01-.306 3.02-.306 2.28 0 4.57 .524 6.63 1.51l108 51.8 47-17.4-7.04-19c-.688-1.87 .011-3.31 .502-4 .393-.568 1.54-1.9 3.54-1.9 .262 0 .524 .022 .786 .066l70 11.9c2.24 .382 3.1 2.07 3.36 2.78 .262 .71 .721 2.55-.731 4.3l-45.3 54.7c-1.08 1.31-2.41 1.58-3.33 1.58-1.48 0-3.35-.753-4.13-2.85l-7.04-19-53.1 19.7c-1.7 .633-3.49 .95-5.32 .95-2.28 0-4.57-.524-6.63-1.51L251 31.3l-107 21.6L20.9 102c-1.8 .71-3.69 1.07-5.6 1.07zm142 58.9c0-9.61-7.86-17.5-17.5-17.5s-17.5 7.86-17.5 17.5V495c0 9.61 7.86 17.5 17.5 17.5s17.5-7.86 17.5-17.5V162zm114-29.5c0-9.61-7.86-17.5-17.5-17.5s-17.5 7.86-17.5 17.5V495c0 9.61 7.86 17.5 17.5 17.5s17.5-7.86 17.5-17.5V132zm114 57.9c0-9.61-7.86-17.5-17.5-17.5s-17.5 7.86-17.5 17.5V495c0 9.61 7.86 17.5 17.5 17.5s17.5-7.86 17.5-17.5V190zm114-29.5c0-9.61-7.86-17.5-17.5-17.5s-17.5 7.86-17.5 17.5V495c0 9.61 7.86 17.5 17.5 17.5s17.5-7.86 17.5-17.5V160zM43.7 205c0-9.61-7.86-17.5-17.5-17.5s-17.5 7.86-17.5 17.5V495c0 9.61 7.86 17.5 17.5 17.5s17.5-7.86 17.5-17.5V205z"/></svg>