<svg xmlns="http://www.w3.org/2000/svg" viewBox="0 0 518 512"><path d="M69.3 225v252c0 19.1-15.4 34.5-34.5 34.5h0c-19.1 0-34.5-15.4-34.5-34.5V225c0-14.4 11.3-29.6 25.2-33.2 23.1-5.93 43.8 11.2 43.8 33.3zm43.1-43.1V477c0 19.1 15.4 34.5 34.5 34.5s34.5-15.4 34.5-34.5V182c0-19.1-15.4-34.5-34.5-34.5s-34.5 15.4-34.5 34.5zm181-28c0-19.1-15.4-34.5-34.5-34.5s-34.5 15.4-34.5 34.5V477c0 19.1 15.4 34.5 34.5 34.5s34.5-15.4 34.5-34.5V154zm43.1 58.2v265c0 19.1 15.4 34.5 34.5 34.5s34.5-15.4 34.5-34.5V212c0-19.1-15.4-34.5-34.5-34.5s-34.5 15.4-34.5 34.5zm181-30.2c0-19.1-15.4-34.5-34.5-34.5s-34.5 15.4-34.5 34.5V477c0 19.1 15.4 34.5 34.5 34.5s34.5-15.4 34.5-34.5V182zm-31.4-159l-69.2-11.7c-8.19-1.4-14.8 6.58-12 14.3l4.74 12.7-37.8 14L268 2.12c-4.2-2.05-9.05-2.59-13.6-1.72l-112 22.6c-1.29 .216-2.48 .647-3.66 1.08L16.6 72.4c-11 4.31-16.9 16.7-12.7 27.8 3.23 8.62 11.5 14 20.2 14 2.59 0 5.28-.539 7.87-1.51l121-47.8 103-20.8 106 50.8c5.28 2.59 11.3 2.8 16.8 .755l46.3-17.2 4.74 12.7c2.91 7.76 13.2 9.49 18.4 3.13l44.7-54.1c5.28-6.36 1.62-16.1-6.58-17.5z"/></svg>