<svg xmlns="http://www.w3.org/2000/svg" viewBox="0 0 640 512"><path d="M224 256c70.7 0 128-57.3 128-128S294.7 0 224 0S96 57.3 96 128s57.3 128 128 128zm0-224c52.9 0 96 43.1 96 96c0 52.9-43.1 96-96 96s-96-43.1-96-96c0-52.9 43.1-96 96-96zM394.3 486.4c-3-4-7.7-6.4-12.7-6.4H34.7c-1.5 0-2.7-1.2-2.7-2.7C32 399.4 95.4 336 173.3 336H274.7c9.5 0 18.8 1.1 27.7 3c10.3 2.2 19.9-6.2 18.1-16.7c0-.1 0-.2 0-.4c-.6-7.2-5.9-13.1-13-14.5c-10.1-2.2-21.3-3.4-32.8-3.4H173.3C77.5 304-.1 381.6 0 477.4c0 19 15.6 34.6 34.7 34.6H382c13 0 20.4-14.8 12.7-25.2l-.3-.4zm228-215.3l-115.1-45c-3.6-1.4-7.5-2.1-12.1-2.1s-7.5 .7-11.1 2.1l-114.2 45c-10.8 4.1-17.8 14-17.8 24c0 111.6 68.8 188.8 132.9 213.9c3.5 2.3 7.3 3 10.2 3s7.6-.7 11.2-2.1c52.1-20 133.7-89.4 133.7-214.8c0-10-7-19.9-17.7-24zM480 472c-48.3-26.8-94.6-87.6-96-172.1l96-37.5V472zm16.6 8c-.1 0 0 0 0 0c-.1 0 0 0 0 0zm15.4-7.5V262.4l96 37.5c-1.5 94.9-57.1 150.2-96 172.6z"/></svg>