<svg xmlns="http://www.w3.org/2000/svg" viewBox="0 0 582 512"><path d="M515 512c-5.05 0-9.9-2.54-12.7-6.97-3.76-5.88-3.01-13.6 1.8-18.6 4.11-4.29 6.19-9.91 6.19-16.7 0-1.5-.766-14.7-25.7-43.8-25 29.2-25.8 42.3-25.8 43.8 0 6.66 2.14 12.4 6.19 16.7 4.82 5.04 5.56 12.7 1.8 18.6-3.76 5.88-11 8.42-17.6 6.15-38.5-13.2-61.4-48.5-61.4-94.4 0-38.2 33.6-96.5 81.6-142 8.38-7.97 21.6-8.03 30.1-.121l.091 .091c48.1 45.3 81.7 104 81.7 142 .111 45.9-22.8 81.2-61.3 94.4-1.61 .554-3.27 .816-4.9 .816zm-30.5-210c-41.8 41.3-66.5 89.8-66.5 114 0 17.5 4.01 32.3 11.7 43.7 3.63-16.7 16.5-37.4 38.5-61.6 .181-.202 .363-.393 .554-.574l.302-.302c.181-.171 .363-.343 .544-.514 9.03-8.1 22.7-7.63 31.1 1.06 .101 .101 .202 .212 .292 .312 22 24.2 34.9 44.8 38.6 61.6 7.61-11.4 11.6-26.1 11.5-43.6 0-24.1-23.3-71.5-66.5-114zm5.74-5.54s0 0-.01 .01c0 0 0 0 .01-.01zM90.6 240h-26.2c-.343 0-.685-.01-1.03-.03-8.97-.615-17.1-5.03-22.4-12.1-.151-.202-.302-.413-.443-.625l-7.26-10.9c-.06-.091-.121-.181-.181-.272-2.85-4.49-4.47-9.72-4.67-15.1 0-.191-.01-.373-.01-.564v-16.3c0-8.35 6.77-15.1 15.1-15.1H111c8.35 0 15.1 6.77 15.1 15.1v16.3c0 .191 0 .383-.01 .585-.202 5.19-1.76 10.3-4.52 14.8-.111 .181-.222 .353-.333 .524l-7.26 10.9c-.151 .232-.312 .464-.484 .685-5.45 7.27-13.7 11.7-22.7 12.1-.232 .01-.454 .02-.685 .02zm-25.3-30.2h24.5l6.53-9.8c.02-.05 .04-.101 .05-.131v-.655H58.7v.716l6.56 9.85s.03 .01 .05 .02zm57.7-56.1c3.68-8 9.22-16.1 12.8-20.1 12.4-14.1 19.2-32.2 19.2-51-.101-42.6-34.9-77.1-77.6-77-18.8 0-36.9 6.79-50.9 19.1C-5.5 53.3-8.71 102 19.3 134c3.53 4.04 9.04 12.1 12.8 20.2 3.5 7.58 12.5 10.9 20.1 7.39 7.58-3.5 10.9-12.5 7.39-20.1-5.37-11.6-12.8-22-17.5-27.4-17-19.4-15-49.1 4.42-66.2 8.49-7.47 19.5-11.6 30.9-11.6h.121c26 0 47.2 21 47.3 46.8 0 11.4-4.14 22.4-11.7 31-4.77 5.44-12.2 15.9-17.5 27.4-3.49 7.59-.171 16.6 7.42 20.1 2.05 .937 4.19 1.39 6.31 1.39 5.72 0 11.2-3.27 13.7-8.8zm259 207c-1.69-5.04-4.02-9.8-6.88-14.2l.03-.05c-10.5-16-28.3-26.9-48.5-27.9-.141 0-.272-.01-.413-.02-.776-.04-1.56-.071-2.35-.071h-.595s-.474 0-1.35 0c-9.42 0-65 .04-65.7 .071-.141 0-.272 .01-.413 .02-20.3 1.06-38 11.9-48.5 27.9l.03 .05c-6.38 9.75-10.1 21.4-10.1 33.9v87.4c0 5.23-4.24 9.47-9.47 9.47H108c-5.22 0-9.47-4.25-9.47-9.45v-192c0-11.1-9.02-20.2-20.2-20.2H19.9c-8.12 0-14.7 6.59-14.7 14.7h0c0 8.12 6.59 14.7 14.7 14.7h48.3l-.101 183c0 21.9 17.7 39.7 39.7 39.7h79.4c21.9 0 39.7-17.7 39.7-39.7v-87.4c0-17.5 14.2-31.7 31.7-31.7h64.1c14 0 25.9 9.04 30.1 21.6 2.06 6.1 7.84 10.2 14.3 10.2h0c10.3 0 17.7-10 14.4-19.7zM116 241m453-9.29L313 8.06c-6.95-7.06-14.9-8.06-21.9-8.06s-14.9 1.01-21.9 7.96l-102 89.8c-3.13 2.76-4.94 6.74-4.94 10.9h0c0 12.4 14.5 19.1 23.9 11.1l26.4-22.3L289 30.8c.181-.161 .363-.323 .544-.494 .353-.02 .837-.04 1.46-.04 .564 0 1.01 .01 1.35 .03 .212 .202 .433 .393 .655 .585l256 224c6.09 5.31 15.2 5 21-.706h0c6.29-6.29 5.94-16.6-.776-22.4z"/></svg>