<svg xmlns="http://www.w3.org/2000/svg" viewBox="0 0 577 512"><path d="M525.206 507.124c6.603-6.908 10.464-16.254 10.464-27.327 0-5.384-1.829-23.772-35.962-61.257-2.743-2.845-7.213-2.946-10.159-.305l-.305.305c-34.133 37.587-35.962 55.873-35.962 61.257 0 10.971 3.86 20.419 10.464 27.327-31.39-10.768-51.606-39.213-51.606-80.762 0-33.32 31.898-88.889 77.51-131.759 2.642-2.54 6.807-2.54 9.55 0 45.41 42.768 77.511 98.337 77.511 131.759.102 41.65-20.114 69.994-51.505 80.762zm-142.933-80.762c0-27.53 14.019-57.295 25.803-77.41 15.543-26.615 37.283-53.638 61.156-76.19 14.222-13.41 36.47-13.41 50.692 0 5.08 4.775 9.955 9.752 14.831 14.933h9.956c17.473.203 31.797-13.917 32-31.39v-.711a32.209 32.209 0 00-9.956-23.975L310.35 8.025C303.441 1.015 295.416 0 288.406 0s-15.035 1.016-22.044 8.025l-85.943 74.87c-1.727 22.756-10.768 44.394-25.803 61.562-6.197 7.416-11.175 15.645-15.035 24.483v25.193h-.102V195.861c-.304 7.72-2.64 15.237-6.603 21.942l-.305.61-7.72 11.58c-7.822 11.683-22.35 19.505-36.368 19.505H62.07c-14.02 0-28.648-7.822-36.368-19.504l-5.08-7.721-10.666 9.346C3.454 237.917-.204 246.552 0 255.594c-.203 17.473 13.816 31.898 31.289 32.101H64v184.28C64 494.019 81.88 512 104.025 512h80.051c22.045 0 40.026-17.88 40.026-40.025V384c0-17.676 14.323-32 32-32h64.71c17.677 0 32 14.324 32 32v87.975c0 22.044 17.88 40.025 40.026 40.025h22.654l-1.524-1.524c-20.724-20.927-31.695-50.082-31.695-84.114zM41.143 178.184h68.571v16.457c-.101 2.642-.914 5.283-2.336 7.62l-7.315 10.97c-2.742 3.658-6.907 5.893-11.377 6.096H62.273c-4.47-.305-8.737-2.54-11.378-6.095l-7.314-10.972c-1.422-2.235-2.235-4.876-2.337-7.619v-16.457zM150.756 74.971c0 18.286-6.604 35.86-18.693 49.575-7.11 8.127-18.184 24.99-22.349 39.213v.304H41.041v-.304c-4.266-14.222-15.238-31.086-22.349-39.213C-8.635 93.46-5.588 46.019 25.6 18.59 39.314 6.603 56.99 0 75.175 0c41.65-.102 75.58 33.625 75.58 74.971z"/></svg>