<svg xmlns="http://www.w3.org/2000/svg" viewBox="0 0 481 512"><path d="M271 288c0-5.68 .498-11.4 1.49-17.4l0-.199c8.47-47.7 49.9-82.4 98.4-82.4c5.48 0 11.1 .498 16.4 1.39C385 84.5 299 0 194 0C87 0 .438 86.6 .438 193s86.6 193 193 193c13 0 25.7-1.29 38.1-3.79c1.39-24.4 17.1-44.9 38.8-53.5V288zM245 242c-2.79 15.1-13.1 25-25.6 30.2c-5.58 2.19-11.5 3.59-17.3 4.28v13c.199 6.77-5.08 12.7-12 12.9c-6.77 .199-12.7-5.08-12.9-12c0-.1 0-.299 0-.398v-14.1c-.199 0-.398-.398-.598-.1h-.1c-9.46-1.39-25.1-5.48-35.7-10.2c-6.38-2.79-9.26-10.2-6.38-16.4c2.59-6.18 9.86-8.87 16-6.28h.1c9.56 3.69 19.5 6.57 29.6 8.37c12.4 1.89 22.7 .797 29.6-2.09c6.57-2.79 9.56-6.57 10.5-11.3c.697-4.18 .1-6.57-.598-7.97c-1.2-2.19-2.99-3.98-5.08-5.28c-6.38-4.18-15.9-6.87-28.5-10.4l-1.1-.299c-11.1-3.09-24.6-6.67-34.7-13.3c-5.88-3.69-10.8-9.06-13.8-15.4c-3.19-6.87-3.98-14.7-2.39-23c2.79-15.1 13.6-24.8 26.4-29.7c5.28-1.99 10.8-3.29 16.3-3.98v-13.4c0-6.87 5.58-12.6 12.6-12.6c6.87 0 12.6 5.58 12.6 12.6v13.8l1.89 .199c4.18 .697 16.4 2.49 21.5 3.88c6.57 1.89 10.6 8.47 8.96 15.1c-1.69 6.67-8.47 10.7-15.1 8.96c-3.59-1.29-14.5-2.79-19-3.39c-12.6-1.89-23.2-.996-30.6 1.89c-7.17 2.79-10.1 6.57-10.9 10.9c-.797 4.28-.1 6.47 .598 7.97c1.2 2.19 2.99 4.08 5.08 5.28c6.38 4.08 15.9 6.87 28.5 10.4l1.1 .299c11.1 3.09 24.6 6.67 34.7 13.3c5.88 3.69 10.8 9.06 13.8 15.4C246 226 247 234 245 242zM448 355H332V329v-40.5c0-21.5 17.4-38.9 38.9-38.9c1.1 0 2.29 .1 3.39 .199c1.59 .1 3.09 .398 4.58 .697c17.8 3.69 31 19.5 31 38.1v17.1H441v-17.1c0-33.2-23.2-61.8-55.5-68.6c-.797-.199-1.59-.299-2.39-.498c-38.1-6.77-74.5 18.6-81.3 56.7c-.697 4.08-1.1 8.17-1.1 12.4v66.3v.697h-.996h-6.77c-12.6 0-23.4 7.47-28.3 18.1c-1.79 3.98-2.89 8.37-2.89 13v93.5c0 17.2 13.9 31.2 31.2 31.2h156c17.2 0 31.2-13.9 31.2-31.2v-93.5C480 369 466 355 448 355zM386 449c-.299 8.37-6.97 15-15.2 15.2c-8.57 .199-15.7-6.67-15.9-15.2v-31.1c0-.299 0-.498 0-.797c.199-8.67 7.37-15.4 15.9-15.2c8.67 .199 15.4 7.37 15.2 15.9V449z"/></svg>