<svg xmlns="http://www.w3.org/2000/svg" viewBox="0 0 482 512"><path d="M246 243c-2.79 15.2-13.2 25.1-25.6 30.2c-5.59 2.2-11.5 3.59-17.4 4.29v13.1c.2 6.79-5.09 12.7-12 13c-6.79 .2-12.7-5.09-13-12c0-.1 0-.299 0-.399v-14.2c-.2 0-.399-.399-.599-.1h-.1c-9.48-1.4-25.2-5.49-35.7-10.2c-6.39-2.79-9.28-10.2-6.39-16.5c2.59-6.19 9.88-8.88 16.1-6.29h.1c9.58 3.69 19.6 6.59 29.6 8.38c12.4 1.9 22.8 .798 29.6-2.1c6.59-2.79 9.58-6.59 10.5-11.3c.699-4.19 .1-6.59-.599-7.98c-1.2-2.2-2.99-3.99-5.09-5.29c-6.39-4.19-16-6.89-28.5-10.4l-1.1-.299c-11.1-3.09-24.7-6.69-34.7-13.4c-5.89-3.69-10.8-9.08-13.9-15.5c-3.19-6.89-3.99-14.8-2.4-23.1c2.79-15.2 13.7-24.9 26.4-29.7c5.29-2 10.8-3.29 16.4-3.99v-13.9c0-6.89 5.59-12.6 12.6-12.6c6.89 0 12.6 5.59 12.6 12.6v13.9l1.9 .2c4.19 .699 16.5 2.5 21.6 3.89c6.59 1.9 10.6 8.48 8.98 15.2c-1.7 6.69-8.48 10.7-15.2 8.98c-3.59-1.3-14.6-2.79-19.1-3.39c-12.6-1.9-23.3-.998-30.6 1.9c-7.19 2.79-10.1 6.59-10.9 10.9c-.798 4.29-.1 6.49 .599 7.98c1.2 2.2 2.99 4.09 5.09 5.29c6.39 4.09 16 6.89 28.5 10.4l1.1 .299c11.1 3.09 24.7 6.69 34.7 13.4c5.89 3.69 10.8 9.08 13.9 15.5C246 227 247 235 246 243zM237 352c-13.9 3.79-28.3 5.69-43.1 5.69c-43.7 0-84.8-17.1-116-48S30.4 237 30.4 194s17.1-84.8 48-116s72.1-48 116-48s84.8 17.1 116 48c26.2 26.2 42.4 59.8 46.8 96c5.39-.898 10.9-1.4 16.6-1.4c4.49 0 8.98 .299 13.5 .898C377 76 294 0 194 0C87.2 0 .47 86.7 .47 194s86.7 194 194 194c13.7 0 27-1.4 40-4.09v-12.1C234 364 235 358 237 352zM449 356h-7.78h-31.2h-78v-12.6v-48.9v-5.59c0-13.3 6.59-25 16.7-32c6.29-4.39 14-6.99 22.4-6.99c1.1 0 2.3 .1 3.39 .2c2.3 .2 4.49 .599 6.59 1.2c16.9 4.49 29 19.8 29 37.6v17.2h31.2v-17.2c0-33.3-23.6-62.1-56.1-68.9c-.599-.1-1.3-.299-1.9-.399c-4.19-.699-8.28-1.1-12.4-1.1c-5.39 0-10.7 .599-15.8 1.8c-26.5 6.19-48.3 27.5-53.4 56.1c-.699 4.09-1.1 8.18-1.1 12.4v43.2v24h-7.78c-17.3 0-31.2 14-31.2 31.2v3.19v90.5c0 17.3 14 31.2 31.2 31.2h156c17.3 0 31.2-14 31.2-31.2v-93.7C481 370 467 356 449 356zM451 387L451 387v93.8c0 .699-.599 1.3-1.3 1.3H293c-.699 0-1.3-.599-1.3-1.3v-93.7c0-.699 .599-1.3 1.3-1.3h7.78h29.9h1.3h78h31.2h7.68C450 386 451 386 451 387L451 387zM372 402c-8.58-.2-15.8 6.59-16 15.3c0 .299 0 .499 0 .798v31.1c.2 8.58 7.39 15.5 16 15.3c8.28-.2 15-6.89 15.3-15.3v-31.2C387 410 381 403 372 402z"/></svg>