<svg xmlns="http://www.w3.org/2000/svg" viewBox="0 0 481 512"><path d="M243 429c8.65 5.29 17.9 9.98 27.5 13.7c-26.4 42.9-73.2 69.4-124 69.4c0 0 0 0 0 0C65.5 512 .277 446 .277 366C.277 285 146 87.7 146 87.7s23 31.2 50.8 73.9c-6.11 11.9-11.5 23.1-16.1 33.7c-11.5-18.2-29.8-47.6-34.6-54.7c-13.2 19.2-30.2 44.7-47 72.3c-61.5 100-68.2 140-68.2 153c0 30.7 12 59.8 33.8 81.5s50.7 33.8 81.5 33.8c21.7 0 42.9-6.11 61.2-17.6C214 459 231 443 243 429zM335 52.9c-13.2 19.2-30.2 44.7-47 72.3c-61.5 100-68.2 140-68.2 153c0 30.8 12 59.8 33.8 81.5c21.8 21.8 50.7 33.8 81.5 33.8c30.8 0 59.8-12 81.5-33.8c21.8-21.8 33.8-50.7 33.8-81.5c0-12.5-6.62-52.6-68.4-153C365 97.4 348 72.1 335 52.9M335 0c0 0 146 198 146 278c0 80.5-65.2 146-146 146c0 0 0 0 0 0c-80.5 0-146-65.2-146-146c0 0 0 0 0 0C189 198 335 0 335 0L335 0zM160 438c0-7.63-6.21-13.8-13.8-13.8c-34.6 0-62.8-28.2-62.8-62.8c0-7.63-6.21-13.8-13.8-13.8s-13.8 6.21-13.8 13.8c0 49.9 40.5 90.4 90.4 90.4h0C154 452 160 446 160 438z"/></svg>