<svg xmlns="http://www.w3.org/2000/svg" viewBox="0 0 639 512"><path d="M447 160h63.9c17.6 0 31.9-14.3 31.9-31.9V63.9c0-17.6-14.3-31.9-31.9-31.9h-63.9c-17.6 0-31.9 14.3-31.9 31.9v63.9c0 17.7 14.3 31.9 31.9 31.9zm0-95.8h63.9v63.9h-63.9V63.9zM224 319h128c17.6 0 31.9-14.3 31.9-31.9V63.9c0-17.6-14.3-31.9-31.9-31.9H224c-17.7 0-31.9 14.3-31.9 31.9v224c0 17.7 14.3 31.9 31.9 31.9zm0-256h128v224H224V63.9zm224 256h128c17.6 0 31.9-14.3 31.9-31.9v-63.9c0-17.6-14.3-31.9-31.9-31.9h-128c-17.6 0-31.9 14.3-31.9 31.9v63.9c0 17.7 14.3 31.9 31.9 31.9zm0-95.8h128v63.9h-128v-63.9zm176 160H128V47.9C128 21.4 106 0 80 0H16.1C7.27 0 .124 7.15 .124 16s7.15 16 16 16H80c8.82 0 16 7.15 16 16V383c0 17.6 14.3 31.9 31.9 31.9h24.8c-8.38 14.4-11.8 32.1-5.85 51.1 7.02 22.4 26.8 39.9 49.9 43.8 40.1 6.7 74.8-24.1 74.8-63 0-11.7-3.37-22.5-8.86-31.9h177c-5.51 9.38-8.9 20.3-8.9 31.9 0 38.8 34.7 69.6 74.8 63 23.1-3.81 42.9-21.4 49.9-43.8 5.12-19.1 2.53-36.8-5.86-51.2h72.8c8.82 0 16-7.15 16-16s-7.19-16-16-16zm-415 95.8c-17.6 0-31.9-14.3-31.9-31.9s14.3-31.9 31.9-31.9 31.9 14.3 31.9 31.9-14.4 31.9-31.9 31.9zm287 0c-17.6 0-31.9-14.3-31.9-31.9s14.3-31.9 31.9-31.9 31.9 14.3 31.9 31.9-14.4 31.9-31.9 31.9z"/></svg>