<svg xmlns="http://www.w3.org/2000/svg" viewBox="0 0 640 512"><path d="M448 160h64c17.6 0 32-14.4 32-32V64c0-17.6-14.4-32-32-32h-64c-17.6 0-32 14.4-32 32v64c0 17.6 14.4 32 32 32zm0 160h128c17.6 0 32-14.4 32-32v-64c0-17.6-14.4-32-32-32h-128c-17.6 0-32 14.4-32 32v64c0 17.6 14.4 32 32 32zm-224 0h128c17.6 0 32-14.4 32-32V64c0-17.6-14.4-32-32-32H224c-17.6 0-32 14.4-32 32v224c0 17.6 14.4 32 32 32zm416 95.1c0 17.6-14.4 32-32 31.1h-66.9c1.79 5.03 2.91 10.4 2.91 16 0 26.5-21.5 48-48 48s-48-21.5-48-48c0-5.64 1.14-11 2.93-16H253c1.8 6.8 2.9 12.2 2.9 17.8 0 26.5-21.5 48-48 48s-48-21.5-48-48c0-5.64 1.13-11 2.92-16H96c-17.6 0-32-14.4-32-32.9V80c0-8.84-7.16-16-16-16H31.1C14.4 64 0 49.6 0 32S14.4 0 31.1 0h32.9c35.2 0 64 28.8 64 64V384h480c17.6 0 32 14.4 32 31.1z"/></svg>