<svg xmlns="http://www.w3.org/2000/svg" viewBox="0 0 474 512"><path d="M393 30.2c27.6 0 50.1 22.5 50.1 50.1V431c0 27.6-22.5 50.1-50.1 50.1H80.4c-27.6 0-50.1-22.5-50.1-50.1V80.3c0-27.6 22.5-50.1 50.1-50.1H393m0-30.2H80.4C36 0 .112 35.9 .112 80.3V431c0 44.3 35.9 80.3 80.3 80.3H393c44.3 0 80.3-35.9 80.3-80.3V80.3C474 35.9 438 0 393 0h0zM150 92.3h-40.2V229h40.2V92.3zm214 0h-40.2V229h40.2V92.3zm-24.1 277h0c0-27.3-22.2-49.5-49.5-49.5h-107c-27.3 0-49.5 22.2-49.5 49.5h0c0 27.3 22.2 49.5 49.5 49.5h107c27.3 0 49.5-22.2 49.5-49.5z"/></svg>